<?xml version="1.0" standalone="no"?>
<!DOCTYPE svg PUBLIC "-//W3C//DTD SVG 1.1//EN" "http://www.w3.org/Graphics/SVG/1.1/DTD/svg11.dtd" >
<svg>
<metadata>
Created by FontForge 20130207 at Mon Jun  8 12:39:08 2015
 By Csorba Mátyás
Copyright (c) 2006 by URW. All rights reserved.
</metadata>
<defs>
<font id="TcomGrotesk-Bold" horiz-adv-x="1024" >
  <font-face 
    font-family="TcomGrotesk-Bold"
    font-weight="700"
    font-stretch="normal"
    units-per-em="2048"
    panose-1="2 0 0 0 0 0 0 0 0 0"
    ascent="1434"
    descent="-614"
    x-height="942"
    cap-height="1366"
    bbox="-168 -512 2506 1827.02"
    underline-thickness="172"
    underline-position="-110"
    unicode-range="U+0020-FB02"
  />
<missing-glyph horiz-adv-x="395" 
 />
    <glyph glyph-name=".notdef" horiz-adv-x="395" 
 />
    <glyph glyph-name=".null" horiz-adv-x="0" 
 />
    <glyph glyph-name="nonmarkingreturn" horiz-adv-x="681" 
 />
    <glyph glyph-name="space" unicode=" " horiz-adv-x="395" 
 />
    <glyph glyph-name="exclam" unicode="!" horiz-adv-x="561" 
d="M158 246h245v-246h-245v246zM174 1366h213v-393l-55 -596h-107l-51 594v395z" />
    <glyph glyph-name="quotedbl" unicode="&#x22;" horiz-adv-x="704" 
d="M629 1366l-35 -520h-152l-34 520h221zM297 1366l-35 -520h-151l-35 520h221z" />
    <glyph glyph-name="numbersign" unicode="#" horiz-adv-x="1228" 
d="M694 584l31 221h-186l-31 -221h186zM133 436v148h207l31 221h-187v147h207l49 344h168l-49 -344h186l50 344h168l-50 -344h189v-147h-209l-31 -221h189v-148h-209l-51 -368h-168l51 368h-189l-51 -368h-168l51 368h-184z" />
    <glyph glyph-name="dollar" unicode="$" horiz-adv-x="1048" 
d="M301 1022q0 -108 133 -188v331q-133 -35 -133 -143zM768 369q0 129 -172 213v-394q55 8 94 35q78 53 78 146zM434 1448h162v-98q121 -18 201 -76q129 -90 141 -270h-211q-10 72 -42 108t-89 49v-383q137 -53 215 -102q178 -119 178 -301q0 -121 -76 -215
q-106 -129 -317 -150v-92h-162v98q-117 18 -194 76q-154 111 -166 326h227q6 -160 133 -215v432q-121 47 -192 102q-145 115 -146 285q0 121 78 209q96 103 260 121v96z" />
    <glyph glyph-name="percent" unicode="%" horiz-adv-x="1751" 
d="M1380 698q-82 0 -132 -78t-50 -207q0 -128 47 -212q27 -43 66 -61t71 -19q74 0 121 65q59 84 59 222t-50 214t-132 76zM1380 838q146 0 244 -116t98 -297t-77 -300q-95 -143 -265 -143t-268 145q-74 115 -74 297t98 298t244 116zM1239 1366l-584 -1366h-143l588 1366h139
zM553 951q0 138 -50 215t-131 77t-132 -78q-52 -79 -52 -207q-1 -208 115 -276q37 -16 70 -16q76 0 123 65q57 82 57 220zM370 1382q148 0 245 -116t97 -298q0 -184 -75 -296q-96 -146 -266 -146t-267 148q-76 113 -76 295q0 181 98 297q96 116 244 116z" />
    <glyph glyph-name="ampersand" unicode="&#x26;" horiz-adv-x="1071" 
d="M600 1106q0 53 -31 93t-79 40t-86 -36t-37 -99q0 -105 86 -236q147 115 147 238zM490 125q96 0 182 88l-264 401q-135 -131 -136 -282q0 -94 62 -154q60 -53 156 -53zM168 1105q0 144 119 226q87 63 211 63t204 -79q80 -80 80 -201q0 -147 -153 -305l-84 -76l223 -334
q20 82 23 168h196q-18 -207 -98 -350l143 -217h-221l-45 70q-125 -98 -298 -98t-287 102t-113 266q0 219 243 420q-2 4 -7 11q-136 190 -136 334z" />
    <glyph glyph-name="quotesingle" unicode="'" horiz-adv-x="372" 
d="M297 1366l-35 -520h-151l-35 520h221z" />
    <glyph glyph-name="parenleft" unicode="(" horiz-adv-x="557" 
d="M68 508q0 381 188 772q26 51 49 86h164l-10 -20q-185 -383 -185 -836t187 -844l8 -20h-164q-109 209 -155 346q-82 246 -82 516z" />
    <glyph glyph-name="parenright" unicode=")" horiz-adv-x="557" 
d="M254 1366q236 -394 235 -872q0 -256 -81 -502q-45 -135 -154 -346h-166l6 12q188 406 189 842q0 293 -80 573q-37 129 -113 293h164z" />
    <glyph glyph-name="asterisk" unicode="*" horiz-adv-x="819" 
d="M682 1210l39 -108l-221 -72l137 -184l-90 -70l-139 191l-140 -191l-92 70l141 184l-219 72l35 108l219 -80l-2 236h119l-4 -236z" />
    <glyph glyph-name="plus" unicode="+" 
d="M41 596v180h381v354h180v-354h381v-174h-381v-354h-186v348h-375z" />
    <glyph glyph-name="comma" unicode="," horiz-adv-x="503" 
d="M129 246h246v-170q0 -125 -29 -199q-53 -127 -217 -164v119q109 29 111 168h-111v246z" />
    <glyph glyph-name="hyphen" unicode="-" horiz-adv-x="432" 
d="M6 610h420v-196h-420v196z" />
    <glyph glyph-name="hyphen" unicode="&#xad;" horiz-adv-x="432" 
d="M6 610h420v-196h-420v196z" />
    <glyph glyph-name="period" unicode="." horiz-adv-x="503" 
d="M129 246h246v-246h-246v246z" />
    <glyph glyph-name="slash" unicode="/" horiz-adv-x="745" 
d="M676 1366l-549 -1720h-172l551 1720h170z" />
    <glyph glyph-name="zero" unicode="0" horiz-adv-x="966" 
d="M674 688q0 246 -40 383t-151 137t-157 -153q-33 -113 -33 -379t44 -393t148 -127q113 0 154 157q35 129 35 375zM481 1395q399 0 399 -711t-395 -713q-399 0 -399 715q0 354 98 526q109 183 297 183z" />
    <glyph glyph-name="one" unicode="1" horiz-adv-x="966" 
d="M608 0h-209v1004q-45 -38 -94 -50t-133 -12v168q147 6 211 80q43 45 68 176h157v-1366z" />
    <glyph glyph-name="two" unicode="2" horiz-adv-x="966" 
d="M877 184v-184h-814q1 194 49 310t167 222q53 47 198 150q199 135 199 317q0 82 -37 134q-55 81 -166 81t-162 -106q-31 -59 -30 -143h-205q8 186 100 299q115 133 303 133q129 0 238 -66q174 -104 174 -334q0 -195 -150 -338q-66 -66 -219 -170q-154 -103 -196 -169
t-54 -136h605z" />
    <glyph glyph-name="three" unicode="3" horiz-adv-x="966" 
d="M469 1407q170 -1 268 -105t99 -262q0 -207 -168 -288q86 -27 141 -103q72 -94 72 -239q0 -193 -119 -310t-297 -116q-248 0 -350 202q-45 92 -45 207v27h198q10 -252 201 -252q88 0 143 62q56 62 56 185q0 122 -58 180t-157 58q-12 0 -66 -4v168q105 0 155 24
q87 41 89 183q0 109 -66 164q-45 35 -102 35q-164 -1 -170 -224h-197q2 150 66 246q100 162 307 162z" />
    <glyph glyph-name="four" unicode="4" horiz-adv-x="966" 
d="M543 514v541l-299 -541h299zM741 0h-198v336h-473v211l479 819h192v-852h140v-178h-140v-336z" />
    <glyph glyph-name="five" unicode="5" horiz-adv-x="966" 
d="M664 446q0 122 -46 199q-50 94 -160 94t-177 -118l-179 6l105 739h596v-190h-443l-49 -349q79 84 219 84q140 -1 244 -123t103 -331q0 -209 -115 -348q-117 -137 -305 -138q-117 0 -211 56q-170 98 -176 315h202q8 -72 53 -130t145 -56q100 0 147 84t47 206z" />
    <glyph glyph-name="six" unicode="6" horiz-adv-x="966" 
d="M496 727q-59 0 -105 -45q-76 -74 -76 -238q0 -108 45 -198q46 -90 138 -90t135 87t43 197t-45 199q-45 88 -135 88zM512 1219q-195 0 -219 -459q92 143 247 143t252 -129q97 -128 97 -322t-96 -327q-111 -154 -299 -154t-289 164q-115 185 -115 521t109 538t323 201
q117 0 199 -64q127 -92 141 -278h-198q-25 166 -152 166z" />
    <glyph glyph-name="seven" unicode="7" horiz-adv-x="966" 
d="M111 1163v203h770v-186q-147 -172 -267 -498t-135 -682h-223q4 188 88 488t260 569q35 57 78 106h-571z" />
    <glyph glyph-name="eight" unicode="8" horiz-adv-x="966" 
d="M486 649q-89 1 -141 -69t-52 -184t52 -181t146 -67q95 0 139 71q44 72 44 175t-50 179t-138 76zM484 809q74 0 117 55q44 54 44 150t-44 150t-120 53q-76 1 -119 -55t-43 -144t48 -154q43 -55 117 -55zM123 1054q0 146 99 243t262 97q162 0 260 -96q98 -98 98 -250
q0 -221 -166 -313q63 -27 104 -63q106 -100 106 -280t-95 -292q-115 -129 -303 -129t-304 115q-104 111 -104 283q0 275 209 366q-66 37 -96 78q-70 95 -70 241z" />
    <glyph glyph-name="nine" unicode="9" horiz-adv-x="966" 
d="M469 1210q-90 0 -134 -84t-44 -194t44 -202q44 -91 137 -91t140 98q39 76 39 190t-43 189q-49 94 -139 94zM457 147q188 0 217 459q-96 -141 -248 -141t-254 129q-94 124 -94 320t94 327q114 154 300 154t296 -174q110 -173 109 -511q0 -338 -105 -530
q-113 -209 -328 -209q-117 0 -200 64q-122 91 -142 284h201q25 -172 154 -172z" />
    <glyph glyph-name="colon" unicode=":" horiz-adv-x="503" 
d="M129 246h246v-246h-246v246zM129 942h246v-246h-246v246z" />
    <glyph glyph-name="semicolon" unicode=";" horiz-adv-x="503" 
d="M129 942h246v-246h-246v246zM129 246h246v-170q0 -125 -29 -199q-53 -127 -217 -164v119q109 29 111 168h-111v246z" />
    <glyph glyph-name="less" unicode="&#x3c;" 
d="M68 776l886 438v-219l-653 -313l653 -311v-219l-886 438v186z" />
    <glyph glyph-name="equal" unicode="=" 
d="M41 432v172h942v-172h-942zM41 774v172h942v-172h-942z" />
    <glyph glyph-name="greater" unicode="&#x3e;" 
d="M70 995v219l886 -438v-186l-886 -438v219l653 311z" />
    <glyph glyph-name="question" unicode="?" horiz-adv-x="917" 
d="M336 246h246v-246h-246v246zM96 961v22q10 180 90 283q104 131 276 131q172 -1 278 -107q105 -106 106 -270q0 -115 -60 -215q-29 -49 -61 -82l-74 -76q-88 -88 -94 -196q-2 -10 -2 -52v-24h-182q3 200 55 279q26 39 94 120q70 78 92 130t21 121q0 69 -44 125t-126 56
q-166 1 -174 -245h-195z" />
    <glyph glyph-name="at" unicode="@" horiz-adv-x="1501" 
d="M795 877q-84 0 -140 -82q-49 -78 -49 -161t31 -133t90 -50q90 0 141 94q43 74 43 162q1 88 -31 129t-85 41zM1030 502q0 -43 35 -43q74 0 141 71q121 125 121 318q0 194 -139 310t-340 116q-256 0 -441 -191t-186 -487q0 -224 131 -366t376 -142t456 109l14 6l43 -119
q-47 -23 -55 -27q-203 -90 -457 -90q-315 0 -487 173t-172 452q0 228 114 424t314 295q170 86 350 86q252 0 420 -144q186 -156 186 -407q0 -170 -90 -314q-74 -110 -158 -152t-153 -42q-104 0 -142 82q-45 -41 -71 -60q-57 -33 -127 -32q-117 0 -183 84t-65 224
q0 140 91 254t216 114t186 -91l13 68h149l-80 -399q-10 -78 -10 -80z" />
    <glyph glyph-name="A" unicode="A" horiz-adv-x="1134" 
d="M565 1098l-164 -551h326zM10 0l441 1366h233l438 -1366h-235l-107 367h-432l-106 -367h-232z" />
    <glyph glyph-name="B" unicode="B" horiz-adv-x="1142" 
d="M350 623v-435h215q147 0 201 37q80 57 80 183q0 82 -40 140t-132 70q-49 4 -127 5h-197zM350 1178v-381h189q113 0 161 19t78 83q16 43 17 86q0 133 -93 174q-37 18 -155 19h-197zM125 0v1366h455q145 0 221 -25q123 -41 174 -137q43 -78 43 -170q0 -129 -84 -223
q-39 -41 -111 -76q246 -72 246 -334q1 -131 -71 -241q-105 -161 -359 -160h-514z" />
    <glyph glyph-name="C" unicode="C" horiz-adv-x="1179" 
d="M622 -33q-246 0 -389 180q-160 203 -159 533q0 283 129 479q154 238 426 238q242 0 387 -201q84 -115 96 -268h-221q-18 113 -70 176q-76 100 -198 100q-154 0 -234 -137q-90 -158 -90 -385q0 -226 83 -374t236 -148q242 0 281 362h221q-10 -207 -116 -356
q-136 -199 -382 -199z" />
    <glyph glyph-name="D" unicode="D" horiz-adv-x="1196" 
d="M350 1178v-990h174q102 0 158 20t100 71q115 133 115 404t-117 396q-53 55 -110 77t-144 22h-176zM555 0h-430v1366h420q274 0 411 -154q166 -180 166 -520q0 -397 -215 -586q-86 -74 -171 -90t-181 -16z" />
    <glyph glyph-name="E" unicode="E" horiz-adv-x="1038" 
d="M958 0h-833v1366h823v-195h-598v-368h553v-195h-553v-415h608v-193z" />
    <glyph glyph-name="F" unicode="F" horiz-adv-x="968" 
d="M350 0h-225v1366h797v-195h-572v-380h500v-193h-500v-598z" />
    <glyph glyph-name="G" unicode="G" horiz-adv-x="1255" 
d="M1147 729v-729h-172v158q-61 -74 -115 -115q-100 -76 -242 -76q-217 0 -362 158q-182 205 -182 546t174 546q150 180 406 180t397 -221q70 -106 82 -246h-218q-18 109 -71 178q-78 96 -205 96q-158 0 -249 -142t-91 -394q0 -250 111 -396q86 -113 233 -112q197 0 270 205
q27 68 29 180h-301v184h506z" />
    <glyph glyph-name="H" unicode="H" horiz-adv-x="1210" 
d="M350 0h-225v1366h225v-553h510v553h225v-1366h-225v621h-510v-621z" />
    <glyph glyph-name="I" unicode="I" horiz-adv-x="475" 
d="M350 0h-225v1366h225v-1366z" />
    <glyph glyph-name="J" unicode="J" horiz-adv-x="624" 
d="M119 162q121 0 155 114q12 45 17 127v963h225v-874q0 -174 -18 -248q-66 -276 -365 -277q-61 1 -127 15v198q66 -18 113 -18z" />
    <glyph glyph-name="K" unicode="K" horiz-adv-x="1107" 
d="M348 0h-223v1366h223v-582l473 582h262l-477 -565l506 -801h-258l-391 629l-115 -133v-496z" />
    <glyph glyph-name="L" unicode="L" horiz-adv-x="966" 
d="M915 0h-790v1366h225v-1173h565v-193z" />
    <glyph glyph-name="M" unicode="M" horiz-adv-x="1454" 
d="M334 0h-209v1366h301l305 -1065l295 1065h303v-1366h-209v1079l-293 -1079h-188l-305 1067v-1067z" />
    <glyph glyph-name="N" unicode="N" horiz-adv-x="1198" 
d="M334 0h-209v1366h231l508 -1014v1014h209v-1366h-233l-506 1008v-1008z" />
    <glyph glyph-name="O" unicode="O" horiz-adv-x="1259" 
d="M963 684q0 232 -89 376t-241 144t-243 -141t-91 -374t84 -378q43 -78 113 -115q163 -87 307 23q82 66 121 195t39 270zM74 704q0 307 158 500t398 193q241 0 394 -187q164 -205 164 -508t-127 -497q-78 -117 -189 -177t-239 -61q-281 0 -436 242q-123 188 -123 495z" />
    <glyph glyph-name="P" unicode="P" horiz-adv-x="1073" 
d="M350 1165v-448h199q129 0 186 57t57 179t-90 182q-49 31 -172 30h-180zM350 0h-225v1366h428q143 0 225 -29q127 -47 191 -168q49 -92 49 -221q0 -223 -139 -338q-59 -47 -136 -69q-70 -16 -163 -17h-230v-524z" />
    <glyph glyph-name="Q" unicode="Q" horiz-adv-x="1259" 
d="M963 678q0 234 -91 385q-90 141 -240 141t-242 -141q-91 -141 -91 -373t84 -379q43 -82 123 -121q118 -60 258 -6l-146 154l117 115l150 -154q78 145 78 379zM623 -33q-184 0 -322 119q-227 197 -227 596q0 326 156 520t399 195q242 0 395 -187q164 -205 164 -534
q0 -274 -135 -465l-37 -49l147 -156l-121 -119l-151 162q-125 -82 -268 -82z" />
    <glyph glyph-name="R" unicode="R" horiz-adv-x="1202" 
d="M371 1178v-439h196q145 0 199 37q80 58 80 190t-92 183q-53 29 -160 29h-223zM371 0h-226v1366h504q119 0 187 -25q117 -39 176 -135t59 -219q0 -250 -221 -336q88 -25 127 -79t50 -119t22 -195t23 -175q12 -44 42 -83h-237q-17 37 -25 71q-8 33 -13 153t-22 179
q-31 111 -104 142q-53 18 -144 18h-198v-563z" />
    <glyph glyph-name="S" unicode="S" horiz-adv-x="1044" 
d="M524 152q114 0 166 63t53 139q0 115 -106 183q-53 33 -203 95t-233 140q-103 102 -103 263t123 270q111 92 281 92q236 0 352 -158q68 -86 80 -235h-219q-10 86 -43 129q-51 70 -168 69q-84 0 -136 -44t-52 -129t64 -137q66 -52 197 -106t177 -77q223 -125 223 -353
q0 -164 -120 -276q-119 -112 -343 -113q-224 0 -348 160q-90 115 -98 291h233q4 -106 43 -164q66 -102 180 -102z" />
    <glyph glyph-name="T" unicode="T" horiz-adv-x="1013" 
d="M621 0h-226v1171h-356v195h936v-195h-354v-1171z" />
    <glyph glyph-name="U" unicode="U" horiz-adv-x="1175" 
d="M109 598v768h225v-782q0 -152 14 -211q43 -213 246 -213q162 0 217 139q33 80 33 285v782h223v-772q0 -168 -16 -256q-82 -371 -461 -371q-279 0 -402 205q-51 82 -65 182t-14 244z" />
    <glyph glyph-name="V" unicode="V" horiz-adv-x="1036" 
d="M639 0h-246l-383 1366h238l274 -1100l279 1100h225z" />
    <glyph glyph-name="W" unicode="W" horiz-adv-x="1536" 
d="M547 0h-232l-301 1366h228l196 -1057l217 1057h228l215 -1059l198 1059h226l-310 -1366h-229l-217 1055z" />
    <glyph glyph-name="X" unicode="X" horiz-adv-x="1069" 
d="M252 0h-250l408 709l-379 657h258l250 -481l256 481h243l-374 -657l403 -709h-262l-273 514z" />
    <glyph glyph-name="Y" unicode="Y" horiz-adv-x="1040" 
d="M635 0h-225v545l-428 821h254l290 -598l287 598h246l-424 -823v-543z" />
    <glyph glyph-name="Z" unicode="Z" horiz-adv-x="1050" 
d="M1004 0h-943v186l658 985h-606v195h874v-182l-661 -991h678v-193z" />
    <glyph glyph-name="bracketleft" unicode="[" horiz-adv-x="557" 
d="M127 1366h371v-166h-193v-1390h193v-164h-371v1720z" />
    <glyph glyph-name="backslash" unicode="\" horiz-adv-x="745" 
d="M793 -354h-172l-549 1720h170z" />
    <glyph glyph-name="bracketright" unicode="]" horiz-adv-x="557" 
d="M61 1200v166h369v-1720h-369v164h193v1390h-193z" />
    <glyph glyph-name="asciicircum" unicode="^" 
d="M512 1223l-262 -475h-199l338 622h246l338 -622h-201z" />
    <glyph glyph-name="underscore" unicode="_" 
d="M41 -283v172h942v-172h-942z" />
    <glyph glyph-name="grave" unicode="`" 
d="M453 1092l-185 274h181l169 -274h-165z" />
    <glyph glyph-name="a" unicode="a" horiz-adv-x="948" 
d="M627 379v76q-123 -7 -195 -25t-110 -61q-46 -45 -46 -111t40 -99q40 -34 106 -34q106 0 166 102q39 70 39 152zM782 -25q-66 0 -100 31q-25 27 -41 78q-100 -113 -270 -113q-121 0 -203 64q-100 76 -100 217t110 227q84 66 240 80q82 8 209 10v78q0 168 -166 168
q-150 0 -166 -164h-193q8 147 100 233t278 87q184 0 280 -111q45 -50 52 -120t7 -165v-356q0 -53 8 -67q15 -36 78 -11v-141q-57 -25 -123 -25z" />
    <glyph glyph-name="b" unicode="b" horiz-adv-x="1017" 
d="M529 803q-95 0 -155 -86t-60 -238q0 -151 56 -245t160 -94t160 96q56 98 55 246t-61 235q-60 86 -155 86zM305 0h-188v1366h200v-528q90 133 252 133q113 0 203 -66q178 -127 178 -432q0 -211 -98 -356t-276 -145t-271 134v-106z" />
    <glyph glyph-name="c" unicode="c" horiz-adv-x="921" 
d="M653 647q-25 156 -175 156q-96 0 -150 -96q-56 -88 -56 -239t56 -240t155 -89q153 0 185 195h198q-18 -143 -96 -238q-104 -125 -286 -125t-289 119q-127 138 -127 368t112 372t308 141q194 0 294 -131q61 -78 72 -193h-201z" />
    <glyph glyph-name="d" unicode="d" horiz-adv-x="1017" 
d="M486 803q-97 0 -150 -84q-64 -91 -64 -239t56 -244t161 -96q103 0 159 94t56 246t-60 237q-61 86 -158 86zM901 1366v-1366h-186v106q-97 -135 -273 -135q-176 1 -275 145t-99 366t104 354q105 135 272 135t256 -133v528h201z" />
    <glyph glyph-name="e" unicode="e" horiz-adv-x="944" 
d="M478 815q-108 0 -165 -102q-33 -64 -41 -152h404q-6 78 -35 139q-55 115 -163 115zM486 127q136 0 184 156h188q-14 -78 -55 -142q-109 -170 -312 -170q-203 -1 -313 141t-110 353t112 359t295 147q152 0 254 -101q148 -141 148 -450h-609q2 -86 27 -150
q55 -143 191 -143z" />
    <glyph glyph-name="f" unicode="f" horiz-adv-x="536" 
d="M354 0h-202v786h-134v156h134v129q0 166 49 232q63 94 211 94q43 0 106 -15v-168q-43 14 -72 15q-66 0 -79 -45q-14 -29 -15 -117v-125h154v-156h-152v-786z" />
    <glyph glyph-name="g" unicode="g" horiz-adv-x="997" 
d="M471 801q-86 0 -142 -83q-57 -83 -57 -239t70 -237q55 -66 140 -66q84 0 144 84t60 240t-74 239q-55 62 -141 62zM473 -207q125 0 170 94q41 82 41 211v49q-84 -139 -251 -139t-266 128t-99 348t102 354q104 133 270 133t252 -140v111h189v-764q0 -143 -17 -225
q-66 -307 -398 -307t-368 274h203q25 -127 172 -127z" />
    <glyph glyph-name="h" unicode="h" horiz-adv-x="972" 
d="M317 0h-200v1366h200v-535q92 139 252 140q105 0 183 -56t98 -163q10 -61 10 -146v-606h-201v575q0 111 -22 156q-41 72 -135 72t-148 -96q-24 -43 -30 -97t-7 -155v-455z" />
    <glyph glyph-name="i" unicode="i" horiz-adv-x="442" 
d="M322 0h-201v942h201v-942zM322 1159h-201v207h201v-207z" />
    <glyph glyph-name="j" unicode="j" horiz-adv-x="440" 
d="M319 1159h-200v207h200v-207zM33 -188q63 0 80 65q6 29 6 107v958h200v-932q0 -182 -28 -250q-29 -59 -88 -87q-59 -27 -113 -27t-108 6v166q27 -6 51 -6z" />
    <glyph glyph-name="k" unicode="k" horiz-adv-x="907" 
d="M317 0h-200v1366h200v-764l316 340h233l-334 -348l367 -594h-235l-269 453l-78 -82v-371z" />
    <glyph glyph-name="l" unicode="l" horiz-adv-x="442" 
d="M322 0h-201v1366h201v-1366z" />
    <glyph glyph-name="m" unicode="m" horiz-adv-x="1443" 
d="M317 0h-200v942h188v-115q98 143 258 143t225 -151q98 152 265 152q98 0 170 -53q109 -80 108 -275v-643h-201v580q0 98 -16 141q-27 82 -119 82q-113 0 -153 -121q-16 -49 -17 -176v-506h-200v592q0 119 -29 160q-34 51 -100 51t-115 -51t-57 -138q-6 -43 -7 -108v-506z
" />
    <glyph glyph-name="n" unicode="n" horiz-adv-x="972" 
d="M317 0h-200v942h188v-119q96 147 266 148q109 0 187 -64t96 -178q6 -43 6 -127v-602h-201v549q0 113 -13 156t-47 71t-87 27q-88 0 -139 -70q-37 -47 -47 -125q-8 -41 -9 -135v-473z" />
    <glyph glyph-name="o" unicode="o" horiz-adv-x="985" 
d="M495 803q-99 0 -161 -87t-62 -246t62 -245t158 -86q98 0 153 74q70 90 70 254t-62 250q-59 86 -158 86zM490 971q198 0 314 -135t116 -371t-129 -375q-111 -119 -305 -119q-194 -1 -307 141q-111 142 -111 355t102 350q121 154 320 154z" />
    <glyph glyph-name="p" unicode="p" horiz-adv-x="1017" 
d="M528 803q-102 0 -158 -94t-56 -246t60 -238t157 -86t155 88q58 87 59 235t-57 244t-160 97zM317 -354h-200v1296h188v-106q92 135 270 135q179 1 277 -145t98 -365t-104 -355q-109 -135 -274 -135t-255 133v-458z" />
    <glyph glyph-name="q" unicode="q" horiz-adv-x="1017" 
d="M486 139q98 0 158 86q60 87 60 239t-55 246q-56 94 -160 93q-104 0 -160 -96q-57 -96 -57 -245t64 -239q53 -84 150 -84zM901 -354h-201v458q-90 -133 -256 -133t-272 135q-104 136 -104 356t99 364t275 144t273 -134v106h186v-1296z" />
    <glyph glyph-name="r" unicode="r" horiz-adv-x="622" 
d="M317 0h-200v942h188v-156q86 184 266 185q20 0 41 -2v-205q-45 6 -69 6q-137 0 -195 -135q-31 -74 -31 -254v-381z" />
    <glyph glyph-name="s" unicode="s" horiz-adv-x="849" 
d="M586 256q0 80 -86 121q-23 12 -162 47q-258 61 -258 272q0 121 89 198t239 77q205 0 297 -125q43 -59 51 -146h-201q-18 119 -152 119q-59 0 -98 -31q-39 -30 -39 -84t37 -80t160 -52t182 -62q145 -78 145 -222t-96 -231q-96 -86 -262 -86q-325 0 -364 295h198
q18 -143 166 -143q82 0 118 38t36 95z" />
    <glyph glyph-name="t" unicode="t" horiz-adv-x="546" 
d="M156 786h-138v156h134v117l147 196h55v-313h160v-156h-162v-491q0 -86 13 -107q18 -36 65 -36t84 14v-166q-47 -20 -135 -20q-145 0 -195 88q-29 53 -28 206v512z" />
    <glyph glyph-name="u" unicode="u" horiz-adv-x="972" 
d="M856 942v-942h-188v119q-94 -147 -267 -148q-111 -1 -189 61t-91 181q-8 39 -8 127v602h200v-549q-1 -113 13 -155t48 -71q34 -28 89 -28q86 0 137 70q37 47 47 125q8 41 8 135v473h201z" />
    <glyph glyph-name="v" unicode="v" horiz-adv-x="831" 
d="M530 0h-223l-301 942h217l201 -709l194 709h207z" />
    <glyph glyph-name="w" unicode="w" horiz-adv-x="1243" 
d="M477 0h-207l-260 942h213l158 -688l139 688h203l145 -682l158 682h207l-260 -942h-205l-147 676z" />
    <glyph glyph-name="x" unicode="x" horiz-adv-x="851" 
d="M227 0h-233l309 496l-285 446h240l166 -280l170 280h229l-282 -436l317 -506h-240l-194 340z" />
    <glyph glyph-name="y" unicode="y" horiz-adv-x="849" 
d="M188 -184q61 0 93 65q39 90 47 139l-322 922h219l209 -688l201 688h209l-307 -922q-72 -219 -117 -280q-70 -94 -197 -94q-43 0 -135 10v172q68 -12 100 -12z" />
    <glyph glyph-name="z" unicode="z" horiz-adv-x="823" 
d="M797 0h-746v160l473 614h-440v168h688v-145l-473 -629h498v-168z" />
    <glyph glyph-name="braceleft" unicode="{" horiz-adv-x="557" 
d="M305 262v-287q0 -81 16 -113q26 -52 152 -55h27v-161h-49q-109 0 -152 8q-172 35 -172 278v320q0 90 -29 131q-29 35 -84 47v162q59 12 86 50t27 114v331q1 251 201 272q66 7 123 7h49v-166h-27q-96 0 -129 -27t-36 -60t-3 -77v-293q0 -109 -37 -168q-23 -34 -84 -71
q78 -46 100 -104t21 -138z" />
    <glyph glyph-name="bar" unicode="|" 
d="M401 -342v1708h222v-1708h-222z" />
    <glyph glyph-name="braceright" unicode="}" horiz-adv-x="557" 
d="M254 743v293q0 78 -16 111q-26 53 -154 53h-27v166h52q90 0 145 -10q179 -39 176 -269v-331q0 -76 29 -117q29 -35 86 -47v-162q-55 -12 -85 -49t-30 -129v-320q0 -174 -86 -237q-47 -39 -127 -47q-23 -2 -108 -2h-52v161h29q94 0 129 29q33 29 36 76t3 63v287
q0 90 20 137q25 62 101 105q-65 37 -93 87t-28 152z" />
    <glyph glyph-name="asciitilde" unicode="~" horiz-adv-x="1366" 
d="M479 1505q76 0 205 -61q130 -62 152 -70t59 -8q90 0 170 143l111 -90q-45 -100 -86 -149q-86 -102 -201 -103q-49 1 -105 23t-154 69q-100 47 -160 47t-108 -55q-20 -25 -59 -86l-110 90q37 84 83 144q82 106 203 106z" />
    <glyph glyph-name="nbspace" unicode="&#xa0;" horiz-adv-x="395" 
 />
    <glyph glyph-name="exclamdown" unicode="&#xa1;" horiz-adv-x="561" 
d="M158 942h245v-246h-245v246zM387 -354h-213v393l57 526h107l49 -524v-395z" />
    <glyph glyph-name="cent" unicode="&#xa2;" horiz-adv-x="921" 
d="M258 688q0 -250 145 -317v635q-145 -68 -145 -318zM403 1323h142v-137q111 -18 180 -74q115 -86 129 -246h-201q-18 104 -108 146v-643q100 39 123 182h198q-23 -170 -129 -268q-82 -74 -192 -88v-154h-142v154q-100 14 -172 67q-178 135 -178 427t189 425q71 50 161 68
v141z" />
    <glyph glyph-name="sterling" unicode="&#xa3;" horiz-adv-x="860" 
d="M301 49q-86 0 -215 -76l-92 123q78 63 133 152q76 115 76 239q0 33 -8 68h-191v168h125q-2 6 -7 13q-5 6 -12 18t-14 20q-82 125 -82 250q0 168 123 274q106 94 277 95q264 0 362 -183q49 -86 51 -196h-204q-2 70 -33 121q-54 86 -162 86t-154 -58q-49 -66 -49 -138
t29 -130q18 -45 51 -94l49 -78h295v-168h-235q4 -37 4 -45q0 -72 -27 -131q-45 -98 -168 -211q115 72 183 72q37 0 83 -30t74 -30q84 0 92 144h197q-10 -156 -64 -244q-66 -109 -192 -109q-70 0 -159 39t-136 39z" />
    <glyph glyph-name="currency" unicode="&#xa4;" horiz-adv-x="1366" 
d="M997 754q0 132 -93 222q-93 91 -222 91t-221 -92t-92 -222t92 -223q96 -92 224 -92t220 92t92 224zM684 1247q148 0 287 -96l203 201l108 -111l-199 -201q202 -290 2 -573l203 -203l-110 -110l-201 200q-139 -98 -287 -98t-297 98l-203 -200l-108 110l199 203
q-97 133 -97 283t99 288l-205 203l110 113l203 -203q145 96 293 96z" />
    <glyph glyph-name="yen" unicode="&#xa5;" horiz-adv-x="1040" 
d="M627 272v-272h-209v272h-240v146h240v100h-240v146h238l-369 702h244l235 -483l234 483h233l-362 -702h231v-146h-235v-100h235v-146h-235z" />
    <glyph glyph-name="brokenbar" unicode="&#xa6;" 
d="M401 -342v655h222v-655h-222zM401 668v698h222v-698h-222z" />
    <glyph glyph-name="section" unicode="&#xa7;" horiz-adv-x="974" 
d="M246 642q0 -89 60 -138t198 -142q28 -16 68 -47t59 -39q33 14 63 60t31 110q0 66 -70 122t-249 169l-66 45q-94 -51 -94 -140zM494 1225q-54 0 -94 -35t-40 -95q0 -59 31 -97t179 -133t212 -148q123 -105 123 -245q0 -209 -170 -298q29 -29 49 -57q41 -70 41 -162
q0 -145 -95 -235q-96 -90 -242 -89q-146 0 -243 91t-100 264h185q14 -178 164 -179q72 -1 106 45t33 96q0 50 -32 97q-31 47 -223 170t-241 184q-67 88 -67 220t90 219q35 33 82 51q-72 91 -72 205t74 196q92 106 252 107q119 0 202 -66q61 -47 89 -126t32 -148h-182
q-8 168 -143 168z" />
    <glyph glyph-name="dieresis" unicode="&#xa8;" 
d="M254 1311h190v-205h-190v205zM578 1311h192v-205h-192v205z" />
    <glyph glyph-name="copyright" unicode="&#xa9;" horiz-adv-x="1411" 
d="M726 1386q172 0 320 -107t230 -280q68 -152 67 -317q0 -285 -184 -494q-184 -208 -453 -208t-450 204q-88 96 -138 226t-50 270q0 205 100 379q86 159 236 243t322 84zM715 1268q-219 0 -369 -168q-153 -166 -153 -440q-1 -142 77 -286t209 -216q106 -59 226 -60
q219 0 367 173t148 413t-151 414q-66 76 -157 123t-197 47zM707 256q-149 0 -243 114t-95 296q0 182 88 313t246 131t247 -121q53 -74 62 -178h-158q-27 162 -147 162q-82 0 -130 -82q-49 -82 -49 -210t52 -212q43 -76 125 -76q133 0 153 211h158q-8 -143 -74 -229
q-86 -119 -235 -119z" />
    <glyph glyph-name="ordfeminine" unicode="&#xaa;" horiz-adv-x="559" 
d="M176 709q0 -63 72 -64q54 0 80 44t26 91v29q-178 -6 -178 -100zM451 532q-53 0 -78 52q-68 -56 -149 -56t-139 45t-58 134t69 141q51 39 150 49l108 6v33q0 82 -84 82q-49 0 -69 -31q-12 -16 -17 -63h-139q12 213 231 213q123 0 181 -70q31 -33 37 -90q2 -14 2 -84v-207
q0 -31 7 -34q20 -9 44 12v-107q-43 -25 -96 -25z" />
    <glyph glyph-name="guillemotleft" unicode="&#xab;" horiz-adv-x="768" 
d="M88 614l262 244v-205l-155 -139l155 -143v-209l-262 248v204zM401 614l261 244v-207l-152 -139l152 -141v-207l-261 242v208z" />
    <glyph glyph-name="logicalnot" unicode="&#xac;" 
d="M954 0h-213v387h-673v193h886v-580z" />
    <glyph glyph-name="registered" unicode="&#xae;" horiz-adv-x="1411" 
d="M584 954v-225h102q80 0 109 19q43 26 43 96t-50 96q-23 14 -88 14h-116zM584 272h-160v820h311q119 0 191 -60t72 -182t-107 -184q53 -35 71 -82t25 -183q6 -82 43 -129h-170q-14 28 -19 46t-11 119t-34 132t-110 31h-102v-328zM726 1386q172 0 320 -107t230 -280
q68 -152 67 -317q0 -285 -184 -494q-184 -208 -453 -208t-450 204q-88 96 -138 226t-50 270q0 205 100 379q86 159 236 243t322 84zM715 1268q-219 0 -369 -168q-153 -166 -153 -440q-1 -142 77 -286t209 -216q106 -59 226 -60q219 0 367 173t148 413t-151 414
q-66 76 -157 123t-197 47z" />
    <glyph glyph-name="macron" unicode="&#xaf;" 
d="M41 1475v174h942v-174h-942z" />
    <glyph glyph-name="degree" unicode="&#xb0;" 
d="M512 1235q-66 0 -114 -48t-48 -116t47 -118t115 -50t117 49q47 51 47 119t-49 116t-115 48zM511 1366q124 0 213 -86t89 -209t-87 -210t-213 -87t-214 87t-88 211t88 206q88 88 212 88z" />
    <glyph glyph-name="plusminus" unicode="&#xb1;" 
d="M41 0v172h942v-172h-942zM41 623v180h381v354h180v-354h381v-172h-381v-355h-186v347h-375z" />
    <glyph glyph-name="twosuperior" unicode="&#xb2;" horiz-adv-x="561" 
d="M526 686v-139h-506q-2 125 28 195t81 118q51 46 135 103q111 74 111 172q0 41 -24 75t-79 33q-98 0 -98 -137h-156q2 86 31 141q68 135 225 135q123 0 201 -79q59 -65 59 -171t-90 -196q-49 -45 -145 -113q-105 -69 -119 -137h346z" />
    <glyph glyph-name="threesuperior" unicode="&#xb3;" horiz-adv-x="565" 
d="M512 1158q0 -104 -88 -161q113 -63 113 -189t-76 -199t-191 -72q-160 0 -223 125q-29 61 -29 131v24h152q0 -55 12 -90q23 -49 79 -49t87 31t31 90q0 125 -115 125q-25 0 -51 -2v127q14 -2 51 -2t64 22q29 33 28 84q0 51 -34 80q-20 14 -52 14q-84 0 -88 -121h-149
q4 102 43 164q66 98 186 98t186 -62q64 -64 64 -168z" />
    <glyph glyph-name="acute" unicode="&#xb4;" 
d="M578 1366h180l-187 -274h-163z" />
    <glyph glyph-name="mu" unicode="&#xb5;" horiz-adv-x="972" 
d="M313 -354h-200v1296h200v-549q-1 -113 13 -155t48 -71q34 -28 89 -28q86 0 137 70q37 47 47 125q8 41 8 135v473h201v-942h-188v119q-94 -147 -252 -148q-56 0 -103 29v-354z" />
    <glyph glyph-name="paragraph" unicode="&#xb6;" horiz-adv-x="1171" 
d="M565 -197h-172v846h-26q-127 0 -213 80q-104 94 -105 272q0 121 57 215q91 150 351 150h567v-158h-133v-1405h-172v1405h-154v-1405z" />
    <glyph glyph-name="periodcentered" unicode="&#xb7;" horiz-adv-x="503" 
d="M129 600h246v-246h-246v246z" />
    <glyph glyph-name="periodcentered" unicode="&#x2219;" horiz-adv-x="503" 
d="M129 600h246v-246h-246v246z" />
    <glyph glyph-name="cedilla" unicode="&#xb8;" horiz-adv-x="1036" 
d="M690 -241q0 -75 -49 -121t-138 -48q-89 0 -136 56q-23 25 -25 55h107q10 -31 57 -31q72 0 72 76q0 39 -21 59q-18 23 -56 23t-48 -29h-109l76 201h94l-39 -109q20 13 61 13q42 0 98 -35t56 -110z" />
    <glyph glyph-name="onesuperior" unicode="&#xb9;" horiz-adv-x="448" 
d="M311 547h-149v567q-47 -29 -111 -29h-24v132q96 4 129 40q31 37 39 109h116v-819z" />
    <glyph glyph-name="ordmasculine" unicode="&#xba;" horiz-adv-x="581" 
d="M290 1012q-50 0 -83 -47t-33 -132t31 -133t83 -47q52 0 86 44q34 43 34 135t-33 137q-35 43 -85 43zM288 1137q124 0 196 -81q72 -80 71 -226q0 -146 -75 -224q-76 -78 -196 -78t-189 86t-69 216t70 219q68 88 192 88z" />
    <glyph glyph-name="guillemotright" unicode="&#xbb;" horiz-adv-x="768" 
d="M109 647v209l258 -244v-206l-258 -242v203l151 139zM420 649v209l262 -250v-205l-262 -243v205l155 139z" />
    <glyph glyph-name="onequarter" unicode="&#xbc;" horiz-adv-x="1345" 
d="M1083 326v262l-143 -262h143zM1225 0h-142v195h-278v139l289 485h131v-493h86v-131h-86v-195zM1018 1366l-586 -1366h-151l587 1366h150zM311 547h-149v567q-47 -29 -111 -29h-24v132q96 4 129 40q31 37 39 109h116v-819z" />
    <glyph glyph-name="onehalf" unicode="&#xbd;" horiz-adv-x="1413" 
d="M1376 141v-141h-506q0 125 28 195t81 118t137 105q109 74 109 172q0 42 -23 74t-78 32q-98 0 -98 -137h-156q4 92 29 143q68 135 227 136q123 0 199 -80q59 -66 59 -172t-90 -197q-46 -45 -148 -111t-116 -137h346zM1018 1366l-586 -1366h-151l587 1366h150zM311 547
h-149v567q-47 -29 -111 -29h-24v132q96 4 129 40q31 37 39 109h116v-819z" />
    <glyph glyph-name="threequarters" unicode="&#xbe;" horiz-adv-x="1454" 
d="M512 1158q0 -104 -88 -161q113 -63 113 -189t-76 -199t-191 -72q-160 0 -223 125q-29 61 -29 131v24h152q0 -55 12 -90q23 -49 79 -49t87 31t31 90q0 125 -115 125q-25 0 -51 -2v127q14 -2 51 -2t64 22q29 33 28 84q0 51 -34 80q-20 14 -52 14q-84 0 -88 -121h-149
q4 102 43 164q66 98 186 98t186 -62q64 -64 64 -168zM1194 326v262l-145 -262h145zM1333 0h-139v195h-281v139l289 485h131v-493h86v-131h-86v-195zM1126 1366l-583 -1366h-152l588 1366h147z" />
    <glyph glyph-name="questiondown" unicode="&#xbf;" horiz-adv-x="917" 
d="M352 942h246v-246h-246v246zM846 14q0 -169 -92 -268q-102 -115 -276 -115t-279 109q-102 102 -103 266q0 121 62 197q34 47 108 109t86 87q29 53 33 156v12h182q2 -75 -10 -147t-65 -131q-8 -10 -99 -96q-53 -53 -69 -97q-42 -115 16 -205q43 -70 137 -69
q166 -1 174 192h195z" />
    <glyph glyph-name="Agrave" unicode="&#xc0;" horiz-adv-x="1134" 
d="M504 1475l-185 260h187l170 -260h-172zM565 1098l-164 -551h326zM10 0l441 1366h233l438 -1366h-235l-107 367h-432l-106 -367h-232z" />
    <glyph glyph-name="Aacute" unicode="&#xc1;" horiz-adv-x="1134" 
d="M629 1735h186l-186 -260h-170zM565 1098l-164 -551h326zM10 0l441 1366h233l438 -1366h-235l-107 367h-432l-106 -367h-232z" />
    <glyph glyph-name="Acircumflex" unicode="&#xc2;" horiz-adv-x="1134" 
d="M664 1735l184 -260h-180l-101 147l-100 -147h-180l184 260h193zM565 1098l-164 -551h326zM10 0l441 1366h233l438 -1366h-235l-107 367h-432l-106 -367h-232z" />
    <glyph glyph-name="Atilde" unicode="&#xc3;" horiz-adv-x="1134" 
d="M565 1098l-164 -551h326zM686 1481q-55 0 -135 46t-107 46q-55 0 -69 -92h-115q35 231 195 231q45 0 94 -22l59 -35q47 -31 76 -31q56 0 76 88h114q-35 -231 -188 -231zM10 0l441 1366h233l438 -1366h-235l-107 367h-432l-106 -367h-232z" />
    <glyph glyph-name="Adieresis" unicode="&#xc4;" horiz-adv-x="1134" 
d="M307 1673h193v-205h-193v205zM633 1673h192v-205h-192v205zM565 1098l-164 -551h326zM10 0l441 1366h233l438 -1366h-235l-107 367h-432l-106 -367h-232z" />
    <glyph glyph-name="Aring" unicode="&#xc5;" horiz-adv-x="1134" 
d="M369 1629q0 81 58 139t139 59q80 1 138 -57t58 -139t-58 -139t-140 -58t-138 57q-57 57 -57 138zM568 1726q-38 0 -66 -28t-29 -71q0 -42 29 -71q28 -28 66 -28t66 28t28 70q0 43 -27 72q-29 28 -67 28zM565 1098l-164 -551h326zM10 0l441 1366h233l438 -1366h-235
l-107 367h-432l-106 -367h-232z" />
    <glyph glyph-name="AE" unicode="&#xc6;" horiz-adv-x="1589" 
d="M688 547v565l-225 -565h225zM688 0v367h-297l-145 -367h-234l570 1366h915v-195h-598v-368h553v-195h-553v-415h608v-193h-819z" />
    <glyph glyph-name="Ccedilla" unicode="&#xc7;" horiz-adv-x="1179" 
d="M834 -242q0 -74 -50 -120t-141 -48q-90 0 -137 56q-23 25 -25 55h109q8 -31 55 -31q74 0 74 76q0 39 -21 59q-18 23 -56 23t-50 -29h-109l66 172q-291 43 -414 351q-61 158 -61 358q0 283 129 479q154 238 426 238q242 0 387 -201q84 -115 96 -268h-221q-18 113 -70 176
q-76 100 -198 100q-154 0 -234 -137q-90 -158 -90 -385q0 -226 83 -374t236 -148q242 0 281 362h221q-12 -258 -170 -422q-117 -125 -307 -133l-27 -76q68 35 160 -23q58 -36 58 -110z" />
    <glyph glyph-name="Egrave" unicode="&#xc8;" horiz-adv-x="1038" 
d="M457 1475l-185 260h187l170 -260h-172zM958 0h-833v1366h823v-195h-598v-368h553v-195h-553v-415h608v-193z" />
    <glyph glyph-name="Eacute" unicode="&#xc9;" horiz-adv-x="1038" 
d="M582 1735h186l-186 -260h-170zM958 0h-833v1366h823v-195h-598v-368h553v-195h-553v-415h608v-193z" />
    <glyph glyph-name="Ecircumflex" unicode="&#xca;" horiz-adv-x="1038" 
d="M616 1735l185 -260h-180l-101 147l-100 -147h-180l184 260h192zM958 0h-833v1366h823v-195h-598v-368h553v-195h-553v-415h608v-193z" />
    <glyph glyph-name="Edieresis" unicode="&#xcb;" horiz-adv-x="1038" 
d="M260 1673h193v-205h-193v205zM586 1673h192v-205h-192v205zM958 0h-833v1366h823v-195h-598v-368h553v-195h-553v-415h608v-193z" />
    <glyph glyph-name="Igrave" unicode="&#xcc;" horiz-adv-x="477" 
d="M176 1475l-184 260h186l170 -260h-172zM352 0h-225v1366h225v-1366z" />
    <glyph glyph-name="Iacute" unicode="&#xcd;" horiz-adv-x="477" 
d="M299 1735h186l-186 -260h-170zM350 0h-225v1366h225v-1366z" />
    <glyph glyph-name="Icircumflex" unicode="&#xce;" horiz-adv-x="479" 
d="M336 1735l184 -260h-180l-100 147l-101 -147h-180l184 260h193zM352 0h-225v1366h225v-1366z" />
    <glyph glyph-name="Idieresis" unicode="&#xcf;" horiz-adv-x="479" 
d="M14 1673h191v-205h-191v205zM274 1673h191v-205h-191v205zM352 0h-225v1366h225v-1366z" />
    <glyph glyph-name="Eth" unicode="&#xd0;" horiz-adv-x="1196" 
d="M350 608v-420h174q111 0 160 21q102 41 158 168t55 315q0 262 -117 387q-53 55 -110 77t-144 22h-176v-375h273v-195h-273zM125 608h-125v195h125v563h420q274 0 411 -154q166 -180 166 -520q0 -397 -215 -586q-86 -74 -171 -90t-181 -16h-430v608z" />
    <glyph glyph-name="Ntilde" unicode="&#xd1;" horiz-adv-x="1198" 
d="M719 1481q-55 0 -136 46t-106 46q-55 0 -69 -92h-115q35 231 194 231q45 0 95 -22l59 -35q45 -31 76 -31q56 0 76 88h114q-35 -231 -188 -231zM334 0h-209v1366h231l508 -1014v1014h209v-1366h-233l-506 1008v-1008z" />
    <glyph glyph-name="Ograve" unicode="&#xd2;" horiz-adv-x="1259" 
d="M567 1475l-184 260h186l170 -260h-172zM963 684q0 232 -89 376t-241 144t-243 -141t-91 -374t84 -378q43 -78 113 -115q163 -87 307 23q82 66 121 195t39 270zM74 704q0 307 158 500t398 193q241 0 394 -187q164 -205 164 -508t-127 -497q-78 -117 -189 -177t-239 -61
q-281 0 -436 242q-123 188 -123 495z" />
    <glyph glyph-name="Oacute" unicode="&#xd3;" horiz-adv-x="1259" 
d="M692 1735h187l-187 -260h-170zM963 684q0 232 -89 376t-241 144t-243 -141t-91 -374t84 -378q43 -78 113 -115q163 -87 307 23q82 66 121 195t39 270zM74 704q0 307 158 500t398 193q241 0 394 -187q164 -205 164 -508t-127 -497q-78 -117 -189 -177t-239 -61
q-281 0 -436 242q-123 188 -123 495z" />
    <glyph glyph-name="Ocircumflex" unicode="&#xd4;" horiz-adv-x="1259" 
d="M727 1735l184 -260h-180l-100 147l-101 -147h-180l185 260h192zM963 684q0 232 -89 376t-241 144t-243 -141t-91 -374t84 -378q43 -78 113 -115q163 -87 307 23q82 66 121 195t39 270zM74 704q0 307 158 500t398 193q241 0 394 -187q164 -205 164 -508t-127 -497
q-78 -117 -189 -177t-239 -61q-281 0 -436 242q-123 188 -123 495z" />
    <glyph glyph-name="Otilde" unicode="&#xd5;" horiz-adv-x="1259" 
d="M750 1481q-57 0 -137 46t-105 46q-53 0 -70 -92h-114q35 231 194 231q45 0 94 -22l60 -35q47 -31 76 -31q55 0 75 88h115q-35 -231 -188 -231zM963 684q0 232 -89 376t-241 144t-243 -141t-91 -374t84 -378q43 -78 113 -115q163 -87 307 23q82 66 121 195t39 270zM74 704
q0 307 158 500t398 193q241 0 394 -187q164 -205 164 -508t-127 -497q-78 -117 -189 -177t-239 -61q-281 0 -436 242q-123 188 -123 495z" />
    <glyph glyph-name="Odieresis" unicode="&#xd6;" horiz-adv-x="1259" 
d="M371 1673h192v-205h-192v205zM696 1673h193v-205h-193v205zM963 684q0 232 -89 376t-241 144t-243 -141t-91 -374t84 -378q43 -78 113 -115q163 -87 307 23q82 66 121 195t39 270zM74 704q0 307 158 500t398 193q241 0 394 -187q164 -205 164 -508t-127 -497
q-78 -117 -189 -177t-239 -61q-281 0 -436 242q-123 188 -123 495z" />
    <glyph glyph-name="multiply" unicode="&#xd7;" 
d="M389 690l-270 271l123 122l270 -272l272 272l123 -122l-272 -273l272 -270l-123 -123l-272 272l-270 -272l-123 123z" />
    <glyph glyph-name="Oslash" unicode="&#xd8;" horiz-adv-x="1259" 
d="M632 160q93 0 174 64t119 193q37 128 37 290t-61 297l-444 -781q82 -63 175 -63zM299 710q0 -212 57 -352l451 781q-84 66 -176 65q-150 0 -241 -141t-91 -353zM1188 697q0 -298 -127 -492q-157 -236 -430 -238q-158 0 -289 88l-51 -88h-178l116 197q-155 198 -155 522
t158 517t399 194q158 0 289 -88l53 88h176l-119 -197q158 -205 158 -503z" />
    <glyph glyph-name="Ugrave" unicode="&#xd9;" horiz-adv-x="1175" 
d="M526 1475l-184 260h186l170 -260h-172zM109 598v768h225v-782q0 -152 14 -211q43 -213 246 -213q162 0 217 139q33 80 33 285v782h223v-772q0 -168 -16 -256q-82 -371 -461 -371q-279 0 -402 205q-51 82 -65 182t-14 244z" />
    <glyph glyph-name="Uacute" unicode="&#xda;" horiz-adv-x="1175" 
d="M651 1735h187l-187 -260h-170zM109 598v768h225v-782q0 -152 14 -211q43 -213 246 -213q162 0 217 139q33 80 33 285v782h223v-772q0 -168 -16 -256q-82 -371 -461 -371q-279 0 -402 205q-51 82 -65 182t-14 244z" />
    <glyph glyph-name="Ucircumflex" unicode="&#xdb;" horiz-adv-x="1175" 
d="M684 1735l184 -260h-180l-100 147l-101 -147h-180l185 260h192zM109 598v768h225v-782q0 -152 14 -211q43 -213 246 -213q162 0 217 139q33 80 33 285v782h223v-772q0 -168 -16 -256q-82 -371 -461 -371q-279 0 -402 205q-51 82 -65 182t-14 244z" />
    <glyph glyph-name="Udieresis" unicode="&#xdc;" horiz-adv-x="1175" 
d="M330 1673h192v-205h-192v205zM655 1673h193v-205h-193v205zM109 598v768h225v-782q0 -152 14 -211q43 -213 246 -213q162 0 217 139q33 80 33 285v782h223v-772q0 -168 -16 -256q-82 -371 -461 -371q-279 0 -402 205q-51 82 -65 182t-14 244z" />
    <glyph glyph-name="Yacute" unicode="&#xdd;" horiz-adv-x="1040" 
d="M582 1735h186l-186 -260h-170zM635 0h-225v545l-428 821h254l290 -598l287 598h246l-424 -823v-543z" />
    <glyph glyph-name="Thorn" unicode="&#xde;" horiz-adv-x="1050" 
d="M350 934v-451h158q129 -1 186 57q58 58 58 180t-90 181q-47 33 -173 33h-139zM350 0h-225v1366h225v-233h162q147 0 225 -27q127 -47 191 -168q49 -92 49 -221q0 -223 -139 -338q-57 -49 -126 -67t-173 -19h-189v-293z" />
    <glyph glyph-name="germandbls" unicode="&#xdf;" horiz-adv-x="956" 
d="M319 944v-944h-200v786h-113v156h113q4 156 22 217q39 131 150 193q82 45 186 45q145 0 235 -82t91 -203q1 -68 -23 -110t-84 -111q-49 -61 -49 -107t25 -90q10 -26 72 -88t103 -130q42 -68 42 -169q0 -164 -135 -260q-94 -68 -236 -67q-66 0 -121 20v170q55 -27 123 -27
t116 43t48 116t-28 126t-95 127q-57 70 -80 114q-23 43 -23 101t70 159t70 161t-36 99q-36 40 -97 40q-86 0 -123 -84q-23 -56 -23 -201z" />
    <glyph glyph-name="agrave" unicode="&#xe0;" horiz-adv-x="948" 
d="M414 1092l-185 274h181l170 -274h-166zM627 379v76q-123 -7 -195 -25t-110 -61q-46 -45 -46 -111t40 -99q40 -34 106 -34q106 0 166 102q39 70 39 152zM782 -25q-66 0 -100 31q-25 27 -41 78q-100 -113 -270 -113q-121 0 -203 64q-100 76 -100 217t110 227q84 66 240 80
q82 8 209 10v78q0 168 -166 168q-150 0 -166 -164h-193q8 147 100 233t278 87q184 0 280 -111q45 -50 52 -120t7 -165v-356q0 -53 8 -67q15 -36 78 -11v-141q-57 -25 -123 -25z" />
    <glyph glyph-name="aacute" unicode="&#xe1;" horiz-adv-x="948" 
d="M539 1366h180l-187 -274h-163zM627 379v76q-123 -7 -195 -25t-110 -61q-46 -45 -46 -111t40 -99q40 -34 106 -34q106 0 166 102q39 70 39 152zM782 -25q-66 0 -100 31q-25 27 -41 78q-100 -113 -270 -113q-121 0 -203 64q-100 76 -100 217t110 227q84 66 240 80
q82 8 209 10v78q0 168 -166 168q-150 0 -166 -164h-193q8 147 100 233t278 87q184 0 280 -111q45 -50 52 -120t7 -165v-356q0 -53 8 -67q15 -36 78 -11v-141q-57 -25 -123 -25z" />
    <glyph glyph-name="acircumflex" unicode="&#xe2;" horiz-adv-x="948" 
d="M563 1366l160 -274h-168l-84 153l-88 -153h-156l158 274h178zM627 379v76q-123 -7 -195 -25t-110 -61q-46 -45 -46 -111t40 -99q40 -34 106 -34q106 0 166 102q39 70 39 152zM782 -25q-66 0 -100 31q-25 27 -41 78q-100 -113 -270 -113q-121 0 -203 64q-100 76 -100 217
t110 227q84 66 240 80q82 8 209 10v78q0 168 -166 168q-150 0 -166 -164h-193q8 147 100 233t278 87q184 0 280 -111q45 -50 52 -120t7 -165v-356q0 -53 8 -67q15 -36 78 -11v-141q-57 -25 -123 -25z" />
    <glyph glyph-name="atilde" unicode="&#xe3;" horiz-adv-x="948" 
d="M367 1196q-43 0 -62 -90h-119q14 164 109 223q37 25 81 25t97 -29l72 -39q20 -12 39 -12q43 0 57 92h123q-30 -250 -180 -250q-49 0 -122 40t-95 40zM627 379v76q-123 -7 -195 -25t-110 -61q-46 -45 -46 -111t40 -99q40 -34 106 -34q106 0 166 102q39 70 39 152zM782 -25
q-66 0 -100 31q-25 27 -41 78q-100 -113 -270 -113q-121 0 -203 64q-100 76 -100 217t110 227q84 66 240 80q82 8 209 10v78q0 168 -166 168q-150 0 -166 -164h-193q8 147 100 233t278 87q184 0 280 -111q45 -50 52 -120t7 -165v-356q0 -53 8 -67q15 -36 78 -11v-141
q-57 -25 -123 -25z" />
    <glyph glyph-name="adieresis" unicode="&#xe4;" horiz-adv-x="948" 
d="M217 1311h191v-205h-191v205zM541 1311h192v-205h-192v205zM627 379v76q-123 -7 -195 -25t-110 -61q-46 -45 -46 -111t40 -99q40 -34 106 -34q106 0 166 102q39 70 39 152zM782 -25q-66 0 -100 31q-25 27 -41 78q-100 -113 -270 -113q-121 0 -203 64q-100 76 -100 217
t110 227q84 66 240 80q82 8 209 10v78q0 168 -166 168q-150 0 -166 -164h-193q8 147 100 233t278 87q184 0 280 -111q45 -50 52 -120t7 -165v-356q0 -53 8 -67q15 -36 78 -11v-141q-57 -25 -123 -25z" />
    <glyph glyph-name="aring" unicode="&#xe5;" horiz-adv-x="948" 
d="M471 1065q-82 0 -138 56q-57 56 -57 138q0 81 58 137t137 56q80 0 136 -56q57 -56 57 -136t-56 -138q-56 -57 -137 -57zM474 1356q-38 0 -66 -29t-29 -70q0 -41 29 -71q28 -30 66 -31q38 0 66 29q28 30 28 72t-27 71q-29 29 -67 29zM627 379v76q-123 -7 -195 -25
t-110 -61q-46 -45 -46 -111t40 -99q40 -34 106 -34q106 0 166 102q39 70 39 152zM782 -25q-66 0 -100 31q-25 27 -41 78q-100 -113 -270 -113q-121 0 -203 64q-100 76 -100 217t110 227q84 66 240 80q82 8 209 10v78q0 168 -166 168q-150 0 -166 -164h-193q8 147 100 233
t278 87q184 0 280 -111q45 -50 52 -120t7 -165v-356q0 -53 8 -67q15 -36 78 -11v-141q-57 -25 -123 -25z" />
    <glyph glyph-name="ae" unicode="&#xe6;" horiz-adv-x="1458" 
d="M998 815q-104 0 -158 -102q-33 -62 -41 -152h391q-6 78 -35 139q-53 115 -157 115zM612 379v55q-117 -6 -186 -22q-150 -33 -150 -158q0 -63 41 -98q33 -33 99 -33q100 0 159 104q37 68 37 152zM1008 -29q-202 0 -312 172q-45 -53 -92 -92q-96 -80 -224 -80t-210 64
q-102 78 -102 216t108 222q84 63 234 78q78 8 202 10v86q0 168 -157 168q-143 0 -160 -164h-193q6 150 95 232q91 88 273 88t271 -121q109 121 257 121t249 -99q144 -137 144 -446h-594q13 -299 211 -299q125 0 174 156h190q-14 -74 -53 -142q-109 -170 -311 -170z" />
    <glyph glyph-name="ccedilla" unicode="&#xe7;" horiz-adv-x="921" 
d="M653 647q-25 156 -175 156q-96 0 -150 -96q-56 -88 -56 -239t56 -240t155 -89q153 0 185 195h198q-23 -172 -125 -267t-266 -96l-29 -80q20 13 62 13t86 -31q63 -39 63 -116t-48 -121t-137 -46q-89 0 -132 56q-20 25 -25 55h105q10 -31 55 -31q72 0 72 76q0 39 -21 59
q-18 23 -55 23t-47 -29h-107l66 183q-84 18 -139 63q-176 133 -176 420q0 223 112 365t308 141q194 0 294 -131q61 -78 72 -193h-201z" />
    <glyph glyph-name="egrave" unicode="&#xe8;" horiz-adv-x="944" 
d="M412 1092l-185 274h181l170 -274h-166zM478 815q-108 0 -165 -102q-33 -64 -41 -152h404q-6 78 -35 139q-55 115 -163 115zM486 127q136 0 184 156h188q-14 -78 -55 -142q-109 -170 -312 -170q-203 -1 -313 141t-110 353t112 359t295 147q152 0 254 -101
q148 -141 148 -450h-609q2 -86 27 -150q55 -143 191 -143z" />
    <glyph glyph-name="eacute" unicode="&#xe9;" horiz-adv-x="944" 
d="M537 1366h180l-187 -274h-163zM478 815q-108 0 -165 -102q-33 -64 -41 -152h404q-6 78 -35 139q-55 115 -163 115zM486 127q136 0 184 156h188q-14 -78 -55 -142q-109 -170 -312 -170q-203 -1 -313 141t-110 353t112 359t295 147q152 0 254 -101q148 -141 148 -450h-609
q2 -86 27 -150q55 -143 191 -143z" />
    <glyph glyph-name="ecircumflex" unicode="&#xea;" horiz-adv-x="944" 
d="M561 1366l160 -274h-168l-84 153l-88 -153h-156l158 274h178zM478 815q-108 0 -165 -102q-33 -64 -41 -152h404q-6 78 -35 139q-55 115 -163 115zM486 127q136 0 184 156h188q-14 -78 -55 -142q-109 -170 -312 -170q-203 -1 -313 141t-110 353t112 359t295 147
q152 0 254 -101q148 -141 148 -450h-609q2 -86 27 -150q55 -143 191 -143z" />
    <glyph glyph-name="edieresis" unicode="&#xeb;" horiz-adv-x="944" 
d="M215 1311h191v-205h-191v205zM539 1311h192v-205h-192v205zM478 815q-108 0 -165 -102q-33 -64 -41 -152h404q-6 78 -35 139q-55 115 -163 115zM486 127q136 0 184 156h188q-14 -78 -55 -142q-109 -170 -312 -170q-203 -1 -313 141t-110 353t112 359t295 147
q152 0 254 -101q148 -141 148 -450h-609q2 -86 27 -150q55 -143 191 -143z" />
    <glyph glyph-name="igrave" unicode="&#xec;" horiz-adv-x="446" 
d="M164 1092l-184 274h180l170 -274h-166zM324 0h-201v942h201v-942z" />
    <glyph glyph-name="iacute" unicode="&#xed;" horiz-adv-x="446" 
d="M289 1366h180l-186 -274h-164zM324 0h-201v942h201v-942z" />
    <glyph glyph-name="icircumflex" unicode="&#xee;" horiz-adv-x="446" 
d="M311 1366l160 -274h-168l-84 153l-88 -153h-156l158 274h178zM324 0h-201v942h201v-942z" />
    <glyph glyph-name="idieresis" unicode="&#xef;" horiz-adv-x="446" 
d="M14 1311h166v-205h-166v205zM268 1311h166v-205h-166v205zM324 0h-201v942h201v-942z" />
    <glyph glyph-name="eth" unicode="&#xf0;" horiz-adv-x="985" 
d="M495 803q-99 0 -161 -87t-62 -246t62 -245t158 -86q98 0 153 74q70 90 70 254t-62 250q-59 86 -158 86zM920 492q0 -262 -129 -402q-111 -119 -305 -119q-194 -1 -307 141q-111 142 -111 357t102 348q63 80 145 117t156 37t139 -31q-61 100 -131 176l-153 -88l-68 117
l117 67q-31 25 -92 64l71 119q86 -44 160 -103l174 103l68 -117l-135 -80q84 -86 141 -182q158 -262 158 -524z" />
    <glyph glyph-name="ntilde" unicode="&#xf1;" horiz-adv-x="972" 
d="M379 1196q-43 0 -62 -90h-118q14 165 108 223q37 25 81 25t97 -29l72 -39q23 -12 39 -12q43 0 57 92h123q-30 -250 -180 -250q-49 0 -122 40t-95 40zM317 0h-200v942h188v-119q96 147 266 148q109 0 187 -64t96 -178q6 -43 6 -127v-602h-201v549q0 113 -13 156t-47 71
t-87 27q-88 0 -139 -70q-37 -47 -47 -125q-8 -41 -9 -135v-473z" />
    <glyph glyph-name="ograve" unicode="&#xf2;" horiz-adv-x="985" 
d="M434 1092l-184 274h180l170 -274h-166zM495 803q-99 0 -161 -87t-62 -246t62 -245t158 -86q98 0 153 74q70 90 70 254t-62 250q-59 86 -158 86zM490 971q198 0 314 -135t116 -371t-129 -375q-111 -119 -305 -119q-194 -1 -307 141q-111 142 -111 355t102 350
q121 154 320 154z" />
    <glyph glyph-name="oacute" unicode="&#xf3;" horiz-adv-x="985" 
d="M559 1366h180l-186 -274h-164zM495 803q-99 0 -161 -87t-62 -246t62 -245t158 -86q98 0 153 74q70 90 70 254t-62 250q-59 86 -158 86zM490 971q198 0 314 -135t116 -371t-129 -375q-111 -119 -305 -119q-194 -1 -307 141q-111 142 -111 355t102 350q121 154 320 154z
" />
    <glyph glyph-name="ocircumflex" unicode="&#xf4;" horiz-adv-x="985" 
d="M582 1366l159 -274h-168l-84 153l-88 -153h-155l157 274h179zM495 803q-99 0 -161 -87t-62 -246t62 -245t158 -86q98 0 153 74q70 90 70 254t-62 250q-59 86 -158 86zM490 971q198 0 314 -135t116 -371t-129 -375q-111 -119 -305 -119q-194 -1 -307 141
q-111 142 -111 355t102 350q121 154 320 154z" />
    <glyph glyph-name="otilde" unicode="&#xf5;" horiz-adv-x="985" 
d="M385 1196q-43 0 -61 -90h-119q14 165 108 223q37 25 81 25t98 -29l71 -39q20 -12 39 -12q41 0 57 92h123q-30 -250 -180 -250q-50 0 -122 40t-95 40zM495 803q-99 0 -161 -87t-62 -246t62 -245t158 -86q98 0 153 74q70 90 70 254t-62 250q-59 86 -158 86zM490 971
q198 0 314 -135t116 -371t-129 -375q-111 -119 -305 -119q-194 -1 -307 141q-111 142 -111 355t102 350q121 154 320 154z" />
    <glyph glyph-name="odieresis" unicode="&#xf6;" horiz-adv-x="985" 
d="M236 1311h190v-205h-190v205zM559 1311h193v-205h-193v205zM495 803q-99 0 -161 -87t-62 -246t62 -245t158 -86q98 0 153 74q70 90 70 254t-62 250q-59 86 -158 86zM490 971q198 0 314 -135t116 -371t-129 -375q-111 -119 -305 -119q-194 -1 -307 141q-111 142 -111 355
t102 350q121 154 320 154z" />
    <glyph glyph-name="divide" unicode="&#xf7;" 
d="M41 602v174h942v-174h-942zM420 463h186v-215h-186v215zM420 1130h186v-215h-186v215z" />
    <glyph glyph-name="oslash" unicode="&#xf8;" horiz-adv-x="985" 
d="M496 139q94 0 149 74q70 90 70 260q0 88 -25 166l-305 -467q53 -33 111 -33zM494 803q-98 0 -160 -87t-62 -245q0 -90 25 -170l307 467q-57 35 -110 35zM68 473q0 207 102 344q121 154 326 154q119 0 221 -60l43 60h172l-111 -158q99 -133 99 -359t-120 -354
q-120 -129 -302 -129q-126 1 -226 60l-41 -60h-178l113 158q-98 137 -98 344z" />
    <glyph glyph-name="ugrave" unicode="&#xf9;" horiz-adv-x="972" 
d="M426 1092l-184 274h180l170 -274h-166zM856 942v-942h-188v119q-94 -147 -267 -148q-111 -1 -189 61t-91 181q-8 39 -8 127v602h200v-549q-1 -113 13 -155t48 -71q34 -28 89 -28q86 0 137 70q37 47 47 125q8 41 8 135v473h201z" />
    <glyph glyph-name="uacute" unicode="&#xfa;" horiz-adv-x="972" 
d="M551 1366h180l-186 -274h-164zM856 942v-942h-188v119q-94 -147 -267 -148q-111 -1 -189 61t-91 181q-8 39 -8 127v602h200v-549q-1 -113 13 -155t48 -71q34 -28 89 -28q86 0 137 70q37 47 47 125q8 41 8 135v473h201z" />
    <glyph glyph-name="ucircumflex" unicode="&#xfb;" horiz-adv-x="972" 
d="M575 1366l160 -274h-168l-84 153l-88 -153h-155l157 274h178zM856 942v-942h-188v119q-94 -147 -267 -148q-111 -1 -189 61t-91 181q-8 39 -8 127v602h200v-549q-1 -113 13 -155t48 -71q34 -28 89 -28q86 0 137 70q37 47 47 125q8 41 8 135v473h201z" />
    <glyph glyph-name="udieresis" unicode="&#xfc;" horiz-adv-x="972" 
d="M229 1311h191v-205h-191v205zM553 1311h192v-205h-192v205zM856 942v-942h-188v119q-94 -147 -267 -148q-111 -1 -189 61t-91 181q-8 39 -8 127v602h200v-549q-1 -113 13 -155t48 -71q34 -28 89 -28q86 0 137 70q37 47 47 125q8 41 8 135v473h201z" />
    <glyph glyph-name="yacute" unicode="&#xfd;" horiz-adv-x="849" 
d="M489 1366h181l-187 -274h-164zM188 -184q61 0 93 65q39 90 47 139l-322 922h219l209 -688l201 688h209l-307 -922q-72 -219 -117 -280q-70 -94 -197 -94q-43 0 -135 10v172q68 -12 100 -12z" />
    <glyph glyph-name="thorn" unicode="&#xfe;" horiz-adv-x="1017" 
d="M528 803q-102 0 -158 -94t-56 -246t60 -238t157 -86t155 88q58 87 59 235t-57 244t-160 97zM317 -354h-200v1720h200v-530q89 135 263 135q174 1 272 -145t98 -365t-104 -355q-109 -135 -274 -135t-255 133v-458z" />
    <glyph glyph-name="ydieresis" unicode="&#xff;" horiz-adv-x="849" 
d="M168 1311h190v-205h-190v205zM492 1311h192v-205h-192v205zM188 -184q61 0 93 65q39 90 47 139l-322 922h219l209 -688l201 688h209l-307 -922q-72 -219 -117 -280q-70 -94 -197 -94q-43 0 -135 10v172q68 -12 100 -12z" />
    <glyph glyph-name="Amacron" unicode="&#x100;" horiz-adv-x="1134" 
d="M276 1612h582v-133h-582v133zM565 1098l-164 -551h326zM10 0l441 1366h233l438 -1366h-235l-107 367h-432l-106 -367h-232z" />
    <glyph glyph-name="amacron" unicode="&#x101;" horiz-adv-x="948" 
d="M627 379v76q-123 -7 -195 -25t-110 -61q-46 -45 -46 -111t40 -99q40 -34 106 -34q106 0 166 102q39 70 39 152zM782 -25q-66 0 -100 31q-25 27 -41 78q-100 -113 -270 -113q-121 0 -203 64q-100 76 -100 217t110 227q84 66 240 80q82 8 209 10v78q0 168 -166 168
q-150 0 -166 -164h-193q8 147 100 233t278 87q184 0 280 -111q45 -50 52 -120t7 -165v-356q0 -53 8 -67q15 -36 78 -11v-141q-57 -25 -123 -25zM211 1268h528v-129h-528v129z" />
    <glyph glyph-name="Abreve" unicode="&#x102;" horiz-adv-x="1134" 
d="M570 1608q70 0 104 47q16 27 28 80h138q-8 -76 -31 -123q-70 -143 -242 -144q-115 0 -185 67t-87 200h137q12 -57 40 -92t98 -35zM565 1098l-164 -551h326zM10 0l441 1366h233l438 -1366h-235l-107 367h-432l-106 -367h-232z" />
    <glyph glyph-name="abreve" unicode="&#x103;" horiz-adv-x="948" 
d="M475 1092q-221 0 -256 274h129q23 -139 127 -139t127 139h129q-35 -274 -256 -274zM627 379v76q-123 -7 -195 -25t-110 -61q-46 -45 -46 -111t40 -99q40 -34 106 -34q106 0 166 102q39 70 39 152zM782 -25q-66 0 -100 31q-25 27 -41 78q-100 -113 -270 -113
q-121 0 -203 64q-100 76 -100 217t110 227q84 66 240 80q82 8 209 10v78q0 168 -166 168q-150 0 -166 -164h-193q8 147 100 233t278 87q184 0 280 -111q45 -50 52 -120t7 -165v-356q0 -53 8 -67q15 -36 78 -11v-141q-57 -25 -123 -25z" />
    <glyph glyph-name="Aogonek" unicode="&#x104;" horiz-adv-x="1134" 
d="M565 1098l-164 -551h326zM1028 -164q0 -49 41 -78q27 -14 59 -14t74 14v-110q-61 -23 -106 -23q-92 0 -146 50t-53 135q0 85 76 159l31 31h-117l-109 367h-430l-108 -367h-230l441 1366h233l438 -1366q-94 -82 -94 -164z" />
    <glyph glyph-name="aogonek" unicode="&#x105;" horiz-adv-x="948" 
d="M627 379v76q-123 -7 -195 -25t-110 -61q-46 -45 -46 -111t40 -99q40 -34 106 -34q106 0 166 102q39 70 39 152zM807 -148q0 -62 35 -81q36 -21 66 -21t73 14v-110q-61 -23 -107 -23q-92 -1 -145 49t-53 133t82 164q-37 2 -67 22t-50 85q-100 -113 -270 -113
q-121 0 -203 64q-100 76 -100 217t110 227q84 66 240 80q82 8 209 10v78q0 168 -166 168q-150 0 -166 -164h-193q8 147 100 233t278 87q184 0 280 -111q45 -50 52 -120t7 -165v-356q0 -53 8 -67q15 -36 78 -11v-141l-8 -2q-90 -84 -90 -146z" />
    <glyph glyph-name="Cacute" unicode="&#x106;" horiz-adv-x="1179" 
d="M653 1735h187l-187 -260h-170zM622 -33q-246 0 -389 180q-160 203 -159 533q0 283 129 479q154 238 426 238q242 0 387 -201q84 -115 96 -268h-221q-18 113 -70 176q-76 100 -198 100q-154 0 -234 -137q-90 -158 -90 -385q0 -226 83 -374t236 -148q242 0 281 362h221
q-10 -207 -116 -356q-136 -199 -382 -199z" />
    <glyph glyph-name="cacute" unicode="&#x107;" horiz-adv-x="921" 
d="M526 1366h181l-187 -274h-164zM653 647q-25 156 -175 156q-96 0 -150 -96q-56 -88 -56 -239t56 -240t155 -89q153 0 185 195h198q-18 -143 -96 -238q-104 -125 -286 -125t-289 119q-127 138 -127 368t112 372t308 141q194 0 294 -131q61 -78 72 -193h-201z" />
    <glyph glyph-name="Ccircumflex" unicode="&#x108;" horiz-adv-x="1179" 
d="M686 1735l184 -260h-180l-100 147l-98 -147h-183l185 260h192zM622 -33q-246 0 -389 180q-160 203 -159 533q0 283 129 479q154 238 426 238q242 0 387 -201q84 -115 96 -268h-221q-18 113 -70 176q-76 100 -198 100q-154 0 -234 -137q-90 -158 -90 -385q0 -226 83 -374
t236 -148q242 0 281 362h221q-10 -207 -116 -356q-136 -199 -382 -199z" />
    <glyph glyph-name="Cdotaccent" unicode="&#x10a;" horiz-adv-x="1179" 
d="M494 1653h192v-205h-192v205zM622 -33q-246 0 -389 180q-160 203 -159 533q0 283 129 479q154 238 426 238q242 0 387 -201q84 -115 96 -268h-221q-18 113 -70 176q-76 100 -198 100q-154 0 -234 -137q-90 -158 -90 -385q0 -226 83 -374t236 -148q242 0 281 362h221
q-10 -207 -116 -356q-136 -199 -382 -199z" />
    <glyph glyph-name="cdotaccent" unicode="&#x10b;" horiz-adv-x="921" 
d="M365 1311h192v-205h-192v205zM653 647q-25 156 -175 156q-96 0 -150 -96q-56 -88 -56 -239t56 -240t155 -89q153 0 185 195h198q-18 -143 -96 -238q-104 -125 -286 -125t-289 119q-127 138 -127 368t112 372t308 141q194 0 294 -131q61 -78 72 -193h-201z" />
    <glyph glyph-name="Ccaron" unicode="&#x10c;" horiz-adv-x="1179" 
d="M494 1475l-185 260h180l101 -150l100 150h180l-182 -260h-194zM622 -33q-246 0 -389 180q-160 203 -159 533q0 283 129 479q154 238 426 238q242 0 387 -201q84 -115 96 -268h-221q-18 113 -70 176q-76 100 -198 100q-154 0 -234 -137q-90 -158 -90 -385q0 -226 83 -374
t236 -148q242 0 281 362h221q-10 -207 -116 -356q-136 -199 -382 -199z" />
    <glyph glyph-name="ccaron" unicode="&#x10d;" horiz-adv-x="921" 
d="M373 1092l-160 274h168l84 -154l86 154h158l-158 -274h-178zM653 647q-25 156 -175 156q-96 0 -150 -96q-56 -88 -56 -239t56 -240t155 -89q153 0 185 195h198q-18 -143 -96 -238q-104 -125 -286 -125t-289 119q-127 138 -127 368t112 372t308 141q194 0 294 -131
q61 -78 72 -193h-201z" />
    <glyph glyph-name="Dcaron" unicode="&#x10e;" horiz-adv-x="1196" 
d="M502 1475l-185 260h181l100 -150l100 150h181l-183 -260h-194zM350 1178v-990h174q102 0 158 20t100 71q115 133 115 404t-117 396q-53 55 -110 77t-144 22h-176zM555 0h-430v1366h420q274 0 411 -154q166 -180 166 -520q0 -397 -215 -586q-86 -74 -171 -90t-181 -16z
" />
    <glyph glyph-name="dcaron" unicode="&#x10f;" horiz-adv-x="1017" 
d="M1024 1366h166v-135q0 -143 -72 -199q-33 -27 -94 -33v76q65 17 76 111h-76v180zM486 803q-97 0 -150 -84q-64 -91 -64 -239t56 -244t161 -96q103 0 159 94t56 246t-60 237q-61 86 -158 86zM901 1366v-1366h-186v106q-97 -135 -273 -135q-176 1 -275 145t-99 366t104 354
q105 135 272 135t256 -133v528h201z" />
    <glyph glyph-name="Dcroat" unicode="&#x110;" horiz-adv-x="1196" 
d="M350 608v-420h174q111 0 160 21q102 41 158 168t55 315q0 262 -117 387q-53 55 -110 77t-144 22h-176v-375h273v-195h-273zM125 608h-125v195h125v563h420q274 0 411 -154q166 -180 166 -520q0 -397 -215 -586q-86 -74 -171 -90t-181 -16h-430v608z" />
    <glyph glyph-name="dcroat" unicode="&#x111;" horiz-adv-x="1017" 
d="M487 803q-96 0 -151 -84q-64 -91 -64 -239t56 -244t162 -96t160 94t54 246t-60 237q-61 86 -157 86zM901 1081v-1081h-186v106q-97 -135 -273 -135q-176 1 -275 145t-99 366t104 354q105 135 272 135t256 -133v243h-245v129h245v156h201v-156h90v-129h-90z" />
    <glyph glyph-name="Emacron" unicode="&#x112;" horiz-adv-x="1038" 
d="M229 1612h582v-133h-582v133zM958 0h-833v1366h823v-195h-598v-368h553v-195h-553v-415h608v-193z" />
    <glyph glyph-name="emacron" unicode="&#x113;" horiz-adv-x="944" 
d="M478 815q-108 0 -165 -102q-33 -64 -41 -152h404q-6 78 -35 139q-55 115 -163 115zM486 127q136 0 184 156h188q-14 -78 -55 -142q-109 -170 -312 -170q-203 -1 -313 141t-110 353t112 359t295 147q152 0 254 -101q148 -141 148 -450h-609q2 -86 27 -150
q55 -143 191 -143zM209 1268h528v-129h-528v129z" />
    <glyph glyph-name="Ebreve" unicode="&#x114;" horiz-adv-x="1038" 
d="M522 1608q70 0 105 47q16 25 30 80h136q-10 -76 -31 -123q-70 -143 -242 -144q-240 0 -272 267h135q14 -59 42 -93q27 -34 97 -34zM958 0h-833v1366h823v-195h-598v-368h553v-195h-553v-415h608v-193z" />
    <glyph glyph-name="ebreve" unicode="&#x115;" horiz-adv-x="944" 
d="M473 1092q-221 0 -256 274h129q23 -139 126 -139t126 139h131q-35 -274 -256 -274zM478 815q-108 0 -165 -102q-33 -64 -41 -152h404q-6 78 -35 139q-55 115 -163 115zM486 127q136 0 184 156h188q-14 -78 -55 -142q-109 -170 -312 -170q-203 -1 -313 141t-110 353
t112 359t295 147q152 0 254 -101q148 -141 148 -450h-609q2 -86 27 -150q55 -143 191 -143z" />
    <glyph glyph-name="Edotaccent" unicode="&#x116;" horiz-adv-x="1038" 
d="M424 1653h192v-205h-192v205zM958 0h-833v1366h823v-195h-598v-368h553v-195h-553v-415h608v-193z" />
    <glyph glyph-name="edotaccent" unicode="&#x117;" horiz-adv-x="944" 
d="M375 1311h192v-205h-192v205zM478 815q-108 0 -165 -102q-33 -64 -41 -152h404q-6 78 -35 139q-55 115 -163 115zM486 127q136 0 184 156h188q-14 -78 -55 -142q-109 -170 -312 -170q-203 -1 -313 141t-110 353t112 359t295 147q152 0 254 -101q148 -141 148 -450h-609
q2 -86 27 -150q55 -143 191 -143z" />
    <glyph glyph-name="Eogonek" unicode="&#x118;" horiz-adv-x="1040" 
d="M958 0h-4l-6 -4q-88 -80 -88 -160q0 -49 41 -78q27 -14 58 -14t75 14v-110q-61 -23 -106 -23q-92 0 -146 50t-53 135q0 85 76 159l31 31h-711v1366h823v-195h-598v-368h553v-195h-553v-415h608v-193z" />
    <glyph glyph-name="eogonek" unicode="&#x119;" horiz-adv-x="944" 
d="M478 815q-108 0 -165 -102q-33 -64 -41 -152h404q-6 78 -35 139q-55 115 -163 115zM486 127q136 0 184 156h188q-14 -78 -55 -142q-64 -100 -168 -143q-90 -84 -90 -146t34 -84q35 -20 63 -20t77 16v-110q-61 -23 -109 -23q-94 0 -147 54q-51 45 -51 128t75 158
q-158 0 -258 88q-162 137 -161 402q0 215 112 363t295 147q152 0 254 -101q147 -141 148 -450h-609q2 -86 27 -150q55 -143 191 -143z" />
    <glyph glyph-name="Ecaron" unicode="&#x11a;" horiz-adv-x="1038" 
d="M424 1475l-184 260h180l100 -150l101 150h180l-183 -260h-194zM958 0h-833v1366h823v-195h-598v-368h553v-195h-553v-415h608v-193z" />
    <glyph glyph-name="ecaron" unicode="&#x11b;" horiz-adv-x="944" 
d="M385 1092l-160 274h168l84 -154l86 154h158l-158 -274h-178zM478 815q-108 0 -165 -102q-33 -64 -41 -152h404q-6 78 -35 139q-55 115 -163 115zM486 127q136 0 184 156h188q-14 -78 -55 -142q-109 -170 -312 -170q-203 -1 -313 141t-110 353t112 359t295 147
q152 0 254 -101q148 -141 148 -450h-609q2 -86 27 -150q55 -143 191 -143z" />
    <glyph glyph-name="Gcircumflex" unicode="&#x11c;" horiz-adv-x="1255" 
d="M725 1735l182 -260h-180l-100 147l-99 -147h-182l184 260h195zM1147 729v-729h-172v158q-61 -74 -115 -115q-100 -76 -242 -76q-217 0 -362 158q-182 205 -182 546t174 546q150 180 406 180t397 -221q70 -106 82 -246h-218q-18 109 -71 178q-78 96 -205 96
q-158 0 -249 -142t-91 -394q0 -250 111 -396q86 -113 233 -112q197 0 270 205q27 68 29 180h-301v184h506z" />
    <glyph glyph-name="gcircumflex" unicode="&#x11d;" horiz-adv-x="997" 
d="M588 1366l160 -274h-168l-84 153l-88 -153h-156l158 274h178zM471 801q-86 0 -142 -83q-57 -83 -57 -239t70 -237q55 -66 140 -66q84 0 144 84t60 240t-74 239q-55 62 -141 62zM473 -207q125 0 170 94q41 82 41 211v49q-84 -139 -251 -139t-266 128t-99 348t102 354
q104 133 270 133t252 -140v111h189v-764q0 -143 -17 -225q-66 -307 -398 -307t-368 274h203q25 -127 172 -127z" />
    <glyph glyph-name="Gbreve" unicode="&#x11e;" horiz-adv-x="1255" 
d="M629 1608q70 0 104 47q16 27 29 80h137q-10 -76 -31 -123q-70 -143 -241 -144q-115 0 -186 67t-87 200h138q12 -57 34 -88q33 -39 103 -39zM1147 729v-729h-172v158q-61 -74 -115 -115q-100 -76 -242 -76q-217 0 -362 158q-182 205 -182 546t174 546q150 180 406 180
t397 -221q70 -106 82 -246h-218q-18 109 -71 178q-78 96 -205 96q-158 0 -249 -142t-91 -394q0 -250 111 -396q86 -113 233 -112q197 0 270 205q27 68 29 180h-301v184h506z" />
    <glyph glyph-name="gbreve" unicode="&#x11f;" horiz-adv-x="997" 
d="M500 1092q-221 0 -256 274h129q23 -139 127 -139t127 139h129q-35 -274 -256 -274zM471 801q-86 0 -142 -83q-57 -83 -57 -239t70 -237q55 -66 140 -66q84 0 144 84t60 240t-74 239q-55 62 -141 62zM473 -207q125 0 170 94q41 82 41 211v49q-84 -139 -251 -139t-266 128
t-99 348t102 354q104 133 270 133t252 -140v111h189v-764q0 -143 -17 -225q-66 -307 -398 -307t-368 274h203q25 -127 172 -127z" />
    <glyph glyph-name="Gdotaccent" unicode="&#x120;" horiz-adv-x="1255" 
d="M530 1653h193v-205h-193v205zM1147 729v-729h-172v158q-61 -74 -115 -115q-100 -76 -242 -76q-217 0 -362 158q-182 205 -182 546t174 546q150 180 406 180t397 -221q70 -106 82 -246h-218q-18 109 -71 178q-78 96 -205 96q-158 0 -249 -142t-91 -394q0 -250 111 -396
q86 -113 233 -112q197 0 270 205q27 68 29 180h-301v184h506z" />
    <glyph glyph-name="gdotaccent" unicode="&#x121;" horiz-adv-x="997" 
d="M403 1311h193v-205h-193v205zM471 801q-86 0 -142 -83q-57 -83 -57 -239t70 -237q55 -66 140 -66q84 0 144 84t60 240t-74 239q-55 62 -141 62zM473 -207q125 0 170 94q41 82 41 211v49q-84 -139 -251 -139t-266 128t-99 348t102 354q104 133 270 133t252 -140v111h189
v-764q0 -143 -17 -225q-66 -307 -398 -307t-368 274h203q25 -127 172 -127z" />
    <glyph glyph-name="Gcommaaccent" unicode="&#x122;" horiz-adv-x="1255" 
d="M557 -94h166v-133q0 -217 -166 -234v78q33 8 51 32t25 79h-76v178zM1147 729v-729h-172v158q-61 -74 -115 -115q-100 -76 -242 -76q-217 0 -362 158q-182 205 -182 546t174 546q150 180 406 180t397 -221q70 -106 82 -246h-218q-18 109 -71 178q-78 96 -205 96
q-158 0 -249 -142t-91 -394q0 -250 111 -396q86 -113 233 -112q197 0 270 205q27 68 29 180h-301v184h506z" />
    <glyph glyph-name="gcommaaccent" unicode="&#x123;" horiz-adv-x="997" 
d="M580 1092h-166v135q0 141 73 198q33 23 93 33v-78q-64 -16 -74 -108h74v-180zM471 801q-86 0 -142 -83q-57 -83 -57 -239t70 -237q55 -66 140 -66q84 0 144 84t60 240t-74 239q-55 62 -141 62zM473 -207q125 0 170 94q41 82 41 211v49q-84 -139 -251 -139t-266 128
t-99 348t102 354q104 133 270 133t252 -140v111h189v-764q0 -143 -17 -225q-66 -307 -398 -307t-368 274h203q25 -127 172 -127z" />
    <glyph glyph-name="Hcircumflex" unicode="&#x124;" horiz-adv-x="1210" 
d="M702 1735l185 -260h-180l-103 147l-98 -147h-180l182 260h194zM350 0h-225v1366h225v-553h510v553h225v-1366h-225v621h-510v-621z" />
    <glyph glyph-name="Imacron" unicode="&#x12a;" horiz-adv-x="579" 
d="M0 1612h582v-133h-582v133zM401 0h-225v1366h225v-1366z" />
    <glyph glyph-name="imacron" unicode="&#x12b;" horiz-adv-x="528" 
d="M365 0h-201v942h201v-942zM0 1268h528v-129h-528v129z" />
    <glyph glyph-name="ibreve" unicode="&#x12d;" horiz-adv-x="446" 
d="M223 1092q-221 0 -256 274h129q23 -139 127 -139t127 139h129q-35 -274 -256 -274zM324 0h-201v942h201v-942z" />
    <glyph glyph-name="Iogonek" unicode="&#x12e;" horiz-adv-x="475" 
d="M319 -375q-92 0 -145 50t-53 135t76 159l30 31h-102v1366h223v-1366q-94 -70 -94 -164q0 -51 39 -78q27 -14 59 -14t74 14v-110q-61 -23 -107 -23z" />
    <glyph glyph-name="iogonek" unicode="&#x12f;" horiz-adv-x="442" 
d="M322 1159h-201v207h201v-207zM322 0h-5q-94 -82 -94 -146t35 -83q59 -34 139 -7v-110q-61 -23 -106 -23q-91 -1 -145 51t-54 138t107 180h-78v942h201v-942z" />
    <glyph glyph-name="Idotaccent" unicode="&#x130;" horiz-adv-x="475" 
d="M141 1653h193v-205h-193v205zM350 0h-225v1366h225v-1366z" />
    <glyph glyph-name="dotlessi" unicode="&#x131;" horiz-adv-x="442" 
d="M322 0h-201v942h201v-942z" />
    <glyph glyph-name="Kcommaaccent" unicode="&#x136;" horiz-adv-x="1107" 
d="M498 -94h166v-133q0 -217 -166 -234v78q34 8 52 32t23 79h-75v178zM348 0h-223v1366h223v-582l473 582h262l-477 -565l506 -801h-258l-391 629l-115 -133v-496z" />
    <glyph glyph-name="kcommaaccent" unicode="&#x137;" horiz-adv-x="907" 
d="M367 -94h165v-133q0 -217 -165 -234v78q33 8 51 32t24 79h-75v178zM317 0h-200v1366h200v-764l316 340h233l-334 -348l367 -594h-235l-269 453l-78 -82v-371z" />
    <glyph glyph-name="kgreenlandic" unicode="&#x138;" horiz-adv-x="907" 
d="M317 942v-367l316 367h233l-331 -371l364 -571h-231l-260 432l-91 -100v-332h-200v942h200z" />
    <glyph glyph-name="Lacute" unicode="&#x139;" horiz-adv-x="966" 
d="M545 1735h186l-186 -260h-170zM915 0h-790v1366h225v-1173h565v-193z" />
    <glyph glyph-name="lacute" unicode="&#x13a;" horiz-adv-x="446" 
d="M285 1749h180l-186 -274h-164zM324 0h-201v1366h201v-1366z" />
    <glyph glyph-name="Lcommaaccent" unicode="&#x13b;" horiz-adv-x="966" 
d="M418 -94h166v-133q0 -217 -166 -234v78q34 8 52 32t24 79h-76v178zM915 0h-790v1366h225v-1173h565v-193z" />
    <glyph glyph-name="lcommaaccent" unicode="&#x13c;" horiz-adv-x="442" 
d="M137 -94h166v-133q0 -217 -166 -234v78q33 8 51 32t25 79h-76v178zM322 0h-201v1366h201v-1366z" />
    <glyph glyph-name="Lcaron" unicode="&#x13d;" horiz-adv-x="966" 
d="M596 1366h166v-135q0 -143 -72 -199q-33 -27 -94 -33v76q65 17 76 111h-76v180zM915 0h-790v1366h225v-1173h565v-193z" />
    <glyph glyph-name="lcaron" unicode="&#x13e;" horiz-adv-x="442" 
d="M457 1366h166v-135q0 -143 -72 -199q-33 -27 -94 -33v76q66 17 75 111h-75v180zM322 0h-201v1366h201v-1366z" />
    <glyph glyph-name="Lslash" unicode="&#x141;" horiz-adv-x="966" 
d="M125 1366h225v-526l244 178v-193l-244 -178v-454h565v-193h-790v498l-125 -92v192l125 94v674z" />
    <glyph glyph-name="lslash" unicode="&#x142;" horiz-adv-x="442" 
d="M121 1366h201v-463l120 109v-181l-120 -106v-725h-201v561l-121 -108v180l121 106v627z" />
    <glyph glyph-name="Nacute" unicode="&#x143;" horiz-adv-x="1198" 
d="M662 1735h186l-186 -260h-170zM334 0h-209v1366h231l508 -1014v1014h209v-1366h-233l-506 1008v-1008z" />
    <glyph glyph-name="nacute" unicode="&#x144;" horiz-adv-x="972" 
d="M551 1366h180l-186 -274h-164zM317 0h-200v942h188v-119q96 147 266 148q109 0 187 -64t96 -178q6 -43 6 -127v-602h-201v549q0 113 -13 156t-47 71t-87 27q-88 0 -139 -70q-37 -47 -47 -125q-8 -41 -9 -135v-473z" />
    <glyph glyph-name="Ncommaaccent" unicode="&#x145;" horiz-adv-x="1198" 
d="M526 -94h166v-133q0 -217 -166 -234v78q34 8 52 32t24 79h-76v178zM334 0h-209v1366h231l508 -1014v1014h209v-1366h-233l-506 1008v-1008z" />
    <glyph glyph-name="ncommaaccent" unicode="&#x146;" horiz-adv-x="972" 
d="M403 -94h166v-133q0 -217 -166 -234v78q33 8 52 32t24 79h-76v178zM317 0h-200v942h188v-119q96 147 266 148q109 0 187 -64t96 -178q6 -43 6 -127v-602h-201v549q0 113 -13 156t-47 71t-87 27q-88 0 -139 -70q-37 -47 -47 -125q-8 -41 -9 -135v-473z" />
    <glyph glyph-name="Ncaron" unicode="&#x147;" horiz-adv-x="1198" 
d="M504 1475l-185 260h181l100 -150l100 150h181l-183 -260h-194zM334 0h-209v1366h231l508 -1014v1014h209v-1366h-233l-506 1008v-1008z" />
    <glyph glyph-name="ncaron" unicode="&#x148;" horiz-adv-x="972" 
d="M399 1092l-159 274h168l84 -154l86 154h157l-157 -274h-179zM317 0h-200v942h188v-119q96 147 266 148q109 0 187 -64t96 -178q6 -43 6 -127v-602h-201v549q0 113 -13 156t-47 71t-87 27q-88 0 -139 -70q-37 -47 -47 -125q-8 -41 -9 -135v-473z" />
    <glyph glyph-name="napostrophe" unicode="&#x149;" horiz-adv-x="1071" 
d="M14 1139h166v-135q0 -143 -71 -199q-33 -27 -95 -33v78q71 18 74 108h-74v181zM418 0h-203v942h191v-119q94 147 266 148q106 0 184 -62q82 -61 96 -180q6 -43 6 -127v-602h-200v549q0 113 -14 156t-47 71q-34 28 -87 27q-88 0 -139 -70q-37 -47 -45 -111t-8 -149v-473z
" />
    <glyph glyph-name="Omacron" unicode="&#x14c;" horiz-adv-x="1259" 
d="M340 1612h582v-133h-582v133zM963 684q0 232 -89 376t-241 144t-243 -141t-91 -374t84 -378q43 -78 113 -115q163 -87 307 23q82 66 121 195t39 270zM74 704q0 307 158 500t398 193q241 0 394 -187q164 -205 164 -508t-127 -497q-78 -117 -189 -177t-239 -61
q-281 0 -436 242q-123 188 -123 495z" />
    <glyph glyph-name="omacron" unicode="&#x14d;" horiz-adv-x="985" 
d="M495 803q-99 0 -161 -87t-62 -246t62 -245t158 -86q98 0 153 74q70 90 70 254t-62 250q-59 86 -158 86zM490 971q198 0 314 -135t116 -371t-129 -375q-111 -119 -305 -119q-194 -1 -307 141q-111 142 -111 355t102 350q121 154 320 154zM229 1268h529v-129h-529v129z" />
    <glyph glyph-name="Ohungarumlaut" unicode="&#x150;" horiz-adv-x="1259" 
d="M844 1735h186l-186 -260h-170zM530 1735h187l-185 -260h-172zM963 684q0 232 -89 376t-241 144t-243 -141t-91 -374t84 -378q43 -78 113 -115q163 -87 307 23q82 66 121 195t39 270zM74 704q0 307 158 500t398 193q241 0 394 -187q164 -205 164 -508t-127 -497
q-78 -117 -189 -177t-239 -61q-281 0 -436 242q-123 188 -123 495z" />
    <glyph glyph-name="ohungarumlaut" unicode="&#x151;" horiz-adv-x="995" 
d="M702 1366h181l-185 -274h-166zM401 1366h181l-185 -274h-166zM495 803q-99 0 -161 -87t-62 -246t62 -245t158 -86q98 0 153 74q70 90 70 254t-62 250q-59 86 -158 86zM490 971q198 0 314 -135t116 -371t-129 -375q-111 -119 -305 -119q-194 -1 -307 141
q-111 142 -111 355t102 350q121 154 320 154z" />
    <glyph glyph-name="OE" unicode="&#x152;" horiz-adv-x="1787" 
d="M605 1204q-138 0 -222 -139q-84 -145 -84 -377q0 -384 190 -495q51 -33 125 -33t148 64t110 192q36 127 35 268q0 232 -82 376t-220 144zM899 1366h797v-195h-592v-368h547v-195h-547v-415h602v-193h-807v127q-125 -160 -298 -160t-310 121q-217 197 -217 594
q0 324 151 524q74 96 172 144t197 47q184 0 305 -160v129z" />
    <glyph glyph-name="oe" unicode="&#x153;" horiz-adv-x="1501" 
d="M1040 815q-104 0 -157 -102q-33 -64 -41 -152h391q-6 78 -35 139q-54 115 -158 115zM474 803q-91 0 -146 -87q-56 -87 -56 -246t56 -245t144 -86q89 0 138 74q64 90 64 252t-54 250t-146 88zM1060 -29q-193 0 -300 150q-106 -150 -294 -150q-188 -1 -293 141t-105 355
t104 359t295 145q190 0 297 -156q106 156 278 156q145 0 246 -101q146 -141 146 -450h-594q13 -293 211 -293q125 0 176 156h188q-14 -74 -53 -142q-109 -170 -302 -170z" />
    <glyph glyph-name="Racute" unicode="&#x154;" horiz-adv-x="1202" 
d="M664 1735h186l-186 -260h-170zM371 1178v-439h196q145 0 199 37q80 58 80 190t-92 183q-53 29 -160 29h-223zM371 0h-226v1366h504q119 0 187 -25q117 -39 176 -135t59 -219q0 -250 -221 -336q88 -25 127 -79t50 -119t22 -195t23 -175q12 -44 42 -83h-237q-17 37 -25 71
q-8 33 -13 153t-22 179q-31 111 -104 142q-53 18 -144 18h-198v-563z" />
    <glyph glyph-name="racute" unicode="&#x155;" horiz-adv-x="622" 
d="M379 1366h180l-186 -274h-164zM317 0h-200v942h188v-156q86 184 266 185q20 0 41 -2v-205q-45 6 -69 6q-137 0 -195 -135q-31 -74 -31 -254v-381z" />
    <glyph glyph-name="Rcommaaccent" unicode="&#x156;" horiz-adv-x="1202" 
d="M522 -94h166v-133q0 -217 -166 -234v78q34 8 52 32t24 79h-76v178zM371 1178v-439h196q145 0 199 37q80 58 80 190t-92 183q-53 29 -160 29h-223zM371 0h-226v1366h504q119 0 187 -25q117 -39 176 -135t59 -219q0 -250 -221 -336q88 -25 127 -79t50 -119t22 -195t23 -175
q12 -44 42 -83h-237q-17 37 -25 71q-8 33 -13 153t-22 179q-31 111 -104 142q-53 18 -144 18h-198v-563z" />
    <glyph glyph-name="rcommaaccent" unicode="&#x157;" horiz-adv-x="622" 
d="M135 -94h166v-133q0 -217 -166 -234v78q33 8 51 32t25 79h-76v178zM317 0h-200v942h188v-156q86 184 266 185q20 0 41 -2v-205q-45 6 -69 6q-137 0 -195 -135q-31 -74 -31 -254v-381z" />
    <glyph glyph-name="Rcaron" unicode="&#x158;" horiz-adv-x="1202" 
d="M506 1475l-184 260h180l100 -150l100 150h181l-183 -260h-194zM371 1178v-439h196q145 0 199 37q80 58 80 190t-92 183q-53 29 -160 29h-223zM371 0h-226v1366h504q119 0 187 -25q117 -39 176 -135t59 -219q0 -250 -221 -336q88 -25 127 -79t50 -119t22 -195t23 -175
q12 -44 42 -83h-237q-17 37 -25 71q-8 33 -13 153t-22 179q-31 111 -104 142q-53 18 -144 18h-198v-563z" />
    <glyph glyph-name="rcaron" unicode="&#x159;" horiz-adv-x="655" 
d="M256 1092l-160 274h168l84 -154l86 154h158l-158 -274h-178zM348 0h-201v942h189v-156q86 184 266 185q20 0 41 -2v-205q-45 6 -70 6q-135 0 -194 -135q-31 -74 -31 -254v-381z" />
    <glyph glyph-name="Sacute" unicode="&#x15a;" horiz-adv-x="1044" 
d="M584 1735h186l-186 -260h-170zM524 152q114 0 166 63t53 139q0 115 -106 183q-53 33 -203 95t-233 140q-103 102 -103 263t123 270q111 92 281 92q236 0 352 -158q68 -86 80 -235h-219q-10 86 -43 129q-51 70 -168 69q-84 0 -136 -44t-52 -129t64 -137q66 -52 197 -106
t177 -77q223 -125 223 -353q0 -164 -120 -276q-119 -112 -343 -113q-224 0 -348 160q-90 115 -98 291h233q4 -106 43 -164q66 -102 180 -102z" />
    <glyph glyph-name="sacute" unicode="&#x15b;" horiz-adv-x="849" 
d="M492 1366h180l-187 -274h-163zM586 256q0 80 -86 121q-23 12 -162 47q-258 61 -258 272q0 121 89 198t239 77q205 0 297 -125q43 -59 51 -146h-201q-18 119 -152 119q-59 0 -98 -31q-39 -30 -39 -84t37 -80t160 -52t182 -62q145 -78 145 -222t-96 -231q-96 -86 -262 -86
q-325 0 -364 295h198q18 -143 166 -143q82 0 118 38t36 95z" />
    <glyph glyph-name="Scircumflex" unicode="&#x15c;" horiz-adv-x="1044" 
d="M506 1200q-82 0 -136 -48t-54 -143t116 -159q53 -29 206 -88t216 -115q123 -102 123 -271t-122 -289t-343 -120t-346 160q-90 115 -98 291h233q4 -102 43 -164q62 -100 176 -100t168 66t55 147q0 104 -108 172q-37 23 -219 100q-147 57 -219 129q-99 96 -99 257t129 271
q113 100 263 100t253 -59q176 -98 191 -333h-219q-25 196 -209 196zM621 1735l182 -260h-180l-101 147l-98 -147h-182l184 260h195z" />
    <glyph glyph-name="scircumflex" unicode="&#x15d;" horiz-adv-x="849" 
d="M586 256q0 80 -86 121q-23 12 -162 47q-258 61 -258 272q0 121 89 198t239 77q205 0 297 -125q43 -59 51 -146h-201q-18 119 -152 119q-59 0 -98 -31q-39 -30 -39 -84t37 -80t160 -52t182 -62q145 -78 145 -222t-96 -231q-96 -86 -262 -86q-325 0 -364 295h198
q18 -143 166 -143q82 0 118 38t36 95zM512 1366l162 -274h-168l-84 153l-88 -153h-158l160 274h176z" />
    <glyph glyph-name="Scedilla" unicode="&#x15e;" horiz-adv-x="1044" 
d="M524 152q114 0 166 63t53 139q0 115 -106 183q-53 33 -221 102q-317 129 -318 391q0 166 123 275q111 92 281 92q236 0 352 -158q68 -86 80 -235h-219q-10 86 -43 129q-51 70 -168 69q-84 0 -136 -44t-52 -129t64 -137q66 -52 234 -120t240 -133q123 -115 123 -283
q0 -133 -76 -229q-121 -158 -364 -160l-29 -76q20 13 62 13t92 -31q68 -41 68 -115t-48 -120q-53 -48 -146 -48t-141 56q-23 25 -24 55h108q8 -31 60 -31q74 0 73 76q0 38 -22 60t-58 22t-49 -29h-110l67 174q-123 20 -207 86q-153 119 -165 359h233q4 -106 43 -164
q66 -102 180 -102z" />
    <glyph glyph-name="scedilla" unicode="&#x15f;" horiz-adv-x="849" 
d="M586 256q0 80 -84 121q-27 12 -164 47q-258 61 -258 272q0 121 89 198t239 77q205 0 297 -125q43 -59 51 -146h-201q-18 119 -152 119q-59 0 -98 -31t-39 -81q0 -72 74 -103q25 -10 168 -45q283 -63 283 -283q0 -104 -66 -188q-88 -113 -287 -117l-28 -80q20 13 61 13
t88 -31q66 -41 66 -115t-49 -120q-48 -46 -140 -48q-92 0 -137 56q-20 27 -23 55h107q10 -31 55 -31q74 0 74 76q0 38 -22 60t-57 22q-36 0 -48 -29h-106l67 178q-115 23 -172 72q-88 76 -106 217h198q18 -143 166 -143q82 0 118 38t36 95z" />
    <glyph glyph-name="Scaron" unicode="&#x160;" horiz-adv-x="1044" 
d="M426 1475l-184 260h180l100 -150l101 150h180l-182 -260h-195zM524 152q114 0 166 63t53 139q0 115 -106 183q-53 33 -203 95t-233 140q-103 102 -103 263t123 270q111 92 281 92q236 0 352 -158q68 -86 80 -235h-219q-10 86 -43 129q-51 70 -168 69q-84 0 -136 -44
t-52 -129t64 -137q66 -52 197 -106t177 -77q223 -125 223 -353q0 -164 -120 -276q-119 -112 -343 -113q-224 0 -348 160q-90 115 -98 291h233q4 -106 43 -164q66 -102 180 -102z" />
    <glyph glyph-name="scaron" unicode="&#x161;" horiz-adv-x="849" 
d="M338 1092l-160 274h168l84 -154l86 154h158l-158 -274h-178zM586 256q0 80 -86 121q-23 12 -162 47q-258 61 -258 272q0 121 89 198t239 77q205 0 297 -125q43 -59 51 -146h-201q-18 119 -152 119q-59 0 -98 -31q-39 -30 -39 -84t37 -80t160 -52t182 -62
q145 -78 145 -222t-96 -231q-96 -86 -262 -86q-325 0 -364 295h198q18 -143 166 -143q82 0 118 38t36 95z" />
    <glyph glyph-name="Tcommaaccent" unicode="&#x162;" horiz-adv-x="1013" 
d="M426 -94h166v-133q0 -217 -166 -234v78q34 8 52 32t24 79h-76v178zM621 0h-226v1171h-356v195h936v-195h-354v-1171z" />
    <glyph glyph-name="Tcommaaccent" unicode="&#x21a;" horiz-adv-x="1013" 
d="M426 -94h166v-133q0 -217 -166 -234v78q34 8 52 32t24 79h-76v178zM621 0h-226v1171h-356v195h936v-195h-354v-1171z" />
    <glyph glyph-name="tcommaaccent" unicode="&#x163;" horiz-adv-x="546" 
d="M186 -94h166v-133q0 -217 -166 -234v78q34 8 52 32t24 79h-76v178zM156 786h-138v156h134v117l147 196h55v-313h160v-156h-162v-491q0 -86 13 -107q18 -36 65 -36t84 14v-166q-47 -20 -135 -20q-145 0 -195 88q-29 53 -28 206v512z" />
    <glyph glyph-name="tcommaaccent" unicode="&#x21b;" horiz-adv-x="546" 
d="M186 -94h166v-133q0 -217 -166 -234v78q34 8 52 32t24 79h-76v178zM156 786h-138v156h134v117l147 196h55v-313h160v-156h-162v-491q0 -86 13 -107q18 -36 65 -36t84 14v-166q-47 -20 -135 -20q-145 0 -195 88q-29 53 -28 206v512z" />
    <glyph glyph-name="Tcaron" unicode="&#x164;" horiz-adv-x="1013" 
d="M412 1475l-185 260h181l100 -150l100 150h180l-182 -260h-194zM621 0h-226v1171h-356v195h936v-195h-354v-1171z" />
    <glyph glyph-name="tcaron" unicode="&#x165;" horiz-adv-x="546" 
d="M541 1366h166v-135q0 -143 -72 -199q-33 -27 -94 -33v76q66 17 75 111h-75v180zM156 786h-138v156h134v117l147 196h55v-313h160v-156h-162v-491q0 -86 13 -107q18 -36 65 -36t84 14v-166q-47 -20 -135 -20q-145 0 -195 88q-29 53 -28 206v512z" />
    <glyph glyph-name="Tbar" unicode="&#x166;" horiz-adv-x="1013" 
d="M395 0v840h-151v129h151v202h-356v195h936v-195h-354v-202h149v-129h-149v-840h-226z" />
    <glyph glyph-name="tbar" unicode="&#x167;" horiz-adv-x="546" 
d="M352 786v-63h162v-156h-162v-272q0 -86 13 -107q18 -36 65 -36t84 14v-166q-47 -20 -135 -20q-150 0 -195 88q-29 53 -28 206v293h-138v156h138v63h-138v156h134v117l147 196h55v-313h160v-156h-162z" />
    <glyph glyph-name="utilde" unicode="&#x169;" horiz-adv-x="972" 
d="M379 1196q-43 0 -62 -90h-118q6 66 24 119q56 129 164 129q45 0 98 -29l70 -39q23 -12 41 -12q43 0 57 92h123q-30 -250 -182 -250q-47 0 -120 40t-95 40zM856 942v-942h-188v119q-94 -147 -267 -148q-111 -1 -189 61t-91 181q-8 39 -8 127v602h200v-549q-1 -113 13 -155
t48 -71q34 -28 89 -28q86 0 137 70q37 47 47 125q8 41 8 135v473h201z" />
    <glyph glyph-name="Umacron" unicode="&#x16a;" horiz-adv-x="1175" 
d="M299 1612h582v-133h-582v133zM109 598v768h225v-782q0 -152 14 -211q43 -213 246 -213q162 0 217 139q33 80 33 285v782h223v-772q0 -168 -16 -256q-82 -371 -461 -371q-279 0 -402 205q-51 82 -65 182t-14 244z" />
    <glyph glyph-name="umacron" unicode="&#x16b;" horiz-adv-x="972" 
d="M856 942v-942h-188v119q-94 -147 -267 -148q-111 -1 -189 61t-91 181q-8 39 -8 127v602h200v-549q-1 -113 13 -155t48 -71q34 -28 89 -28q86 0 137 70q37 47 47 125q8 41 8 135v473h201zM223 1268h529v-129h-529v129z" />
    <glyph glyph-name="ubreve" unicode="&#x16d;" horiz-adv-x="972" 
d="M487 1092q-221 0 -256 274h129q23 -139 127 -139t127 139h129q-35 -274 -256 -274zM856 942v-942h-188v119q-94 -147 -267 -148q-111 -1 -189 61t-91 181q-8 39 -8 127v602h200v-549q-1 -113 13 -155t48 -71q34 -28 89 -28q86 0 137 70q37 47 47 125q8 41 8 135v473h201z
" />
    <glyph glyph-name="Uring" unicode="&#x16e;" horiz-adv-x="1175" 
d="M389 1629q1 81 59 139t139 59t138 -57t57 -139t-58 -139t-139 -58t-139 57q-57 57 -57 138zM589 1726q-38 0 -67 -28q-28 -28 -28 -71q0 -42 28 -71q28 -28 67 -28q37 0 65 28t28 70q0 43 -27 72q-28 28 -66 28zM109 598v768h225v-782q0 -152 14 -211q43 -213 246 -213
q162 0 217 139q33 80 33 285v782h223v-772q0 -168 -16 -256q-82 -371 -461 -371q-279 0 -402 205q-51 82 -65 182t-14 244z" />
    <glyph glyph-name="uring" unicode="&#x16f;" horiz-adv-x="972" 
d="M484 1065q-82 0 -139 56q-56 56 -56 138q0 81 57 137t137 56t136 -56q57 -56 57 -136t-55 -138q-55 -57 -137 -57zM486 1356q-38 0 -66 -29t-29 -70q0 -41 29 -71q28 -30 66 -31q38 0 66 29q28 30 28 72t-27 71q-29 29 -67 29zM856 942v-942h-188v119q-94 -147 -267 -148
q-111 -1 -189 61t-91 181q-8 39 -8 127v602h200v-549q-1 -113 13 -155t48 -71q34 -28 89 -28q86 0 137 70q37 47 47 125q8 41 8 135v473h201z" />
    <glyph glyph-name="Uhungarumlaut" unicode="&#x170;" horiz-adv-x="1175" 
d="M801 1735h186l-186 -260h-170zM487 1735h187l-185 -260h-172zM109 598v768h225v-782q0 -152 14 -211q43 -213 246 -213q162 0 217 139q33 80 33 285v782h223v-772q0 -168 -16 -256q-82 -371 -461 -371q-279 0 -402 205q-51 82 -65 182t-14 244z" />
    <glyph glyph-name="uhungarumlaut" unicode="&#x171;" horiz-adv-x="980" 
d="M694 1366h180l-184 -274h-166zM393 1366h180l-184 -274h-166zM856 942v-942h-188v119q-94 -147 -267 -148q-111 -1 -189 61t-91 181q-8 39 -8 127v602h200v-549q-1 -113 13 -155t48 -71q34 -28 89 -28q86 0 137 70q37 47 47 125q8 41 8 135v473h201z" />
    <glyph glyph-name="Uogonek" unicode="&#x172;" horiz-adv-x="1175" 
d="M797 -256q31 0 75 14v-110q-61 -23 -106 -23q-96 0 -148 50t-51 134q0 84 74 160q-14 -2 -49 -2q-281 0 -404 205q-51 82 -65 182t-14 244v768h225v-782q0 -152 14 -211q43 -213 246 -213q162 0 217 139q33 80 33 285v782h223v-772q0 -168 -16 -256q-59 -258 -258 -338
q-94 -82 -95 -164q0 -49 41 -78q27 -14 58 -14z" />
    <glyph glyph-name="uogonek" unicode="&#x173;" horiz-adv-x="972" 
d="M825 -369q-94 0 -147 54q-51 45 -51 131t106 184h-65v119q-94 -147 -267 -148q-111 -1 -189 61t-91 181q-8 39 -8 127v602h200v-549q-1 -113 13 -155t48 -71q34 -28 89 -28q86 0 137 70q37 47 47 125q8 41 8 135v473h201v-942q-96 -74 -96 -154q0 -55 35 -75
q35 -21 65 -21t74 14v-110q-61 -23 -109 -23z" />
    <glyph glyph-name="Wcircumflex" unicode="&#x174;" horiz-adv-x="1536" 
d="M864 1735l185 -260h-181l-100 147l-100 -147h-181l183 260h194zM547 0h-232l-301 1366h228l196 -1057l217 1057h228l215 -1059l198 1059h226l-310 -1366h-229l-217 1055z" />
    <glyph glyph-name="Ycircumflex" unicode="&#x176;" horiz-adv-x="1040" 
d="M616 1735l185 -260h-180l-101 147l-98 -147h-182l184 260h192zM635 0h-225v545l-428 821h254l290 -598l287 598h246l-424 -823v-543z" />
    <glyph glyph-name="ycircumflex" unicode="&#x177;" horiz-adv-x="849" 
d="M512 1366l160 -274h-168l-84 153l-86 -153h-158l160 274h176zM188 -184q61 0 93 65q39 90 47 139l-322 922h219l209 -688l201 688h209l-307 -922q-72 -219 -117 -280q-70 -94 -197 -94q-43 0 -135 10v172q68 -12 100 -12z" />
    <glyph glyph-name="Ydieresis" unicode="&#x178;" horiz-adv-x="1040" 
d="M260 1653h193v-205h-193v205zM586 1653h192v-205h-192v205zM635 0h-225v545l-428 821h254l290 -598l287 598h246l-424 -823v-543z" />
    <glyph glyph-name="Zacute" unicode="&#x179;" horiz-adv-x="1050" 
d="M588 1735h186l-186 -260h-170zM1004 0h-943v186l658 985h-606v195h874v-182l-661 -991h678v-193z" />
    <glyph glyph-name="zacute" unicode="&#x17a;" horiz-adv-x="823" 
d="M477 1366h180l-186 -274h-164zM797 0h-746v160l473 614h-440v168h688v-145l-473 -629h498v-168z" />
    <glyph glyph-name="Zdotaccent" unicode="&#x17b;" horiz-adv-x="1050" 
d="M428 1653h193v-205h-193v205zM1004 0h-943v186l658 985h-606v195h874v-182l-661 -991h678v-193z" />
    <glyph glyph-name="zdotaccent" unicode="&#x17c;" horiz-adv-x="823" 
d="M315 1311h193v-205h-193v205zM797 0h-746v160l473 614h-440v168h688v-145l-473 -629h498v-168z" />
    <glyph glyph-name="Zcaron" unicode="&#x17d;" horiz-adv-x="1050" 
d="M428 1475l-184 260h180l100 -150l101 150h180l-182 -260h-195zM1004 0h-943v186l658 985h-606v195h874v-182l-661 -991h678v-193z" />
    <glyph glyph-name="zcaron" unicode="&#x17e;" horiz-adv-x="823" 
d="M324 1092l-160 274h168l84 -154l86 154h157l-157 -274h-178zM797 0h-746v160l473 614h-440v168h688v-145l-473 -629h498v-168z" />
    <glyph glyph-name="florin" unicode="&#x192;" horiz-adv-x="536" 
d="M51 786v156h137l19 129q20 164 82 232q80 94 223 94q45 0 104 -15l-22 -168q-37 14 -70 15q-70 0 -89 -48t-27 -114l-19 -125h150v-156h-170l-140 -1003h-202l141 1003h-117z" />
    <glyph glyph-name="uni01CD" unicode="&#x1cd;" horiz-adv-x="1134" 
d="M469 1475l-182 260h180l100 -150l101 150h180l-184 -260h-195zM565 1098l-164 -551h326zM10 0l441 1366h233l438 -1366h-235l-107 367h-432l-106 -367h-232z" />
    <glyph glyph-name="uni01CE" unicode="&#x1ce;" horiz-adv-x="948" 
d="M385 1092l-158 274h168l84 -154l86 154h158l-160 -274h-178zM627 379v76q-123 -7 -195 -25t-110 -61q-46 -45 -46 -111t40 -99q40 -34 106 -34q106 0 166 102q39 70 39 152zM782 -25q-66 0 -100 31q-25 27 -41 78q-100 -113 -270 -113q-121 0 -203 64q-100 76 -100 217
t110 227q84 66 240 80q82 8 209 10v78q0 168 -166 168q-150 0 -166 -164h-193q8 147 100 233t278 87q184 0 280 -111q45 -50 52 -124t7 -161v-356q0 -53 10 -70q18 -31 76 -8v-141q-57 -25 -123 -25z" />
    <glyph glyph-name="uni01D3" unicode="&#x1d3;" horiz-adv-x="1175" 
d="M492 1475l-185 260h180l101 -150l100 150h180l-182 -260h-194zM109 598v768h225v-782q0 -152 14 -211q43 -213 246 -213q162 0 217 139q33 80 33 285v782h223v-772q0 -168 -16 -256q-82 -371 -461 -371q-279 0 -402 205q-51 82 -65 182t-14 244z" />
    <glyph glyph-name="uni01D4" unicode="&#x1d4;" horiz-adv-x="972" 
d="M399 1092l-159 274h168l84 -154l86 154h157l-157 -274h-179zM856 942v-942h-188v119q-94 -147 -267 -148q-111 -1 -189 61t-91 181q-8 39 -8 127v602h200v-549q-1 -113 13 -155t48 -71q34 -28 89 -28q86 0 137 70q37 47 47 125q8 41 8 135v473h201z" />
    <glyph glyph-name="Gcaron" unicode="&#x1e6;" horiz-adv-x="1255" 
d="M530 1475l-184 260h180l101 -150l100 150h180l-182 -260h-195zM1147 729v-729h-172v158q-61 -74 -115 -115q-100 -76 -242 -76q-217 0 -362 158q-182 205 -182 546t174 546q150 180 406 180t397 -221q70 -106 82 -246h-218q-18 109 -71 178q-78 96 -205 96
q-158 0 -249 -142t-91 -394q0 -250 111 -396q86 -113 233 -112q197 0 270 205q27 68 29 180h-301v184h506z" />
    <glyph glyph-name="gcaron" unicode="&#x1e7;" horiz-adv-x="997" 
d="M412 1092l-160 274h168l84 -154l86 154h158l-160 -274h-176zM471 801q-86 0 -142 -83q-57 -83 -57 -239t70 -237q55 -66 140 -66q84 0 144 84t60 240t-74 239q-55 62 -141 62zM473 -207q125 0 170 94q41 82 41 211v49q-84 -139 -251 -139t-266 128t-99 348t102 354
q104 133 270 133t252 -140v111h189v-764q0 -143 -17 -225q-66 -307 -398 -307t-368 274h203q25 -127 172 -127z" />
    <glyph glyph-name="Scommaaccent" unicode="&#x218;" horiz-adv-x="1044" 
d="M438 -94h166v-133q0 -217 -166 -234v78q34 8 52 32t24 79h-76v178zM524 152q114 0 166 63t53 139q0 115 -106 183q-53 33 -203 95t-233 140q-103 102 -103 263t123 270q111 92 281 92q236 0 352 -158q68 -86 80 -235h-219q-10 86 -43 129q-51 70 -168 69q-84 0 -136 -44
t-52 -129t64 -137q66 -52 197 -106t177 -77q223 -125 223 -353q0 -164 -120 -276q-119 -112 -343 -113q-224 0 -348 160q-90 115 -98 291h233q4 -106 43 -164q66 -102 180 -102z" />
    <glyph glyph-name="scommaaccent" unicode="&#x219;" horiz-adv-x="849" 
d="M346 -94h166v-133q0 -217 -166 -234v78q34 8 52 32t24 79h-76v178zM586 256q0 80 -86 121q-23 12 -162 47q-258 61 -258 272q0 121 89 198t239 77q205 0 297 -125q43 -59 51 -146h-201q-18 119 -152 119q-59 0 -98 -31q-39 -30 -39 -84t37 -80t160 -52t182 -62
q145 -78 145 -222t-96 -231q-96 -86 -262 -86q-325 0 -364 295h198q18 -143 166 -143q82 0 118 38t36 95z" />
    <glyph glyph-name="afii57929" unicode="&#x2bc;" horiz-adv-x="503" 
d="M129 1366h246v-172q0 -127 -29 -197q-51 -125 -217 -166v119q106 27 111 168h-111v248z" />
    <glyph glyph-name="circumflex" unicode="&#x2c6;" horiz-adv-x="1036" 
d="M606 1366l160 -274h-168l-84 153l-88 -153h-156l158 274h178z" />
    <glyph glyph-name="caron" unicode="&#x2c7;" horiz-adv-x="1036" 
d="M430 1092l-160 274h168l84 -154l86 154h158l-158 -274h-178z" />
    <glyph glyph-name="breve" unicode="&#x2d8;" horiz-adv-x="1036" 
d="M518 1092q-221 0 -256 274h129q23 -139 127 -139t127 139h129q-35 -274 -256 -274z" />
    <glyph glyph-name="dotaccent" unicode="&#x2d9;" 
d="M416 1311h192v-205h-192v205z" />
    <glyph glyph-name="ring" unicode="&#x2da;" 
d="M510 1065q-82 0 -138 56t-56 138q0 81 56 137q58 56 138 56t136 -56t56 -136t-55 -138q-55 -57 -137 -57zM513 1356q-38 0 -67 -29q-28 -29 -28 -70t28 -73q29 -29 68 -29t66 29q26 30 26 72t-26 71q-29 29 -67 29z" />
    <glyph glyph-name="ogonek" unicode="&#x2db;" horiz-adv-x="1036" 
d="M645 -369q-94 -1 -146 51q-53 52 -53 137t109 183h121l-14 -10q-82 -76 -82 -146q0 -93 102 -96q27 0 72 14v-110q-61 -23 -109 -23z" />
    <glyph glyph-name="tilde" unicode="&#x2dc;" horiz-adv-x="1036" 
d="M410 1196q-43 0 -62 -90h-119q14 164 109 223q37 25 81 25t97 -29l72 -39q23 -12 39 -12q41 0 57 92h123q-30 -250 -180 -250q-49 0 -122 40t-95 40z" />
    <glyph glyph-name="hungarumlaut" unicode="&#x2dd;" 
d="M721 1366h180l-184 -274h-166zM420 1366h180l-184 -274h-166z" />
    <glyph glyph-name="uni037E" unicode="&#x37e;" horiz-adv-x="503" 
d="M129 942h246v-246h-246v246zM129 246h246v-170q0 -125 -29 -199q-53 -127 -217 -164v119q109 29 111 168h-111v246z" />
    <glyph glyph-name="anoteleia" unicode="&#x387;" horiz-adv-x="503" 
d="M129 600h246v-246h-246v246z" />
    <glyph glyph-name="uni03A9" unicode="&#x3a9;" horiz-adv-x="1259" 
d="M545 0h-459v180h190q-203 203 -202 555q0 301 182 496q158 166 377 166t377 -170q178 -186 178 -494q0 -350 -205 -553h191v-180h-457v168q94 70 149 166q96 170 96 382t-106 357q-90 127 -225 127t-233 -135t-99 -369q0 -234 125 -409q47 -66 121 -119v-168z" />
    <glyph glyph-name="afii10023" unicode="&#x401;" horiz-adv-x="1038" 
d="M260 1653h193v-205h-193v205zM586 1653h192v-205h-192v205zM958 0h-833v1366h823v-195h-598v-368h553v-195h-553v-415h608v-193z" />
    <glyph glyph-name="afii10051" unicode="&#x402;" horiz-adv-x="1191" 
d="M903 377q0 426 -213 426q-137 0 -176 -148q-18 -68 -18 -192v-463h-226v1171h-256v195h936v-195h-454v-340q92 139 252 140q121 0 202 -76q98 -88 135 -277q25 -115 25 -235q0 -315 -152 -473q-104 -109 -247 -109q-60 1 -109 15v168q49 -16 82 -17q109 0 162 103
q57 106 57 307z" />
    <glyph glyph-name="afii10052" unicode="&#x403;" horiz-adv-x="966" 
d="M590 1735h186l-186 -260h-170zM125 0v1366h790v-195h-565v-1171h-225z" />
    <glyph glyph-name="afii10053" unicode="&#x404;" horiz-adv-x="1179" 
d="M745 803v-195h-444q8 -131 51 -239q82 -209 269 -209q240 0 278 362h221q-10 -207 -116 -356q-137 -199 -382 -199t-389 180q-160 203 -159 533q0 283 129 479q154 238 426 238q242 0 387 -201q84 -115 96 -268h-219q-23 115 -72 176q-76 100 -196 100q-263 0 -320 -401
h440z" />
    <glyph glyph-name="afii10054" unicode="&#x405;" horiz-adv-x="1044" 
d="M524 152q114 0 166 63t53 139q0 115 -106 183q-53 33 -203 95t-233 140q-103 102 -103 263t123 270q111 92 281 92q236 0 352 -158q68 -86 80 -235h-219q-10 86 -43 129q-51 70 -168 69q-84 0 -136 -44t-52 -129t64 -137q66 -52 197 -106t177 -77q223 -125 223 -353
q0 -164 -120 -276q-119 -112 -343 -113q-224 0 -348 160q-90 115 -98 291h233q4 -106 43 -164q66 -102 180 -102z" />
    <glyph glyph-name="afii10055" unicode="&#x406;" horiz-adv-x="475" 
d="M350 0h-225v1366h225v-1366z" />
    <glyph glyph-name="afii10056" unicode="&#x407;" horiz-adv-x="479" 
d="M14 1653h191v-205h-191v205zM274 1653h191v-205h-191v205zM352 0h-225v1366h225v-1366z" />
    <glyph glyph-name="afii10057" unicode="&#x408;" horiz-adv-x="624" 
d="M119 162q121 0 155 114q12 45 17 127v963h225v-874q0 -174 -18 -248q-66 -276 -365 -277q-61 1 -127 15v198q66 -18 113 -18z" />
    <glyph glyph-name="afii10058" unicode="&#x409;" horiz-adv-x="1722" 
d="M1214 641h-153v-442h153q131 0 185 41q78 59 78 185t-91 185q-49 31 -172 31zM1061 1366v-524h176q143 0 225 -29q123 -47 191 -168q49 -90 49 -223q0 -223 -137 -336q-63 -54 -142 -70t-186 -16h-401v1171h-338l-88 -759q-16 -125 -25 -162q-37 -143 -143 -213
q-82 -57 -219 -57h-17v194q66 2 105 35q51 39 63 156l121 1001h766z" />
    <glyph glyph-name="afii10059" unicode="&#x40a;" horiz-adv-x="1746" 
d="M1237 633h-152v-434h152q133 0 184 39q80 61 80 183t-90 181q-49 31 -174 31zM377 825h483v541h225v-541h175q150 0 227 -26q123 -43 190 -166q49 -88 49 -219q0 -217 -137 -328q-63 -54 -141 -70t-188 -16h-400v633h-483v-633h-225v1366h225v-541z" />
    <glyph glyph-name="afii10060" unicode="&#x40b;" horiz-adv-x="1150" 
d="M950 1171h-454v-340q92 139 252 140q106 0 181 -55t97 -164q12 -55 12 -146v-606h-200v575q0 113 -25 156q-37 72 -127 72q-121 0 -168 -127q-23 -63 -22 -213v-463h-226v1171h-256v195h936v-195z" />
    <glyph glyph-name="afii10061" unicode="&#x40c;" horiz-adv-x="1165" 
d="M657 1735h187l-187 -260h-170zM340 0h-221v1366h221v-571h80l461 571h237l-495 -637l544 -729h-239l-510 655h-78v-655z" />
    <glyph glyph-name="uni040D" unicode="&#x40d;" horiz-adv-x="1198" 
d="M547 1475l-187 260h187l170 -260h-170zM125 0v1366h209v-917l530 808v109h209v-1366h-209v913l-530 -813v-100h-209z" />
    <glyph glyph-name="afii10062" unicode="&#x40e;" horiz-adv-x="1040" 
d="M539 1608q70 0 104 47q16 27 29 80h137q-10 -76 -31 -123q-70 -143 -241 -144q-115 0 -186 67t-87 200h137q12 -57 40 -92t98 -35zM246 -33q-68 0 -133 15v198q68 -18 123 -18t96 49q38 49 67 127l17 43l-422 985h248l288 -756l291 756h246l-479 -1120
q-57 -133 -113 -197q-76 -82 -229 -82z" />
    <glyph glyph-name="afii10145" unicode="&#x40f;" horiz-adv-x="1210" 
d="M494 -205v205h-369v1366h225v-1173h510v1173h225v-1366h-366v-205h-225z" />
    <glyph glyph-name="afii10017" unicode="&#x410;" horiz-adv-x="1134" 
d="M565 1098l-164 -551h326zM10 0l441 1366h233l438 -1366h-235l-107 367h-432l-106 -367h-232z" />
    <glyph glyph-name="afii10018" unicode="&#x411;" horiz-adv-x="1067" 
d="M530 641h-180v-442h180q131 0 185 41q78 59 78 185t-91 185q-49 31 -172 31zM125 1366h790v-195h-565v-329h203q143 0 225 -29q123 -47 191 -168q49 -90 49 -223q0 -223 -137 -336q-63 -54 -142 -70t-186 -16h-428v1366z" />
    <glyph glyph-name="afii10019" unicode="&#x412;" horiz-adv-x="1142" 
d="M350 623v-435h215q147 0 201 37q80 57 80 183q0 82 -40 140t-132 70q-49 4 -127 5h-197zM350 1178v-381h189q113 0 161 19t78 83q16 43 17 86q0 133 -93 174q-37 18 -155 19h-197zM125 0v1366h455q145 0 221 -25q123 -41 174 -137q43 -78 43 -170q0 -129 -84 -223
q-39 -41 -111 -76q246 -72 246 -334q1 -131 -71 -241q-105 -161 -359 -160h-514z" />
    <glyph glyph-name="afii10020" unicode="&#x413;" horiz-adv-x="966" 
d="M125 0v1366h790v-195h-565v-1171h-225z" />
    <glyph glyph-name="afii10021" unicode="&#x414;" horiz-adv-x="1249" 
d="M881 193v978h-367l-86 -743q-12 -110 -28 -150t-46 -85h527zM1106 1366v-1173h137v-398h-225v205h-807v-205h-225v398h41q63 -1 107 35t61 153l116 985h795z" />
    <glyph glyph-name="afii10022" unicode="&#x415;" horiz-adv-x="1038" 
d="M958 0h-833v1366h823v-195h-598v-368h553v-195h-553v-415h608v-193z" />
    <glyph glyph-name="afii10024" unicode="&#x416;" horiz-adv-x="1865" 
d="M1047 655v-655h-222v655h-82l-512 -655h-239l547 729l-498 637h240l458 -571h86v571h222v-571h79l461 571h240l-498 -637l547 -729h-242l-510 655h-77z" />
    <glyph glyph-name="afii10025" unicode="&#x417;" horiz-adv-x="1103" 
d="M571 608h-137v195h137q109 0 168 45q80 56 80 152t-65 151q-66 53 -168 53q-248 0 -297 -276h-221q18 215 163 348q139 121 359 121t339 -98q118 -99 118 -261t-105 -252q-63 -53 -151 -77q256 -68 256 -322q0 -178 -128 -299t-344 -121q-281 0 -421 232q-86 143 -95 323
h222q35 -362 297 -362q109 0 176 69q66 71 66 177t-85 165q-60 37 -164 37z" />
    <glyph glyph-name="afii10026" unicode="&#x418;" horiz-adv-x="1198" 
d="M125 0v1366h209v-917l530 808v109h209v-1366h-209v913l-530 -813v-100h-209z" />
    <glyph glyph-name="afii10027" unicode="&#x419;" horiz-adv-x="1198" 
d="M614 1608q70 0 105 47q16 27 29 80h137q-8 -76 -31 -123q-70 -143 -242 -144q-116 0 -186 67t-86 200h137q12 -57 40 -92q27 -35 97 -35zM125 0v1366h209v-917l530 808v109h209v-1366h-209v913l-530 -813v-100h-209z" />
    <glyph glyph-name="afii10028" unicode="&#x41a;" horiz-adv-x="1159" 
d="M340 0h-221v1366h221v-571h80l461 571h237l-495 -637l544 -729h-239l-510 655h-78v-655z" />
    <glyph glyph-name="afii10029" unicode="&#x41b;" horiz-adv-x="1212" 
d="M862 1171h-364l-88 -761q-16 -119 -25 -160q-37 -143 -143 -213q-82 -57 -219 -57h-17v194q70 4 105 35q51 39 63 153l121 1004h792v-1366h-225v1171z" />
    <glyph glyph-name="afii10030" unicode="&#x41c;" horiz-adv-x="1454" 
d="M334 0h-209v1366h301l305 -1065l295 1065h303v-1366h-209v1079l-293 -1079h-188l-305 1067v-1067z" />
    <glyph glyph-name="afii10031" unicode="&#x41d;" horiz-adv-x="1210" 
d="M350 0h-225v1366h225v-553h510v553h225v-1366h-225v621h-510v-621z" />
    <glyph glyph-name="afii10032" unicode="&#x41e;" horiz-adv-x="1259" 
d="M963 684q0 232 -89 376t-241 144t-243 -141t-91 -374t84 -378q43 -78 113 -115q163 -87 307 23q82 66 121 195t39 270zM74 704q0 307 158 500t398 193q241 0 394 -187q164 -205 164 -508t-127 -497q-78 -117 -189 -177t-239 -61q-281 0 -436 242q-123 188 -123 495z" />
    <glyph glyph-name="afii10033" unicode="&#x41f;" horiz-adv-x="1210" 
d="M125 1366h960v-1366h-225v1171h-510v-1171h-225v1366z" />
    <glyph glyph-name="afii10034" unicode="&#x420;" horiz-adv-x="1073" 
d="M350 1165v-448h199q129 0 186 57t57 179t-90 182q-49 31 -172 30h-180zM350 0h-225v1366h428q143 0 225 -29q127 -47 191 -168q49 -92 49 -221q0 -223 -139 -338q-59 -47 -136 -69q-70 -16 -163 -17h-230v-524z" />
    <glyph glyph-name="afii10035" unicode="&#x421;" horiz-adv-x="1179" 
d="M622 -33q-246 0 -389 180q-160 203 -159 533q0 283 129 479q154 238 426 238q242 0 387 -201q84 -115 96 -268h-221q-18 113 -70 176q-76 100 -198 100q-154 0 -234 -137q-90 -158 -90 -385q0 -226 83 -374t236 -148q242 0 281 362h221q-10 -207 -116 -356
q-136 -199 -382 -199z" />
    <glyph glyph-name="afii10036" unicode="&#x422;" horiz-adv-x="1013" 
d="M621 0h-226v1171h-356v195h936v-195h-354v-1171z" />
    <glyph glyph-name="afii10037" unicode="&#x423;" horiz-adv-x="1040" 
d="M246 -33q-68 0 -133 15v198q68 -18 123 -18t96 49q38 49 67 127l17 43l-422 985h248l288 -756l291 756h246l-479 -1120q-57 -133 -113 -197q-76 -82 -229 -82z" />
    <glyph glyph-name="afii10038" unicode="&#x424;" horiz-adv-x="1589" 
d="M907 1012v-660q158 6 240 51q149 82 149 288t-178 284q-74 31 -211 37zM682 352v660q-158 -6 -240 -51q-150 -82 -150 -288t179 -284q74 -31 211 -37zM907 0h-225v160q-137 6 -240 30q-113 31 -211 109q-163 135 -163 382t156 379t425 142q14 0 33 2v162h225v-162
q137 -6 247 -34t204 -103q164 -139 164 -386t-159 -379t-423 -140q-15 0 -33 -2v-160z" />
    <glyph glyph-name="afii10039" unicode="&#x425;" horiz-adv-x="1069" 
d="M252 0h-250l408 709l-379 657h258l250 -481l256 481h243l-374 -657l403 -709h-262l-273 514z" />
    <glyph glyph-name="afii10040" unicode="&#x426;" horiz-adv-x="1228" 
d="M1085 1366v-1173h138v-398h-226v205h-872v1366h225v-1173h510v1173h225z" />
    <glyph glyph-name="afii10041" unicode="&#x427;" horiz-adv-x="1220" 
d="M870 0v514q-109 -70 -288 -70q-276 0 -404 164q-82 106 -82 301v457h226v-455q0 -137 66 -205t228 -69q160 0 222 98q33 53 32 176v455h226v-1366h-226z" />
    <glyph glyph-name="afii10042" unicode="&#x428;" horiz-adv-x="1726" 
d="M1602 1366v-1366h-1477v1366h225v-1173h402v1173h225v-1173h399v1173h226z" />
    <glyph glyph-name="afii10043" unicode="&#x429;" horiz-adv-x="1746" 
d="M1602 1366v-1173h137v-398h-226v205h-1388v1366h225v-1173h402v1173h225v-1173h399v1173h226z" />
    <glyph glyph-name="afii10044" unicode="&#x42a;" horiz-adv-x="1220" 
d="M684 641h-178v-442h178q131 0 184 41q80 59 80 185t-90 185q-49 31 -174 31zM6 1171v195h500v-524h201q145 0 227 -29q123 -47 190 -168q49 -90 50 -223q0 -223 -138 -336q-64 -54 -142 -70t-187 -16h-426v1171h-275z" />
    <glyph glyph-name="afii10045" unicode="&#x42b;" horiz-adv-x="1472" 
d="M1348 0h-226v1366h226v-1366zM530 641h-180v-442h180q131 0 185 41q78 59 78 185t-91 185q-49 31 -172 31zM125 0v1366h225v-524h203q143 0 225 -29q127 -47 191 -168q49 -90 49 -223q0 -223 -137 -336q-63 -54 -142 -70t-186 -16h-428z" />
    <glyph glyph-name="afii10046" unicode="&#x42c;" horiz-adv-x="1067" 
d="M530 641h-180v-442h180q131 0 185 41q78 59 78 185t-91 185q-49 31 -172 31zM125 0v1366h225v-524h203q143 0 225 -29q127 -47 191 -168q49 -90 49 -223q0 -223 -137 -336q-63 -54 -142 -70t-186 -16h-428z" />
    <glyph glyph-name="afii10047" unicode="&#x42d;" horiz-adv-x="1179" 
d="M434 803h440q-57 401 -319 401q-131 0 -211 -119q-39 -61 -55 -157h-221q14 170 116 297q141 172 367 172q272 0 426 -238q131 -195 131 -479q0 -332 -162 -533q-141 -180 -396 -180t-396 232q-86 143 -95 323h222q39 -362 278 -362q197 0 281 243q29 82 39 205h-445v195
z" />
    <glyph glyph-name="afii10048" unicode="&#x42e;" horiz-adv-x="1755" 
d="M1458 684q0 232 -89 376t-241 144t-244 -141t-91 -374q0 -385 208 -496q57 -33 139 -33t161 64t118 193q39 128 39 267zM350 813h225q19 180 97 313t202 203q113 68 254 68q242 0 392 -187q164 -207 164 -509t-128 -496q-74 -117 -186 -177t-244 -61q-219 0 -366 158
q-170 176 -189 496h-221v-621h-225v1366h225v-553z" />
    <glyph glyph-name="afii10049" unicode="&#x42f;" horiz-adv-x="1202" 
d="M635 739h196v439h-223q-121 0 -172 -37q-80 -55 -80 -188t95 -185q53 -29 184 -29zM1057 1366v-1366h-226v563h-198q-92 0 -144 -18q-72 -31 -106 -142q-13 -49 -21 -182t-16 -165t-20 -56h-238q31 39 42 83q10 44 24 206q14 163 40 231t87 105q20 12 71 26
q-221 86 -221 336q0 205 145 309q94 70 277 70h504z" />
    <glyph glyph-name="afii10065" unicode="&#x430;" horiz-adv-x="948" 
d="M627 379v76q-123 -7 -195 -25t-110 -61q-46 -45 -46 -111t40 -99q40 -34 106 -34q106 0 166 102q39 70 39 152zM782 -25q-66 0 -100 31q-25 27 -41 78q-100 -113 -270 -113q-121 0 -203 64q-100 76 -100 217t110 227q84 66 240 80q82 8 209 10v78q0 168 -166 168
q-150 0 -166 -164h-193q8 147 100 233t278 87q184 0 280 -111q45 -50 52 -120t7 -165v-356q0 -53 8 -67q15 -36 78 -11v-141q-57 -25 -123 -25z" />
    <glyph glyph-name="afii10066" unicode="&#x431;" horiz-adv-x="987" 
d="M498 811q-96 0 -161 -89t-65 -246t60 -251t164 -94q102 0 155 84q63 94 63 255t-60 251t-156 90zM633 1401v20h155q2 -47 3 -82q1 -119 -49 -168t-160 -68t-158 -52q-49 -33 -90 -119q86 41 174 41q201 0 313 -160q97 -137 97 -347t-103 -343q-115 -152 -317 -152
t-318 164q-92 135 -92 386t75 449t283 269q37 14 140 33q39 6 41 31q6 20 6 98z" />
    <glyph glyph-name="afii10067" unicode="&#x432;" horiz-adv-x="897" 
d="M500 774h-183v-196h177q55 0 84 28t28 74q0 94 -106 94zM496 410h-179v-242h172q150 0 150 121t-143 121zM510 0h-393v942h428q98 0 164 -35q102 -59 102 -192q0 -156 -154 -205q186 -55 187 -238q0 -154 -125 -229q-70 -43 -209 -43z" />
    <glyph glyph-name="afii10068" unicode="&#x433;" horiz-adv-x="720" 
d="M715 774h-398v-774h-200v942h598v-168z" />
    <glyph glyph-name="afii10069" unicode="&#x434;" horiz-adv-x="1001" 
d="M678 168v606h-275l-51 -416q-14 -129 -63 -190h389zM879 942v-774h102v-373h-203v205h-577v-205h-201v373h25q69 0 97 40t38 114l71 620h648z" />
    <glyph glyph-name="afii10070" unicode="&#x435;" horiz-adv-x="944" 
d="M478 815q-108 0 -165 -102q-33 -64 -41 -152h404q-6 78 -35 139q-55 115 -163 115zM486 127q136 0 184 156h188q-14 -78 -55 -142q-109 -170 -312 -170q-203 -1 -313 141t-110 353t112 359t295 147q152 0 254 -101q148 -141 148 -450h-609q2 -86 27 -150
q55 -143 191 -143z" />
    <glyph glyph-name="afii10072" unicode="&#x436;" horiz-adv-x="1370" 
d="M588 0v432h-53l-338 -432h-201l381 500l-354 442h198l309 -385h58v385h196v-385h58l309 385h201l-357 -442l379 -500h-198l-338 432h-54v-432h-196z" />
    <glyph glyph-name="afii10073" unicode="&#x437;" horiz-adv-x="876" 
d="M444 403h-92v168h88q68 0 107 27q51 31 51 88t-42 87t-105 30q-156 0 -183 -156h-200q14 160 118 242t262 82q160 0 256 -64t97 -190q0 -94 -64 -156q-39 -39 -114 -55q199 -57 198 -240q0 -127 -94 -211t-262 -84q-223 0 -330 144q-66 90 -80 219h199q29 -195 201 -195
q78 0 120 40t41 95q0 129 -172 129z" />
    <glyph glyph-name="afii10074" unicode="&#x438;" horiz-adv-x="976" 
d="M317 942v-569l342 504v65h201v-942h-201v569l-342 -503v-66h-200v942h200z" />
    <glyph glyph-name="afii10075" unicode="&#x439;" horiz-adv-x="976" 
d="M489 1092q-221 0 -256 274h129q23 -139 127 -139t127 139h129q-35 -274 -256 -274zM317 942v-569l342 504v65h201v-942h-201v569l-342 -503v-66h-200v942h200z" />
    <glyph glyph-name="afii10076" unicode="&#x43a;" horiz-adv-x="907" 
d="M307 0h-196v942h196v-385h72l297 385h198l-356 -442l379 -500h-199l-323 432h-68v-432z" />
    <glyph glyph-name="afii10077" unicode="&#x43b;" horiz-adv-x="976" 
d="M659 774h-274l-49 -442q-18 -160 -57 -219q-80 -133 -261 -133h-12v161q57 4 93 33t44 121l70 647h647v-942h-201v774z" />
    <glyph glyph-name="afii10078" unicode="&#x43c;" horiz-adv-x="1163" 
d="M313 0h-196v942h286l183 -680l176 680h285v-942h-197v690l-174 -690h-180l-183 680v-680z" />
    <glyph glyph-name="afii10079" unicode="&#x43d;" horiz-adv-x="976" 
d="M659 410h-342v-410h-200v942h200v-364h342v364h201v-942h-201v410z" />
    <glyph glyph-name="afii10080" unicode="&#x43e;" horiz-adv-x="985" 
d="M495 803q-99 0 -161 -87t-62 -246t62 -245t158 -86q98 0 153 74q70 90 70 254t-62 250q-59 86 -158 86zM490 971q198 0 314 -135t116 -371t-129 -375q-111 -119 -305 -119q-194 -1 -307 141q-111 142 -111 355t102 350q121 154 320 154z" />
    <glyph glyph-name="afii10081" unicode="&#x43f;" horiz-adv-x="976" 
d="M659 774h-342v-774h-200v942h743v-942h-201v774z" />
    <glyph glyph-name="afii10082" unicode="&#x440;" horiz-adv-x="1017" 
d="M528 803q-102 0 -158 -94t-56 -246t60 -238t157 -86t155 88q58 87 59 235t-57 244t-160 97zM317 -354h-200v1296h188v-106q92 135 270 135q179 1 277 -145t98 -365t-104 -355q-109 -135 -274 -135t-255 133v-458z" />
    <glyph glyph-name="afii10083" unicode="&#x441;" horiz-adv-x="921" 
d="M653 647q-25 156 -175 156q-96 0 -150 -96q-56 -88 -56 -239t56 -240t155 -89q153 0 185 195h198q-18 -143 -96 -238q-104 -125 -286 -125t-289 119q-127 138 -127 368t112 372t308 141q194 0 294 -131q61 -78 72 -193h-201z" />
    <glyph glyph-name="afii10084" unicode="&#x442;" horiz-adv-x="706" 
d="M692 786h-237v-786h-201v786h-240v156h678v-156z" />
    <glyph glyph-name="afii10085" unicode="&#x443;" horiz-adv-x="849" 
d="M188 -184q61 0 93 65q39 90 47 139l-322 922h219l209 -688l201 688h209l-307 -922q-72 -219 -117 -280q-70 -94 -197 -94q-43 0 -135 10v172q68 -12 100 -12z" />
    <glyph glyph-name="afii10086" unicode="&#x444;" horiz-adv-x="1316" 
d="M910 139q68 0 109 88q42 88 42 244t-42 244t-111 88q-70 0 -110 -89t-40 -248t47 -253q37 -74 105 -74zM410 803q-70 0 -111 -84q-43 -96 -43 -250t42 -242t110 -88t104 74q47 98 47 255q1 157 -39 246t-110 89zM926 971q158 1 247 -145t89 -358t-91 -357
q-90 -139 -245 -140q-98 0 -148 49q0 2 -8 12l-12 15v-401h-199v401q-10 -14 -31 -35q-45 -41 -137 -41q-156 0 -246 140q-90 145 -90 357t89 358t247 145q100 0 150 -56q12 -12 18 -22v473h199v-473q55 78 168 78z" />
    <glyph glyph-name="afii10087" unicode="&#x445;" horiz-adv-x="851" 
d="M227 0h-233l309 496l-285 446h240l166 -280l170 280h229l-282 -436l317 -506h-240l-194 340z" />
    <glyph glyph-name="afii10088" unicode="&#x446;" horiz-adv-x="983" 
d="M860 942v-774h103v-373h-201v205h-645v942h200v-774h342v774h201z" />
    <glyph glyph-name="afii10089" unicode="&#x447;" horiz-adv-x="983" 
d="M866 942v-942h-200v367q-98 -47 -242 -48q-211 0 -295 103q-37 47 -42 99t-5 85v336h201v-283q0 -77 18 -107q38 -62 167 -64q128 -1 173 94q25 49 25 153v207h200z" />
    <glyph glyph-name="afii10090" unicode="&#x448;" horiz-adv-x="1300" 
d="M752 942v-774h231v774h201v-942h-1067v942h200v-774h234v774h201z" />
    <glyph glyph-name="afii10091" unicode="&#x449;" horiz-adv-x="1306" 
d="M1085 -205v205h-968v942h200v-774h234v774h201v-774h231v774h201v-774h102v-373h-201z" />
    <glyph glyph-name="afii10092" unicode="&#x44a;" horiz-adv-x="927" 
d="M555 426h-143v-258h131q172 0 172 131q0 74 -49 107q-33 20 -111 20zM0 774v168h412v-348h176q332 0 332 -291q0 -152 -99 -233q-63 -53 -155 -66q-37 -4 -88 -4h-367v774h-211z" />
    <glyph glyph-name="afii10093" unicode="&#x44b;" horiz-adv-x="1216" 
d="M1102 0h-203v942h203v-942zM463 426h-146v-258h132q172 0 172 131q0 75 -41 101t-117 26zM317 942v-348h175q334 0 333 -291q0 -152 -98 -233q-65 -54 -129 -62t-115 -8h-366v942h200z" />
    <glyph glyph-name="afii10094" unicode="&#x44c;" horiz-adv-x="831" 
d="M463 426h-146v-258h132q172 0 172 131q0 75 -41 101t-117 26zM317 942v-348h175q334 0 333 -291q0 -152 -98 -233q-65 -54 -129 -62t-115 -8h-366v942h200z" />
    <glyph glyph-name="afii10095" unicode="&#x44d;" horiz-adv-x="921" 
d="M442 971q186 1 300 -141q112 -142 112 -372t-127 -368q-106 -119 -296 -119t-296 144q-63 86 -80 219h199q8 -66 37 -113q51 -82 147 -82q127 0 180 142q20 47 27 122h-293v168h287q-35 232 -211 232q-127 0 -160 -156h-200q12 129 88 211q100 113 286 113z" />
    <glyph glyph-name="afii10096" unicode="&#x44e;" horiz-adv-x="1341" 
d="M851 803q-99 0 -161 -87t-61 -246q0 -159 60 -245q61 -86 159 -86t160 83t61 244q0 161 -59 251q-60 86 -159 86zM317 578h115q16 100 57 180q115 213 363 213q196 0 310 -137t114 -371t-129 -373q-113 -119 -283 -119t-276 88q-137 113 -162 351h-109v-410h-200v942h200
v-364z" />
    <glyph glyph-name="afii10097" unicode="&#x44f;" horiz-adv-x="917" 
d="M469 774q-172 0 -172 -129t158 -129h143v258h-129zM598 0v348h-113q-86 0 -120 -22q-35 -29 -47 -71q-12 -43 -15 -135q-4 -92 -22 -120h-213q23 23 30 63q8 20 18 129t23 140q27 61 84 82q23 8 74 14q-207 41 -207 240q0 134 90 204t252 70h369v-942h-203z" />
    <glyph glyph-name="afii10071" unicode="&#x451;" horiz-adv-x="944" 
d="M215 1311h191v-205h-191v205zM539 1311h192v-205h-192v205zM478 815q-108 0 -165 -102q-33 -64 -41 -152h404q-6 78 -35 139q-55 115 -163 115zM486 127q136 0 184 156h188q-14 -78 -55 -142q-109 -170 -312 -170q-203 -1 -313 141t-110 353t112 359t295 147
q152 0 254 -101q148 -141 148 -450h-609q2 -86 27 -150q55 -143 191 -143z" />
    <glyph glyph-name="afii10099" unicode="&#x452;" horiz-adv-x="962" 
d="M317 463v-463h-200v1139h-109v129h109v98h200v-98h220v-129h-220v-308q87 139 233 139t234 -116q111 -145 111 -444q0 -300 -116 -456t-285 -157q-43 0 -113 17v166q49 -16 86 -17q84 0 139 78q84 119 84 347t-53 322t-132 93t-126 -59t-57 -162q-5 -49 -5 -119z" />
    <glyph glyph-name="afii10100" unicode="&#x453;" horiz-adv-x="720" 
d="M496 1366h180l-187 -274h-163zM715 774h-398v-774h-200v942h598v-168z" />
    <glyph glyph-name="afii10101" unicode="&#x454;" horiz-adv-x="921" 
d="M483 139q150 0 185 195h198q-18 -143 -96 -238q-104 -125 -288 -125t-289 119q-125 138 -125 368t112 372t308 141q194 0 294 -131q59 -78 72 -193h-201q-8 51 -32 88q-49 68 -134 68q-165 0 -206 -232h286v-168h-293q8 -82 35 -143q59 -121 174 -121z" />
    <glyph glyph-name="afii10102" unicode="&#x455;" horiz-adv-x="849" 
d="M586 256q0 80 -86 121q-23 12 -162 47q-258 61 -258 272q0 121 89 198t239 77q205 0 297 -125q43 -59 51 -146h-201q-18 119 -152 119q-59 0 -98 -31q-39 -30 -39 -84t37 -80t160 -52t182 -62q145 -78 145 -222t-96 -231q-96 -86 -262 -86q-325 0 -364 295h198
q18 -143 166 -143q82 0 118 38t36 95z" />
    <glyph glyph-name="afii10103" unicode="&#x456;" horiz-adv-x="442" 
d="M322 0h-201v942h201v-942zM322 1159h-201v207h201v-207z" />
    <glyph glyph-name="afii10104" unicode="&#x457;" horiz-adv-x="446" 
d="M14 1311h166v-205h-166v205zM268 1311h166v-205h-166v205zM324 0h-201v942h201v-942z" />
    <glyph glyph-name="afii10105" unicode="&#x458;" horiz-adv-x="440" 
d="M319 1159h-200v207h200v-207zM33 -188q63 0 80 65q6 29 6 107v958h200v-932q0 -182 -28 -250q-29 -59 -88 -87q-59 -27 -113 -27t-108 6v166q27 -6 51 -6z" />
    <glyph glyph-name="afii10106" unicode="&#x459;" horiz-adv-x="1292" 
d="M950 426h-116v-258h104q172 0 172 131q0 75 -42 101t-118 26zM834 942v-348h147q334 0 334 -291q0 -152 -98 -233q-65 -54 -129 -62t-115 -8h-340v774h-246l-51 -442q-18 -160 -57 -219q-80 -133 -261 -133h-12v161q57 4 93 33t44 121l70 647h621z" />
    <glyph glyph-name="afii10107" unicode="&#x45a;" horiz-adv-x="1292" 
d="M936 168q172 0 172 125t-158 125h-116v-250h102zM633 0v418h-316v-418h-200v942h200v-356h316v356h201v-356h147q332 0 332 -287q0 -150 -99 -229q-66 -54 -129 -62t-112 -8h-340z" />
    <glyph glyph-name="afii10108" unicode="&#x45b;" horiz-adv-x="972" 
d="M117 0v1139h-109v129h109v98h200v-98h220v-129h-220v-308q92 139 254 140q103 0 181 -56t98 -163q10 -61 10 -146v-606h-201v575q0 111 -22 156q-41 72 -135 72t-148 -96q-24 -43 -30 -97t-7 -155v-455h-200z" />
    <glyph glyph-name="afii10109" unicode="&#x45c;" horiz-adv-x="907" 
d="M545 1366h180l-186 -274h-164zM307 0h-196v942h196v-385h72l297 385h198l-356 -442l379 -500h-199l-323 432h-68v-432z" />
    <glyph glyph-name="uni045D" unicode="&#x45d;" horiz-adv-x="976" 
d="M449 1092l-187 274h180l170 -274h-163zM317 942v-569l342 504v65h201v-942h-201v569l-342 -503v-66h-200v942h200z" />
    <glyph glyph-name="afii10110" unicode="&#x45e;" horiz-adv-x="849" 
d="M424 1092q-221 0 -256 274h129q23 -139 127 -139t127 139h129q-35 -274 -256 -274zM188 -184q61 0 93 65q39 90 47 139l-322 922h219l209 -688l201 688h209l-307 -922q-72 -219 -117 -280q-70 -94 -197 -94q-43 0 -135 10v172q68 -12 100 -12z" />
    <glyph glyph-name="afii10193" unicode="&#x45f;" horiz-adv-x="976" 
d="M860 0h-270v-205h-203v205h-270v942h200v-774h342v774h201v-942z" />
    <glyph glyph-name="afii10050" unicode="&#x490;" horiz-adv-x="966" 
d="M690 1489h225v-318h-565v-1171h-225v1366h565v123z" />
    <glyph glyph-name="afii10098" unicode="&#x491;" horiz-adv-x="720" 
d="M512 1051h203v-277h-398v-774h-200v942h395v109z" />
    <glyph glyph-name="uni04C0" unicode="&#x4c0;" horiz-adv-x="475" 
d="M350 0h-225v1366h225v-1366z" />
    <glyph glyph-name="Wdieresis" unicode="&#x1e84;" horiz-adv-x="1536" 
d="M510 1653h190v-205h-190v205zM834 1653h192v-205h-192v205zM547 0h-232l-301 1366h228l196 -1057l217 1057h228l215 -1059l198 1059h226l-310 -1366h-229l-217 1055z" />
    <glyph glyph-name="uni2010" unicode="&#x2010;" horiz-adv-x="432" 
d="M6 610h420v-196h-420v196z" />
    <glyph glyph-name="uni2011" unicode="&#x2011;" horiz-adv-x="432" 
d="M6 610h420v-196h-420v196z" />
    <glyph glyph-name="figuredash" unicode="&#x2012;" horiz-adv-x="960" 
d="M111 610h739v-196h-739v196z" />
    <glyph glyph-name="endash" unicode="&#x2013;" horiz-adv-x="960" 
d="M111 610h739v-196h-739v196z" />
    <glyph glyph-name="emdash" unicode="&#x2014;" horiz-adv-x="1443" 
d="M117 610h1214v-196h-1214v196z" />
    <glyph glyph-name="afii00208" unicode="&#x2015;" horiz-adv-x="1443" 
d="M117 610h1214v-196h-1214v196z" />
    <glyph glyph-name="quoteleft" unicode="&#x2018;" horiz-adv-x="503" 
d="M375 854h-246v170q0 127 29 197q55 127 217 165v-118q-106 -27 -111 -168h111v-246z" />
    <glyph glyph-name="quoteright" unicode="&#x2019;" horiz-adv-x="503" 
d="M129 1366h246v-172q0 -127 -29 -197q-51 -125 -217 -166v119q106 27 111 168h-111v248z" />
    <glyph glyph-name="quotesinglbase" unicode="&#x201a;" horiz-adv-x="503" 
d="M129 0v246h246v-170q0 -125 -29 -199q-53 -127 -217 -164v119q109 29 111 168h-111z" />
    <glyph glyph-name="quotereversed" unicode="&#x201b;" horiz-adv-x="395" 
 />
    <glyph glyph-name="quotedblleft" unicode="&#x201c;" horiz-adv-x="831" 
d="M375 1100v-246h-246v170q0 127 29 197q55 127 217 165v-118q-106 -27 -111 -168h111zM702 1100v-246h-245v170q0 127 28 197q51 125 217 165v-118q-106 -27 -110 -168h110z" />
    <glyph glyph-name="quotedblright" unicode="&#x201d;" horiz-adv-x="831" 
d="M457 1118v248h245v-172q0 -127 -28 -197q-55 -127 -217 -166v119q106 27 110 168h-110zM129 1118v248h246v-172q0 -127 -29 -197q-51 -125 -217 -166v119q106 27 111 168h-111z" />
    <glyph glyph-name="quotedblbase" unicode="&#x201e;" horiz-adv-x="831" 
d="M457 0v246h245v-170q0 -125 -28 -199q-55 -127 -217 -164v119q109 29 110 168h-110zM129 0v246h246v-170q0 -125 -29 -199q-53 -127 -217 -164v119q109 29 111 168h-111z" />
    <glyph glyph-name="dagger" unicode="&#x2020;" horiz-adv-x="958" 
d="M571 981h306v-190h-306v-1156h-188v1156h-299v190h299v385h188v-385z" />
    <glyph glyph-name="daggerdbl" unicode="&#x2021;" horiz-adv-x="958" 
d="M571 977h306v-186h-306v-582h306v-186h-306v-388h-188v388h-299v186h299v582h-299v186h299v389h188v-389z" />
    <glyph glyph-name="bullet" unicode="&#x2022;" horiz-adv-x="1366" 
d="M685 979q116 0 200 -84t84 -201q0 -116 -84 -200t-200 -84t-200 84t-84 200t84 201q84 84 200 84z" />
    <glyph glyph-name="ellipsis" unicode="&#x2026;" horiz-adv-x="1503" 
d="M1128 246h246v-246h-246v246zM629 246h245v-246h-245v246zM129 246h246v-246h-246v246z" />
    <glyph glyph-name="perthousand" unicode="&#x2030;" horiz-adv-x="2537" 
d="M2347 404q0 136 -50 216q-50 78 -131 78t-130 -73q-54 -84 -54 -212t48 -210t130 -82q83 0 130 65q57 82 57 218zM2164 838q148 0 245 -116t97 -299t-75 -298q-94 -143 -265 -143t-270 145q-74 115 -74 296t97 300q97 115 245 115zM1380 698q-82 0 -132 -78t-50 -207
q0 -128 47 -212q27 -43 66 -61t71 -19q74 0 121 65q59 84 59 222t-50 214t-132 76zM1380 838q146 0 244 -116t98 -297t-77 -300q-95 -143 -265 -143t-268 145q-74 115 -74 297t98 298t244 116zM1239 1366l-584 -1366h-143l588 1366h139zM553 951q0 138 -50 215t-131 77
t-132 -78q-52 -79 -52 -207q-1 -208 115 -276q37 -16 70 -16q76 0 123 65q57 82 57 220zM370 1382q148 0 245 -116t97 -298q0 -184 -75 -296q-96 -146 -266 -146t-267 148q-76 113 -76 295q0 181 98 297q96 116 244 116z" />
    <glyph glyph-name="guilsinglleft" unicode="&#x2039;" horiz-adv-x="454" 
d="M88 616l258 240v-205l-151 -139l151 -141v-209l-258 246v208z" />
    <glyph glyph-name="guilsinglright" unicode="&#x203a;" horiz-adv-x="454" 
d="M109 647v209l258 -244v-211l-258 -239v205l151 141z" />
    <glyph glyph-name="uni203E" unicode="&#x203e;" 
d="M41 1475v174h942v-174h-942z" />
    <glyph glyph-name="fraction" unicode="&#x2044;" horiz-adv-x="401" 
d="M569 1366l-583 -1366h-154l590 1366h147z" />
    <glyph glyph-name="zerosuperior" unicode="&#x2070;" horiz-adv-x="598" 
d="M395 960q-1 144 -21 214t-74 71q-54 0 -74 -73q-20 -72 -21 -222q0 -285 96 -284q55 0 75 74q20 76 19 220zM545 955q0 -427 -245 -427t-245 427t245 427t245 -427z" />
    <glyph glyph-name="foursuperior" unicode="&#x2074;" horiz-adv-x="552" 
d="M299 874v238l-131 -238h131zM444 547h-145v192h-272v142l282 485h135v-492h80v-135h-80v-192z" />
    <glyph glyph-name="fivesuperior" unicode="&#x2075;" horiz-adv-x="593" 
d="M285 668q100 0 100 149q0 66 -23 111q-28 47 -82 47t-92 -72l-129 4l64 459h373v-141h-256l-23 -148q41 27 98 27q96 0 160 -77t64 -204t-71 -210t-175 -83t-172 56t-78 155q0 15 -2 33h147q14 -106 97 -106z" />
    <glyph glyph-name="sixsuperior" unicode="&#x2076;" horiz-adv-x="600" 
d="M393 815q-1 63 -23 107t-67 45q-45 0 -67 -49q-20 -40 -20 -100t23 -105q25 -45 67 -45t67 43q20 41 20 104zM313 1249q-53 0 -82 -71q-14 -39 -24 -129q51 49 135 49t144 -78t60 -198t-63 -206q-65 -86 -179 -86t-179 103q-70 106 -70 306q0 199 67 321t197 122
q89 0 147 -59t66 -168h-145q-12 94 -74 94z" />
    <glyph glyph-name="sevensuperior" unicode="&#x2077;" horiz-adv-x="530" 
d="M27 1219v147h475v-129q-86 -97 -155 -287t-79 -403h-157q4 143 59 327t172 345h-315z" />
    <glyph glyph-name="eightsuperior" unicode="&#x2078;" horiz-adv-x="606" 
d="M399 788q1 58 -25 96t-69 38t-69 -34t-27 -95q0 -61 27 -97t69 -34q94 0 94 126zM303 1249q-37 1 -59 -27t-21 -74t23 -76t57 -30t53 25q27 29 27 78q1 49 -21 77t-59 27zM82 1154q0 108 61 168t159 60t165 -61q57 -57 57 -162t-78 -170q106 -57 107 -207
q0 -102 -59 -172q-72 -80 -189 -80t-184 70q-66 70 -66 178q1 143 105 209q-78 59 -78 167z" />
    <glyph glyph-name="ninesuperior" unicode="&#x2079;" horiz-adv-x="600" 
d="M297 1245q-43 0 -68 -43q-20 -40 -20 -104q1 -64 23 -108t66 -44t66 44t23 104q0 60 -22 106q-25 45 -68 45zM289 662q82 0 106 202q-51 -51 -121 -51q-100 0 -159 79t-59 199q0 119 63 205q65 86 179 86t182 -106t67 -304q0 -198 -67 -321t-197 -123q-191 0 -215 232
h145q12 -98 76 -98z" />
    <glyph glyph-name="parenleftsuperior" unicode="&#x207d;" horiz-adv-x="407" 
d="M217 854q0 -260 109 -483l14 -29h-129q-61 115 -84 180q-59 162 -59 340t67 350q35 93 78 154h125l-12 -29q-109 -223 -109 -483z" />
    <glyph glyph-name="parenrightsuperior" unicode="&#x207e;" horiz-adv-x="407" 
d="M340 848q0 -174 -64 -338q-25 -66 -79 -168h-129q122 244 122 509t-120 515h127q143 -230 143 -518z" />
    <glyph glyph-name="nsuperior" unicode="&#x207f;" horiz-adv-x="569" 
d="M201 547h-146v573h140v-39q59 57 139 58q109 0 155 -86q25 -45 25 -144v-362h-145v332q-1 59 -11 96t-68 37t-77 -64q-12 -37 -12 -112v-289z" />
    <glyph glyph-name="zeroinferior" unicode="&#x2080;" horiz-adv-x="598" 
d="M299 698q-53 0 -73 -70t-21 -221q0 -151 22 -219q25 -68 74 -67q55 0 75 75t19 218q0 143 -20 213q-23 71 -76 71zM299 836q246 0 246 -426t-245 -426t-245 428q1 208 63 316t181 108z" />
    <glyph glyph-name="oneinferior" unicode="&#x2081;" horiz-adv-x="448" 
d="M311 0h-149v569q-43 -31 -111 -30h-24v133q96 4 129 41q31 37 39 106h116v-819z" />
    <glyph glyph-name="twoinferior" unicode="&#x2082;" horiz-adv-x="561" 
d="M526 141v-141h-506q-2 123 27 199q31 70 82 116t135 103q111 74 111 172q0 42 -23 74t-80 32q-98 0 -98 -137h-156q2 84 31 143q68 135 225 136q123 0 201 -80q59 -66 59 -172t-90 -197q-42 -41 -146 -111t-118 -137h346z" />
    <glyph glyph-name="threeinferior" unicode="&#x2083;" horiz-adv-x="565" 
d="M512 612q0 -103 -88 -159q113 -63 113 -193t-76 -200q-76 -71 -191 -70q-160 0 -223 125q-29 61 -29 131v24h152q0 -57 12 -88q20 -51 78 -51t88 31q31 31 31 90q0 127 -115 127q-25 0 -51 -2v125h29q59 0 86 22q28 29 28 83q0 55 -28 75t-58 20q-86 1 -88 -122h-149
q4 102 43 163q63 101 186 101t187 -68q63 -61 63 -164z" />
    <glyph glyph-name="fourinferior" unicode="&#x2084;" horiz-adv-x="565" 
d="M303 326v262l-143 -262h143zM444 0h-141v195h-278v139l288 485h131v-493h86v-131h-86v-195z" />
    <glyph glyph-name="fiveinferior" unicode="&#x2085;" horiz-adv-x="593" 
d="M385 270q0 66 -23 111q-30 47 -82 47t-92 -70l-129 4l64 457h373v-139h-256l-23 -150q41 27 98 27q96 0 160 -76q64 -75 64 -203t-71 -211t-175 -83t-172 55t-78 156q0 14 -2 32h147q16 -109 97 -108q100 0 100 151z" />
    <glyph glyph-name="sixinferior" unicode="&#x2086;" horiz-adv-x="600" 
d="M393 270q-1 64 -23 107t-67 43t-66 -44t-21 -102t22 -108q26 -45 68 -45t67 43q20 42 20 106zM304 -16q-114 0 -182 104t-67 305q0 201 67 322t197 121q89 0 147 -60t66 -168h-145q-13 96 -71 96t-85 -73q-14 -41 -24 -129q51 51 135 51t144 -79t60 -199q0 -119 -63 -205
q-65 -86 -179 -86z" />
    <glyph glyph-name="seveninferior" unicode="&#x2087;" horiz-adv-x="530" 
d="M27 674v145h475v-127q-88 -102 -156 -290t-78 -402h-157q4 146 58 328t173 346h-315z" />
    <glyph glyph-name="eightinferior" unicode="&#x2088;" horiz-adv-x="606" 
d="M306 377q-42 0 -70 -35t-27 -96q0 -60 27 -96t69 -35q94 0 94 127q0 55 -22 94q-29 41 -71 41zM302 702q-36 0 -58 -26t-21 -74q1 -47 23 -76q22 -28 57 -28t57 28t23 75q-1 49 -23 75t-58 26zM82 608q0 106 59 166q66 62 163 62q96 0 158 -60t62 -164t-78 -170
q106 -57 107 -206q0 -102 -59 -173q-72 -79 -189 -79t-184 69q-66 72 -66 178q1 143 105 211q-78 60 -78 166z" />
    <glyph glyph-name="nineinferior" unicode="&#x2089;" horiz-adv-x="600" 
d="M297 698q-43 0 -68 -43q-20 -41 -20 -105q1 -64 23 -107q22 -44 66 -44q44 1 66 45t23 105t-23 105t-67 44zM289 115q82 0 106 202q-51 -49 -121 -49q-100 0 -159 78t-59 198t63 206q65 86 179 86t182 -106t67 -306q0 -200 -67 -320t-197 -120q-95 0 -149 59t-66 170h145
q12 -98 76 -98z" />
    <glyph glyph-name="franc" unicode="&#x20a3;" horiz-adv-x="1382" 
d="M1075 0h-201v858h191v-156q86 184 264 185q20 0 41 -2v-205q-47 6 -70 6q-133 0 -192 -135q-33 -72 -33 -254v-297zM334 0h-209v1366h780v-180h-571v-328h432v-180h-432v-678z" />
    <glyph glyph-name="lira" unicode="&#x20a4;" horiz-adv-x="860" 
d="M301 49q-86 0 -215 -76l-92 123q119 97 174 228h-164v168h199q-6 47 -8 63h-191v168h125q-2 6 -7 13q-5 6 -12 18t-14 20q-82 125 -82 250q0 168 123 274q106 94 277 95q264 0 362 -183q49 -86 51 -196h-204q-2 70 -33 121q-54 86 -162 86t-154 -58q-49 -66 -49 -138
t29 -130q18 -45 51 -94l49 -78h295v-168h-235q4 -37 4 -47t-2 -16h233v-168h-287q-39 -61 -139 -156q115 72 183 72q37 0 83 -30t74 -30q84 0 92 144h197q-10 -156 -64 -244q-66 -109 -192 -109q-70 0 -159 39t-136 39z" />
    <glyph glyph-name="peseta" unicode="&#x20a7;" horiz-adv-x="2105" 
d="M1763 92q61 0 93 31t30 76q0 66 -69 98q-25 12 -131 37q-205 49 -205 219q1 97 71 159t193 62q164 0 237 -100q33 -45 39 -117h-159q-16 96 -121 96q-53 0 -80 -26q-31 -25 -31 -69t32 -64t128 -41t145 -50q115 -61 115 -177t-78 -189q-78 -66 -209 -66q-258 0 -293 238
h160q18 -117 133 -117zM1149 625h-111v125h107v94l119 157h45v-251h127v-125h-129v-396q0 -69 12 -91q20 -37 117 -11v-133q-43 -16 -111 -17q-115 0 -154 70q-23 45 -22 166v412zM350 1165v-448h199q129 0 186 57t57 179t-90 182q-49 31 -172 30h-180zM350 0h-225v1366h428
q143 0 225 -29q127 -47 191 -168q49 -92 49 -221q0 -223 -139 -338q-59 -47 -136 -69q-70 -16 -163 -17h-230v-524z" />
    <glyph glyph-name="Euro" unicode="&#x20ac;" horiz-adv-x="1181" 
d="M732 160q110 0 198 63q6 4 57 51l129 -131q-55 -53 -92 -80q-135 -98 -317 -98q-309 0 -455 314q-43 96 -64 210h-153l55 146h84q-2 16 -2 46t2 48h-139l55 145h98q29 150 95 263q154 262 446 262q156 0 289 -72q51 -31 90 -57l-76 -195q-66 59 -132 94t-161 35
q-154 0 -233 -106q-63 -86 -90 -224h532l-55 -145h-494q-2 -12 -2 -45t2 -49h457l-55 -146h-385q36 -189 144 -279q62 -50 172 -50z" />
    <glyph glyph-name="uni2101" unicode="&#x2101;" horiz-adv-x="1587" 
d="M1247 1366l-583 -1366h-152l588 1366h147zM1157 270q0 -153 119 -153q53 0 80 32t26 70q0 59 -55 92q-25 16 -125 58q-193 80 -192 241q0 106 70 166t177 62q172 0 236 -129q27 -49 29 -129h-156v14q-8 100 -104 100t-97 -84q0 -42 33 -70q34 -28 128 -65t144 -80
q76 -70 76 -173t-74 -172t-198 -68q-170 0 -246 131q-35 59 -37 157h166zM342 1143l-76 -250h150zM0 547l264 819h158l262 -819h-168l-61 211h-228l-61 -211h-166z" />
    <glyph glyph-name="afii61352" unicode="&#x2116;" horiz-adv-x="1718" 
d="M1184 225h526v-131h-526v131zM1341 604q0 -160 107 -160q43 0 74 38q30 38 30 118t-28 121q-29 41 -77 41t-77 -43t-29 -115zM1445 913q125 0 195 -84q70 -85 70 -231t-74 -226t-194 -79q-120 0 -190 87q-68 87 -68 221t68 223t193 89zM334 0h-209v1366h231l508 -1014
v1014h209v-1366h-233l-506 1008v-1008z" />
    <glyph glyph-name="trademark" unicode="&#x2122;" horiz-adv-x="1456" 
d="M809 547h-152v819h203l170 -582l164 582h203v-819h-152v538l-147 -538h-133l-156 534v-534zM379 547h-160v680h-211v139h580v-139h-209v-680z" />
    <glyph glyph-name="Ohm" unicode="&#x2126;" horiz-adv-x="1259" 
d="M545 0h-459v180h190q-203 203 -202 555q0 301 182 496q158 166 377 166t377 -170q178 -186 178 -494q0 -350 -205 -553h191v-180h-457v168q94 70 149 166q96 170 96 382t-106 357q-90 127 -225 127t-233 -135t-99 -369q0 -234 125 -409q47 -66 121 -119v-168z" />
    <glyph glyph-name="estimated" unicode="&#x212e;" horiz-adv-x="944" 
d="M478 815q-108 0 -165 -102q-33 -64 -41 -152h404q-6 78 -35 139q-55 115 -163 115zM486 127q136 0 184 156h188q-14 -78 -55 -142q-109 -170 -312 -170q-203 -1 -313 141t-110 353t112 359t295 147q152 0 254 -101q148 -141 148 -450h-609q2 -86 27 -150
q55 -143 191 -143z" />
    <glyph glyph-name="onethird" unicode="&#x2153;" horiz-adv-x="1413" 
d="M1337 612q0 -103 -88 -159q115 -66 115 -193t-77 -199t-189 -71q-162 0 -226 125q-29 61 -28 131v24h151q4 -59 15 -88q20 -51 76 -51t88 31q30 31 30 90q0 127 -112 127q-27 0 -54 -2v125h29q59 0 86 22q29 29 29 83t-33 79q-23 16 -53 16q-84 1 -86 -122h-152
q4 102 43 163q63 101 187 101t188 -68q61 -61 61 -164zM1018 1366l-586 -1366h-151l587 1366h150zM311 547h-149v567q-47 -29 -111 -29h-24v132q96 4 129 40q31 37 39 109h116v-819z" />
    <glyph glyph-name="twothirds" unicode="&#x2154;" horiz-adv-x="1562" 
d="M561 686v-139h-506q-2 14 -2 33q0 125 53 208q29 51 99 107l94 68q111 74 111 172q0 41 -24 75t-79 33q-96 0 -96 -137h-158q4 86 31 141q68 135 225 135q125 0 201 -79q59 -65 59 -171t-90 -196q-49 -45 -145 -113q-105 -69 -119 -137h346zM993 246v24h152q4 -59 14 -88
q19 -51 77 -51q118 0 118 124t-113 124q-25 0 -53 -2v125h29q63 0 89 26t26 79q0 54 -34 79q-23 16 -53 16q-82 1 -86 -122h-149q4 102 43 163q63 101 185 101t185 -64t63 -168q0 -103 -87 -159q115 -66 115 -194t-76 -199t-191 -70q-160 0 -223 125q-31 59 -31 131z
M1167 1366l-583 -1366h-152l588 1366h147z" />
    <glyph glyph-name="oneeighth" unicode="&#x215b;" horiz-adv-x="1406" 
d="M1096 377q-43 0 -72 -37t-29 -96t29 -99q29 -31 70 -30q94 0 94 127q0 57 -25 94q-24 41 -67 41zM1092 702q-35 0 -58 -24q-22 -29 -22 -76t22 -76q22 -28 56 -28t57 22q25 33 25 81t-23 77q-22 24 -57 24zM868 608q0 108 64 168t163 60t159 -60t60 -164t-79 -170
q104 -57 104 -206q0 -102 -59 -173q-72 -79 -188 -79t-185 69q-63 70 -63 178q0 143 102 211q-78 58 -78 166zM1018 1366l-586 -1366h-151l587 1366h150zM311 547h-149v567q-47 -29 -111 -29h-24v132q96 4 129 40q31 37 39 109h116v-819z" />
    <glyph glyph-name="threeeighths" unicode="&#x215c;" horiz-adv-x="1503" 
d="M389 1153q0 94 -84 94t-88 -121h-149q4 102 43 164q63 98 185 98t185 -62q63 -64 63 -168t-87 -161q115 -67 115 -191t-76 -198q-76 -72 -191 -71q-160 0 -223 125q-31 59 -31 131v24h152q4 -59 19 -99q14 -40 72 -40t88 32t30 89q0 125 -113 125q-25 0 -53 -2v127
q14 -2 52 -2t62 22q29 33 29 84zM1282 242q0 55 -24 95t-66 40q-43 0 -72 -37q-28 -37 -28 -96t28 -99q27 -31 70 -30q92 0 92 127zM1268 601q0 49 -22 75t-58 26q-37 0 -59 -26q-21 -26 -21 -74q0 -47 25 -78q18 -26 54 -26q37 0 59 28t22 75zM1409 612q0 -104 -78 -170
q104 -57 105 -206q0 -102 -65 -178t-181 -74q-116 0 -186 69q-66 72 -66 178q0 143 104 211q-78 58 -78 166t63 168t161 60t160 -60t61 -164zM1114 1366l-586 -1366h-149l588 1366h147z" />
    <glyph glyph-name="fiveeighths" unicode="&#x215d;" horiz-adv-x="1460" 
d="M281 668q102 0 102 149q0 68 -27 113q-26 45 -78 45t-94 -72l-129 4l66 459h373v-141h-258l-21 -148q41 27 98 27q94 0 159 -77t65 -204t-71 -210t-175 -83t-178 59t-74 185h145q14 -106 97 -106zM1239 242q1 55 -23 95t-67 40t-71 -35t-28 -96t29 -101q25 -31 68 -30
q92 0 92 127zM1145 702q-35 0 -58 -24q-23 -29 -23 -76t24 -76q22 -28 57 -28t57 28t23 75q-1 49 -23 75t-57 26zM1366 612q0 -104 -78 -170q104 -57 105 -206q0 -102 -60 -173q-71 -79 -187 -79t-183 69q-66 72 -66 178q0 143 102 211q-77 58 -77 166t64 168t161 60
q99 0 159 -60t60 -164zM1071 1366l-586 -1366h-149l588 1366h147z" />
    <glyph glyph-name="seveneighths" unicode="&#x215e;" horiz-adv-x="1349" 
d="M63 1219v147h476v-129q-86 -97 -155 -287t-79 -403h-158q3 143 59 327t173 345h-316zM1035 377q-41 0 -69 -35t-28 -96q0 -60 27 -96t69 -35q94 0 94 127q0 55 -22 94q-29 41 -71 41zM1032 702q-36 0 -58 -26t-22 -74q0 -47 22 -76q22 -28 58 -28q34 0 56 28t22 76
q0 100 -78 100zM811 608q0 106 61 166q62 60 162 62q100 0 160 -60t59 -164q0 -104 -77 -170q104 -57 104 -206q0 -106 -57 -173q-72 -79 -189 -79t-184 69q-66 72 -66 178q1 143 105 211q-78 60 -78 166zM958 1366l-583 -1366h-154l590 1366h147z" />
    <glyph glyph-name="partialdiff" unicode="&#x2202;" horiz-adv-x="985" 
d="M495 803q-99 0 -161 -87t-62 -246t62 -245t158 -86q98 0 153 74q70 90 70 254t-62 250q-59 86 -158 86zM920 456q0 -226 -129 -366q-111 -119 -305 -119q-194 -1 -307 141q-111 142 -111 357t102 348q63 80 145 117q81 37 155 37t140 -31q-88 134 -158 204t-169 132
l71 119q160 -76 299 -234q109 -121 188 -300t79 -405z" />
    <glyph glyph-name="increment" unicode="&#x2206;" horiz-adv-x="1134" 
d="M834 180l-269 918l-270 -918h539zM10 0l441 1366h233l438 -1366h-1112z" />
    <glyph glyph-name="product" unicode="&#x220f;" horiz-adv-x="1366" 
d="M49 1368v168h1268v-168h-150v-1712h150v-168h-486v168h150v1712h-596v-1712h145v-168h-481v168h152v1712h-152z" />
    <glyph glyph-name="summation" unicode="&#x2211;" horiz-adv-x="1366" 
d="M70 1536h1171v-489h-188l-21 296h-731l506 -794l-504 -871h748l12 304h199v-494h-1192v221l491 840l-491 768v219z" />
    <glyph glyph-name="minus" unicode="&#x2212;" 
d="M41 602v174h942v-174h-942z" />
    <glyph glyph-name="uni2215" unicode="&#x2215;" horiz-adv-x="401" 
d="M569 1366l-583 -1366h-154l590 1366h147z" />
    <glyph glyph-name="radical" unicode="&#x221a;" horiz-adv-x="1366" 
d="M1366 1694v-174h-377l-430 -1520h-233l-156 573h-170v172h291l76 -260q12 -47 53 -252l6 -30h10l90 391l310 1100h530z" />
    <glyph glyph-name="infinity" unicode="&#x221e;" horiz-adv-x="1366" 
d="M362 879q-74 -1 -122 -53t-50 -135q0 -83 54 -130t123 -47q104 0 186 104q15 16 35 46t20 32q-10 14 -10 17q-111 166 -236 166zM1001 514q74 0 124 51q51 51 51 133t-54 130t-123 49q-100 0 -186 -105q-6 -4 -41 -51l-14 -25q10 -14 10 -16q109 -166 233 -166zM348 383
q-140 0 -231 96q-78 90 -78 222t84 221q90 90 223 90q182 0 334 -215q49 68 92 108q111 105 252 105t231 -103q72 -88 72 -218t-86 -218t-220 -88t-243 104q-43 41 -92 111q-51 -70 -92 -111q-106 -104 -246 -104z" />
    <glyph glyph-name="integral" unicode="&#x222b;" 
d="M281 -315q84 0 106 61q14 31 14 207v1081q0 240 19 309q25 97 109 145t186 48q47 0 147 -23l-39 -194q-43 20 -84 20q-72 0 -100 -53q-16 -39 -16 -151v-1201q0 -174 -15 -233q-18 -84 -94 -141q-90 -72 -250 -72q-37 0 -80 14l-24 6l39 197q43 -20 82 -20z" />
    <glyph glyph-name="uni2236" unicode="&#x2236;" horiz-adv-x="1161" 
d="M483 963q0 39 29 67t69 29q41 0 69 -29q28 -30 28 -68t-29 -67t-69 -29t-68 29q-29 29 -29 68zM581 528q41 0 69 -28t28 -69q0 -40 -28 -68q-28 -27 -70 -27t-69 28q-28 28 -28 67q0 41 29 69t69 28z" />
    <glyph glyph-name="approxequal" unicode="&#x2248;" 
d="M307 653q74 0 200 -59q127 -60 153 -70t75 -10t96 47q25 29 62 84l111 -78q-49 -104 -89 -151q-82 -100 -196 -101q-51 0 -119 27l-102 47q-142 66 -200 66t-94 -36t-73 -93l-111 77q37 84 82 144q86 106 205 106zM307 1038q73 0 219 -70t203 -69q57 0 95 41t69 90
l111 -76q-45 -100 -89 -151q-82 -100 -196 -101q-51 0 -119 27l-102 47q-146 66 -202 66t-95 -40t-70 -89l-111 78q37 82 82 141q86 106 205 106z" />
    <glyph glyph-name="notequal" unicode="&#x2260;" 
d="M41 432v172h321l99 170h-420v172h520l111 195l151 -86l-61 -109h221v-172h-321l-99 -170h420v-172h-518l-113 -194l-151 88l61 106h-221z" />
    <glyph glyph-name="lessequal" unicode="&#x2264;" 
d="M68 313h886v-192h-886v192zM68 907l886 350v-204l-647 -240l647 -238v-204l-886 350v186z" />
    <glyph glyph-name="greaterequal" unicode="&#x2265;" 
d="M68 121v192h886v-192h-886zM68 1053v204l886 -350v-186l-886 -350v204l649 238z" />
    <glyph glyph-name="dotmath" unicode="&#x22c5;" horiz-adv-x="503" 
d="M129 600h246v-246h-246v246z" />
    <glyph glyph-name="lozenge" unicode="&#x25ca;" horiz-adv-x="1366" 
d="M1085 682l-403 555l-403 -555l403 -555zM152 682l530 737l532 -737l-532 -735z" />
    <glyph glyph-name="uniEA31" unicode="&#xea31;" horiz-adv-x="964" 
d="M481 793q143 0 245 101q102 100 101 246q1 146 -103 246t-245 101t-242 -101t-101 -246t100 -246q102 -101 245 -101zM481 1554q172 0 293 -120t121 -293q0 -172 -120 -294t-293 -122t-294 124t-120 296q0 105 58 207t156 152t199 50zM483 895q-84 0 -135 63
q-53 70 -53 172t43 168q51 82 149 82t146 -90q16 -33 22 -86h-96q-14 88 -76 88q-41 0 -65 -41t-25 -113q0 -72 27 -116q20 -39 61 -39q66 0 78 119h98q-2 -6 -2 -15q-4 -72 -39 -122q-49 -70 -133 -70z" />
    <glyph glyph-name="uniEA32" unicode="&#xea32;" horiz-adv-x="964" 
d="M481 793q143 0 245 101q102 100 101 246q1 146 -103 246t-245 101t-242 -101t-101 -246t100 -246q102 -101 245 -101zM481 1554q172 0 293 -120t121 -293q0 -172 -120 -294t-293 -122t-294 124t-120 296q0 105 58 207t156 152t199 50zM428 1284v-115h49q41 1 59 13t19 46
q-1 34 -19 45t-51 11h-57zM428 907h-98v463h174q68 0 108 -34t41 -100q0 -66 -53 -106q39 -28 44 -102t11 -88l25 -33h-111q-12 27 -15 86q-3 60 -17 77t-58 17h-51v-180z" />
    <glyph glyph-name="uniEA3F" unicode="&#xea3f;" horiz-adv-x="1032" 
d="M432 1366h166v-135q0 -143 -72 -199q-33 -27 -94 -33v76q65 17 76 111h-76v180z" />
    <glyph glyph-name="uniEA4F" unicode="&#xea4f;" horiz-adv-x="1032" 
d="M598 1092h-166v135q0 141 74 198q33 23 92 33v-78q-64 -16 -74 -108h74v-180z" />
    <glyph glyph-name="uniEA66" unicode="&#xea66;" horiz-adv-x="1032" 
d="M432 -94h166v-133q0 -217 -166 -234v78q34 8 52 32t24 79h-76v178z" />
    <glyph glyph-name="uniEA67" unicode="&#xea67;" horiz-adv-x="1032" 
d="M432 1366h166v-135q0 -143 -72 -199q-33 -27 -94 -33v76q65 17 76 111h-76v180z" />
    <glyph glyph-name="uniEA68" unicode="&#xea68;" 
d="M287 1653h190v-205h-190v205zM547 1653h190v-205h-190v205z" />
    <glyph glyph-name="uniEA69" unicode="&#xea69;" horiz-adv-x="1032" 
d="M432 -94h166v-133q0 -217 -166 -234v78q34 8 52 32t24 79h-76v178z" />
    <glyph glyph-name="uniEA6A" unicode="&#xea6a;" 
d="M303 1311h166v-205h-166v205zM557 1311h166v-205h-166v205z" />
    <glyph glyph-name="uniEA71" unicode="&#xea71;" horiz-adv-x="1091" 
d="M354 1165v-145h434q-14 51 -51 89t-86 47t-116 9h-181zM354 891v-174h199q84 0 139 22q78 37 101 152h-439zM129 0v891h-109v129h109v346h428q186 0 277 -51q158 -86 184 -295h59v-129h-57q-12 -127 -77 -217t-173 -125q-68 -25 -186 -25h-230v-524h-225z" />
    <glyph glyph-name="uniEA72" unicode="&#xea72;" horiz-adv-x="565" 
d="M27 645v80h512v-80h-512zM354 807h-116v381q-29 -16 -68 -17h-25v105q70 4 91 24q18 20 24 76h94v-569zM459 109v-109h-359v23q0 92 34 147t136 127q72 47 72 112t-61 64q-61 0 -62 -78v-14h-119q5 130 88 178q41 25 93 25q90 0 137 -52t47 -128q-1 -76 -53 -126
t-112 -90t-75 -79h234z" />
    <glyph glyph-name="uniEA73" unicode="&#xea73;" horiz-adv-x="565" 
d="M285 236v145l-80 -145h80zM27 645v80h512v-80h-512zM360 807h-114v381q-33 -16 -70 -17h-22v105q68 4 88 24q16 20 26 76h92v-569zM393 0h-108v131h-191v105l199 335h100v-335h60v-105h-60v-131z" />
    <glyph glyph-name="uniEA74" unicode="&#xea74;" horiz-adv-x="565" 
d="M27 645v80h512v-80h-512zM279 236v145l-80 -145h80zM387 0h-108v131h-191v105l199 335h100v-335h57v-105h-57v-131zM446 1230q0 -69 -53 -110q72 -43 72 -130t-52 -139t-137 -52q-113 0 -157 88q-20 39 -21 100v17h117q0 -25 4 -50q10 -47 57 -47q66 0 66 78t-70 78
q-25 0 -43 -2v100q12 -2 40 -2q57 -1 58 61t-51 62t-53 -82h-114q7 192 172 193q77 0 121 -47t44 -116z" />
    <glyph glyph-name="Dotaccent" unicode="&#xefed;" 
d="M416 1653h192v-205h-192v205z" />
    <glyph glyph-name="Breve" unicode="&#xefee;" horiz-adv-x="1036" 
d="M520 1608q70 0 105 47q16 27 28 80h138q-8 -76 -31 -123q-70 -143 -242 -144q-116 0 -186 67t-86 200h137q12 -57 40 -92q27 -35 97 -35z" />
    <glyph glyph-name="Ogonek" unicode="&#xeff1;" horiz-adv-x="1036" 
d="M834 -164q0 -49 40 -78q27 -14 59 -14t75 14v-110q-61 -23 -109 -23q-90 0 -143 50q-54 49 -54 137t109 190h119q-96 -77 -96 -166z" />
    <glyph glyph-name="Cedilla" unicode="&#xeff2;" horiz-adv-x="1036" 
d="M508 -330q74 0 74 76q0 37 -23 59q-18 23 -56 23t-50 -29h-111l78 201h98l-43 -109q20 13 63 13t93 -31q67 -41 67 -115t-51 -120t-144 -48q-93 0 -138 56q-20 25 -25 55h109q10 -31 59 -31z" />
    <glyph glyph-name="Ring" unicode="&#xeff3;" horiz-adv-x="1036" 
d="M517 1827q81 1 138 -57t57 -139t-58 -139t-139 -58t-138 57t-57 138t58 139t139 59zM519 1726q-39 0 -67 -28t-28 -71q0 -42 29 -71q29 -28 67 -28t65 28q28 28 27 70q0 43 -26 72q-29 28 -67 28z" />
    <glyph glyph-name="Tilde" unicode="&#xeff5;" horiz-adv-x="1036" 
d="M637 1481q-55 0 -136 46t-106 46q-55 0 -69 -92h-115q35 231 195 231q45 0 94 -22l59 -35q47 -31 76 -31q56 0 76 88h114q-35 -231 -188 -231z" />
    <glyph glyph-name="Circumflex" unicode="&#xeff7;" horiz-adv-x="1036" 
d="M614 1735l185 -260h-181l-100 147l-100 -147h-180l184 260h192z" />
    <glyph glyph-name="Acute" unicode="&#xf6c9;" horiz-adv-x="1036" 
d="M580 1735h186l-186 -260h-170z" />
    <glyph glyph-name="Caron" unicode="&#xf6ca;" horiz-adv-x="1036" 
d="M422 1475l-184 260h180l100 -150l100 150h181l-183 -260h-194z" />
    <glyph glyph-name="Dieresis" unicode="&#xf6cb;" horiz-adv-x="1036" 
d="M258 1653h193v-205h-193v205zM584 1653h192v-205h-192v205z" />
    <glyph glyph-name="Grave" unicode="&#xf6ce;" 
d="M449 1475l-185 260h187l170 -260h-172z" />
    <glyph glyph-name="Hungarumlaut" unicode="&#xf6cf;" horiz-adv-x="1036" 
d="M731 1735h187l-187 -260h-170zM418 1735h186l-184 -260h-172z" />
    <glyph glyph-name="Macron" unicode="&#xf6d0;" horiz-adv-x="1036" 
d="M227 1612h582v-133h-582v133z" />
    <glyph glyph-name="fi" unicode="&#xfb01;" horiz-adv-x="978" 
d="M858 0h-201v942h201v-942zM858 1159h-201v207h201v-207zM354 0h-202v786h-134v156h134v129q0 166 49 232q63 94 211 94q43 0 106 -15v-168q-43 14 -72 15q-66 0 -79 -45q-14 -29 -15 -117v-125h154v-156h-152v-786z" />
    <glyph glyph-name="fl" unicode="&#xfb02;" horiz-adv-x="978" 
d="M858 0h-201v1366h201v-1366zM354 0h-202v786h-134v156h134v129q0 166 49 232q63 94 211 94q43 0 106 -15v-168q-43 14 -72 15q-66 0 -79 -45q-14 -29 -15 -117v-125h154v-156h-152v-786z" />
    </font>
</defs>
</svg>
