<?xml version="1.0" standalone="no"?>
<!DOCTYPE svg PUBLIC "-//W3C//DTD SVG 1.1//EN" "http://www.w3.org/Graphics/SVG/1.1/DTD/svg11.dtd" >
<svg>
<metadata>
Created by FontForge 20130207 at Mon Jun  8 12:39:08 2015
 By Csorba Mátyás
Copyright (c) 2006 by URW. All rights reserved.
</metadata>
<defs>
<font id="TcomGrotesk" horiz-adv-x="1024" >
  <font-face 
    font-family="TcomGrotesk"
    font-weight="400"
    font-stretch="normal"
    units-per-em="2048"
    panose-1="2 0 0 0 0 0 0 0 0 0"
    ascent="1434"
    descent="-614"
    x-height="942"
    cap-height="1366"
    bbox="-139 -512 2406 1806"
    underline-thickness="104"
    underline-position="-110"
    unicode-range="U+0020-FB02"
  />
<missing-glyph horiz-adv-x="395" 
 />
    <glyph glyph-name=".notdef" horiz-adv-x="395" 
 />
    <glyph glyph-name=".null" horiz-adv-x="0" 
 />
    <glyph glyph-name="nonmarkingreturn" horiz-adv-x="681" 
 />
    <glyph glyph-name="space" unicode=" " horiz-adv-x="395" 
 />
    <glyph glyph-name="exclam" unicode="!" horiz-adv-x="458" 
d="M160 205h139v-205h-139v205zM168 1366h123v-401l-29 -623h-67l-27 623v401z" />
    <glyph glyph-name="quotedbl" unicode="&#x22;" horiz-adv-x="534" 
d="M453 1366l-17 -520h-82l-16 520h115zM197 1366l-17 -520h-82l-16 520h115z" />
    <glyph glyph-name="numbersign" unicode="#" horiz-adv-x="1228" 
d="M729 555l39 276h-274l-39 -276h274zM1090 924v-93h-216l-38 -276h202v-90h-215l-55 -397h-106l55 397h-277l-55 -397h-106l57 397h-201v90h213l37 276h-199v93h213l54 372h104l-51 -372h274l54 372h106l-51 -372h201z" />
    <glyph glyph-name="dollar" unicode="$" horiz-adv-x="1048" 
d="M465 782v467q-84 -10 -131 -39q-102 -66 -102 -192t135 -197q43 -21 98 -39zM565 631v-512q153 15 226 121q37 59 36 127q0 186 -262 264zM465 1448h100v-98q133 -23 217 -97q90 -84 109 -221h-127q-31 173 -199 211v-493q133 -39 183 -64q104 -49 155 -137
q51 -89 51 -197t-75 -198q-106 -129 -314 -144v-92h-100v94q-330 43 -369 371h117q17 -121 89 -185t163 -77v541q-125 37 -180 69q-174 98 -174 297q0 102 55 180q96 134 299 148v92z" />
    <glyph glyph-name="percent" unicode="%" horiz-adv-x="1695" 
d="M1320 748q-106 0 -171 -93q-68 -92 -68 -238q0 -145 62 -245t170 -100t174 90q65 96 65 247t-63 245t-169 94zM983 421q-1 181 93 299t242 118t241 -120q92 -120 92 -300t-74 -293q-92 -143 -259 -143t-259 143q-76 115 -76 296zM1190 1366l-586 -1366h-98l588 1366h96z
M380 1292q-105 0 -171 -91t-66 -236q-1 -145 59 -247t170 -102t175 91q65 97 65 249t-64 244t-168 92zM379 1384q147 0 239 -120t92 -300q0 -178 -73 -294q-92 -144 -258 -144t-260 144q-74 117 -74 298q-1 180 93 298t241 118z" />
    <glyph glyph-name="ampersand" unicode="&#x26;" horiz-adv-x="1030" 
d="M623 1107q0 81 -43 134q-42 53 -108 53t-114 -43q-54 -59 -54 -149t63 -195l57 -90q86 72 121 115q78 94 78 175zM436 68q157 0 266 135l-307 463q-195 -164 -194 -349q0 -115 67 -182t168 -67zM418 -29q-148 0 -241 96t-93 255t113 290q51 57 145 136l-39 57
q-115 170 -115 306t105 222q77 63 187 63t185 -80q75 -81 75 -195t-78 -216q-53 -68 -183 -172l285 -426q43 111 49 260h113q-23 -211 -105 -348l146 -219h-131l-82 123q-47 -53 -88 -82q-100 -70 -248 -70z" />
    <glyph glyph-name="quotesingle" unicode="'" horiz-adv-x="278" 
d="M197 1366l-17 -520h-82l-16 520h115z" />
    <glyph glyph-name="parenleft" unicode="(" horiz-adv-x="505" 
d="M86 504q0 432 225 862h86q-203 -399 -203 -858t203 -862h-86q-90 184 -141 327q-84 256 -84 531z" />
    <glyph glyph-name="parenright" unicode=")" horiz-adv-x="505" 
d="M422 488q0 -296 -111 -586q-53 -145 -116 -256h-86q203 397 203 856t-203 864h86q88 -178 141 -330q86 -252 86 -548z" />
    <glyph glyph-name="asterisk" unicode="*" horiz-adv-x="819" 
d="M373 1366h73l-2 -244l230 78l22 -67l-231 -74l145 -193l-55 -43l-145 195l-152 -195l-55 43l149 193l-229 74l22 67l228 -78v244z" />
    <glyph glyph-name="plus" unicode="+" 
d="M68 637v104h387v363h112v-363h387v-104h-387v-361h-112v361h-387z" />
    <glyph glyph-name="comma" unicode="," horiz-adv-x="409" 
d="M135 205h139v-148q0 -157 -36 -225t-115 -98v82q72 43 72 161v23h-60v205z" />
    <glyph glyph-name="hyphen" unicode="-" horiz-adv-x="403" 
d="M8 559h387v-104h-387v104z" />
    <glyph glyph-name="hyphen" unicode="&#xad;" horiz-adv-x="403" 
d="M8 559h387v-104h-387v104z" />
    <glyph glyph-name="period" unicode="." horiz-adv-x="409" 
d="M135 205h139v-205h-139v205z" />
    <glyph glyph-name="slash" unicode="/" horiz-adv-x="702" 
d="M629 1366l-586 -1720h-96l588 1720h94z" />
    <glyph glyph-name="zero" unicode="0" horiz-adv-x="970" 
d="M489 1290q-170 0 -233 -209q-49 -164 -49 -409q1 -598 279 -598t278 608q0 312 -72 460t-203 148zM88 668q0 354 102 540t298 185q196 0 305 -201q90 -170 90 -522q-1 -352 -107 -525q-106 -174 -289 -174q-399 0 -399 697z" />
    <glyph glyph-name="one" unicode="1" horiz-adv-x="972" 
d="M557 0h-119v1100q-47 -49 -106 -66q-20 -6 -105 -10v94q123 2 181 76q39 47 59 172h90v-1366z" />
    <glyph glyph-name="two" unicode="2" horiz-adv-x="970" 
d="M840 106v-106h-731q2 205 79 346q59 104 177 197l167 123q90 61 144 154t53 205q1 111 -63 189t-194 78t-204 -108q-43 -68 -45 -168h-117q12 164 93 258q100 123 280 123q181 0 277 -116q96 -115 96 -283t-133 -308q-55 -57 -129 -112l-129 -95q-150 -106 -197 -233
q-18 -58 -22 -144h598z" />
    <glyph glyph-name="three" unicode="3" horiz-adv-x="972" 
d="M465 1290q-236 0 -248 -266h-108q2 141 69 236q96 133 291 133q162 -1 257 -97t95 -247q0 -221 -194 -312q233 -82 233 -352q0 -190 -110 -302t-285 -112q-173 1 -277 105t-104 313h109q0 -115 38 -184q68 -131 232 -131q125 0 199 80q82 84 82 236t-105 231
q-78 59 -188 59q-6 0 -52 -4v102q18 -2 39 -2q104 0 168 51q96 74 96 203t-69 199q-66 61 -168 61z" />
    <glyph glyph-name="four" unicode="4" horiz-adv-x="972" 
d="M598 469v705l-422 -705h422zM702 0h-104v369h-514v112l524 885h94v-897h170v-100h-170v-369z" />
    <glyph glyph-name="five" unicode="5" horiz-adv-x="970" 
d="M809 1366v-106h-483l-78 -469q90 121 249 121t265 -124q106 -122 104 -338q0 -216 -127 -362q-104 -117 -283 -117t-278 125q-74 92 -80 236h111q8 -98 55 -164q74 -94 200 -94t205 104t79 267q0 162 -74 263t-216 101t-231 -160l-94 17l109 700h567z" />
    <glyph glyph-name="six" unicode="6" horiz-adv-x="970" 
d="M494 791q-128 -1 -196 -111t-68 -248t71 -249q72 -109 200 -109q129 0 197 110t68 250t-72 249q-72 108 -200 108zM512 891q150 0 250 -107q121 -133 121 -336q1 -203 -101 -340t-288 -137t-283 154q-67 104 -89 234t-22 274q0 389 115 581q109 178 303 179
q158 0 250 -113q58 -70 76 -199h-113q-35 209 -219 209t-254 -239q-39 -141 -49 -379q104 219 303 219z" />
    <glyph glyph-name="seven" unicode="7" horiz-adv-x="970" 
d="M143 1253v113h727v-109q-446 -538 -450 -1257h-121q3 715 457 1253h-613z" />
    <glyph glyph-name="eight" unicode="8" horiz-adv-x="972" 
d="M485 698q-123 0 -196 -84q-76 -82 -76 -232t84 -241q73 -73 197 -73t196 96q68 86 68 223t-75 224t-198 87zM490 1290q-106 0 -171 -61q-65 -65 -65 -179t61 -182q67 -68 175 -68t165 70q61 68 61 176t-54 173q-66 71 -172 71zM829 1067q0 -212 -186 -309
q231 -117 231 -375q0 -184 -107 -298t-281 -114t-282 110t-108 296q1 266 232 381q-188 96 -189 297q0 162 111 258q88 80 234 80t246 -87t99 -239z" />
    <glyph glyph-name="nine" unicode="9" horiz-adv-x="970" 
d="M477 573q129 1 197 111t67 251t-73 248t-201 107t-195 -110t-65 -250q0 -140 63 -242q78 -115 207 -115zM454 74q188 0 259 239q43 145 51 379q-98 -219 -305 -219q-147 0 -248 107q-123 129 -123 335t100 342q102 135 286 135t284 -155q70 -104 92 -233t20 -275
q0 -385 -114 -579q-106 -178 -303 -179q-160 0 -254 113q-60 72 -78 199h112q33 -209 221 -209z" />
    <glyph glyph-name="colon" unicode=":" horiz-adv-x="409" 
d="M135 205h139v-205h-139v205zM135 942h139v-205h-139v205z" />
    <glyph glyph-name="semicolon" unicode=";" horiz-adv-x="409" 
d="M135 942h139v-205h-139v205zM135 205h139v-148q0 -157 -36 -225t-115 -98v82q72 43 72 161v23h-60v205z" />
    <glyph glyph-name="less" unicode="&#x3c;" 
d="M68 735l886 408v-121l-755 -340l755 -338v-123l-886 410v104z" />
    <glyph glyph-name="equal" unicode="=" 
d="M68 502v104h886v-104h-886zM68 774v105h886v-105h-886z" />
    <glyph glyph-name="greater" unicode="&#x3e;" 
d="M70 1022v121l886 -408v-106l-886 -408v123l755 338z" />
    <glyph glyph-name="question" unicode="?" horiz-adv-x="872" 
d="M375 205h139v-205h-139v205zM795 1054q0 -128 -60 -231q-37 -65 -107 -143t-87 -109q-35 -63 -39 -231h-113q4 119 10 158q14 92 72 168l76 90q73 86 101 142t28 148q0 90 -58 160q-63 82 -180 82t-186 -69q-66 -70 -72 -201h-110q6 143 65 233q95 143 285 143t289 -114
q86 -98 86 -226z" />
    <glyph glyph-name="at" unicode="@" horiz-adv-x="1517" 
d="M784 899q-94 0 -151 -85t-57 -176q0 -92 34 -152q35 -60 111 -60q100 0 162 106q45 78 45 174t-35 144q-41 49 -109 49zM1044 350q-114 0 -126 119q-82 -129 -216 -129q-102 0 -161 79t-59 216t84 245q86 108 218 110q132 0 177 -150l22 127h100l-73 -385q-5 -51 -8 -66
q-3 -16 -3 -18q0 -63 60 -64q84 0 160 82q125 137 125 344t-150 332q-137 119 -352 119q-268 0 -463 -202t-195 -517q0 -238 139 -390t410 -151q223 0 445 109l26 -84q-223 -109 -481 -109q-305 0 -471 172t-166 451q0 225 113 425t303 296q164 86 340 86q240 0 414 -146
t176 -391q0 -168 -80 -296q-134 -214 -308 -214z" />
    <glyph glyph-name="A" unicode="A" horiz-adv-x="1087" 
d="M545 1231l-226 -696h445zM20 0l459 1366h133l455 -1366h-133l-137 430h-510l-140 -430h-127z" />
    <glyph glyph-name="B" unicode="B" horiz-adv-x="1118" 
d="M268 657v-551h258q186 0 271 56q109 72 109 230t-130 224q-82 41 -250 41h-258zM268 1260v-500h197q162 0 244 31t125 104q31 51 30 123q0 150 -121 209q-63 33 -204 33h-271zM561 0h-414v1366h394q209 0 311 -72q135 -94 135 -266q0 -137 -94 -229q-57 -53 -148 -82
q285 -63 285 -334q0 -203 -162 -309q-110 -74 -307 -74z" />
    <glyph glyph-name="C" unicode="C" horiz-adv-x="1181" 
d="M622 -33q-253 0 -409 230q-127 187 -127 495t152 506t395 199q141 0 256 -74q172 -109 207 -326h-125q-35 121 -88 181q-100 113 -254 112q-180 0 -291 -153q-127 -177 -127 -453t117 -448q49 -74 129 -118t174 -44q170 0 270 143q70 97 84 234h125q-23 -164 -100 -283
q-135 -201 -388 -201z" />
    <glyph glyph-name="D" unicode="D" horiz-adv-x="1171" 
d="M270 1260v-1154h230q246 0 354 154t107 434q0 328 -158 467q-106 98 -293 99h-240zM500 0h-353v1366h345q164 0 270 -47q154 -73 238 -229t83 -394q0 -362 -182 -549q-143 -147 -401 -147z" />
    <glyph glyph-name="E" unicode="E" horiz-adv-x="1017" 
d="M940 0h-793v1366h787v-106h-666v-500h623v-107h-623v-547h672v-106z" />
    <glyph glyph-name="F" unicode="F" horiz-adv-x="919" 
d="M268 0h-121v1366h732v-106h-611v-498h543v-107h-543v-655z" />
    <glyph glyph-name="G" unicode="G" horiz-adv-x="1251" 
d="M86 695q0 305 152 503t397 199q143 0 260 -74q174 -104 213 -319h-127q-35 119 -90 176q-100 110 -271 110t-282 -151q-127 -179 -127 -455t117 -448q113 -162 307 -162q137 0 235 100q148 150 148 414h-383v106h493v-694h-102v240q-139 -273 -398 -273t-415 230
q-127 193 -127 498z" />
    <glyph glyph-name="H" unicode="H" horiz-adv-x="1206" 
d="M268 0h-121v1366h121v-598h670v598h121v-1366h-121v664h-670v-664z" />
    <glyph glyph-name="I" unicode="I" horiz-adv-x="417" 
d="M268 0h-121v1366h121v-1366z" />
    <glyph glyph-name="J" unicode="J" horiz-adv-x="585" 
d="M334 496v870h121v-899q0 -170 -15 -236q-59 -264 -325 -264q-45 0 -105 13v108q49 -14 105 -14q145 0 192 135q27 74 27 287z" />
    <glyph glyph-name="K" unicode="K" horiz-adv-x="1087" 
d="M147 0v1366h121v-692l645 692h142l-543 -582l565 -784h-139l-504 700l-166 -176v-524h-121z" />
    <glyph glyph-name="L" unicode="L" horiz-adv-x="937" 
d="M899 0h-752v1366h121v-1260h631v-106z" />
    <glyph glyph-name="M" unicode="M" horiz-adv-x="1415" 
d="M262 0h-115v1366h158l406 -1192l397 1192h160v-1366h-117v1169l-385 -1169h-109l-395 1161v-1161z" />
    <glyph glyph-name="N" unicode="N" horiz-adv-x="1204" 
d="M262 0h-115v1366h132l661 -1169v1169h117v-1366h-131l-664 1163v-1163z" />
    <glyph glyph-name="O" unicode="O" horiz-adv-x="1259" 
d="M1051 680q0 268 -116 439t-303 171t-304 -167t-117 -428t98 -431q119 -190 341 -190q106 0 210 83t154 251q37 119 37 272zM86 702q0 304 154 500q154 195 393 195q241 0 391 -200t150 -499t-121 -493q-71 -117 -183 -177t-239 -61q-270 0 -422 238q-123 193 -123 497z
" />
    <glyph glyph-name="P" unicode="P" horiz-adv-x="1048" 
d="M268 1260v-572h224q180 0 256 64q94 76 94 232t-117 228q-49 33 -109 40t-131 8h-217zM268 0h-121v1366h349q146 0 242 -32t162 -125t67 -230q0 -217 -162 -324q-113 -74 -324 -73h-213v-582z" />
    <glyph glyph-name="Q" unicode="Q" horiz-adv-x="1259" 
d="M634 1290q-189 0 -306 -167t-117 -428t98 -431q61 -98 147 -144q201 -107 388 25l-156 166l70 68l155 -166q137 177 137 453t-113 450q-114 174 -303 174zM629 -33q-268 0 -420 238q-123 193 -123 496t150 495q152 201 394 201t394 -200q150 -199 150 -531t-181 -537
l154 -160l-70 -69l-153 163q-133 -96 -295 -96z" />
    <glyph glyph-name="R" unicode="R" horiz-adv-x="1144" 
d="M268 1260v-545h281q170 0 242 53q96 78 96 226t-94 216q-63 49 -207 50h-318zM268 0h-121v1366h443q127 0 194 -27q117 -41 177 -137q51 -78 51 -198q0 -170 -109 -273q-53 -51 -133 -72q100 -21 152 -85t63 -250t21 -236q10 -49 36 -88h-139q-20 37 -27 79
q-8 43 -18 195t-35 205q-39 86 -155 117q-59 14 -176 14h-224v-610z" />
    <glyph glyph-name="S" unicode="S" horiz-adv-x="1034" 
d="M838 362q0 132 -113 207q-55 37 -241 89t-255 102q-143 98 -143 278q0 145 106 252t300 107q248 0 366 -174q49 -74 66 -191h-127q-18 109 -68 164q-82 94 -225 94t-219 -72t-76 -185q0 -114 77 -170t222 -97t205 -61q254 -104 254 -345q0 -166 -118 -280t-317 -113
q-242 0 -364 154q-82 100 -100 262h116q18 -121 82 -197q94 -110 248 -110t238 77q86 77 86 209z" />
    <glyph glyph-name="T" unicode="T" horiz-adv-x="985" 
d="M555 1260v-1260h-123v1260h-397v106h915v-106h-395z" />
    <glyph glyph-name="U" unicode="U" horiz-adv-x="1161" 
d="M131 555v811h123v-815q0 -141 16 -223q31 -130 114 -192t199 -62q250 0 308 248q18 84 18 231v813h121v-815q0 -199 -33 -291q-104 -293 -411 -293q-147 0 -264 77t-164 241q-27 92 -27 270z" />
    <glyph glyph-name="V" unicode="V" horiz-adv-x="1028" 
d="M1008 1366l-424 -1366h-138l-426 1366h134l362 -1210l365 1210h127z" />
    <glyph glyph-name="W" unicode="W" horiz-adv-x="1503" 
d="M469 0h-129l-315 1366h125l260 -1173l274 1173h137l279 -1173l260 1173h119l-316 -1366h-129l-282 1184z" />
    <glyph glyph-name="X" unicode="X" horiz-adv-x="1005" 
d="M156 0h-136l414 702l-389 664h139l320 -565l325 565h134l-392 -664l412 -702h-139l-342 598z" />
    <glyph glyph-name="Y" unicode="Y" horiz-adv-x="1017" 
d="M569 0h-120v565l-451 801h141l373 -684l373 684h135l-451 -801v-565z" />
    <glyph glyph-name="Z" unicode="Z" horiz-adv-x="1001" 
d="M950 0h-893v115l746 1145h-692v106h825v-113l-746 -1147h760v-106z" />
    <glyph glyph-name="bracketleft" unicode="[" horiz-adv-x="505" 
d="M139 1366h267v-94h-164v-1532h164v-94h-267v1720z" />
    <glyph glyph-name="backslash" unicode="\" horiz-adv-x="702" 
d="M756 -354h-99l-583 1720h94z" />
    <glyph glyph-name="bracketright" unicode="]" horiz-adv-x="505" 
d="M367 -354h-267v94h164v1532h-164v94h267v-1720z" />
    <glyph glyph-name="asciicircum" unicode="^" 
d="M510 1282l-317 -504h-119l368 590h140l368 -590h-119z" />
    <glyph glyph-name="underscore" unicode="_" 
d="M68 -213v104h886v-104h-886z" />
    <glyph glyph-name="grave" unicode="`" 
d="M473 1092l-178 274h119l161 -274h-102z" />
    <glyph glyph-name="a" unicode="a" horiz-adv-x="897" 
d="M647 420v57q-174 -10 -261 -28q-87 -19 -138 -71t-51 -131t51 -130t133 -51q81 0 151 64t92 147q22 84 23 143zM774 -10q-72 0 -96 61q-14 31 -14 101v32q-121 -213 -314 -213q-106 0 -178 64q-88 76 -88 215t113 221q84 63 239 78q82 8 211 10v88q0 229 -205 230
q-197 0 -219 -226h-102q6 147 86 232q88 88 254 88t248 -111q39 -50 46 -120t7 -165v-356q0 -85 7 -109t31 -24t54 10v-90q-43 -16 -80 -16z" />
    <glyph glyph-name="b" unicode="b" horiz-adv-x="989" 
d="M522 877q-178 0 -248 -203q-29 -92 -28 -199q0 -190 78 -305q74 -104 198 -104t200 110q75 110 75 291q0 182 -72 296t-203 114zM242 0h-105v1366h113v-580q20 53 63 95q94 90 219 90q168 0 272 -134q104 -135 103 -367q0 -232 -106 -366t-257 -133q-151 0 -243 105
q-39 43 -59 96v-172z" />
    <glyph glyph-name="c" unicode="c" horiz-adv-x="878" 
d="M684 680q-44 197 -230 197q-114 0 -188 -111t-74 -295t74 -295q72 -110 195 -110t190 108q31 53 43 127h115q-10 -102 -66 -186q-94 -143 -279 -143q-184 0 -284 142t-100 353t95 357t290 147q158 0 254 -115q59 -72 80 -176h-115z" />
    <glyph glyph-name="d" unicode="d" horiz-adv-x="989" 
d="M463 877q-129 0 -200 -115t-71 -297t76 -295q74 -104 199 -104t199 104q78 115 78 302t-78 302q-74 103 -203 103zM852 1366v-1366h-104v172q-90 -201 -293 -201q-160 0 -267 129q-108 136 -108 368t103 368t274 135q133 0 227 -101q39 -41 55 -84v580h113z" />
    <glyph glyph-name="e" unicode="e" horiz-adv-x="907" 
d="M461 881q-92 0 -164 -72q-86 -90 -104 -274h522q-4 228 -148 315q-47 31 -106 31zM461 -29q-182 0 -287 152q-94 133 -94 352t107 357t274 139q133 0 227 -92q139 -134 141 -435h-636q4 -139 45 -225q70 -153 238 -153t231 210h108q-23 -100 -74 -170q-98 -135 -280 -135
z" />
    <glyph glyph-name="f" unicode="f" horiz-adv-x="473" 
d="M279 0h-113v848h-137v94h137v150q0 150 29 206q55 98 170 99q43 0 98 -21v-102q-39 20 -85 20t-75 -34q-25 -35 -24 -154v-164h163v-94h-163v-848z" />
    <glyph glyph-name="g" unicode="g" horiz-adv-x="970" 
d="M456 877q-118 -1 -191 -99t-73 -269t66 -287t195 -116q171 0 239 201q31 88 31 199q0 172 -78 274q-71 97 -189 97zM725 942h109v-809q0 -137 -15 -196q-27 -127 -124 -209t-243 -82t-243 90q-74 68 -94 180h116q16 -70 56 -109q66 -68 172 -67q137 0 207 113
q55 86 55 239v109q-23 -53 -62 -97q-90 -92 -208 -92q-167 0 -269 131t-102 355t106 349q106 124 263 124q194 -1 276 -187v158z" />
    <glyph glyph-name="h" unicode="h" horiz-adv-x="950" 
d="M250 0h-113v1366h113v-571q96 176 280 176q111 0 189 -66q72 -57 92 -172q8 -47 8 -139v-594h-110v555q-1 145 -23 203q-46 118 -167 119q-122 0 -184 -76t-77 -172q-8 -49 -8 -158v-471z" />
    <glyph glyph-name="i" unicode="i" horiz-adv-x="395" 
d="M254 0h-113v942h113v-942zM254 1174h-113v192h113v-192z" />
    <glyph glyph-name="j" unicode="j" horiz-adv-x="391" 
d="M250 1174h-113v192h113v-192zM137 -47v989h113v-985q0 -166 -31 -223q-45 -88 -166 -88q-35 0 -61 8v96q25 -6 45 -6q84 0 96 84q4 49 4 125z" />
    <glyph glyph-name="k" unicode="k" horiz-adv-x="890" 
d="M250 0h-113v1366h113v-848l448 424h140l-375 -354l395 -588h-129l-346 514l-133 -127v-387z" />
    <glyph glyph-name="l" unicode="l" horiz-adv-x="395" 
d="M254 0h-113v1366h113v-1366z" />
    <glyph glyph-name="m" unicode="m" horiz-adv-x="1417" 
d="M250 0h-113v942h107v-160q84 188 258 188t241 -198q94 199 271 199q102 1 173 -61t91 -177q8 -47 8 -139v-594h-110v555q0 141 -20 197t-62 94q-43 31 -101 31q-96 0 -159 -89q-42 -58 -54 -134t-12 -183v-471h-113v555q0 139 -22 213q-15 43 -59 76t-101 33
q-96 0 -160 -89q-41 -59 -57 -159q-6 -55 -6 -158v-471z" />
    <glyph glyph-name="n" unicode="n" horiz-adv-x="950" 
d="M250 0h-113v942h107v-160q98 188 286 189q111 0 189 -66q72 -57 92 -172q8 -47 8 -139v-594h-110v555q-1 145 -23 203q-46 118 -167 119q-122 0 -184 -76t-77 -172q-8 -49 -8 -158v-471z" />
    <glyph glyph-name="o" unicode="o" horiz-adv-x="950" 
d="M475 877q-125 0 -204 -111t-79 -294t76 -295q76 -111 207 -111t207 112t76 295q0 184 -79 294t-204 110zM475 971q195 0 301 -156q94 -133 94 -347t-102 -355t-292 -141t-298 145q-98 137 -98 352t94 346q106 156 301 156z" />
    <glyph glyph-name="p" unicode="p" horiz-adv-x="987" 
d="M520 877q-122 0 -198 -110t-76 -297t78 -302q74 -102 204 -102t198 116q69 116 69 296q0 179 -76 292q-76 107 -199 107zM552 -29q-224 0 -302 185v-510h-113v1296h105v-166q70 195 304 195q154 0 258 -133q104 -132 103 -364q0 -232 -98 -368q-99 -135 -257 -135z" />
    <glyph glyph-name="q" unicode="q" horiz-adv-x="987" 
d="M466 877q-124 0 -200 -111t-76 -289t71 -295q71 -116 200 -116t203 102q80 115 80 303t-78 297q-76 109 -200 109zM852 -354h-115v510q-20 -51 -63 -97q-86 -88 -221 -88q-174 0 -275 135q-98 135 -98 367t103 365t274 133q207 0 291 -195v166h104v-1296z" />
    <glyph glyph-name="r" unicode="r" horiz-adv-x="557" 
d="M250 0h-113v942h107v-205q85 234 311 234v-117h-31q-127 0 -205 -109q-51 -70 -63 -188q-6 -57 -6 -172v-385z" />
    <glyph glyph-name="s" unicode="s" horiz-adv-x="784" 
d="M604 251q0 87 -78 136q-36 23 -160 57t-184 74q-96 72 -96 184t72 187q82 82 219 82q176 0 262 -123q39 -53 47 -135h-113q-29 166 -192 166q-84 -1 -135 -47t-51 -120t59 -114q40 -32 180 -70t184 -75q98 -76 98 -200t-81 -200q-84 -82 -245 -82t-251 109
q-55 67 -71 184h112q8 -76 51 -127q66 -71 164 -71q97 0 153 49t56 136z" />
    <glyph glyph-name="t" unicode="t" horiz-adv-x="475" 
d="M147 848h-141v94h141v176l93 123h18v-299h170v-94h-170v-604q0 -90 10 -121q18 -49 86 -49q27 0 74 12v-94q-55 -16 -96 -17q-121 0 -162 78q-23 49 -23 203v592z" />
    <glyph glyph-name="u" unicode="u" horiz-adv-x="950" 
d="M702 942h111v-942h-104v160q-98 -188 -287 -189q-111 -1 -185 61t-96 177q-10 57 -10 139v594h113v-555q0 -143 21 -203q43 -121 177 -118q115 0 185 86q49 58 62 140t13 177v473z" />
    <glyph glyph-name="v" unicode="v" horiz-adv-x="763" 
d="M449 0h-119l-318 942h119l260 -790l248 790h113z" />
    <glyph glyph-name="w" unicode="w" horiz-adv-x="1212" 
d="M412 0h-123l-269 942h121l209 -782l197 782h123l196 -780l209 780h117l-266 -942h-121l-199 770z" />
    <glyph glyph-name="x" unicode="x" horiz-adv-x="790" 
d="M135 0h-127l318 496l-293 446h135l223 -350l230 350h129l-293 -438l323 -504h-135l-256 403z" />
    <glyph glyph-name="y" unicode="y" horiz-adv-x="772" 
d="M94 -244q9 0 27 -6q19 -6 59 -6t68 29q29 29 53 108l41 125l-330 936h121l266 -782l246 782h115l-361 -1087q-35 -105 -84 -157t-139 -52q-41 0 -82 14v96z" />
    <glyph glyph-name="z" unicode="z" horiz-adv-x="774" 
d="M86 942h639v-80l-545 -768h568v-94h-699v92l539 756h-502v94z" />
    <glyph glyph-name="braceleft" unicode="{" horiz-adv-x="505" 
d="M377 1366h29v-94h-23q-76 0 -109 -41t-32 -141v-363q0 -94 -29 -152q-23 -41 -86 -71q70 -33 94 -96q20 -47 21 -134v-372q0 -70 14 -97q31 -66 131 -65h19v-94h-29q-131 0 -185 61t-53 207v360q0 100 -32 138t-87 53v84q59 16 89 53t30 129v365q-1 142 57 206t181 64z
" />
    <glyph glyph-name="bar" unicode="|" 
d="M453 -342v1708h120v-1708h-120z" />
    <glyph glyph-name="braceright" unicode="}" horiz-adv-x="505" 
d="M129 -354h-29v94h19q77 0 111 36t34 126v372q0 92 28 146t87 84q-70 35 -90 84q-25 51 -25 139v363q0 102 -35 142t-106 40h-23v94h29q125 0 182 -64t58 -206v-365q-1 -92 29 -129t87 -53v-84q-53 -14 -85 -52t-31 -139v-360q-1 -140 -53 -204t-187 -64z" />
    <glyph glyph-name="asciitilde" unicode="~" horiz-adv-x="1366" 
d="M905 1317q74 0 118 48t81 112l67 -54q-41 -82 -79 -127q-80 -90 -189 -90q-51 0 -129 31l-112 55q-88 48 -125 60t-78 12q-74 0 -129 -64q-31 -35 -68 -98l-67 53q39 76 79 123q76 94 189 95q81 -1 207 -67t161 -78t74 -11z" />
    <glyph glyph-name="nbspace" unicode="&#xa0;" horiz-adv-x="395" 
 />
    <glyph glyph-name="exclamdown" unicode="&#xa1;" horiz-adv-x="458" 
d="M160 942h139v-205h-139v205zM291 -354h-123v434l29 518h65l29 -518v-434z" />
    <glyph glyph-name="cent" unicode="&#xa2;" horiz-adv-x="872" 
d="M193 676q0 -242 129 -342q41 -31 90 -43v796q-63 -14 -113 -63q-106 -106 -106 -348zM512 41h-100v154q-109 14 -187 86q-145 135 -145 409q0 168 57 285q86 176 275 211v137h100v-135q102 -16 172 -74q94 -76 123 -217h-117q-37 164 -178 195v-803q158 35 188 231h115
q-12 -141 -98 -226t-205 -101v-152z" />
    <glyph glyph-name="sterling" unicode="&#xa3;" horiz-adv-x="833" 
d="M240 1224q-64 -70 -64 -170q0 -99 71 -223q71 -125 91 -176h295v-100h-271q4 -45 5 -57q0 -186 -158 -355q117 81 193 37q26 -16 82 -56t100 -40q94 0 106 152h107q-5 -115 -59 -190t-158 -75q-51 0 -88 19q-27 8 -70 43q-72 47 -130 47t-145 -55l-55 -39l-51 77
q203 184 203 410q0 43 -8 82h-181v100h148q-47 86 -72 125q-76 131 -76 258q0 162 115 265q96 90 250 90q233 0 323 -183q39 -86 43 -196h-116q-11 282 -250 280q-116 0 -180 -70z" />
    <glyph glyph-name="currency" unicode="&#xa4;" horiz-adv-x="1366" 
d="M682 1092q-148 0 -255 -108t-107 -258t107 -258q109 -108 257 -108t255 108t107 261q0 154 -106 254q-110 109 -258 109zM213 720q0 155 109 298l-193 188l68 66l186 -189q141 111 299 111t297 -111l190 189l66 -66l-191 -186q106 -139 106 -295t-103 -293l190 -188
l-66 -68l-190 191q-139 -109 -293 -109t-299 109l-188 -191l-66 68l187 188q-109 133 -109 288z" />
    <glyph glyph-name="yen" unicode="&#xa5;" horiz-adv-x="1017" 
d="M569 303v-303h-118v303h-271v105h271v143h-271v102h266l-399 713h137l328 -600l328 600h131l-400 -713h267v-102h-269v-143h269v-105h-269z" />
    <glyph glyph-name="brokenbar" unicode="&#xa6;" 
d="M453 -342v655h120v-655h-120zM453 690v676h120v-676h-120z" />
    <glyph glyph-name="section" unicode="&#xa7;" horiz-adv-x="964" 
d="M203 633q0 -84 61 -152q35 -43 167 -137t192 -145q45 20 79 59q58 62 58 160t-90 184q-56 54 -186 146t-148 108q-133 -84 -133 -223zM776 1079h-106q-6 129 -80 185q-45 32 -115 32t-115 -39q-59 -47 -59 -126t35 -124t141 -120q223 -156 285 -213q106 -100 106 -240
t-94 -235q-35 -35 -88 -60q37 -37 57 -67q43 -63 43 -154q0 -127 -84 -207t-218 -80t-217 83t-93 257h109q12 -240 206 -239q87 0 137 55t50 124t-37 121t-164 142q-29 23 -153 110q-124 86 -175 158t-51 183q0 147 94 235q39 41 86 55q-84 94 -83 201q0 139 100 219
q76 61 184 62q178 0 256 -133q43 -74 43 -185z" />
    <glyph glyph-name="dieresis" unicode="&#xa8;" 
d="M422 1106h-115v190h115v-190zM717 1106h-117v190h117v-190z" />
    <glyph glyph-name="copyright" unicode="&#xa9;" horiz-adv-x="1433" 
d="M68 680q0 205 97 377t249 256t324 84q173 0 331 -115q147 -104 222 -264t75 -338q0 -293 -188 -503t-460 -210t-460 209q-86 94 -138 227t-52 277zM156 658q0 -154 84 -309t229 -234q113 -63 246 -64q239 -1 401 187t162 447t-166 443q-162 185 -395 185
q-232 0 -393 -180q-168 -181 -168 -475zM717 244q-160 0 -256 141q-80 117 -80 305t95 310q95 120 250 120t241 -121q39 -57 51 -135h-96q-45 172 -201 172q-104 0 -174 -94t-70 -259t70 -261q63 -94 169 -94t165 82q41 55 49 141h96q-12 -113 -63 -184q-86 -123 -246 -123z
" />
    <glyph glyph-name="ordfeminine" unicode="&#xaa;" horiz-adv-x="538" 
d="M379 801v22q-86 -2 -139 -14q-113 -25 -113 -111q0 -40 28 -68t70 -28q80 0 125 80q29 53 29 119zM467 537q-74 0 -76 98q-72 -109 -180 -109q-70 0 -120 44t-50 131q-1 87 61 133t156 53l121 6v43q0 125 -113 125q-76 0 -106 -60q-10 -25 -17 -73h-82q3 92 55 150
t168 58t162 -92q20 -39 21 -151v-211q0 -47 2 -57t15 -10t38 8v-74q-27 -12 -55 -12z" />
    <glyph glyph-name="guillemotleft" unicode="&#xab;" horiz-adv-x="700" 
d="M569 334v-135l-221 247v115l221 250v-131l-151 -174zM311 336v-137l-221 250v114l221 250v-133l-151 -174z" />
    <glyph glyph-name="logicalnot" unicode="&#xac;" 
d="M954 0h-116v455h-770v106h886v-561z" />
    <glyph glyph-name="registered" unicode="&#xae;" horiz-adv-x="1433" 
d="M899 870q0 148 -174 148h-182v-307h159q100 0 142 30q55 43 55 129zM543 266h-97v836h281q129 0 197 -55q72 -66 71 -173q0 -143 -127 -204q45 -14 76 -56t37 -150t12 -140t27 -58h-107q-14 20 -21 47t-9 115t-23 127q-33 74 -194 74h-123v-363zM68 680q0 205 97 377
t249 256t324 84q173 0 331 -115q147 -104 222 -264t75 -338q0 -293 -188 -503t-460 -210t-460 209q-86 94 -138 227t-52 277zM725 1313q-240 0 -401 -180q-168 -181 -168 -475q0 -154 84 -309t229 -234q113 -63 246 -64q238 0 401 189q162 182 162 443t-166 445
q-70 78 -171 132t-216 53z" />
    <glyph glyph-name="macron" unicode="&#xaf;" 
d="M68 1475v104h886v-104h-886z" />
    <glyph glyph-name="degree" unicode="&#xb0;" 
d="M512 895q82 0 138 57q56 58 56 140t-56 138q-58 56 -139 56t-137 -57t-56 -138t56 -139t138 -57zM512 1366q117 0 200 -81t83 -195t-82 -194q-82 -81 -201 -81t-201 81t-82 197t82 191q84 82 201 82z" />
    <glyph glyph-name="plusminus" unicode="&#xb1;" 
d="M68 139v107h886v-107h-886zM68 698v105h387v362h112v-362h387v-105h-387v-360h-112v360h-387z" />
    <glyph glyph-name="twosuperior" unicode="&#xb2;" horiz-adv-x="571" 
d="M510 629v-82h-461q0 158 84 264q31 39 116 99t116 96q57 66 57 139t-36 115t-108 42t-112 -59q-23 -33 -27 -96h-92q6 70 29 115q57 123 207 122q113 0 172 -69t59 -172t-80 -185q-42 -44 -162 -126t-122 -203h360z" />
    <glyph glyph-name="threesuperior" unicode="&#xb3;" horiz-adv-x="579" 
d="M223 1022h39q53 0 99 35q47 35 47 105t-36 104q-36 35 -96 34q-135 0 -135 -149h-84q2 96 43 149q59 80 170 80t169 -57t59 -152q0 -127 -107 -182q129 -51 129 -209q0 -116 -68 -184t-173 -68q-147 0 -207 111q-31 53 -31 133v16h86q0 -178 149 -178q68 0 111 44t43 128
t-49 123t-115 39l-43 -4v82z" />
    <glyph glyph-name="acute" unicode="&#xb4;" 
d="M610 1366h119l-178 -274h-102z" />
    <glyph glyph-name="mu" unicode="&#xb5;" horiz-adv-x="950" 
d="M702 942h111v-942h-104v160q-98 -188 -283 -189q-106 0 -182 64v-389h-113v1296h113v-555q0 -143 21 -203q43 -121 177 -118q115 0 185 86q49 58 62 140t13 177v473z" />
    <glyph glyph-name="paragraph" unicode="&#xb6;" horiz-adv-x="997" 
d="M481 -207h-100v846h-31q-187 0 -274 178q-37 85 -37 195t57 205q92 150 320 149h438v-90h-115v-1483h-100v1483h-158v-1483z" />
    <glyph glyph-name="periodcentered" unicode="&#xb7;" horiz-adv-x="397" 
d="M131 608h135v-205h-135v205z" />
    <glyph glyph-name="periodcentered" unicode="&#x2219;" horiz-adv-x="397" 
d="M131 608h135v-205h-135v205z" />
    <glyph glyph-name="cedilla" unicode="&#xb8;" 
d="M598 -246q0 82 -74 82q-45 0 -53 -31h-86l76 195h74l-39 -109q70 23 128 -17t58 -110t-41 -110t-120 -41q-79 0 -118 51q-16 20 -20 49h86q10 -41 55 -41q74 0 74 82z" />
    <glyph glyph-name="onesuperior" unicode="&#xb9;" horiz-adv-x="395" 
d="M252 547h-92v633q-30 -23 -50 -27t-75 -8v74q129 0 143 147h74v-819z" />
    <glyph glyph-name="ordmasculine" unicode="&#xba;" horiz-adv-x="569" 
d="M284 1061q-73 0 -112 -62q-45 -63 -45 -169t43 -166q43 -62 116 -62q74 0 116 62t42 168q0 108 -45 167q-42 62 -115 62zM285 1137q121 -1 184 -91t63 -218t-64 -215t-182 -87q-120 0 -184 87t-63 217t63 218q62 89 183 89z" />
    <glyph glyph-name="guillemotright" unicode="&#xbb;" horiz-adv-x="700" 
d="M131 678v133l221 -248v-114l-221 -250v131l152 176zM387 676v137l223 -252v-115l-223 -247v131l152 174z" />
    <glyph glyph-name="onequarter" unicode="&#xbc;" horiz-adv-x="1165" 
d="M954 291v371l-231 -371h231zM1034 0h-80v217h-309v76l318 526h71v-528h96v-74h-96v-217zM877 1366l-586 -1366h-96l587 1366h95zM254 547h-92v633q-30 -23 -52 -28t-75 -7v74q131 0 143 147h76v-819z" />
    <glyph glyph-name="onehalf" unicode="&#xbd;" horiz-adv-x="1300" 
d="M1239 84v-84h-459q0 102 31 178q33 76 111 141q35 31 101 76t97 99t31 114q0 59 -31 101q-40 47 -112 47t-113 -60q-23 -33 -27 -98h-92q6 72 29 117q59 123 207 123q115 0 178 -76q55 -63 55 -166t-82 -184q-33 -35 -157 -123t-125 -205h358zM870 1366l-583 -1366h-99
l588 1366h94zM254 547h-92v633q-30 -23 -52 -28t-75 -7v74q131 0 143 147h76v-819z" />
    <glyph glyph-name="threequarters" unicode="&#xbe;" horiz-adv-x="1370" 
d="M223 1022h39q53 0 99 35q47 35 47 105t-36 104q-36 35 -96 34q-135 0 -135 -149h-84q2 96 43 149q59 80 170 80t169 -57t59 -152q0 -127 -107 -182q129 -51 129 -209q0 -116 -68 -184t-173 -68q-147 0 -207 111q-31 53 -31 133v16h86q0 -178 149 -178q68 0 111 44t43 128
t-49 123t-115 39l-43 -4v82zM1159 291v371l-231 -371h231zM1239 0h-80v217h-309v76l317 526h72v-528h96v-74h-96v-217zM1081 1366l-585 -1366h-97l588 1366h94z" />
    <glyph glyph-name="questiondown" unicode="&#xbf;" horiz-adv-x="874" 
d="M375 942h137v-205h-137v205zM434 -369q-156 1 -247 95t-91 223t66 223q31 43 127 143q53 61 73 103t23 184h113q0 -136 -20 -194t-79 -121q-6 -11 -96 -107t-90 -200t57 -172q57 -70 169 -70q113 0 177 80t70 237h105q-8 -300 -205 -393q-68 -31 -152 -31z" />
    <glyph glyph-name="Agrave" unicode="&#xc0;" horiz-adv-x="1087" 
d="M516 1479l-201 258h125l183 -258h-107zM545 1231l-226 -696h445zM20 0l459 1366h133l455 -1366h-133l-137 430h-510l-140 -430h-127z" />
    <glyph glyph-name="Aacute" unicode="&#xc1;" horiz-adv-x="1087" 
d="M643 1737h127l-201 -258h-106zM545 1231l-226 -696h445zM20 0l459 1366h133l455 -1366h-133l-137 430h-510l-140 -430h-127z" />
    <glyph glyph-name="Acircumflex" unicode="&#xc2;" horiz-adv-x="1087" 
d="M598 1735l203 -260h-113l-149 188l-150 -188h-104l200 260h113zM545 1231l-226 -696h445zM20 0l459 1366h133l455 -1366h-133l-137 430h-510l-140 -430h-127z" />
    <glyph glyph-name="Atilde" unicode="&#xc3;" horiz-adv-x="1087" 
d="M655 1509q-53 -1 -121 49t-102 50q-63 0 -82 -99h-80q10 61 31 101q47 92 129 92q59 0 126 -48t93 -48q59 0 82 98h82q-8 -70 -35 -115q-45 -80 -123 -80zM545 1231l-226 -696h445zM20 0l459 1366h133l455 -1366h-133l-137 430h-510l-140 -430h-127z" />
    <glyph glyph-name="Adieresis" unicode="&#xc4;" horiz-adv-x="1087" 
d="M444 1499h-118v191h118v-191zM762 1499h-119v191h119v-191zM545 1231l-226 -696h445zM20 0l459 1366h133l455 -1366h-133l-137 430h-510l-140 -430h-127z" />
    <glyph glyph-name="Aring" unicode="&#xc5;" horiz-adv-x="1087" 
d="M544 1806q75 0 129 -54t54 -131t-53 -130q-51 -57 -131 -57t-133 54q-54 54 -54 133t56 132q57 53 132 53zM543 1726q-43 0 -74 -32t-31 -76q0 -45 31 -77t75 -32t74 32t31 77q0 45 -31 78q-32 30 -75 30zM545 1231l-226 -696h445zM20 0l459 1366h133l455 -1366h-133
l-137 430h-510l-140 -430h-127z" />
    <glyph glyph-name="AE" unicode="&#xc6;" horiz-adv-x="1492" 
d="M707 535v725h-58l-305 -725h363zM829 106h590v-106h-712v430h-408l-180 -430h-133l594 1366h831v-106h-582v-500h539v-107h-539v-547z" />
    <glyph glyph-name="Ccedilla" unicode="&#xc7;" horiz-adv-x="1181" 
d="M770 -234q0 -68 -41 -112q-43 -43 -126 -43t-126 51q-20 27 -22 51h92q10 -41 57 -41q72 0 72 82t-72 82q-41 0 -53 -31h-88l65 172q-133 29 -225 115q-217 199 -217 586q0 322 152 520t395 199q141 0 256 -74q172 -109 207 -326h-125q-35 121 -88 181q-100 113 -254 112
q-180 0 -291 -153q-127 -177 -127 -453t117 -448q49 -74 129 -118t174 -44q170 0 270 143q70 97 84 234h125q-23 -164 -100 -283q-143 -201 -377 -201h-29l-31 -76q18 9 59 9q42 0 90 -33t48 -101z" />
    <glyph glyph-name="Egrave" unicode="&#xc8;" horiz-adv-x="1017" 
d="M483 1479l-200 258h125l182 -258h-107zM940 0h-793v1366h787v-106h-666v-500h623v-107h-623v-547h672v-106z" />
    <glyph glyph-name="Eacute" unicode="&#xc9;" horiz-adv-x="1017" 
d="M610 1737h127l-200 -258h-107zM940 0h-793v1366h787v-106h-666v-500h623v-107h-623v-547h672v-106z" />
    <glyph glyph-name="Ecircumflex" unicode="&#xca;" horiz-adv-x="1017" 
d="M563 1735l203 -260h-113l-149 188l-150 -188h-104l201 260h112zM940 0h-793v1366h787v-106h-666v-500h623v-107h-623v-547h672v-106z" />
    <glyph glyph-name="Edieresis" unicode="&#xcb;" horiz-adv-x="1017" 
d="M410 1499h-119v191h119v-191zM727 1499h-119v191h119v-191zM940 0h-793v1366h787v-106h-666v-500h623v-107h-623v-547h672v-106z" />
    <glyph glyph-name="Igrave" unicode="&#xcc;" horiz-adv-x="419" 
d="M184 1479l-200 258h125l182 -258h-107zM270 0h-120v1366h120v-1366z" />
    <glyph glyph-name="Iacute" unicode="&#xcd;" horiz-adv-x="419" 
d="M311 1737h127l-200 -258h-107zM270 0h-120v1366h120v-1366z" />
    <glyph glyph-name="Icircumflex" unicode="&#xce;" horiz-adv-x="419" 
d="M264 1735l203 -260h-113l-149 188l-150 -188h-104l201 260h112zM268 0h-121v1366h121v-1366z" />
    <glyph glyph-name="Idieresis" unicode="&#xcf;" horiz-adv-x="419" 
d="M150 1499h-119v191h119v-191zM391 1499h-119v191h119v-191zM270 0h-120v1366h120v-1366z" />
    <glyph glyph-name="Eth" unicode="&#xd0;" horiz-adv-x="1171" 
d="M268 653v-547h232q248 0 354 150q106 156 106 461t-157 444q-106 98 -293 99h-242v-500h324v-107h-324zM147 653h-147v107h147v606h345q162 0 272 -47q323 -149 321 -623q0 -365 -184 -549q-143 -147 -401 -147h-353v653z" />
    <glyph glyph-name="Ntilde" unicode="&#xd1;" horiz-adv-x="1204" 
d="M726 1509q-66 -1 -134 49t-100 50q-63 0 -82 -99h-80q10 61 30 101q45 92 129 92q59 0 126 -48t94 -48q62 0 82 98h81q-8 -70 -34 -115q-46 -80 -112 -80zM262 0h-115v1366h132l661 -1169v1169h117v-1366h-131l-664 1163v-1163z" />
    <glyph glyph-name="Ograve" unicode="&#xd2;" horiz-adv-x="1259" 
d="M604 1479l-201 258h125l183 -258h-107zM1051 680q0 268 -116 439t-303 171t-304 -167t-117 -428t98 -431q119 -190 341 -190q106 0 210 83t154 251q37 119 37 272zM86 702q0 304 154 500q154 195 393 195q241 0 391 -200t150 -499t-121 -493q-71 -117 -183 -177t-239 -61
q-270 0 -422 238q-123 193 -123 497z" />
    <glyph glyph-name="Oacute" unicode="&#xd3;" horiz-adv-x="1259" 
d="M731 1737h127l-201 -258h-106zM1051 680q0 268 -116 439t-303 171t-304 -167t-117 -428t98 -431q119 -190 341 -190q106 0 210 83t154 251q37 119 37 272zM86 702q0 304 154 500q154 195 393 195q241 0 391 -200t150 -499t-121 -493q-71 -117 -183 -177t-239 -61
q-270 0 -422 238q-123 193 -123 497z" />
    <glyph glyph-name="Ocircumflex" unicode="&#xd4;" horiz-adv-x="1259" 
d="M684 1735l203 -260h-113l-149 188l-150 -188h-104l200 260h113zM1051 680q0 268 -116 439t-303 171t-304 -167t-117 -428t98 -431q119 -190 341 -190q106 0 210 83t154 251q37 119 37 272zM86 702q0 304 154 500q154 195 393 195q241 0 391 -200t150 -499t-121 -493
q-71 -117 -183 -177t-239 -61q-270 0 -422 238q-123 193 -123 497z" />
    <glyph glyph-name="Otilde" unicode="&#xd5;" horiz-adv-x="1259" 
d="M754 1509q-66 -1 -134 49t-100 50q-63 0 -82 -99h-80q10 61 31 101q45 92 129 92q59 0 126 -48t93 -48q62 0 82 98h82q-8 -70 -35 -115q-46 -80 -112 -80zM1051 680q0 268 -116 439t-303 171t-304 -167t-117 -428t98 -431q119 -190 341 -190q106 0 210 83t154 251
q37 119 37 272zM86 702q0 304 154 500q154 195 393 195q241 0 391 -200t150 -499t-121 -493q-71 -117 -183 -177t-239 -61q-270 0 -422 238q-123 193 -123 497z" />
    <glyph glyph-name="Odieresis" unicode="&#xd6;" horiz-adv-x="1259" 
d="M530 1499h-118v191h118v-191zM848 1499h-119v191h119v-191zM1051 680q0 268 -116 439t-303 171t-304 -167t-117 -428t98 -431q119 -190 341 -190q106 0 210 83t154 251q37 119 37 272zM86 702q0 304 154 500q154 195 393 195q241 0 391 -200t150 -499t-121 -493
q-71 -117 -183 -177t-239 -61q-270 0 -422 238q-123 193 -123 497z" />
    <glyph glyph-name="multiply" unicode="&#xd7;" 
d="M438 688l-276 279l74 73l276 -276l276 276l74 -73l-276 -279l276 -274l-74 -74l-276 274l-276 -274l-74 74z" />
    <glyph glyph-name="Oslash" unicode="&#xd8;" horiz-adv-x="1259" 
d="M627 74q129 0 233 83t154 251q37 119 37 274q0 260 -117 436l-545 -950q109 -94 238 -94zM629 1290q-184 0 -301 -167t-117 -435t115 -444l544 950q-106 96 -241 96zM86 676q0 328 150 524t393 197q176 0 309 -113l70 113h106l-106 -180q166 -209 166 -537
q0 -281 -121 -475q-71 -115 -183 -176t-239 -62q-176 0 -309 109l-66 -109h-111l107 176q-166 205 -166 533z" />
    <glyph glyph-name="Ugrave" unicode="&#xd9;" horiz-adv-x="1161" 
d="M555 1479l-201 258h125l183 -258h-107zM131 555v811h123v-815q0 -141 16 -223q31 -130 114 -192t199 -62q250 0 308 248q18 84 18 231v813h121v-815q0 -199 -33 -291q-104 -293 -411 -293q-147 0 -264 77t-164 241q-27 92 -27 270z" />
    <glyph glyph-name="Uacute" unicode="&#xda;" horiz-adv-x="1161" 
d="M682 1737h127l-201 -258h-106zM131 555v811h123v-815q0 -141 16 -223q31 -130 114 -192t199 -62q250 0 308 248q18 84 18 231v813h121v-815q0 -199 -33 -291q-104 -293 -411 -293q-147 0 -264 77t-164 241q-27 92 -27 270z" />
    <glyph glyph-name="Ucircumflex" unicode="&#xdb;" horiz-adv-x="1161" 
d="M637 1735l203 -260h-113l-149 188l-150 -188h-104l200 260h113zM131 555v811h123v-815q0 -141 16 -223q31 -130 114 -192t199 -62q250 0 308 248q18 84 18 231v813h121v-815q0 -199 -33 -291q-104 -293 -411 -293q-147 0 -264 77t-164 241q-27 92 -27 270z" />
    <glyph glyph-name="Udieresis" unicode="&#xdc;" horiz-adv-x="1161" 
d="M483 1499h-118v191h118v-191zM801 1499h-119v191h119v-191zM131 555v811h123v-815q0 -141 16 -223q31 -130 114 -192t199 -62q250 0 308 248q18 84 18 231v813h121v-815q0 -199 -33 -291q-104 -293 -411 -293q-147 0 -264 77t-164 241q-27 92 -27 270z" />
    <glyph glyph-name="Yacute" unicode="&#xdd;" horiz-adv-x="1017" 
d="M608 1737h127l-200 -258h-107zM569 0h-120v565l-451 801h141l373 -684l373 684h135l-451 -801v-565z" />
    <glyph glyph-name="Thorn" unicode="&#xde;" horiz-adv-x="1011" 
d="M268 985v-569h183q180 0 256 63q94 75 94 231t-117 230q-44 31 -106 38t-134 7h-176zM268 0h-121v1366h121v-274h187q143 0 227 -25q115 -41 179 -132t65 -230q0 -215 -162 -322q-113 -74 -324 -74h-172v-309z" />
    <glyph glyph-name="germandbls" unicode="&#xdf;" horiz-adv-x="901" 
d="M246 944v-944h-113v848h-125v94h125q4 154 21 215q63 240 307 240q108 0 191 -77t83 -187q0 -61 -35 -136q-18 -33 -68 -101t-50 -114q0 -45 18 -79q18 -35 79 -101t103 -136t41 -171q0 -164 -125 -252q-88 -63 -219 -63q-66 0 -121 20v100q59 -26 140 -26t147 60t66 145
q0 86 -37 155q-29 45 -87 118t-82 119q-24 45 -24 103t69 165q124 192 23 306q-49 57 -135 58q-113 0 -162 -107q-30 -66 -30 -252z" />
    <glyph glyph-name="agrave" unicode="&#xe0;" horiz-adv-x="897" 
d="M410 1092l-179 274h119l162 -274h-102zM647 420v57q-174 -10 -261 -28q-87 -19 -138 -71t-51 -131t51 -130t133 -51q81 0 151 64t92 147q22 84 23 143zM774 -10q-72 0 -96 61q-14 31 -14 101v32q-121 -213 -314 -213q-106 0 -178 64q-88 76 -88 215t113 221q84 63 239 78
q82 8 211 10v88q0 229 -205 230q-197 0 -219 -226h-102q6 147 86 232q88 88 254 88t248 -111q39 -50 46 -120t7 -165v-356q0 -85 7 -109t31 -24t54 10v-90q-43 -16 -80 -16z" />
    <glyph glyph-name="aacute" unicode="&#xe1;" horiz-adv-x="897" 
d="M547 1366h119l-179 -274h-102zM647 420v57q-174 -10 -261 -28q-87 -19 -138 -71t-51 -131t51 -130t133 -51q81 0 151 64t92 147q22 84 23 143zM774 -10q-72 0 -96 61q-14 31 -14 101v32q-121 -213 -314 -213q-106 0 -178 64q-88 76 -88 215t113 221q84 63 239 78
q82 8 211 10v88q0 229 -205 230q-197 0 -219 -226h-102q6 147 86 232q88 88 254 88t248 -111q39 -50 46 -120t7 -165v-356q0 -85 7 -109t31 -24t54 10v-90q-43 -16 -80 -16z" />
    <glyph glyph-name="acircumflex" unicode="&#xe2;" horiz-adv-x="897" 
d="M502 1366l174 -274h-107l-125 196l-125 -196h-98l172 274h109zM647 420v57q-174 -10 -261 -28q-87 -19 -138 -71t-51 -131t51 -130t133 -51q81 0 151 64t92 147q22 84 23 143zM774 -10q-72 0 -96 61q-14 31 -14 101v32q-121 -213 -314 -213q-106 0 -178 64
q-88 76 -88 215t113 221q84 63 239 78q82 8 211 10v88q0 229 -205 230q-197 0 -219 -226h-102q6 147 86 232q88 88 254 88t248 -111q39 -50 46 -120t7 -165v-356q0 -85 7 -109t31 -24t54 10v-90q-43 -16 -80 -16z" />
    <glyph glyph-name="atilde" unicode="&#xe3;" horiz-adv-x="897" 
d="M557 1106q-55 0 -119 64t-98 65q-66 0 -80 -123h-74q10 74 29 113q45 100 131 100q58 1 118 -61t91 -62q55 0 78 117h76q-10 -78 -35 -125q-43 -88 -117 -88zM647 420v57q-174 -10 -261 -28q-87 -19 -138 -71t-51 -131t51 -130t133 -51q81 0 151 64t92 147q22 84 23 143z
M774 -10q-72 0 -96 61q-14 31 -14 101v32q-121 -213 -314 -213q-106 0 -178 64q-88 76 -88 215t113 221q84 63 239 78q82 8 211 10v88q0 229 -205 230q-197 0 -219 -226h-102q6 147 86 232q88 88 254 88t248 -111q39 -50 46 -120t7 -165v-356q0 -85 7 -109t31 -24t54 10v-90
q-43 -16 -80 -16z" />
    <glyph glyph-name="adieresis" unicode="&#xe4;" horiz-adv-x="897" 
d="M358 1106h-114v190h114v-190zM653 1106h-116v190h116v-190zM647 420v57q-174 -10 -261 -28q-87 -19 -138 -71t-51 -131t51 -130t133 -51q81 0 151 64t92 147q22 84 23 143zM774 -10q-72 0 -96 61q-14 31 -14 101v32q-121 -213 -314 -213q-106 0 -178 64q-88 76 -88 215
t113 221q84 63 239 78q82 8 211 10v88q0 229 -205 230q-197 0 -219 -226h-102q6 147 86 232q88 88 254 88t248 -111q39 -50 46 -120t7 -165v-356q0 -85 7 -109t31 -24t54 10v-90q-43 -16 -80 -16z" />
    <glyph glyph-name="aring" unicode="&#xe5;" horiz-adv-x="897" 
d="M264 1251q0 75 54 129t131 54q76 0 130 -54t54 -131q0 -76 -52 -130t-131 -54t-133 53q-53 57 -53 133zM450 1358q-44 0 -74 -32t-30 -77t30 -77t73 -32t73 34q29 32 29 76t-31 75q-26 33 -70 33zM647 420v57q-174 -10 -261 -28q-87 -19 -138 -71t-51 -131t51 -130
t133 -51q81 0 151 64t92 147q22 84 23 143zM774 -10q-72 0 -96 61q-14 31 -14 101v32q-121 -213 -314 -213q-106 0 -178 64q-88 76 -88 215t113 221q84 63 239 78q82 8 211 10v88q0 229 -205 230q-197 0 -219 -226h-102q6 147 86 232q88 88 254 88t248 -111q39 -50 46 -120
t7 -165v-356q0 -85 7 -109t31 -24t54 10v-90q-43 -16 -80 -16z" />
    <glyph glyph-name="ae" unicode="&#xe6;" horiz-adv-x="1458" 
d="M1010 881q-92 0 -172 -81t-97 -265h525q-12 232 -150 315q-47 31 -106 31zM647 420v24q-178 -2 -263 -17t-136 -62t-51 -122t51 -126t133 -51q81 0 151 64t92 147q22 84 23 143zM647 621q0 256 -219 256q-125 0 -170 -89q-25 -45 -35 -137h-102q6 150 83 235t232 85
q207 0 283 -172q117 172 293 172q129 0 225 -90q139 -132 141 -437h-637q2 -135 45 -225q74 -153 240 -153t229 210h111q-23 -100 -74 -170q-98 -135 -272 -135q-240 0 -338 260q-25 -61 -61 -112q-111 -147 -271 -148q-106 0 -186 70t-80 207t111 213q82 57 241 67
q72 6 211 7v86z" />
    <glyph glyph-name="ccedilla" unicode="&#xe7;" horiz-adv-x="878" 
d="M684 680q-42 197 -230 197q-116 0 -189 -110t-73 -295t74 -296q72 -110 195 -110t190 108q31 53 43 127h115q-15 -141 -105 -233t-239 -97l-29 -80q74 19 129 -19t55 -108t-39 -110q-40 -40 -118 -41q-78 0 -117 51q-18 25 -20 49h86q6 -41 55 -41q70 0 70 82
q0 41 -21 62q-14 20 -52 20t-50 -31h-84l63 172q-96 18 -170 86q-143 131 -143 408q0 207 95 353t290 147q158 0 254 -115q59 -72 80 -176h-115z" />
    <glyph glyph-name="egrave" unicode="&#xe8;" horiz-adv-x="907" 
d="M416 1092l-178 274h118l162 -274h-102zM461 881q-92 0 -164 -72q-86 -90 -104 -274h522q-4 228 -148 315q-47 31 -106 31zM461 -29q-182 0 -287 152q-94 133 -94 352t107 357t274 139q133 0 227 -92q139 -134 141 -435h-636q4 -139 45 -225q70 -153 238 -153t231 210h108
q-23 -100 -74 -170q-98 -135 -280 -135z" />
    <glyph glyph-name="eacute" unicode="&#xe9;" horiz-adv-x="907" 
d="M553 1366h119l-178 -274h-103zM461 881q-92 0 -164 -72q-86 -90 -104 -274h522q-4 228 -148 315q-47 31 -106 31zM461 -29q-182 0 -287 152q-94 133 -94 352t107 357t274 139q133 0 227 -92q139 -134 141 -435h-636q4 -139 45 -225q70 -153 238 -153t231 210h108
q-23 -100 -74 -170q-98 -135 -280 -135z" />
    <glyph glyph-name="ecircumflex" unicode="&#xea;" horiz-adv-x="907" 
d="M508 1366l174 -274h-107l-124 196l-125 -196h-99l172 274h109zM461 881q-92 0 -164 -72q-86 -90 -104 -274h522q-4 228 -148 315q-47 31 -106 31zM461 -29q-182 0 -287 152q-94 133 -94 352t107 357t274 139q133 0 227 -92q139 -134 141 -435h-636q4 -139 45 -225
q70 -153 238 -153t231 210h108q-23 -100 -74 -170q-98 -135 -280 -135z" />
    <glyph glyph-name="edieresis" unicode="&#xeb;" horiz-adv-x="907" 
d="M365 1106h-115v190h115v-190zM659 1106h-116v190h116v-190zM461 881q-92 0 -164 -72q-86 -90 -104 -274h522q-4 228 -148 315q-47 31 -106 31zM461 -29q-182 0 -287 152q-94 133 -94 352t107 357t274 139q133 0 227 -92q139 -134 141 -435h-636q4 -139 45 -225
q70 -153 238 -153t231 210h108q-23 -100 -74 -170q-98 -135 -280 -135z" />
    <glyph glyph-name="igrave" unicode="&#xec;" horiz-adv-x="397" 
d="M160 1092l-178 274h118l162 -274h-102zM256 0h-113v942h113v-942z" />
    <glyph glyph-name="iacute" unicode="&#xed;" horiz-adv-x="397" 
d="M297 1366h119l-178 -274h-103zM254 0h-113v942h113v-942z" />
    <glyph glyph-name="icircumflex" unicode="&#xee;" horiz-adv-x="397" 
d="M252 1366l174 -274h-107l-124 196l-125 -196h-99l172 274h109zM254 0h-113v942h113v-942z" />
    <glyph glyph-name="idieresis" unicode="&#xef;" horiz-adv-x="397" 
d="M133 1106h-115v190h115v-190zM379 1106h-115v190h115v-190zM254 0h-113v942h113v-942z" />
    <glyph glyph-name="eth" unicode="&#xf0;" horiz-adv-x="950" 
d="M475 877q-125 0 -204 -111t-79 -294t76 -295q76 -111 207 -111t207 112t76 295q0 184 -79 294t-204 110zM80 468q0 214 94 347q107 156 299 156q90 0 170 -56q-92 150 -131 197l-72 80l-168 -98l-43 73l148 84q-43 37 -105 80l43 64q78 -40 148 -95l160 95l43 -74
l-136 -80q109 -104 179 -227q162 -281 161 -543q0 -217 -102 -358t-292 -141t-298 145q-98 137 -98 351z" />
    <glyph glyph-name="ntilde" unicode="&#xf1;" horiz-adv-x="950" 
d="M593 1106q-65 0 -129 64t-97 65q-63 0 -80 -123h-74q10 74 29 113q45 100 131 100q57 1 117 -61t92 -62q57 0 77 117h76q-10 -78 -35 -125q-43 -88 -107 -88zM250 0h-113v942h107v-160q98 188 286 189q111 0 189 -66q72 -57 92 -172q8 -47 8 -139v-594h-110v555
q-1 145 -23 203q-46 118 -167 119q-122 0 -184 -76t-77 -172q-8 -49 -8 -158v-471z" />
    <glyph glyph-name="ograve" unicode="&#xf2;" horiz-adv-x="950" 
d="M436 1092l-178 274h119l162 -274h-103zM475 877q-125 0 -204 -111t-79 -294t76 -295q76 -111 207 -111t207 112t76 295q0 184 -79 294t-204 110zM475 971q195 0 301 -156q94 -133 94 -347t-102 -355t-292 -141t-298 145q-98 137 -98 352t94 346q106 156 301 156z" />
    <glyph glyph-name="oacute" unicode="&#xf3;" horiz-adv-x="950" 
d="M573 1366h119l-178 -274h-102zM475 877q-125 0 -204 -111t-79 -294t76 -295q76 -111 207 -111t207 112t76 295q0 184 -79 294t-204 110zM475 971q195 0 301 -156q94 -133 94 -347t-102 -355t-292 -141t-298 145q-98 137 -98 352t94 346q106 156 301 156z" />
    <glyph glyph-name="ocircumflex" unicode="&#xf4;" horiz-adv-x="950" 
d="M528 1366l174 -274h-106l-125 196l-125 -196h-98l172 274h108zM475 877q-125 0 -204 -111t-79 -294t76 -295q76 -111 207 -111t207 112t76 295q0 184 -79 294t-204 110zM475 971q195 0 301 -156q94 -133 94 -347t-102 -355t-292 -141t-298 145q-98 137 -98 352t94 346
q106 156 301 156z" />
    <glyph glyph-name="otilde" unicode="&#xf5;" horiz-adv-x="950" 
d="M593 1106q-65 0 -129 64t-97 65q-63 0 -80 -123h-74q10 74 29 113q45 100 131 100q57 1 117 -61t92 -62q57 0 77 117h76q-10 -78 -35 -125q-43 -88 -107 -88zM475 877q-125 0 -204 -111t-79 -294t76 -295q76 -111 207 -111t207 112t76 295q0 184 -79 294t-204 110z
M475 971q195 0 301 -156q94 -133 94 -347t-102 -355t-292 -141t-298 145q-98 137 -98 352t94 346q106 156 301 156z" />
    <glyph glyph-name="odieresis" unicode="&#xf6;" horiz-adv-x="950" 
d="M385 1106h-115v190h115v-190zM680 1106h-117v190h117v-190zM475 877q-125 0 -204 -111t-79 -294t76 -295q76 -111 207 -111t207 112t76 295q0 184 -79 294t-204 110zM475 971q195 0 301 -156q94 -133 94 -347t-102 -355t-292 -141t-298 145q-98 137 -98 352t94 346
q106 156 301 156z" />
    <glyph glyph-name="divide" unicode="&#xf7;" 
d="M453 463h118v-174h-118v174zM453 1090h118v-175h-118v175zM68 637v104h886v-104h-886z" />
    <glyph glyph-name="oslash" unicode="&#xf8;" horiz-adv-x="950" 
d="M475 66q127 0 205 108q78 115 78 292t-74 294l-354 -647q70 -47 145 -47zM192 476q0 -179 74 -296l357 647q-70 49 -148 50q-129 0 -203 -109q-80 -113 -80 -292zM80 461q0 221 94 354q106 156 299 156q113 0 209 -62l37 62h100l-69 -121q120 -144 120 -370t-102 -367
t-293 -142q-111 0 -207 60l-32 -60h-105l70 119q-121 150 -121 371z" />
    <glyph glyph-name="ugrave" unicode="&#xf9;" horiz-adv-x="950" 
d="M436 1092l-178 274h119l162 -274h-103zM702 942h111v-942h-104v160q-98 -188 -287 -189q-111 -1 -185 61t-96 177q-10 57 -10 139v594h113v-555q0 -143 21 -203q43 -121 177 -118q115 0 185 86q49 58 62 140t13 177v473z" />
    <glyph glyph-name="uacute" unicode="&#xfa;" horiz-adv-x="950" 
d="M573 1366h119l-178 -274h-102zM702 942h111v-942h-104v160q-98 -188 -287 -189q-111 -1 -185 61t-96 177q-10 57 -10 139v594h113v-555q0 -143 21 -203q43 -121 177 -118q115 0 185 86q49 58 62 140t13 177v473z" />
    <glyph glyph-name="ucircumflex" unicode="&#xfb;" horiz-adv-x="950" 
d="M528 1366l174 -274h-106l-125 196l-125 -196h-98l172 274h108zM702 942h111v-942h-104v160q-98 -188 -287 -189q-111 -1 -185 61t-96 177q-10 57 -10 139v594h113v-555q0 -143 21 -203q43 -121 177 -118q115 0 185 86q49 58 62 140t13 177v473z" />
    <glyph glyph-name="udieresis" unicode="&#xfc;" horiz-adv-x="950" 
d="M385 1106h-115v190h115v-190zM680 1106h-117v190h117v-190zM702 942h111v-942h-104v160q-98 -188 -287 -189q-111 -1 -185 61t-96 177q-10 57 -10 139v594h113v-555q0 -143 21 -203q43 -121 177 -118q115 0 185 86q49 58 62 140t13 177v473z" />
    <glyph glyph-name="yacute" unicode="&#xfd;" horiz-adv-x="772" 
d="M483 1366h119l-178 -274h-102zM94 -244q9 0 27 -6q19 -6 59 -6t68 29q29 29 53 108l41 125l-330 936h121l266 -782l246 782h115l-361 -1087q-35 -105 -84 -157t-139 -52q-41 0 -82 14v96z" />
    <glyph glyph-name="thorn" unicode="&#xfe;" horiz-adv-x="987" 
d="M520 877q-122 0 -198 -110q-76 -111 -76 -299t78 -300q74 -102 204 -102t198 116q69 116 69 296q0 179 -76 292q-76 107 -199 107zM552 -29q-224 0 -302 185v-510h-113v1720h111v-590q23 63 67 109q82 86 217 86q168 0 272 -133q104 -132 103 -364q0 -232 -98 -368
q-99 -135 -257 -135z" />
    <glyph glyph-name="ydieresis" unicode="&#xff;" horiz-adv-x="772" 
d="M295 1106h-115v190h115v-190zM590 1106h-117v190h117v-190zM94 -244q9 0 27 -6q19 -6 59 -6t68 29q29 29 53 108l41 125l-330 936h121l266 -782l246 782h115l-361 -1087q-35 -105 -84 -157t-139 -52q-41 0 -82 14v96z" />
    <glyph glyph-name="Amacron" unicode="&#x100;" horiz-adv-x="1087" 
d="M276 1587h535v-86h-535v86zM545 1231l-226 -696h445zM20 0l459 1366h133l455 -1366h-133l-137 430h-510l-140 -430h-127z" />
    <glyph glyph-name="amacron" unicode="&#x101;" horiz-adv-x="897" 
d="M647 420v57q-174 -10 -261 -28q-87 -19 -138 -71t-51 -131t51 -130t133 -51q81 0 151 64t92 147q22 84 23 143zM774 -10q-72 0 -96 61q-14 31 -14 101v32q-121 -213 -314 -213q-106 0 -178 64q-88 76 -88 215t113 221q84 63 239 78q82 8 211 10v88q0 229 -205 230
q-197 0 -219 -226h-102q6 147 86 232q88 88 254 88t248 -111q39 -50 46 -120t7 -165v-356q0 -85 7 -109t31 -24t54 10v-90q-43 -16 -80 -16zM217 1237h463v-90h-463v90z" />
    <glyph glyph-name="Abreve" unicode="&#x102;" horiz-adv-x="1087" 
d="M543 1569q132 0 157 166h82q-34 -260 -240 -260t-237 260h82q12 -63 35 -103q39 -63 121 -63zM545 1231l-226 -696h445zM20 0l459 1366h133l455 -1366h-133l-137 430h-510l-140 -430h-127z" />
    <glyph glyph-name="abreve" unicode="&#x103;" horiz-adv-x="897" 
d="M450 1092q-191 0 -223 274h78q25 -180 145 -180t144 180h78q-31 -274 -222 -274zM647 420v57q-174 -10 -261 -28q-87 -19 -138 -71t-51 -131t51 -130t133 -51q81 0 151 64t92 147q22 84 23 143zM774 -10q-72 0 -96 61q-14 31 -14 101v32q-121 -213 -314 -213
q-106 0 -178 64q-88 76 -88 215t113 221q84 63 239 78q82 8 211 10v88q0 229 -205 230q-197 0 -219 -226h-102q6 147 86 232q88 88 254 88t248 -111q39 -50 46 -120t7 -165v-356q0 -85 7 -109t31 -24t54 10v-90q-43 -16 -80 -16z" />
    <glyph glyph-name="Aogonek" unicode="&#x104;" horiz-adv-x="1087" 
d="M545 1231l-226 -696h445zM1062 -274q32 0 79 18v-74q-55 -20 -123 -20t-114 44t-46 105q0 113 125 201h-49l-137 430h-510l-140 -430h-127l459 1366h133l455 -1366h-4l-10 -8q-96 -72 -97 -166q0 -56 37 -78t69 -22z" />
    <glyph glyph-name="aogonek" unicode="&#x105;" horiz-adv-x="897" 
d="M647 420v57q-174 -10 -261 -28q-87 -19 -138 -71t-51 -131t51 -130t133 -51q81 0 151 64t92 147q22 84 23 143zM731 -174q0 -56 36 -78t67 -22t77 18v-74q-55 -20 -121 -20t-109 44q-44 44 -44 107q0 111 111 191q-39 10 -62 42t-22 118v32q-121 -213 -314 -213
q-106 0 -178 64q-88 76 -88 215t113 221q84 63 239 78q82 8 211 10v88q0 229 -205 230q-197 0 -219 -226h-102q6 147 86 232q88 88 254 88t248 -111q39 -50 46 -120t7 -165v-356q0 -85 7 -109t31 -24t54 10v-90l-20 -6q-103 -75 -103 -174z" />
    <glyph glyph-name="Cacute" unicode="&#x106;" horiz-adv-x="1181" 
d="M692 1737h127l-201 -258h-106zM622 -33q-253 0 -409 230q-127 187 -127 495t152 506t395 199q141 0 256 -74q172 -109 207 -326h-125q-35 121 -88 181q-100 113 -254 112q-180 0 -291 -153q-127 -177 -127 -453t117 -448q49 -74 129 -118t174 -44q170 0 270 143
q70 97 84 234h125q-23 -164 -100 -283q-135 -201 -388 -201z" />
    <glyph glyph-name="cacute" unicode="&#x107;" horiz-adv-x="878" 
d="M537 1366h118l-178 -274h-102zM684 680q-44 197 -230 197q-114 0 -188 -111t-74 -295t74 -295q72 -110 195 -110t190 108q31 53 43 127h115q-10 -102 -66 -186q-94 -143 -279 -143q-184 0 -284 142t-100 353t95 357t290 147q158 0 254 -115q59 -72 80 -176h-115z" />
    <glyph glyph-name="Ccircumflex" unicode="&#x108;" horiz-adv-x="1181" 
d="M674 1735l200 -260h-112l-148 188l-151 -188h-103l199 260h115zM622 -33q-253 0 -409 230q-127 187 -127 495t152 506t395 199q141 0 256 -74q172 -109 207 -326h-125q-35 121 -88 181q-100 113 -254 112q-180 0 -291 -153q-127 -177 -127 -453t117 -448q49 -74 129 -118
t174 -44q170 0 270 143q70 97 84 234h125q-23 -164 -100 -283q-135 -201 -388 -201z" />
    <glyph glyph-name="Cdotaccent" unicode="&#x10a;" horiz-adv-x="1181" 
d="M651 1489h-119v190h119v-190zM622 -33q-253 0 -409 230q-127 187 -127 495t152 506t395 199q141 0 256 -74q172 -109 207 -326h-125q-35 121 -88 181q-100 113 -254 112q-180 0 -291 -153q-127 -177 -127 -453t117 -448q49 -74 129 -118t174 -44q170 0 270 143
q70 97 84 234h125q-23 -164 -100 -283q-135 -201 -388 -201z" />
    <glyph glyph-name="cdotaccent" unicode="&#x10b;" horiz-adv-x="878" 
d="M498 1106h-115v190h115v-190zM684 680q-44 197 -230 197q-114 0 -188 -111t-74 -295t74 -295q72 -110 195 -110t190 108q31 53 43 127h115q-10 -102 -66 -186q-94 -143 -279 -143q-184 0 -284 142t-100 353t95 357t290 147q158 0 254 -115q59 -72 80 -176h-115z" />
    <glyph glyph-name="Ccaron" unicode="&#x10c;" horiz-adv-x="1181" 
d="M535 1475l-203 260h114l148 -191l151 191h103l-201 -260h-112zM622 -33q-253 0 -409 230q-127 187 -127 495t152 506t395 199q141 0 256 -74q172 -109 207 -326h-125q-35 121 -88 181q-100 113 -254 112q-180 0 -291 -153q-127 -177 -127 -453t117 -448q49 -74 129 -118
t174 -44q170 0 270 143q70 97 84 234h125q-23 -164 -100 -283q-135 -201 -388 -201z" />
    <glyph glyph-name="ccaron" unicode="&#x10d;" horiz-adv-x="878" 
d="M385 1092l-174 274h106l125 -199l125 199h99l-172 -274h-109zM684 680q-44 197 -230 197q-114 0 -188 -111t-74 -295t74 -295q72 -110 195 -110t190 108q31 53 43 127h115q-10 -102 -66 -186q-94 -143 -279 -143q-184 0 -284 142t-100 353t95 357t290 147q158 0 254 -115
q59 -72 80 -176h-115z" />
    <glyph glyph-name="Dcaron" unicode="&#x10e;" horiz-adv-x="1169" 
d="M530 1475l-202 260h114l148 -191l151 191h103l-201 -260h-113zM270 1260v-1154h230q246 0 354 154t107 434q0 328 -158 467q-106 98 -293 99h-240zM500 0h-353v1366h345q164 0 270 -47q154 -73 238 -229t83 -394q0 -362 -182 -549q-143 -147 -401 -147z" />
    <glyph glyph-name="dcaron" unicode="&#x10f;" horiz-adv-x="989" 
d="M958 1368h140v-111q0 -98 -37 -139t-115 -59v59q72 23 72 80v16h-60v154zM463 877q-129 0 -200 -115t-71 -297t76 -295q74 -104 199 -104t199 104q78 115 78 302t-78 302q-74 103 -203 103zM852 1366v-1366h-104v172q-90 -201 -293 -201q-160 0 -267 129
q-108 136 -108 368t103 368t274 135q133 0 227 -101q39 -41 55 -84v580h113z" />
    <glyph glyph-name="Dcroat" unicode="&#x110;" horiz-adv-x="1171" 
d="M268 653v-547h232q248 0 354 150q106 156 106 461t-157 444q-106 98 -293 99h-242v-500h324v-107h-324zM147 653h-147v107h147v606h345q162 0 272 -47q323 -149 321 -623q0 -365 -184 -549q-143 -147 -401 -147h-353v653z" />
    <glyph glyph-name="dcroat" unicode="&#x111;" horiz-adv-x="989" 
d="M463 877q-129 0 -200 -117t-71 -297t76 -293q74 -104 199 -104t199 104q78 115 78 302t-78 302q-74 103 -203 103zM852 1102v-1102h-104v172q-90 -201 -291 -201q-162 0 -269 129q-108 136 -108 368t103 368t274 135q133 0 227 -101q39 -41 55 -84v316h-272v90h272v174
h113v-174h137v-90h-137z" />
    <glyph glyph-name="Emacron" unicode="&#x112;" horiz-adv-x="1017" 
d="M242 1587h534v-86h-534v86zM940 0h-793v1366h787v-106h-666v-500h623v-107h-623v-547h672v-106z" />
    <glyph glyph-name="emacron" unicode="&#x113;" horiz-adv-x="907" 
d="M461 881q-92 0 -164 -72q-86 -90 -104 -274h522q-4 228 -148 315q-47 31 -106 31zM461 -29q-182 0 -287 152q-94 133 -94 352t107 357t274 139q133 0 227 -92q139 -134 141 -435h-636q4 -139 45 -225q70 -153 238 -153t231 210h108q-23 -100 -74 -170q-98 -135 -280 -135
zM223 1237h463v-90h-463v90z" />
    <glyph glyph-name="Ebreve" unicode="&#x114;" horiz-adv-x="1017" 
d="M524 1475q-207 0 -239 260h84q21 -166 154 -166q132 0 157 166h84q-33 -260 -240 -260zM940 0h-793v1366h787v-106h-666v-500h623v-107h-623v-547h672v-106z" />
    <glyph glyph-name="ebreve" unicode="&#x115;" horiz-adv-x="907" 
d="M454 1092q-192 0 -221 274h76q27 -180 145 -180t144 180h78q-30 -274 -222 -274zM461 881q-92 0 -164 -72q-86 -90 -104 -274h522q-4 228 -148 315q-47 31 -106 31zM461 -29q-182 0 -287 152q-94 133 -94 352t107 357t274 139q133 0 227 -92q139 -134 141 -435h-636
q4 -139 45 -225q70 -153 238 -153t231 210h108q-23 -100 -74 -170q-98 -135 -280 -135z" />
    <glyph glyph-name="Edotaccent" unicode="&#x116;" horiz-adv-x="1017" 
d="M567 1489h-118v190h118v-190zM940 0h-793v1366h787v-106h-666v-500h623v-107h-623v-547h672v-106z" />
    <glyph glyph-name="edotaccent" unicode="&#x117;" horiz-adv-x="907" 
d="M512 1106h-115v190h115v-190zM461 881q-92 0 -164 -72q-86 -90 -104 -274h522q-4 228 -148 315q-47 31 -106 31zM461 -29q-182 0 -287 152q-94 133 -94 352t107 357t274 139q133 0 227 -92q139 -134 141 -435h-636q4 -139 45 -225q70 -153 238 -153t231 210h108
q-23 -100 -74 -170q-98 -135 -280 -135z" />
    <glyph glyph-name="Eogonek" unicode="&#x118;" horiz-adv-x="1017" 
d="M940 106v-106q-106 -76 -106 -174q0 -56 37 -78t69 -22t78 18v-74q-55 -20 -123 -20t-114 44t-46 105q0 113 125 201h-713v1366h787v-106h-666v-500h623v-107h-623v-547h672z" />
    <glyph glyph-name="eogonek" unicode="&#x119;" horiz-adv-x="907" 
d="M461 881q-92 0 -164 -72q-86 -90 -104 -274h522q-4 228 -148 315q-47 31 -106 31zM508 -174q0 -53 41 -82q29 -18 59 -18t78 18v-74q-54 -20 -120 -20t-110 44t-44 107q0 90 86 170h-29q-150 0 -246 95q-143 135 -143 405q0 223 107 361t274 139q133 0 227 -92
q139 -133 141 -435h-636q4 -139 45 -225q74 -154 231 -153q174 0 238 210h108q-47 -208 -209 -278q-98 -80 -98 -172z" />
    <glyph glyph-name="Ecaron" unicode="&#x11a;" horiz-adv-x="1017" 
d="M453 1475l-203 260h115l147 -191l152 191h102l-201 -260h-112zM940 0h-793v1366h787v-106h-666v-500h623v-107h-623v-547h672v-106z" />
    <glyph glyph-name="ecaron" unicode="&#x11b;" horiz-adv-x="907" 
d="M401 1092l-174 274h107l125 -199l125 199h98l-172 -274h-109zM461 881q-92 0 -164 -72q-86 -90 -104 -274h522q-4 228 -148 315q-47 31 -106 31zM461 -29q-182 0 -287 152q-94 133 -94 352t107 357t274 139q133 0 227 -92q139 -134 141 -435h-636q4 -139 45 -225
q70 -153 238 -153t231 210h108q-23 -100 -74 -170q-98 -135 -280 -135z" />
    <glyph glyph-name="Gcircumflex" unicode="&#x11c;" horiz-adv-x="1251" 
d="M682 1735l201 -260h-113l-147 188l-152 -188h-102l200 260h113zM86 695q0 305 152 503t397 199q143 0 260 -74q174 -104 213 -319h-127q-35 119 -90 176q-100 110 -271 110t-282 -151q-127 -179 -127 -455t117 -448q113 -162 307 -162q137 0 235 100q148 150 148 414
h-383v106h493v-694h-102v240q-139 -273 -398 -273t-415 230q-127 193 -127 498z" />
    <glyph glyph-name="gcircumflex" unicode="&#x11d;" horiz-adv-x="970" 
d="M539 1366l174 -274h-109l-123 196l-127 -196h-98l172 274h111zM456 877q-118 -1 -191 -99t-73 -269t66 -287t195 -116q171 0 239 201q31 88 31 199q0 172 -78 274q-71 97 -189 97zM725 942h109v-809q0 -137 -15 -196q-27 -127 -124 -209t-243 -82t-243 90q-74 68 -94 180
h116q16 -70 56 -109q66 -68 172 -67q137 0 207 113q55 86 55 239v109q-23 -53 -62 -97q-90 -92 -208 -92q-167 0 -269 131t-102 355t106 349q106 124 263 124q194 -1 276 -187v158z" />
    <glyph glyph-name="Gbreve" unicode="&#x11e;" horiz-adv-x="1251" 
d="M625 1569q132 0 157 166h82q-34 -260 -240 -260t-237 260h82q12 -63 35 -103q39 -63 121 -63zM86 695q0 305 152 503t397 199q143 0 260 -74q174 -104 213 -319h-127q-35 119 -90 176q-100 110 -271 110t-282 -151q-127 -179 -127 -455t117 -448q113 -162 307 -162
q137 0 235 100q148 150 148 414h-383v106h493v-694h-102v240q-139 -273 -398 -273t-415 230q-127 193 -127 498z" />
    <glyph glyph-name="gbreve" unicode="&#x11f;" horiz-adv-x="970" 
d="M484 1092q-192 0 -222 274h78q24 -180 144 -180t145 180h78q-31 -274 -223 -274zM456 877q-118 -1 -191 -99t-73 -269t66 -287t195 -116q171 0 239 201q31 88 31 199q0 172 -78 274q-71 97 -189 97zM725 942h109v-809q0 -137 -15 -196q-27 -127 -124 -209t-243 -82
t-243 90q-74 68 -94 180h116q16 -70 56 -109q66 -68 172 -67q137 0 207 113q55 86 55 239v109q-23 -53 -62 -97q-90 -92 -208 -92q-167 0 -269 131t-102 355t106 349q106 124 263 124q194 -1 276 -187v158z" />
    <glyph glyph-name="Gdotaccent" unicode="&#x120;" horiz-adv-x="1251" 
d="M684 1489h-119v190h119v-190zM86 695q0 305 152 503t397 199q143 0 260 -74q174 -104 213 -319h-127q-35 119 -90 176q-100 110 -271 110t-282 -151q-127 -179 -127 -455t117 -448q113 -162 307 -162q137 0 235 100q148 150 148 414h-383v106h493v-694h-102v240
q-139 -273 -398 -273t-415 230q-127 193 -127 498z" />
    <glyph glyph-name="gdotaccent" unicode="&#x121;" horiz-adv-x="970" 
d="M543 1106h-117v190h117v-190zM456 877q-118 -1 -191 -99t-73 -269t66 -287t195 -116q171 0 239 201q31 88 31 199q0 172 -78 274q-71 97 -189 97zM725 942h109v-809q0 -137 -15 -196q-27 -127 -124 -209t-243 -82t-243 90q-74 68 -94 180h116q16 -70 56 -109
q66 -68 172 -67q137 0 207 113q55 86 55 239v109q-23 -53 -62 -97q-90 -92 -208 -92q-167 0 -269 131t-102 355t106 349q106 124 263 124q194 -1 276 -187v158z" />
    <glyph glyph-name="Gcommaaccent" unicode="&#x122;" horiz-adv-x="1251" 
d="M569 -94h140v-111q0 -94 -37 -137t-115 -61v61q72 18 72 78v16h-60v154zM86 695q0 305 152 503t397 199q143 0 260 -74q174 -104 213 -319h-127q-35 119 -90 176q-100 110 -271 110t-282 -151q-127 -179 -127 -455t117 -448q113 -162 307 -162q137 0 235 100
q148 150 148 414h-383v106h493v-694h-102v240q-139 -273 -398 -273t-415 230q-127 193 -127 498z" />
    <glyph glyph-name="gcommaaccent" unicode="&#x123;" horiz-adv-x="970" 
d="M537 1059h-140v108q0 97 37 139t115 60v-59q-72 -23 -72 -80v-17h60v-151zM456 877q-118 -1 -191 -99t-73 -269t66 -287t195 -116q171 0 239 201q31 88 31 199q0 172 -78 274q-71 97 -189 97zM725 942h109v-809q0 -137 -15 -196q-27 -127 -124 -209t-243 -82t-243 90
q-74 68 -94 180h116q16 -70 56 -109q66 -68 172 -67q137 0 207 113q55 86 55 239v109q-23 -53 -62 -97q-90 -92 -208 -92q-167 0 -269 131t-102 355t106 349q106 124 263 124q194 -1 276 -187v158z" />
    <glyph glyph-name="Hcircumflex" unicode="&#x124;" horiz-adv-x="1206" 
d="M657 1735l203 -260h-112l-150 188l-149 -188h-105l203 260h110zM268 0h-121v1366h121v-598h670v598h121v-1366h-121v664h-670v-664z" />
    <glyph glyph-name="Imacron" unicode="&#x12a;" horiz-adv-x="534" 
d="M0 1587h535v-86h-535v86zM328 0h-121v1366h121v-1366z" />
    <glyph glyph-name="imacron" unicode="&#x12b;" horiz-adv-x="464" 
d="M289 0h-113v942h113v-942zM0 1237h463v-90h-463v90z" />
    <glyph glyph-name="ibreve" unicode="&#x12d;" horiz-adv-x="397" 
d="M198 1092q-192 0 -221 274h76q27 -180 145 -180t144 180h80q-32 -274 -224 -274zM256 0h-113v942h113v-942z" />
    <glyph glyph-name="Iogonek" unicode="&#x12e;" horiz-adv-x="417" 
d="M222 -350q-68 0 -112 44t-44 105q0 113 124 201h-43v1366h123v-1366q-106 -76 -106 -174q0 -56 37 -78t67 -22t78 18v-74q-56 -20 -124 -20z" />
    <glyph glyph-name="iogonek" unicode="&#x12f;" horiz-adv-x="395" 
d="M254 1174h-113v192h113v-192zM150 -174q0 -55 43 -82q27 -18 59 -18t78 18v-74q-55 -20 -122 -20t-110 43t-43 108q0 109 121 199h-35v942h113v-942q-104 -69 -104 -174z" />
    <glyph glyph-name="Idotaccent" unicode="&#x130;" horiz-adv-x="417" 
d="M268 1489h-118v190h118v-190zM268 0h-121v1366h121v-1366z" />
    <glyph glyph-name="dotlessi" unicode="&#x131;" horiz-adv-x="395" 
d="M254 0h-113v942h113v-942z" />
    <glyph glyph-name="Kcommaaccent" unicode="&#x136;" horiz-adv-x="1087" 
d="M543 -94h139v-111q0 -94 -37 -137t-115 -61v61q72 18 72 78v16h-59v154zM147 0v1366h121v-692l645 692h142l-543 -582l565 -784h-139l-504 700l-166 -176v-524h-121z" />
    <glyph glyph-name="kcommaaccent" unicode="&#x137;" horiz-adv-x="890" 
d="M387 -94h139v-111q0 -94 -37 -137t-114 -61v61q72 18 71 78v16h-59v154zM250 0h-113v1366h113v-848l448 424h140l-375 -354l395 -588h-129l-346 514l-133 -127v-387z" />
    <glyph glyph-name="kgreenlandic" unicode="&#x138;" horiz-adv-x="890" 
d="M250 942v-489l450 489h138l-375 -403l395 -539h-131l-340 459l-137 -150v-309h-113v942h113z" />
    <glyph glyph-name="Lacute" unicode="&#x139;" horiz-adv-x="923" 
d="M555 1737h127l-201 -258h-106zM883 0h-752v1366h121v-1260h631v-106z" />
    <glyph glyph-name="lacute" unicode="&#x13a;" horiz-adv-x="397" 
d="M299 1737h127l-201 -258h-104zM256 0h-113v1366h113v-1366z" />
    <glyph glyph-name="Lcommaaccent" unicode="&#x13b;" horiz-adv-x="937" 
d="M432 -94h139v-111q-1 -94 -37 -137t-114 -61v61q72 18 72 78v16h-60v154zM899 0h-752v1366h121v-1260h631v-106z" />
    <glyph glyph-name="lcommaaccent" unicode="&#x13c;" horiz-adv-x="395" 
d="M129 -94h139v-111q0 -94 -37 -137t-114 -61v61q72 18 71 78v16h-59v154zM254 0h-113v1366h113v-1366z" />
    <glyph glyph-name="Lcaron" unicode="&#x13d;" horiz-adv-x="937" 
d="M571 1368h140v-111q0 -98 -37 -139t-115 -59v59q72 23 72 80v16h-60v154zM899 0h-752v1366h121v-1260h631v-106z" />
    <glyph glyph-name="lcaron" unicode="&#x13e;" horiz-adv-x="395" 
d="M371 1366h139v-111q0 -96 -37 -138t-115 -60v59q72 23 72 80v16h-59v154zM254 0h-113v1366h113v-1366z" />
    <glyph glyph-name="Lslash" unicode="&#x141;" horiz-adv-x="937" 
d="M147 1366h123v-592l242 176v-127l-242 -176v-541h631v-106h-754v571l-131 -98v127l131 98v668z" />
    <glyph glyph-name="lslash" unicode="&#x142;" horiz-adv-x="395" 
d="M141 1366h113v-526l141 123v-125l-141 -125v-713h-113v627l-141 -125v127l141 125v612z" />
    <glyph glyph-name="Nacute" unicode="&#x143;" horiz-adv-x="1204" 
d="M702 1737h127l-200 -258h-107zM262 0h-115v1366h132l661 -1169v1169h117v-1366h-131l-664 1163v-1163z" />
    <glyph glyph-name="nacute" unicode="&#x144;" horiz-adv-x="950" 
d="M573 1366h119l-178 -274h-102zM250 0h-113v942h107v-160q98 188 286 189q111 0 189 -66q72 -57 92 -172q8 -47 8 -139v-594h-110v555q-1 145 -23 203q-46 118 -167 119q-122 0 -184 -76t-77 -172q-8 -49 -8 -158v-471z" />
    <glyph glyph-name="Ncommaaccent" unicode="&#x145;" horiz-adv-x="1204" 
d="M532 -94h140v-111q0 -94 -37 -137t-115 -61v61q72 18 72 78v16h-60v154zM262 0h-115v1366h132l661 -1169v1169h117v-1366h-131l-664 1163v-1163z" />
    <glyph glyph-name="ncommaaccent" unicode="&#x146;" horiz-adv-x="950" 
d="M410 -94h139v-111q0 -94 -37 -137t-115 -61v61q72 18 72 78v16h-59v154zM250 0h-113v942h107v-160q98 188 286 189q111 0 189 -66q72 -57 92 -172q8 -47 8 -139v-594h-110v555q-1 145 -23 203q-46 118 -167 119q-122 0 -184 -76t-77 -172q-8 -49 -8 -158v-471z" />
    <glyph glyph-name="Ncaron" unicode="&#x147;" horiz-adv-x="1204" 
d="M547 1475l-203 260h115l147 -191l152 191h102l-201 -260h-112zM262 0h-115v1366h132l661 -1169v1169h117v-1366h-131l-664 1163v-1163z" />
    <glyph glyph-name="ncaron" unicode="&#x148;" horiz-adv-x="950" 
d="M422 1092l-174 274h106l125 -199l125 199h98l-172 -274h-108zM250 0h-113v942h107v-160q98 188 286 189q111 0 189 -66q72 -57 92 -172q8 -47 8 -139v-594h-110v555q-1 145 -23 203q-46 118 -167 119q-122 0 -184 -76t-77 -172q-8 -49 -8 -158v-471z" />
    <glyph glyph-name="napostrophe" unicode="&#x149;" horiz-adv-x="1013" 
d="M12 1139h140v-111q0 -94 -37 -137t-115 -62v62q72 23 72 78v16h-60v154zM311 0h-110v942h104v-160q98 188 289 189q109 0 186 -66q72 -57 92 -172q10 -57 11 -139v-594h-113v555q0 145 -22 203t-66 88q-47 31 -111 31q-111 0 -184 -86q-49 -61 -62 -142t-14 -178v-471z
" />
    <glyph glyph-name="Omacron" unicode="&#x14c;" horiz-adv-x="1259" 
d="M362 1587h535v-86h-535v86zM1051 680q0 268 -116 439t-303 171t-304 -167t-117 -428t98 -431q119 -190 341 -190q106 0 210 83t154 251q37 119 37 272zM86 702q0 304 154 500q154 195 393 195q241 0 391 -200t150 -499t-121 -493q-71 -117 -183 -177t-239 -61
q-270 0 -422 238q-123 193 -123 497z" />
    <glyph glyph-name="omacron" unicode="&#x14d;" horiz-adv-x="950" 
d="M475 877q-125 0 -204 -111t-79 -294t76 -295q76 -111 207 -111t207 112t76 295q0 184 -79 294t-204 110zM475 971q195 0 301 -156q94 -133 94 -347t-102 -355t-292 -141t-298 145q-98 137 -98 352t94 346q106 156 301 156zM244 1237h463v-90h-463v90z" />
    <glyph glyph-name="Ohungarumlaut" unicode="&#x150;" horiz-adv-x="1259" 
d="M860 1737h127l-203 -258h-104zM612 1737h127l-200 -258h-105zM1051 680q0 268 -116 439t-303 171t-304 -167t-117 -428t98 -431q119 -190 341 -190q106 0 210 83t154 251q37 119 37 272zM86 702q0 304 154 500q154 195 393 195q241 0 391 -200t150 -499t-121 -493
q-71 -117 -183 -177t-239 -61q-270 0 -422 238q-123 193 -123 497z" />
    <glyph glyph-name="ohungarumlaut" unicode="&#x151;" horiz-adv-x="950" 
d="M670 1366h114l-178 -274h-100zM442 1366h113l-178 -274h-98zM475 877q-125 0 -204 -111t-79 -294t76 -295q76 -111 207 -111t207 112t76 295q0 184 -79 294t-204 110zM475 971q195 0 301 -156q94 -133 94 -347t-102 -355t-292 -141t-298 145q-98 137 -98 352t94 346
q106 156 301 156z" />
    <glyph glyph-name="OE" unicode="&#x152;" horiz-adv-x="1785" 
d="M636 1290q-191 0 -308 -167t-117 -429t100 -430q59 -98 145 -144t175 -46q192 0 313 182v850q-117 184 -308 184zM627 1397q202 0 317 -142v111h760v-106h-637v-500h594v-107h-594v-547h643v-106h-766v113q-27 -35 -49 -56q-96 -90 -274 -90t-310 117q-225 201 -225 598
q0 317 151 516t390 199z" />
    <glyph glyph-name="oe" unicode="&#x153;" horiz-adv-x="1492" 
d="M1063 881q-86 0 -161 -81t-89 -265h487q-8 229 -137 315q-43 31 -100 31zM457 877q-119 0 -192 -111t-73 -294t72 -298q72 -108 193 -108t193 112t73 296q0 185 -76 294q-71 109 -190 109zM1071 -29q-205 0 -305 205q-100 -205 -309 -205q-181 -1 -279 141t-98 354
t90 349q100 156 297 156t301 -205q106 205 297 205q127 0 215 -92q131 -132 135 -435h-602q4 -141 41 -225q72 -154 217 -153q160 0 221 210h111q-20 -98 -72 -170q-94 -135 -260 -135z" />
    <glyph glyph-name="Racute" unicode="&#x154;" horiz-adv-x="1144" 
d="M672 1737h127l-201 -258h-106zM268 1260v-545h281q170 0 242 53q96 78 96 226t-94 216q-63 49 -207 50h-318zM268 0h-121v1366h443q127 0 194 -27q117 -41 177 -137q51 -78 51 -198q0 -170 -109 -273q-53 -51 -133 -72q100 -21 152 -85t63 -250t21 -236q10 -49 36 -88
h-139q-20 37 -27 79q-8 43 -18 195t-35 205q-39 86 -155 117q-59 14 -176 14h-224v-610z" />
    <glyph glyph-name="racute" unicode="&#x155;" horiz-adv-x="557" 
d="M379 1366h119l-179 -274h-102zM250 0h-113v942h107v-205q85 234 311 234v-117h-31q-127 0 -205 -109q-51 -70 -63 -188q-6 -57 -6 -172v-385z" />
    <glyph glyph-name="Rcommaaccent" unicode="&#x156;" horiz-adv-x="1144" 
d="M506 -94h139v-111q0 -94 -37 -137t-114 -61v61q72 18 71 78v16h-59v154zM268 1260v-545h281q170 0 242 53q96 78 96 226t-94 216q-63 49 -207 50h-318zM268 0h-121v1366h443q127 0 194 -27q117 -41 177 -137q51 -78 51 -198q0 -170 -109 -273q-53 -51 -133 -72
q100 -21 152 -85t63 -250t21 -236q10 -49 36 -88h-139q-20 37 -27 79q-8 43 -18 195t-35 205q-39 86 -155 117q-59 14 -176 14h-224v-610z" />
    <glyph glyph-name="rcommaaccent" unicode="&#x157;" horiz-adv-x="557" 
d="M125 -94h139v-111q0 -94 -37 -137t-114 -61v61q72 18 71 78v16h-59v154zM250 0h-113v942h107v-205q85 234 311 234v-117h-31q-127 0 -205 -109q-51 -70 -63 -188q-6 -57 -6 -172v-385z" />
    <glyph glyph-name="Rcaron" unicode="&#x158;" horiz-adv-x="1144" 
d="M516 1475l-203 260h115l147 -191l152 191h102l-200 -260h-113zM268 1260v-545h281q170 0 242 53q96 78 96 226t-94 216q-63 49 -207 50h-318zM268 0h-121v1366h443q127 0 194 -27q117 -41 177 -137q51 -78 51 -198q0 -170 -109 -273q-53 -51 -133 -72q100 -21 152 -85
t63 -250t21 -236q10 -49 36 -88h-139q-20 37 -27 79q-8 43 -18 195t-35 205q-39 86 -155 117q-59 14 -176 14h-224v-610z" />
    <glyph glyph-name="rcaron" unicode="&#x159;" horiz-adv-x="587" 
d="M256 1092l-174 274h106l125 -199l125 199h99l-172 -274h-109zM281 0h-113v942h106v-205q85 234 312 234v-117h-31q-127 0 -205 -109q-51 -70 -63 -188q-6 -57 -6 -172v-385z" />
    <glyph glyph-name="Sacute" unicode="&#x15a;" horiz-adv-x="1034" 
d="M616 1737h127l-200 -258h-107zM838 362q0 132 -113 207q-55 37 -241 89t-255 102q-143 98 -143 278q0 145 106 252t300 107q248 0 366 -174q49 -74 66 -191h-127q-18 109 -68 164q-82 94 -225 94t-219 -72t-76 -185q0 -114 77 -170t222 -97t205 -61q254 -104 254 -345
q0 -166 -118 -280t-317 -113q-242 0 -364 154q-82 100 -100 262h116q18 -121 82 -197q94 -110 248 -110t238 77q86 77 86 209z" />
    <glyph glyph-name="sacute" unicode="&#x15b;" horiz-adv-x="784" 
d="M489 1366h119l-178 -274h-102zM604 251q0 87 -78 136q-36 23 -160 57t-184 74q-96 72 -96 184t72 187q82 82 219 82q176 0 262 -123q39 -53 47 -135h-113q-29 166 -192 166q-84 -1 -135 -47t-51 -120t59 -114q40 -32 180 -70t184 -75q98 -76 98 -200t-81 -200
q-84 -82 -245 -82t-251 109q-55 67 -71 184h112q8 -76 51 -127q66 -71 164 -71q97 0 153 49t56 136z" />
    <glyph glyph-name="Scircumflex" unicode="&#x15c;" horiz-adv-x="1034" 
d="M838 362q0 132 -113 207q-55 37 -241 89t-255 102q-143 98 -143 278q0 145 106 252t300 107q248 0 366 -174q49 -74 66 -191h-127q-18 109 -68 164q-82 94 -225 94t-219 -72t-76 -185q0 -114 77 -170t222 -97t205 -61q254 -104 254 -345q0 -166 -118 -280t-317 -113
q-242 0 -364 154q-82 100 -100 262h116q18 -121 82 -197q94 -110 248 -110t238 77q86 77 86 209zM571 1735l203 -260h-112l-148 188l-152 -188h-102l201 260h110z" />
    <glyph glyph-name="scircumflex" unicode="&#x15d;" horiz-adv-x="784" 
d="M604 251q0 87 -78 136q-36 23 -160 57t-184 74q-96 72 -96 184t72 187q82 82 219 82q176 0 262 -123q39 -53 47 -135h-113q-29 166 -192 166q-84 -1 -135 -47t-51 -120t59 -114q40 -32 180 -70t184 -75q98 -76 98 -200t-81 -200q-84 -82 -245 -82t-251 109
q-55 67 -71 184h112q8 -76 51 -127q66 -71 164 -71q97 0 153 49t56 136zM446 1366l175 -274h-109l-123 196l-127 -196h-98l174 274h108z" />
    <glyph glyph-name="Scedilla" unicode="&#x15e;" horiz-adv-x="1034" 
d="M537 -164q-37 0 -54 -31h-90l66 166q-348 50 -391 412h116q18 -121 82 -197q94 -110 248 -110t238 77q86 77 86 211t-113 205q-49 31 -127 58l-141 41q-160 43 -228 94q-143 94 -143 276q0 145 106 252t300 107q248 0 366 -174q49 -74 66 -191h-127q-18 109 -68 164
q-82 94 -225 94t-219 -72t-76 -185q0 -114 77 -170t222 -97t205 -61q254 -104 254 -345q0 -133 -76 -233q-113 -154 -352 -160l-33 -76q18 9 61 9t82 -27q59 -41 59 -109t-42 -110q-43 -43 -128 -43t-128 51q-23 25 -25 51h94q10 -41 58 -41q74 0 73 82q0 82 -73 82z" />
    <glyph glyph-name="scedilla" unicode="&#x15f;" horiz-adv-x="784" 
d="M604 253q0 87 -78 134q-40 27 -164 61t-180 70q-96 72 -96 184t72 187q82 82 219 82q176 0 262 -123q39 -53 47 -135h-113q-29 166 -192 166q-84 -1 -135 -47t-51 -120t59 -114q40 -32 180 -70t184 -75q98 -76 99 -203q0 -94 -55 -166q-78 -102 -242 -113l-31 -80
q73 22 130 -18q59 -39 59 -109t-41 -110t-121 -41q-80 0 -119 51q-18 25 -21 49h86q10 -41 58 -41q72 0 72 82t-72 82q-43 0 -53 -31h-86l63 170q-245 33 -276 289h112q8 -76 51 -127q66 -71 165 -71q100 0 154 50t54 137z" />
    <glyph glyph-name="Scaron" unicode="&#x160;" horiz-adv-x="1034" 
d="M463 1475l-203 260h115l147 -191l152 191h102l-201 -260h-112zM838 362q0 132 -113 207q-55 37 -241 89t-255 102q-143 98 -143 278q0 145 106 252t300 107q248 0 366 -174q49 -74 66 -191h-127q-18 109 -68 164q-82 94 -225 94t-219 -72t-76 -185q0 -114 77 -170
t222 -97t205 -61q254 -104 254 -345q0 -166 -118 -280t-317 -113q-242 0 -364 154q-82 100 -100 262h116q18 -121 82 -197q94 -110 248 -110t238 77q86 77 86 209z" />
    <glyph glyph-name="scaron" unicode="&#x161;" horiz-adv-x="784" 
d="M338 1092l-174 274h106l125 -199l125 199h98l-172 -274h-108zM604 251q0 87 -78 136q-36 23 -160 57t-184 74q-96 72 -96 184t72 187q82 82 219 82q176 0 262 -123q39 -53 47 -135h-113q-29 166 -192 166q-84 -1 -135 -47t-51 -120t59 -114q40 -32 180 -70t184 -75
q98 -76 98 -200t-81 -200q-84 -82 -245 -82t-251 109q-55 67 -71 184h112q8 -76 51 -127q66 -71 164 -71q97 0 153 49t56 136z" />
    <glyph glyph-name="Tcommaaccent" unicode="&#x162;" horiz-adv-x="985" 
d="M424 -94h139v-111q0 -94 -37 -137t-114 -61v61q72 18 71 78v16h-59v154zM555 1260v-1260h-123v1260h-397v106h915v-106h-395z" />
    <glyph glyph-name="Tcommaaccent" unicode="&#x21a;" horiz-adv-x="985" 
d="M424 -94h139v-111q0 -94 -37 -137t-114 -61v61q72 18 71 78v16h-59v154zM555 1260v-1260h-123v1260h-397v106h915v-106h-395z" />
    <glyph glyph-name="tcommaaccent" unicode="&#x163;" horiz-adv-x="475" 
d="M162 -94h139v-111q0 -94 -37 -137t-114 -61v61q72 18 71 78v16h-59v154zM147 848h-141v94h141v176l93 123h18v-299h170v-94h-170v-604q0 -90 10 -121q18 -49 86 -49q27 0 74 12v-94q-55 -16 -96 -17q-121 0 -162 78q-23 49 -23 203v592z" />
    <glyph glyph-name="tcommaaccent" unicode="&#x21b;" horiz-adv-x="475" 
d="M162 -94h139v-111q0 -94 -37 -137t-114 -61v61q72 18 71 78v16h-59v154zM147 848h-141v94h141v176l93 123h18v-299h170v-94h-170v-604q0 -90 10 -121q18 -49 86 -49q27 0 74 12v-94q-55 -16 -96 -17q-121 0 -162 78q-23 49 -23 203v592z" />
    <glyph glyph-name="Tcaron" unicode="&#x164;" horiz-adv-x="985" 
d="M436 1475l-203 260h115l148 -191l151 191h103l-201 -260h-113zM555 1260v-1260h-123v1260h-397v106h915v-106h-395z" />
    <glyph glyph-name="tcaron" unicode="&#x165;" horiz-adv-x="475" 
d="M418 1333h139v-110q0 -97 -37 -139t-114 -60v59q72 23 71 80v17h-59v153zM147 848h-141v94h141v176l93 123h18v-299h170v-94h-170v-604q0 -90 10 -121q18 -49 86 -49q27 0 74 12v-94q-55 -16 -96 -17q-121 0 -162 78q-23 49 -23 203v592z" />
    <glyph glyph-name="Tbar" unicode="&#x166;" horiz-adv-x="985" 
d="M432 0v879h-199v90h199v291h-397v106h915v-106h-395v-291h199v-90h-199v-879h-123z" />
    <glyph glyph-name="tbar" unicode="&#x167;" horiz-adv-x="475" 
d="M258 848v-84h170v-94h-170v-426q0 -90 10 -121q18 -49 86 -49q27 0 74 12v-94q-55 -16 -96 -17q-121 0 -162 78q-23 49 -23 203v414h-141v94h141v84h-141v94h141v176l93 123h18v-299h170v-94h-170z" />
    <glyph glyph-name="utilde" unicode="&#x169;" horiz-adv-x="950" 
d="M592 1106q-65 0 -135 74q-57 55 -90 55q-63 0 -78 -123h-76q10 68 31 113q45 100 129 100q57 0 125 -68q51 -55 84 -55q57 0 80 117h73q-8 -74 -33 -125q-45 -88 -110 -88zM702 942h111v-942h-104v160q-98 -188 -287 -189q-111 -1 -185 61t-96 177q-10 57 -10 139v594
h113v-555q0 -143 21 -203q43 -121 177 -118q115 0 185 86q49 58 62 140t13 177v473z" />
    <glyph glyph-name="Umacron" unicode="&#x16a;" horiz-adv-x="1161" 
d="M315 1587h535v-86h-535v86zM131 555v811h123v-815q0 -141 16 -223q31 -130 114 -192t199 -62q250 0 308 248q18 84 18 231v813h121v-815q0 -199 -33 -291q-104 -293 -411 -293q-147 0 -264 77t-164 241q-27 92 -27 270z" />
    <glyph glyph-name="umacron" unicode="&#x16b;" horiz-adv-x="950" 
d="M702 942h111v-942h-104v160q-98 -188 -287 -189q-111 -1 -185 61t-96 177q-10 57 -10 139v594h113v-555q0 -143 21 -203q43 -121 177 -118q115 0 185 86q49 58 62 140t13 177v473zM244 1237h463v-90h-463v90z" />
    <glyph glyph-name="ubreve" unicode="&#x16d;" horiz-adv-x="950" 
d="M474 1092q-192 0 -220 274h78q24 -180 144 -180t145 180h75q-30 -274 -222 -274zM702 942h111v-942h-104v160q-98 -188 -287 -189q-111 -1 -185 61t-96 177q-10 57 -10 139v594h113v-555q0 -143 21 -203q43 -121 177 -118q115 0 185 86q49 58 62 140t13 177v473z" />
    <glyph glyph-name="Uring" unicode="&#x16e;" horiz-adv-x="1161" 
d="M583 1806q75 0 129 -54t54 -131t-53 -130q-51 -57 -132 -57t-133 54t-52 133t55 132q57 53 132 53zM581 1726q-42 0 -73 -32t-31 -76q0 -45 31 -77t75 -32q45 0 75 32t30 77t-31 78q-34 30 -76 30zM131 555v811h123v-815q0 -141 16 -223q31 -130 114 -192t199 -62
q250 0 308 248q18 84 18 231v813h121v-815q0 -199 -33 -291q-104 -293 -411 -293q-147 0 -264 77t-164 241q-27 92 -27 270z" />
    <glyph glyph-name="uring" unicode="&#x16f;" horiz-adv-x="950" 
d="M475 1065q-78 0 -131 55t-53 131q0 75 54 129t130 54t130 -54t54 -131q0 -76 -53 -130t-131 -54zM475 1358q-45 0 -74 -32t-29 -77t30 -77q28 -32 72 -32t75 34q29 32 29 76t-31 75q-27 33 -72 33zM702 942h111v-942h-104v160q-98 -188 -287 -189q-111 -1 -185 61
t-96 177q-10 57 -10 139v594h113v-555q0 -143 21 -203q43 -121 177 -118q115 0 185 86q49 58 62 140t13 177v473z" />
    <glyph glyph-name="Uhungarumlaut" unicode="&#x170;" horiz-adv-x="1161" 
d="M815 1737h127l-203 -258h-104zM567 1737h127l-200 -258h-105zM131 555v811h123v-815q0 -141 16 -223q31 -130 114 -192t199 -62q250 0 308 248q18 84 18 231v813h121v-815q0 -199 -33 -291q-104 -293 -411 -293q-147 0 -264 77t-164 241q-27 92 -27 270z" />
    <glyph glyph-name="uhungarumlaut" unicode="&#x171;" horiz-adv-x="950" 
d="M682 1366h115l-179 -274h-100zM455 1366h112l-178 -274h-98zM702 942h111v-942h-104v160q-98 -188 -287 -189q-111 -1 -185 61t-96 177q-10 57 -10 139v594h113v-555q0 -143 21 -203q43 -121 177 -118q115 0 185 86q49 58 62 140t13 177v473z" />
    <glyph glyph-name="Uogonek" unicode="&#x172;" horiz-adv-x="1161" 
d="M758 -274q33 0 82 18v-74q-55 -20 -125 -20t-114 44t-44 105q0 92 86 172q-37 -4 -61 -4q-145 0 -258 76q-119 76 -166 242q-27 92 -27 270v811h123v-815q0 -143 16 -221q67 -256 318 -256q112 0 192 59t104 166t25 254v813h121v-815q0 -199 -33 -291q-65 -194 -237 -260
q-104 -82 -105 -174q0 -55 43 -82q27 -18 60 -18z" />
    <glyph glyph-name="uogonek" unicode="&#x173;" horiz-adv-x="950" 
d="M813 0h-2l-10 -8q-92 -70 -92 -166q0 -53 41 -82q30 -18 60 -18t77 18v-74q-53 -20 -120 -20t-110 43t-43 108q0 111 119 199h-26v160q-90 -188 -285 -189q-111 -1 -185 61t-96 177q-10 57 -10 139v594h113v-555q0 -143 21 -203q43 -121 177 -118q115 0 185 86
q49 58 62 140t13 177v473h111v-942z" />
    <glyph glyph-name="Wcircumflex" unicode="&#x174;" horiz-adv-x="1503" 
d="M807 1735l203 -260h-115l-147 188l-150 -188h-102l198 260h113zM469 0h-129l-315 1366h125l260 -1173l274 1173h137l279 -1173l260 1173h119l-316 -1366h-129l-282 1184z" />
    <glyph glyph-name="Ycircumflex" unicode="&#x176;" horiz-adv-x="1017" 
d="M563 1735l203 -260h-115l-145 188l-152 -188h-102l199 260h112zM569 0h-120v565l-451 801h141l373 -684l373 684h135l-451 -801v-565z" />
    <glyph glyph-name="ycircumflex" unicode="&#x177;" horiz-adv-x="772" 
d="M438 1366l176 -274h-108l-123 196l-127 -196h-98l172 274h108zM94 -244q9 0 27 -6q19 -6 59 -6t68 29q29 29 53 108l41 125l-330 936h121l266 -782l246 782h115l-361 -1087q-35 -105 -84 -157t-139 -52q-41 0 -82 14v96z" />
    <glyph glyph-name="Ydieresis" unicode="&#x178;" horiz-adv-x="1017" 
d="M410 1489h-119v190h119v-190zM727 1489h-119v190h119v-190zM569 0h-120v565l-451 801h141l373 -684l373 684h135l-451 -801v-565z" />
    <glyph glyph-name="Zacute" unicode="&#x179;" horiz-adv-x="1001" 
d="M600 1737h127l-201 -258h-106zM950 0h-893v115l746 1145h-692v106h825v-113l-746 -1147h760v-106z" />
    <glyph glyph-name="zacute" unicode="&#x17a;" horiz-adv-x="774" 
d="M485 1366h119l-178 -274h-102zM86 942h639v-80l-545 -768h568v-94h-699v92l539 756h-502v94z" />
    <glyph glyph-name="Zdotaccent" unicode="&#x17b;" horiz-adv-x="1001" 
d="M559 1489h-119v190h119v-190zM950 0h-893v115l746 1145h-692v106h825v-113l-746 -1147h760v-106z" />
    <glyph glyph-name="zdotaccent" unicode="&#x17c;" horiz-adv-x="774" 
d="M444 1106h-114v190h114v-190zM86 942h639v-80l-545 -768h568v-94h-699v92l539 756h-502v94z" />
    <glyph glyph-name="Zcaron" unicode="&#x17d;" horiz-adv-x="1001" 
d="M444 1475l-202 260h114l148 -191l151 191h103l-201 -260h-113zM950 0h-893v115l746 1145h-692v106h825v-113l-746 -1147h760v-106z" />
    <glyph glyph-name="zcaron" unicode="&#x17e;" horiz-adv-x="774" 
d="M334 1092l-174 274h106l125 -199l125 199h98l-172 -274h-108zM86 942h639v-80l-545 -768h568v-94h-699v92l539 756h-502v94z" />
    <glyph glyph-name="florin" unicode="&#x192;" horiz-adv-x="534" 
d="M98 848v94h148l20 150q20 150 58 208q66 96 180 97q43 0 98 -21v-102q-41 22 -89 22t-82 -34t-50 -156l-23 -164h154v-94h-168l-149 -1065h-113l149 1065h-133z" />
    <glyph glyph-name="uni01CD" unicode="&#x1cd;" horiz-adv-x="1087" 
d="M487 1475l-202 260h114l148 -191l149 191h105l-201 -260h-113zM545 1231l-226 -696h445zM20 0l459 1366h133l455 -1366h-133l-137 430h-510l-140 -430h-127z" />
    <glyph glyph-name="uni01CE" unicode="&#x1ce;" horiz-adv-x="897" 
d="M395 1092l-174 274h109l123 -199l127 199h98l-172 -274h-111zM647 420v57q-174 -10 -261 -28q-87 -17 -139 -71t-52 -131t51 -129t134 -52q82 0 152 64t92 147q22 84 23 143zM774 -10q-72 0 -96 61q-14 31 -14 101v32q-121 -213 -314 -213q-106 0 -178 64q-88 76 -88 215
t113 221q84 63 239 78q82 8 211 10v88q0 229 -205 230q-197 0 -219 -226h-102q6 147 86 232q88 88 254 88t248 -111q39 -50 46 -120t7 -165v-356q0 -85 7 -109t31 -24t54 10v-90q-43 -16 -80 -16z" />
    <glyph glyph-name="uni01D3" unicode="&#x1d3;" horiz-adv-x="1161" 
d="M526 1475l-202 260h114l148 -191l151 191h103l-201 -260h-113zM131 555v811h123v-815q0 -141 16 -223q31 -130 114 -192t199 -62q250 0 308 248q18 84 18 231v813h121v-815q0 -199 -33 -291q-104 -293 -411 -293q-147 0 -264 77t-164 241q-27 92 -27 270z" />
    <glyph glyph-name="uni01D4" unicode="&#x1d4;" horiz-adv-x="950" 
d="M422 1092l-174 274h106l125 -199l125 199h98l-172 -274h-108zM702 942h111v-942h-104v160q-98 -188 -287 -189q-111 -1 -185 61t-96 177q-10 57 -10 139v594h113v-555q0 -143 21 -203q43 -121 177 -118q115 0 185 86q49 58 62 140t13 177v473z" />
    <glyph glyph-name="Gcaron" unicode="&#x1e6;" horiz-adv-x="1251" 
d="M571 1475l-202 260h112l150 -191l149 191h103l-201 -260h-111zM86 695q0 305 152 503t397 199q143 0 260 -74q174 -104 213 -319h-127q-35 119 -90 176q-100 110 -271 110t-282 -151q-127 -179 -127 -455t117 -448q113 -162 307 -162q137 0 235 100q148 150 148 414h-383
v106h493v-694h-102v240q-139 -273 -398 -273t-415 230q-127 193 -127 498z" />
    <glyph glyph-name="gcaron" unicode="&#x1e7;" horiz-adv-x="970" 
d="M430 1092l-174 274h109l122 -199l127 199h99l-172 -274h-111zM456 877q-118 -1 -191 -99t-73 -269t66 -287t195 -116q171 0 239 201q31 88 31 199q0 172 -78 274q-71 97 -189 97zM725 942h109v-809q0 -137 -15 -196q-27 -127 -124 -209t-243 -82t-243 90q-74 68 -94 180
h116q16 -70 56 -109q66 -68 172 -67q137 0 207 113q55 86 55 239v109q-23 -53 -62 -97q-90 -92 -208 -92q-167 0 -269 131t-102 355t106 349q106 124 263 124q194 -1 276 -187v158z" />
    <glyph glyph-name="Scommaaccent" unicode="&#x218;" horiz-adv-x="1034" 
d="M455 -94h139v-111q0 -94 -37 -137t-115 -61v61q72 18 72 78v16h-59v154zM838 362q0 132 -113 207q-55 37 -241 89t-255 102q-143 98 -143 278q0 145 106 252t300 107q248 0 366 -174q49 -74 66 -191h-127q-18 109 -68 164q-82 94 -225 94t-219 -72t-76 -185
q0 -114 77 -170t222 -97t205 -61q254 -104 254 -345q0 -166 -118 -280t-317 -113q-242 0 -364 154q-82 100 -100 262h116q18 -121 82 -197q94 -110 248 -110t238 77q86 77 86 209z" />
    <glyph glyph-name="scommaaccent" unicode="&#x219;" horiz-adv-x="784" 
d="M338 -94h139v-111q0 -94 -37 -137t-114 -61v61q72 18 71 78v16h-59v154zM604 251q0 87 -78 136q-36 23 -160 57t-184 74q-96 72 -96 184t72 187q82 82 219 82q176 0 262 -123q39 -53 47 -135h-113q-29 166 -192 166q-84 -1 -135 -47t-51 -120t59 -114q40 -32 180 -70
t184 -75q98 -76 98 -200t-81 -200q-84 -82 -245 -82t-251 109q-55 67 -71 184h112q8 -76 51 -127q66 -71 164 -71q97 0 153 49t56 136z" />
    <glyph glyph-name="afii57929" unicode="&#x2bc;" horiz-adv-x="409" 
d="M135 1366h139v-149q0 -154 -36 -223t-115 -99v82q72 41 72 160v22h-60v207z" />
    <glyph glyph-name="circumflex" unicode="&#x2c6;" 
d="M565 1366l174 -274h-106l-125 196l-125 -196h-98l172 274h108z" />
    <glyph glyph-name="caron" unicode="&#x2c7;" 
d="M459 1092l-174 274h106l125 -199l125 199h98l-172 -274h-108z" />
    <glyph glyph-name="breve" unicode="&#x2d8;" horiz-adv-x="1034" 
d="M517 1092q-191 0 -222 274h78q25 -180 145 -180t144 180h77q-31 -274 -222 -274z" />
    <glyph glyph-name="dotaccent" unicode="&#x2d9;" 
d="M569 1106h-114v190h114v-190z" />
    <glyph glyph-name="ring" unicode="&#x2da;" 
d="M512 1065q-78 0 -131 55t-53 131q0 75 54 129t130 54t130 -54t54 -131q0 -76 -53 -130t-131 -54zM512 1358q-45 0 -74 -32q-28 -32 -28 -77t28 -77t73 -32q44 0 75 34q28 32 28 76t-30 75q-27 33 -72 33z" />
    <glyph glyph-name="ogonek" unicode="&#x2db;" horiz-adv-x="1036" 
d="M813 -166q0 -64 43 -90q27 -18 59 -18t78 18v-74q-55 -20 -121 -20t-109 44q-44 44 -44 107q0 109 121 199h78q-33 -25 -52 -43q-53 -59 -53 -123z" />
    <glyph glyph-name="tilde" unicode="&#x2dc;" horiz-adv-x="1036" 
d="M636 1106q-64 0 -128 64t-98 65q-66 0 -80 -123h-74q10 74 29 113q45 100 131 100q58 1 118 -61t91 -62q54 0 77 117h76q-10 -78 -35 -125q-43 -88 -107 -88z" />
    <glyph glyph-name="hungarumlaut" unicode="&#x2dd;" 
d="M727 1366h115l-178 -274h-101zM500 1366h112l-178 -274h-98z" />
    <glyph glyph-name="uni037E" unicode="&#x37e;" horiz-adv-x="409" 
d="M135 942h139v-205h-139v205zM135 205h139v-148q0 -157 -36 -225t-115 -98v82q72 43 72 161v23h-60v205z" />
    <glyph glyph-name="anoteleia" unicode="&#x387;" horiz-adv-x="397" 
d="M131 608h135v-205h-135v205z" />
    <glyph glyph-name="uni03A9" unicode="&#x3a9;" horiz-adv-x="1259" 
d="M532 0h-432v102h291q-123 92 -198 222q-106 180 -107 411q0 313 195 512q143 150 351 150t355 -158q186 -193 187 -506q0 -248 -127 -442q-72 -113 -179 -189h291v-102h-432v96q324 231 324 629q0 258 -146 434q-111 135 -275 135t-276 -135q-143 -170 -143 -436
q0 -397 321 -627v-96z" />
    <glyph glyph-name="afii10023" unicode="&#x401;" horiz-adv-x="1017" 
d="M410 1489h-119v190h119v-190zM727 1489h-119v190h119v-190zM940 0h-793v1366h787v-106h-666v-500h623v-107h-623v-547h672v-106z" />
    <glyph glyph-name="afii10051" unicode="&#x402;" horiz-adv-x="1112" 
d="M932 430q0 231 -74 348q-63 98 -172 99q-137 0 -205 -134q-47 -100 -47 -272v-471h-123v1260h-297v106h916v-106h-496v-465q90 176 256 176t260 -132q94 -133 94 -363t-57 -386t-157 -213t-207 -22v90q31 -14 59 -15q94 0 162 105q39 59 63 168q25 109 25 227z" />
    <glyph glyph-name="afii10052" unicode="&#x403;" horiz-adv-x="937" 
d="M602 1737h127l-201 -258h-106zM147 0v1366h752v-106h-631v-1260h-121z" />
    <glyph glyph-name="afii10053" unicode="&#x404;" horiz-adv-x="1181" 
d="M719 760v-107h-508q10 -209 70 -338q119 -242 350 -241q170 0 270 143q70 96 84 234h125q-23 -164 -100 -283q-135 -201 -388 -201t-409 230q-127 187 -127 495t152 506t393 199q143 0 258 -74q174 -111 207 -326h-125q-35 121 -88 181q-100 113 -254 112
q-250 0 -365 -286q-43 -107 -51 -244h506z" />
    <glyph glyph-name="afii10054" unicode="&#x405;" horiz-adv-x="1034" 
d="M838 362q0 132 -113 207q-55 37 -241 89t-255 102q-143 98 -143 278q0 145 106 252t300 107q248 0 366 -174q49 -74 66 -191h-127q-18 109 -68 164q-82 94 -225 94t-219 -72t-76 -185q0 -114 77 -170t222 -97t205 -61q254 -104 254 -345q0 -166 -118 -280t-317 -113
q-242 0 -364 154q-82 100 -100 262h116q18 -121 82 -197q94 -110 248 -110t238 77q86 77 86 209z" />
    <glyph glyph-name="afii10055" unicode="&#x406;" horiz-adv-x="417" 
d="M268 0h-121v1366h121v-1366z" />
    <glyph glyph-name="afii10056" unicode="&#x407;" horiz-adv-x="419" 
d="M150 1489h-119v190h119v-190zM391 1489h-119v190h119v-190zM270 0h-120v1366h120v-1366z" />
    <glyph glyph-name="afii10057" unicode="&#x408;" horiz-adv-x="585" 
d="M334 496v870h121v-899q0 -170 -15 -236q-59 -264 -325 -264q-45 0 -105 13v108q49 -14 105 -14q145 0 192 135q27 74 27 287z" />
    <glyph glyph-name="afii10058" unicode="&#x409;" horiz-adv-x="1654" 
d="M1133 678h-191v-572h191q115 0 163 15q94 25 142 97t49 173q0 164 -115 242q-55 33 -112 39t-127 6zM821 0v1260h-393l-104 -916q-18 -147 -54 -217q-76 -133 -264 -137v106q86 0 133 49t64 166l114 1055h625v-582h199q150 0 227 -26q115 -37 179 -130t65 -237
q0 -215 -150 -319q-63 -44 -139 -58t-182 -14h-320z" />
    <glyph glyph-name="afii10059" unicode="&#x40a;" horiz-adv-x="1742" 
d="M1221 672h-191v-566h191q115 0 163 15q94 25 142 97t49 173q0 164 -115 236q-55 33 -112 39t-127 6zM268 776h641v590h121v-590h201q145 0 225 -24q242 -81 244 -361q0 -215 -150 -319q-63 -44 -139 -58t-180 -14h-322v672h-641v-672h-121v1366h121v-590z" />
    <glyph glyph-name="afii10060" unicode="&#x40b;" horiz-adv-x="1134" 
d="M434 471v-471h-123v1260h-297v106h916v-106h-496v-465q96 176 281 176q109 1 183 -61t95 -177q10 -57 11 -139v-594h-111v555q-1 145 -23 203q-46 118 -167 119q-122 0 -184 -76t-77 -172q-8 -49 -8 -158z" />
    <glyph glyph-name="afii10061" unicode="&#x40c;" horiz-adv-x="1087" 
d="M676 1737h127l-201 -258h-106zM152 0v1366h118v-594h154l473 594h137l-510 -637l559 -729h-139l-524 676h-150v-676h-118z" />
    <glyph glyph-name="uni040D" unicode="&#x40d;" horiz-adv-x="1204" 
d="M633 1479l-203 258h127l180 -258h-104zM147 0v1366h115v-1040l678 903v137h117v-1366h-117v1047l-678 -902v-145h-115z" />
    <glyph glyph-name="afii10062" unicode="&#x40e;" horiz-adv-x="991" 
d="M518 1569q133 0 158 166h82q-33 -260 -240 -260t-237 260h81q12 -63 35 -103q39 -63 121 -63zM264 74q49 0 78 34t49 85l66 155l-457 1018h139l377 -874l369 874h129l-516 -1210q-35 -84 -87 -136t-147 -53q-39 0 -90 13v108q41 -14 90 -14z" />
    <glyph glyph-name="afii10145" unicode="&#x40f;" horiz-adv-x="1206" 
d="M543 -205v205h-396v1366h121v-1260h670v1260h121v-1366h-395v-205h-121z" />
    <glyph glyph-name="afii10017" unicode="&#x410;" horiz-adv-x="1087" 
d="M545 1231l-226 -696h445zM20 0l459 1366h133l455 -1366h-133l-137 430h-510l-140 -430h-127z" />
    <glyph glyph-name="afii10018" unicode="&#x411;" horiz-adv-x="1034" 
d="M485 678h-217v-572h217q115 0 164 15q92 25 144 96q49 72 49 174q0 168 -117 242q-51 33 -109 39t-131 6zM147 1366h752v-106h-631v-476h228q146 0 242 -32t162 -124q66 -93 67 -237q0 -215 -150 -319q-63 -44 -139 -58t-182 -14h-349v1366z" />
    <glyph glyph-name="afii10019" unicode="&#x412;" horiz-adv-x="1118" 
d="M268 657v-551h258q186 0 271 56q109 72 109 230t-130 224q-82 41 -250 41h-258zM268 1260v-500h197q162 0 244 31t125 104q31 51 30 123q0 150 -121 209q-63 33 -204 33h-271zM561 0h-414v1366h394q209 0 311 -72q135 -94 135 -266q0 -137 -94 -229q-57 -53 -148 -82
q285 -63 285 -334q0 -203 -162 -309q-110 -74 -307 -74z" />
    <glyph glyph-name="afii10020" unicode="&#x413;" horiz-adv-x="937" 
d="M147 0v1366h752v-106h-631v-1260h-121z" />
    <glyph glyph-name="afii10021" unicode="&#x414;" horiz-adv-x="1136" 
d="M864 106v1154h-422l-102 -916q-14 -119 -38 -165t-50 -73h612zM985 1366v-1260h125v-311h-125v205h-856v-205h-123v311h19q172 0 192 205l115 1055h653z" />
    <glyph glyph-name="afii10022" unicode="&#x415;" horiz-adv-x="1017" 
d="M940 0h-793v1366h787v-106h-666v-500h623v-107h-623v-547h672v-106z" />
    <glyph glyph-name="afii10024" unicode="&#x416;" horiz-adv-x="1714" 
d="M915 676v-676h-116v676h-152l-524 -676h-139l559 729l-510 637h137l473 -594h156v594h116v-594h154l473 594h139l-512 -637l562 -729h-140l-524 676h-152z" />
    <glyph glyph-name="afii10025" unicode="&#x417;" horiz-adv-x="1081" 
d="M463 653v107h67q147 0 228 49q121 78 121 208t-77 202t-224 71q-197 0 -297 -135q-43 -55 -70 -158h-125q29 176 156 288t333 112q207 1 319 -99t112 -270t-134 -260q-57 -39 -151 -57q117 -27 178 -82q107 -92 107 -263t-119 -285t-324 -114q-258 0 -393 201
q-80 119 -98 283h125q18 -154 102 -256q97 -121 251 -121t242 88t89 223q-1 98 -57 169t-167 93q-33 6 -127 6h-67z" />
    <glyph glyph-name="afii10026" unicode="&#x418;" horiz-adv-x="1204" 
d="M147 0v1366h115v-1040l678 903v137h117v-1366h-117v1047l-678 -902v-145h-115z" />
    <glyph glyph-name="afii10027" unicode="&#x419;" horiz-adv-x="1204" 
d="M610 1569q133 0 158 166h82q-33 -260 -240 -260t-237 260h82q12 -63 34 -103q39 -63 121 -63zM147 0v1366h115v-1040l678 903v137h117v-1366h-117v1047l-678 -902v-145h-115z" />
    <glyph glyph-name="afii10028" unicode="&#x41a;" horiz-adv-x="1087" 
d="M152 0v1366h118v-594h154l473 594h137l-510 -637l559 -729h-139l-524 676h-150v-676h-118z" />
    <glyph glyph-name="afii10029" unicode="&#x41b;" horiz-adv-x="1118" 
d="M971 1366v-1366h-121v1260h-422l-104 -916q-14 -147 -54 -217q-76 -133 -264 -137v106q86 0 133 49t64 166l114 1055h654z" />
    <glyph glyph-name="afii10030" unicode="&#x41c;" horiz-adv-x="1415" 
d="M262 0h-115v1366h158l406 -1192l397 1192h160v-1366h-117v1169l-385 -1169h-109l-395 1161v-1161z" />
    <glyph glyph-name="afii10031" unicode="&#x41d;" horiz-adv-x="1206" 
d="M268 0h-121v1366h121v-598h670v598h121v-1366h-121v664h-670v-664z" />
    <glyph glyph-name="afii10032" unicode="&#x41e;" horiz-adv-x="1259" 
d="M1051 680q0 268 -116 439t-303 171t-304 -167t-117 -428t98 -431q119 -190 341 -190q106 0 210 83t154 251q37 119 37 272zM86 702q0 304 154 500q154 195 393 195q241 0 391 -200t150 -499t-121 -493q-71 -117 -183 -177t-239 -61q-270 0 -422 238q-123 193 -123 497z
" />
    <glyph glyph-name="afii10033" unicode="&#x41f;" horiz-adv-x="1206" 
d="M147 1366h912v-1366h-121v1260h-670v-1260h-121v1366z" />
    <glyph glyph-name="afii10034" unicode="&#x420;" horiz-adv-x="1048" 
d="M268 1260v-572h224q180 0 256 64q94 76 94 232t-117 228q-49 33 -109 40t-131 8h-217zM268 0h-121v1366h349q146 0 242 -32t162 -125t67 -230q0 -217 -162 -324q-113 -74 -324 -73h-213v-582z" />
    <glyph glyph-name="afii10035" unicode="&#x421;" horiz-adv-x="1181" 
d="M622 -33q-253 0 -409 230q-127 187 -127 495t152 506t395 199q141 0 256 -74q172 -109 207 -326h-125q-35 121 -88 181q-100 113 -254 112q-180 0 -291 -153q-127 -177 -127 -453t117 -448q49 -74 129 -118t174 -44q170 0 270 143q70 97 84 234h125q-23 -164 -100 -283
q-135 -201 -388 -201z" />
    <glyph glyph-name="afii10036" unicode="&#x422;" horiz-adv-x="985" 
d="M555 1260v-1260h-123v1260h-397v106h915v-106h-395z" />
    <glyph glyph-name="afii10037" unicode="&#x423;" horiz-adv-x="991" 
d="M264 74q49 0 78 34t49 85l66 155l-457 1018h139l377 -874l369 874h129l-516 -1210q-35 -84 -87 -136t-147 -53q-39 0 -90 13v108q41 -14 90 -14z" />
    <glyph glyph-name="afii10038" unicode="&#x424;" horiz-adv-x="1484" 
d="M188 684q0 -227 162 -334q109 -72 332 -88v844q-494 -31 -494 -422zM801 1106v-844q493 27 493 420q1 393 -493 424zM801 1366v-162q299 -8 457 -147t157 -373q0 -352 -325 -471q-123 -45 -289 -51v-162h-119v160q-297 12 -456 149t-158 373q0 270 202 410
q154 104 412 112v162h119z" />
    <glyph glyph-name="afii10039" unicode="&#x425;" horiz-adv-x="1005" 
d="M156 0h-136l414 702l-389 664h139l320 -565l325 565h134l-392 -664l412 -702h-139l-342 598z" />
    <glyph glyph-name="afii10040" unicode="&#x426;" horiz-adv-x="1208" 
d="M1059 1366v-1260h123v-311h-123v205h-912v1366h121v-1260h670v1260h121z" />
    <glyph glyph-name="afii10041" unicode="&#x427;" horiz-adv-x="1171" 
d="M991 0v629q-18 -25 -41 -41q-111 -92 -273 -92q-161 0 -283 62t-169 196q-27 74 -26 221v391h123v-397q0 -113 18 -172q68 -197 340 -197q131 0 213 80q98 92 98 334v352h121v-1366h-121z" />
    <glyph glyph-name="afii10042" unicode="&#x428;" horiz-adv-x="1640" 
d="M1493 1366v-1366h-1346v1366h121v-1260h492v1260h121v-1260h489v1260h123z" />
    <glyph glyph-name="afii10043" unicode="&#x429;" horiz-adv-x="1642" 
d="M1493 1366v-1260h123v-311h-123v205h-1346v1366h121v-1260h492v1260h121v-1260h489v1260h123z" />
    <glyph glyph-name="afii10044" unicode="&#x42a;" horiz-adv-x="1261" 
d="M711 678h-215v-572h215q117 0 166 15q94 25 142 97t48 173q0 168 -115 242q-55 33 -112 39t-129 6zM14 1260v106h482v-582h225q152 0 225 -26q117 -37 181 -130t65 -237q0 -215 -150 -319q-63 -44 -139 -58t-182 -14h-348v1260h-359z" />
    <glyph glyph-name="afii10045" unicode="&#x42b;" horiz-adv-x="1398" 
d="M1249 0h-121v1366h121v-1366zM485 678h-217v-572h217q115 0 164 15q92 25 144 96q49 72 49 174q0 166 -117 242q-51 33 -109 39t-131 6zM147 0v1366h121v-582h228q147 0 225 -26q115 -37 180 -130t66 -237q0 -215 -150 -319q-63 -44 -139 -58t-182 -14h-349z" />
    <glyph glyph-name="afii10046" unicode="&#x42c;" horiz-adv-x="1034" 
d="M485 678h-217v-572h217q115 0 164 15q92 25 144 96q49 72 49 174q0 166 -117 242q-51 33 -109 39t-131 6zM147 0v1366h121v-582h228q147 0 225 -26q115 -37 180 -130t66 -237q0 -215 -150 -319q-63 -44 -139 -58t-182 -14h-349z" />
    <glyph glyph-name="afii10047" unicode="&#x42d;" horiz-adv-x="1181" 
d="M463 760h506q-14 170 -74 291q-121 240 -342 239q-172 0 -272 -135q-43 -55 -70 -158h-125q23 135 100 232q137 168 371 168q235 0 387 -199q152 -198 152 -522t-156 -516q-150 -193 -392 -193t-378 201q-80 119 -98 283h125q18 -154 102 -256q98 -121 250 -121t258 106
q152 156 164 473h-508v107z" />
    <glyph glyph-name="afii10048" unicode="&#x42e;" horiz-adv-x="1744" 
d="M1115 1290q-187 0 -304 -167t-117 -428t101 -429q59 -98 153 -149q76 -43 182 -43t209 82q102 82 156 254q39 117 39 272q0 268 -117 436q-115 172 -302 172zM268 768h305q11 199 93 344q160 285 446 285q246 0 393 -201q152 -201 152 -499t-121 -492
q-152 -236 -424 -238q-215 0 -356 156q-176 193 -187 541h-301v-664h-121v1366h121v-598z" />
    <glyph glyph-name="afii10049" unicode="&#x42f;" horiz-adv-x="1144" 
d="M557 1260q-299 0 -299 -261q0 -172 111 -241q67 -43 227 -43h278v545h-317zM997 1366v-1366h-123v610h-221q-190 0 -274 -59q-49 -39 -72 -107q-18 -68 -20 -168q-11 -158 -19 -198t-28 -78h-138q23 34 34 94q10 60 20 199t26 199q31 102 115 143q31 12 78 24
q-90 23 -150 89q-92 100 -92 256q0 193 135 288q100 74 287 74h442z" />
    <glyph glyph-name="afii10065" unicode="&#x430;" horiz-adv-x="897" 
d="M647 420v57q-174 -10 -261 -28q-87 -19 -138 -71t-51 -131t51 -130t133 -51q81 0 151 64t92 147q22 84 23 143zM774 -10q-72 0 -96 61q-14 31 -14 101v32q-121 -213 -314 -213q-106 0 -178 64q-88 76 -88 215t113 221q84 63 239 78q82 8 211 10v88q0 229 -205 230
q-197 0 -219 -226h-102q6 147 86 232q88 88 254 88t248 -111q39 -50 46 -120t7 -165v-356q0 -85 7 -109t31 -24t54 10v-90q-43 -16 -80 -16z" />
    <glyph glyph-name="afii10066" unicode="&#x431;" horiz-adv-x="950" 
d="M475 877q-125 0 -204 -111t-79 -294t76 -295q76 -111 207 -111t207 112t76 295q0 184 -79 294t-204 110zM662 1458h83q2 -16 3 -28q0 -102 -36 -148t-104 -65q-10 -4 -122 -34t-170 -105t-78 -142l-27 -96q25 43 76 75q87 55 203 55t210 -72q94 -73 138 -208
q33 -92 32 -219q0 -217 -102 -358t-293 -142q-143 0 -246 90q-150 137 -149 441q0 162 33 325q47 240 176 353q80 68 225 102q84 24 112 42t34 61t2 73z" />
    <glyph glyph-name="afii10067" unicode="&#x432;" horiz-adv-x="817" 
d="M383 446h-133v-352h133q131 0 182 33q84 49 84 149q0 125 -129 160q-41 10 -137 10zM401 848h-151v-307h133q233 0 233 161q0 92 -86 129q-43 17 -129 17zM137 0v942h264q158 0 228 -45q98 -57 98 -184q0 -156 -156 -213q190 -55 191 -236q0 -147 -133 -221
q-55 -29 -113 -36t-133 -7h-246z" />
    <glyph glyph-name="afii10068" unicode="&#x433;" horiz-adv-x="714" 
d="M694 848h-444v-848h-113v942h557v-94z" />
    <glyph glyph-name="afii10069" unicode="&#x434;" horiz-adv-x="929" 
d="M678 94v754h-320l-73 -608q-13 -91 -62 -146h455zM791 942v-848h110v-299h-110v205h-678v-205h-113v299h37q119 0 137 166l80 682h537z" />
    <glyph glyph-name="afii10070" unicode="&#x435;" horiz-adv-x="907" 
d="M461 881q-92 0 -164 -72q-86 -90 -104 -274h522q-4 228 -148 315q-47 31 -106 31zM461 -29q-182 0 -287 152q-94 133 -94 352t107 357t274 139q133 0 227 -92q139 -134 141 -435h-636q4 -139 45 -225q70 -153 238 -153t231 210h108q-23 -100 -74 -170q-98 -135 -280 -135
z" />
    <glyph glyph-name="afii10072" unicode="&#x436;" horiz-adv-x="1232" 
d="M670 453v-453h-109v453h-90l-352 -453h-111l381 502l-354 440h110l324 -405h92v405h109v-405h94l323 405h111l-356 -440l381 -502h-113l-350 453h-90z" />
    <glyph glyph-name="afii10073" unicode="&#x437;" horiz-adv-x="831" 
d="M438 877q-200 0 -243 -197h-115q27 147 125 219t228 72t212 -51q109 -72 109 -205q0 -160 -174 -217q188 -53 188 -238q0 -145 -111 -225q-83 -63 -235 -63t-245 92q-93 94 -105 237h112q33 -236 250 -235q115 0 168 60t53 136q0 111 -86 156q-57 29 -141 28h-88v95h88
q104 0 158 47t55 128q0 81 -58 121t-145 40z" />
    <glyph glyph-name="afii10074" unicode="&#x438;" horiz-adv-x="956" 
d="M709 942h110v-942h-110v696l-459 -604v-92h-113v942h113v-696l459 600v96z" />
    <glyph glyph-name="afii10075" unicode="&#x439;" horiz-adv-x="956" 
d="M497 1092q-191 0 -223 274h78q24 -180 144 -180t145 180h78q-31 -274 -222 -274zM709 942h110v-942h-110v696l-459 -604v-92h-113v942h113v-696l459 600v96z" />
    <glyph glyph-name="afii10076" unicode="&#x43a;" horiz-adv-x="890" 
d="M252 0h-113v942h113v-405h137l326 405h123l-357 -440l379 -502h-123l-350 453h-135v-453z" />
    <glyph glyph-name="afii10077" unicode="&#x43b;" horiz-adv-x="901" 
d="M653 848h-319l-74 -608q-31 -250 -254 -250v94q123 0 146 176l77 682h537v-942h-113v848z" />
    <glyph glyph-name="afii10078" unicode="&#x43c;" horiz-adv-x="1142" 
d="M1006 942v-942h-111v778l-281 -778h-100l-264 778v-778h-113v942h162l266 -790l281 790h160z" />
    <glyph glyph-name="afii10079" unicode="&#x43d;" horiz-adv-x="956" 
d="M709 446h-459v-446h-113v942h113v-401h459v401h110v-942h-110v446z" />
    <glyph glyph-name="afii10080" unicode="&#x43e;" horiz-adv-x="950" 
d="M475 877q-125 0 -204 -111t-79 -294t76 -295q76 -111 207 -111t207 112t76 295q0 184 -79 294t-204 110zM475 971q195 0 301 -156q94 -133 94 -347t-102 -355t-292 -141t-298 145q-98 137 -98 352t94 346q106 156 301 156z" />
    <glyph glyph-name="afii10081" unicode="&#x43f;" horiz-adv-x="956" 
d="M709 848h-459v-848h-113v942h682v-942h-110v848z" />
    <glyph glyph-name="afii10082" unicode="&#x440;" horiz-adv-x="987" 
d="M520 877q-122 0 -198 -110t-76 -297t78 -302q74 -102 204 -102t198 116q69 116 69 296q0 179 -76 292q-76 107 -199 107zM552 -29q-224 0 -302 185v-510h-113v1296h105v-166q70 195 304 195q154 0 258 -133q104 -132 103 -364q0 -232 -98 -368q-99 -135 -257 -135z" />
    <glyph glyph-name="afii10083" unicode="&#x441;" horiz-adv-x="878" 
d="M684 680q-44 197 -230 197q-114 0 -188 -111t-74 -295t74 -295q72 -110 195 -110t190 108q31 53 43 127h115q-10 -102 -66 -186q-94 -143 -279 -143q-184 0 -284 142t-100 353t95 357t290 147q158 0 254 -115q59 -72 80 -176h-115z" />
    <glyph glyph-name="afii10084" unicode="&#x442;" horiz-adv-x="645" 
d="M639 848h-260v-848h-113v848h-260v94h633v-94z" />
    <glyph glyph-name="afii10085" unicode="&#x443;" horiz-adv-x="772" 
d="M94 -244q9 0 27 -6q19 -6 59 -6t68 29q29 29 53 108l41 125l-330 936h121l266 -782l246 782h115l-361 -1087q-35 -105 -84 -157t-139 -52q-41 0 -82 14v96z" />
    <glyph glyph-name="afii10086" unicode="&#x444;" horiz-adv-x="1300" 
d="M910 877q-79 0 -134 -82q-70 -107 -70 -331t80 -331q53 -67 131 -67q79 0 137 100t58 313t-72 322q-51 76 -130 76zM383 877q-78 -1 -137 -101q-60 -100 -60 -313t74 -320q53 -77 132 -77t130 81q72 109 72 331t-80 331q-53 68 -131 68zM707 1366v-528q20 43 59 75
q66 57 152 58q125 0 210 -115q96 -133 96 -395t-114 -395q-82 -94 -192 -95q-139 0 -211 133v-458h-113v458q-72 -133 -205 -133t-223 124t-90 387t112 395q82 94 182 94t165 -58q39 -33 59 -75v528h113z" />
    <glyph glyph-name="afii10087" unicode="&#x445;" horiz-adv-x="790" 
d="M135 0h-127l318 496l-293 446h135l223 -350l230 350h129l-293 -438l323 -504h-135l-256 403z" />
    <glyph glyph-name="afii10088" unicode="&#x446;" horiz-adv-x="958" 
d="M819 942v-848h113v-299h-113v205h-682v942h113v-848h459v848h110z" />
    <glyph glyph-name="afii10089" unicode="&#x447;" horiz-adv-x="970" 
d="M721 0v446q-92 -96 -283 -96t-276 107q-53 63 -53 190v295h112v-256q0 -113 28 -155q58 -87 214 -87q258 0 258 324v174h110v-942h-110z" />
    <glyph glyph-name="afii10090" unicode="&#x448;" horiz-adv-x="1308" 
d="M711 942v-848h348v848h112v-942h-1034v942h113v-848h348v848h113z" />
    <glyph glyph-name="afii10091" unicode="&#x449;" horiz-adv-x="1310" 
d="M1171 -205v205h-1034v942h113v-848h348v848h113v-848h348v848h112v-848h113v-299h-113z" />
    <glyph glyph-name="afii10092" unicode="&#x44a;" horiz-adv-x="927" 
d="M549 467h-166v-373h147q113 0 160 27q90 49 90 161t-75 154q-54 31 -156 31zM0 848v94h383v-381h174q135 0 211 -45q125 -70 125 -217t-92 -227q-66 -55 -162 -68q-37 -4 -100 -4h-267v848h-272z" />
    <glyph glyph-name="afii10093" unicode="&#x44b;" horiz-adv-x="1155" 
d="M1018 0h-113v942h113v-942zM645 289q0 178 -231 178h-164v-373h145q113 0 160 27q90 49 90 168zM401 0h-264v942h113v-381h172q137 0 213 -45q123 -70 123 -217t-92 -227q-66 -55 -162 -68q-37 -4 -103 -4z" />
    <glyph glyph-name="afii10094" unicode="&#x44c;" horiz-adv-x="790" 
d="M645 289q0 178 -231 178h-164v-373h145q113 0 160 27q90 49 90 168zM401 0h-264v942h113v-381h172q137 0 213 -45q123 -70 123 -217t-92 -227q-66 -55 -162 -68q-37 -4 -103 -4z" />
    <glyph glyph-name="afii10095" unicode="&#x44d;" horiz-adv-x="878" 
d="M340 541h342q-10 109 -41 174q-76 162 -225 162q-174 0 -221 -197h-115q20 104 80 176q96 115 254 115q193 -1 289 -147t96 -357q1 -211 -99 -353t-294 -142t-285 169q-43 76 -49 160h112q14 -84 56 -143q63 -92 176 -92q164 0 235 182q33 82 35 198h-346v95z" />
    <glyph glyph-name="afii10096" unicode="&#x44e;" horiz-adv-x="1349" 
d="M874 877q-126 0 -204 -111t-78 -294t76 -295q76 -111 206 -111t207 112q76 112 76 295q0 184 -79 294t-204 110zM250 541h231q8 115 58 215q104 215 335 215q195 0 302 -156q94 -133 94 -347t-102 -355t-294 -142q-248 0 -348 240q-43 100 -47 235h-229v-446h-113v942
h113v-401z" />
    <glyph glyph-name="afii10097" unicode="&#x44f;" horiz-adv-x="862" 
d="M449 475h165v373h-145q-113 0 -162 -25q-88 -45 -88 -157t74 -158q47 -33 156 -33zM461 942h264v-942h-111v381h-174q-100 0 -151 -39q-51 -33 -56 -155q-4 -121 -10 -139t-18 -48h-117q16 22 22 56t13 124q8 152 67 203q37 35 107 43q-190 43 -191 242q0 137 91 209
q66 53 161 61q37 4 103 4z" />
    <glyph glyph-name="afii10071" unicode="&#x451;" horiz-adv-x="907" 
d="M365 1106h-115v190h115v-190zM659 1106h-116v190h116v-190zM461 881q-92 0 -164 -72q-86 -90 -104 -274h522q-4 228 -148 315q-47 31 -106 31zM461 -29q-182 0 -287 152q-94 133 -94 352t107 357t274 139q133 0 227 -92q139 -134 141 -435h-636q4 -139 45 -225
q70 -153 238 -153t231 210h108q-23 -100 -74 -170q-98 -135 -280 -135z" />
    <glyph glyph-name="afii10099" unicode="&#x452;" horiz-adv-x="892" 
d="M250 471v-471h-113v1147h-108v90h108v129h113v-129h242v-90h-242v-352q87 174 252 176q143 0 229 -131q86 -130 86 -360t-56 -388t-165 -221q-60 -31 -108 -31t-91 15v90q31 -14 60 -15q154 0 225 273q23 113 23 229q-1 228 -61 336t-157 109q-127 0 -192 -134
q-45 -96 -45 -272z" />
    <glyph glyph-name="afii10100" unicode="&#x453;" horiz-adv-x="714" 
d="M504 1366h119l-179 -274h-102zM694 848h-444v-848h-113v942h557v-94z" />
    <glyph glyph-name="afii10101" unicode="&#x454;" horiz-adv-x="878" 
d="M541 541v-95h-348q6 -131 47 -223q74 -158 225 -157q119 0 186 108q31 53 43 127h115q-10 -102 -66 -186q-94 -143 -279 -143q-184 0 -284 142t-100 353t95 357t290 147q158 0 256 -115q59 -72 80 -176h-117q-45 197 -217 197t-242 -193q-18 -51 -28 -143h344z" />
    <glyph glyph-name="afii10102" unicode="&#x455;" horiz-adv-x="784" 
d="M604 251q0 87 -78 136q-36 23 -160 57t-184 74q-96 72 -96 184t72 187q82 82 219 82q176 0 262 -123q39 -53 47 -135h-113q-29 166 -192 166q-84 -1 -135 -47t-51 -120t59 -114q40 -32 180 -70t184 -75q98 -76 98 -200t-81 -200q-84 -82 -245 -82t-251 109
q-55 67 -71 184h112q8 -76 51 -127q66 -71 164 -71q97 0 153 49t56 136z" />
    <glyph glyph-name="afii10103" unicode="&#x456;" horiz-adv-x="395" 
d="M254 0h-113v942h113v-942zM254 1174h-113v192h113v-192z" />
    <glyph glyph-name="afii10104" unicode="&#x457;" horiz-adv-x="397" 
d="M133 1106h-115v190h115v-190zM379 1106h-115v190h115v-190zM254 0h-113v942h113v-942z" />
    <glyph glyph-name="afii10105" unicode="&#x458;" horiz-adv-x="391" 
d="M250 1174h-113v192h113v-192zM137 -47v989h113v-985q0 -166 -31 -223q-45 -88 -166 -88q-35 0 -61 8v96q25 -6 45 -6q84 0 96 84q4 49 4 125z" />
    <glyph glyph-name="afii10106" unicode="&#x459;" horiz-adv-x="1218" 
d="M1100 289q0 178 -232 178h-137v-373h119q113 0 160 27q90 49 90 168zM618 0v848h-292l-72 -608q-35 -250 -254 -250v94q125 0 143 176l80 682h508v-381h146q137 0 213 -45q120 -72 120 -218t-90 -226q-66 -55 -162 -68q-37 -4 -102 -4h-238z" />
    <glyph glyph-name="afii10107" unicode="&#x45a;" horiz-adv-x="1280" 
d="M1159 285q0 172 -229 172h-137v-363h116q115 0 162 27q88 45 88 164zM680 0v457h-430v-457h-113v942h113v-391h430v391h113v-391h145q133 0 213 -43q121 -72 121 -215t-90 -223q-66 -53 -162 -68q-18 -2 -102 -2h-238z" />
    <glyph glyph-name="afii10108" unicode="&#x45b;" horiz-adv-x="950" 
d="M137 0v1147h-108v90h108v129h113v-129h242v-90h-242v-352q92 176 280 176q111 0 189 -66q72 -57 92 -172q8 -47 8 -139v-594h-110v555q-1 145 -23 203q-46 118 -167 119q-122 0 -184 -76t-77 -172q-8 -49 -8 -158v-471h-113z" />
    <glyph glyph-name="afii10109" unicode="&#x45c;" horiz-adv-x="890" 
d="M578 1366h118l-178 -274h-102zM252 0h-113v942h113v-405h137l326 405h123l-357 -440l379 -502h-123l-350 453h-135v-453z" />
    <glyph glyph-name="uni045D" unicode="&#x45d;" horiz-adv-x="956" 
d="M471 1092l-178 274h119l161 -274h-102zM709 942h110v-942h-110v696l-459 -604v-92h-113v942h113v-696l459 600v96z" />
    <glyph glyph-name="afii10110" unicode="&#x45e;" horiz-adv-x="772" 
d="M396 1092q-191 0 -222 274h78q24 -180 144 -180t145 180h77q-31 -274 -222 -274zM94 -244q9 0 27 -6q19 -6 59 -6t68 29q29 29 53 108l41 125l-330 936h121l266 -782l246 782h115l-361 -1087q-35 -105 -84 -157t-139 -52q-41 0 -82 14v96z" />
    <glyph glyph-name="afii10193" unicode="&#x45f;" horiz-adv-x="956" 
d="M819 0h-284v-205h-113v205h-285v942h113v-848h459v848h110v-942z" />
    <glyph glyph-name="afii10050" unicode="&#x490;" horiz-adv-x="937" 
d="M778 1489h121v-229h-631v-1260h-121v1366h631v123z" />
    <glyph glyph-name="afii10098" unicode="&#x491;" horiz-adv-x="714" 
d="M582 1051h112v-203h-444v-848h-113v942h445v109z" />
    <glyph glyph-name="uni04C0" unicode="&#x4c0;" horiz-adv-x="417" 
d="M268 0h-121v1366h121v-1366z" />
    <glyph glyph-name="Wdieresis" unicode="&#x1e84;" horiz-adv-x="1503" 
d="M653 1489h-118v190h118v-190zM971 1489h-119v190h119v-190zM469 0h-129l-315 1366h125l260 -1173l274 1173h137l279 -1173l260 1173h119l-316 -1366h-129l-282 1184z" />
    <glyph glyph-name="uni2010" unicode="&#x2010;" horiz-adv-x="403" 
d="M8 559h387v-104h-387v104z" />
    <glyph glyph-name="uni2011" unicode="&#x2011;" horiz-adv-x="403" 
d="M8 559h387v-104h-387v104z" />
    <glyph glyph-name="figuredash" unicode="&#x2012;" horiz-adv-x="966" 
d="M121 559h725v-104h-725v104z" />
    <glyph glyph-name="endash" unicode="&#x2013;" horiz-adv-x="966" 
d="M121 559h725v-104h-725v104z" />
    <glyph glyph-name="emdash" unicode="&#x2014;" horiz-adv-x="1429" 
d="M141 559h1151v-104h-1151v104z" />
    <glyph glyph-name="afii00208" unicode="&#x2015;" horiz-adv-x="1429" 
d="M141 559h1151v-104h-1151v104z" />
    <glyph glyph-name="quoteleft" unicode="&#x2018;" horiz-adv-x="409" 
d="M274 915h-139v148q0 153 38 225t114 98v-81q-72 -41 -72 -162v-25h59v-203z" />
    <glyph glyph-name="quoteright" unicode="&#x2019;" horiz-adv-x="409" 
d="M135 1366h139v-149q0 -154 -36 -223t-115 -99v82q72 41 72 160v22h-60v207z" />
    <glyph glyph-name="quotesinglbase" unicode="&#x201a;" horiz-adv-x="409" 
d="M135 205h139v-148q0 -157 -36 -225t-115 -98v82q72 43 72 161v23h-60v205z" />
    <glyph glyph-name="quotereversed" unicode="&#x201b;" horiz-adv-x="395" 
 />
    <glyph glyph-name="quotedblleft" unicode="&#x201c;" horiz-adv-x="661" 
d="M526 915h-139v148q0 158 37 221q37 72 115 102v-81q-72 -43 -72 -162v-25h59v-203zM274 915h-139v148q0 153 38 225t114 98v-81q-72 -41 -72 -162v-25h59v-203z" />
    <glyph glyph-name="quotedblright" unicode="&#x201d;" horiz-adv-x="661" 
d="M387 1366h139v-149q0 -154 -37 -223t-114 -99v82q72 41 71 160v22h-59v207zM135 1366h139v-149q0 -154 -36 -223t-115 -99v82q72 41 72 160v22h-60v207z" />
    <glyph glyph-name="quotedblbase" unicode="&#x201e;" horiz-adv-x="661" 
d="M387 205h139v-148q0 -157 -37 -225t-114 -98v82q72 43 71 161v23h-59v205zM135 205h139v-148q0 -157 -36 -225t-115 -98v82q72 43 72 161v23h-60v205z" />
    <glyph glyph-name="dagger" unicode="&#x2020;" horiz-adv-x="964" 
d="M530 942h324v-100h-324v-1196h-102v1196h-317v100h317v424h102v-424z" />
    <glyph glyph-name="daggerdbl" unicode="&#x2021;" horiz-adv-x="964" 
d="M530 961h324v-103h-324v-690h324v-102h-324v-420h-102v420h-317v102h317v690h-317v103h317v405h102v-405z" />
    <glyph glyph-name="bullet" unicode="&#x2022;" horiz-adv-x="1366" 
d="M685 979q116 0 200 -84t84 -201q0 -116 -84 -200t-200 -84t-200 84t-84 200t84 201q84 84 200 84z" />
    <glyph glyph-name="ellipsis" unicode="&#x2026;" horiz-adv-x="1220" 
d="M946 205h139v-205h-139v205zM541 205h139v-205h-139v205zM135 205h139v-205h-139v205z" />
    <glyph glyph-name="perthousand" unicode="&#x2030;" horiz-adv-x="2451" 
d="M1320 748q-106 0 -171 -93q-68 -92 -68 -238q0 -145 62 -245t170 -100t174 90q65 96 65 247t-63 245t-169 94zM983 421q-1 181 93 299t242 118t241 -120q92 -120 92 -300t-74 -293q-92 -143 -259 -143t-259 143q-76 115 -76 296zM1190 1366l-586 -1366h-98l588 1366h96z
M380 1292q-105 0 -171 -91t-66 -236q-1 -145 59 -247t170 -102t175 91q65 97 65 249t-64 244t-168 92zM379 1384q147 0 239 -120t92 -300q0 -178 -73 -294q-92 -144 -258 -144t-260 144q-74 117 -74 298q-1 180 93 298t241 118zM2075 748q-104 0 -171 -92t-67 -239
q0 -145 60 -245t171 -100t173 90q67 94 67 244t-64 246t-169 96zM2073 838q147 0 241 -119q92 -121 92 -301t-73 -293q-92 -143 -259 -143t-259 143q-74 115 -74 295t90 299q95 119 242 119z" />
    <glyph glyph-name="guilsinglleft" unicode="&#x2039;" horiz-adv-x="442" 
d="M311 332v-133l-221 247v115l221 250v-131l-151 -174z" />
    <glyph glyph-name="guilsinglright" unicode="&#x203a;" horiz-adv-x="442" 
d="M131 678v133l221 -248v-114l-221 -250v131l152 176z" />
    <glyph glyph-name="uni203E" unicode="&#x203e;" 
d="M68 1475v104h886v-104h-886z" />
    <glyph glyph-name="fraction" unicode="&#x2044;" horiz-adv-x="401" 
d="M543 1366l-586 -1366h-96l588 1366h94z" />
    <glyph glyph-name="zerosuperior" unicode="&#x2070;" horiz-adv-x="622" 
d="M311 1298q-151 0 -151 -343t152 -343t151 343q0 343 -152 343zM313 1380q121 0 187 -123q55 -102 55 -309q-1 -207 -65 -313t-177 -107q-246 0 -245 418q0 210 62 322t183 112z" />
    <glyph glyph-name="foursuperior" unicode="&#x2074;" horiz-adv-x="544" 
d="M334 838v368l-232 -368h232zM414 547h-80v217h-309v76l317 526h72v-528h96v-74h-96v-217z" />
    <glyph glyph-name="fivesuperior" unicode="&#x2075;" horiz-adv-x="587" 
d="M485 1366v-86h-282l-37 -223q55 43 123 43q100 0 165 -75q64 -75 64 -207t-71 -210t-175 -78q-135 0 -192 101q-31 57 -33 133h88q12 -152 139 -152q66 0 107 56q45 57 45 147t-41 150q-41 53 -117 53t-127 -94l-73 12l65 430h352z" />
    <glyph glyph-name="sixsuperior" unicode="&#x2076;" horiz-adv-x="616" 
d="M310 1008q-70 0 -106 -58t-36 -138q0 -79 39 -139q39 -61 107 -61t105 60q38 60 38 141q0 80 -37 133q-39 62 -110 62zM315 1090q96 0 165 -72t69 -199t-65 -208q-64 -81 -176 -81t-173 95q-67 100 -67 317t68 328t188 110q74 0 129 -43t67 -125l6 -34h-88
q-23 121 -119 120q-81 0 -117 -87t-44 -212q61 91 157 91z" />
    <glyph glyph-name="sevensuperior" unicode="&#x2077;" horiz-adv-x="528" 
d="M131 547q0 329 158 590q29 49 96 141h-344v88h446v-80q-135 -166 -197 -339t-65 -400h-94z" />
    <glyph glyph-name="eightsuperior" unicode="&#x2078;" horiz-adv-x="614" 
d="M307 952q-67 0 -107 -46t-40 -129t42 -126t110 -43t104 49q37 49 37 126t-39 123t-107 46zM308 1298q-58 0 -92 -34t-34 -96t34 -97t92 -35t90 37t32 95t-29 94q-35 36 -93 36zM424 999q121 -63 121 -233q0 -100 -70 -170q-61 -68 -167 -68t-173 68t-67 176t61 180
q18 20 59 47q-94 55 -94 165t68 167q55 49 145 49q91 0 151 -53t60 -159t-94 -169z" />
    <glyph glyph-name="ninesuperior" unicode="&#x2079;" horiz-adv-x="616" 
d="M302 1298q-70 0 -106 -60t-36 -139t39 -137t109 -58t105 58q36 58 36 138t-39 139t-108 59zM297 612q82 0 118 88t44 211q-72 -90 -162 -90t-156 66q-73 80 -73 203q0 122 61 206t175 84t175 -94q70 -100 70 -317t-69 -329t-187 -112q-76 0 -132 45t-71 125l-4 35h88
q23 -121 123 -121z" />
    <glyph glyph-name="parenleftsuperior" unicode="&#x207d;" horiz-adv-x="376" 
d="M82 871q0 261 137 505h76l-21 -39q-44 -81 -74 -207t-30 -268q0 -264 125 -512h-76q-137 260 -137 521z" />
    <glyph glyph-name="parenrightsuperior" unicode="&#x207e;" horiz-adv-x="376" 
d="M209 859q0 259 -127 517h76q29 -53 57 -125q80 -186 80 -387q0 -272 -137 -514h-76q127 250 127 509z" />
    <glyph glyph-name="nsuperior" unicode="&#x207f;" horiz-adv-x="638" 
d="M199 547h-90v571h86v-61q61 80 160 80t147 -84q29 -53 28 -150v-356h-90v334q0 86 -14 120q-20 57 -82 57t-104 -48q-41 -49 -41 -176v-287z" />
    <glyph glyph-name="zeroinferior" unicode="&#x2080;" horiz-adv-x="622" 
d="M463 409q0 343 -152 343q-151 0 -151 -344t151 -342q152 0 152 343zM312 836q122 0 188 -123q55 -102 55 -310q-1 -207 -65 -313t-177 -106q-246 0 -245 417q0 207 61 321t183 114z" />
    <glyph glyph-name="oneinferior" unicode="&#x2081;" horiz-adv-x="395" 
d="M252 819v-819h-92v633q-30 -23 -50 -27t-75 -8v76q127 -4 143 145h74z" />
    <glyph glyph-name="twoinferior" unicode="&#x2082;" horiz-adv-x="571" 
d="M510 84v-84h-461q0 104 32 179t109 140q27 23 117 84q49 35 82 89t33 116q0 60 -37 104t-107 44t-112 -60q-23 -33 -27 -98h-92q6 72 29 117q59 123 207 123q113 0 176 -76q55 -63 55 -165t-80 -185q-42 -43 -162 -127t-122 -201h360z" />
    <glyph glyph-name="threeinferior" unicode="&#x2083;" horiz-adv-x="579" 
d="M41 227v17h86q0 -180 149 -181q70 0 109 46q45 45 45 127t-49 122t-115 39q-18 0 -43 -2v80h39q53 0 99 35q47 34 47 104t-36 105t-96 35q-135 0 -135 -150h-84q2 96 43 150q57 82 167 82t170 -58t61 -153q0 -125 -107 -183q129 -53 129 -209q0 -115 -66 -182t-175 -67
q-147 0 -207 108q-31 55 -31 135z" />
    <glyph glyph-name="fourinferior" unicode="&#x2084;" horiz-adv-x="544" 
d="M334 291v371l-232 -371h232zM414 0h-80v217h-309v76l317 526h72v-528h96v-74h-96v-217z" />
    <glyph glyph-name="fiveinferior" unicode="&#x2085;" horiz-adv-x="587" 
d="M485 819v-86h-282l-37 -223q53 45 138 45t147 -74q67 -77 67 -209t-71 -210t-175 -78q-133 0 -192 102q-31 53 -33 131h88q12 -152 139 -151q66 0 109 56t43 146t-41 150q-41 53 -117 53t-127 -92l-73 10l65 430h352z" />
    <glyph glyph-name="sixinferior" unicode="&#x2086;" horiz-adv-x="616" 
d="M310 461q-70 -1 -106 -59t-36 -138t39 -139t107 -59t105 60q38 60 38 139t-38 137t-109 59zM319 752q-82 0 -122 -97q-29 -68 -39 -202q68 90 160 90t162 -72q69 -72 69 -199q0 -128 -65 -208q-64 -80 -176 -80t-176 98t-64 314t68 328t188 112q74 0 129 -44t67 -126
l6 -35h-88l-4 12q-16 109 -115 109z" />
    <glyph glyph-name="seveninferior" unicode="&#x2087;" horiz-adv-x="528" 
d="M131 0q0 329 158 590q29 49 96 141h-344v88h446v-80q-137 -168 -197 -340t-65 -399h-94z" />
    <glyph glyph-name="eightinferior" unicode="&#x2088;" horiz-adv-x="614" 
d="M453 236q0 76 -38 124t-107 48q-68 0 -108 -46t-40 -130t43 -128t109 -43q66 -1 104 49q37 50 37 126zM308 752q-58 0 -92 -34t-34 -96t34 -98t92 -35q58 0 90 36q32 35 32 95t-29 95q-35 37 -93 37zM94 618q0 108 62 162q62 56 151 56q91 0 151 -54t60 -147
q0 -121 -94 -182q45 -23 72 -62q49 -67 49 -169t-70 -173q-61 -65 -167 -65t-174 66q-66 66 -66 176q0 109 61 180q18 20 59 47q-94 57 -94 165z" />
    <glyph glyph-name="nineinferior" unicode="&#x2089;" horiz-adv-x="616" 
d="M302 752q-70 0 -106 -60t-36 -141q0 -80 37 -131q39 -64 109 -64t106 58q37 58 37 141q0 82 -39 135q-39 62 -108 62zM304 836q114 0 175 -97q70 -100 70 -317t-69 -328t-187 -110q-76 0 -131 43t-72 125l-4 36h88q23 -123 123 -122q143 0 162 299q-72 -91 -163 -91
t-160 72q-68 72 -68 197t61 209t175 84z" />
    <glyph glyph-name="franc" unicode="&#x20a3;" horiz-adv-x="1189" 
d="M883 0h-113v829h107v-204q57 152 165 204q61 29 146 29v-119q-16 2 -31 2q-127 0 -205 -110q-51 -70 -63 -187q-6 -59 -6 -172v-272zM229 0h-118v1366h727v-102h-609v-435h406v-102h-406v-727z" />
    <glyph glyph-name="lira" unicode="&#x20a4;" horiz-adv-x="833" 
d="M240 1224q-64 -70 -64 -170q0 -99 70 -223q70 -125 92 -176h295v-100h-271q6 -73 3 -90h268v-100h-287q-39 -117 -137 -222q117 81 193 37q26 -16 82 -56t100 -40q94 0 106 152h107q-5 -115 -59 -190t-158 -75q-51 0 -88 19q-27 8 -70 43q-72 47 -130 47t-145 -55
l-55 -39l-51 77q150 137 188 302h-174v100h189q0 49 -8 90h-181v100h148q-47 86 -72 125q-76 131 -76 258q0 162 115 265q96 90 250 90q233 0 323 -183q39 -86 43 -196h-116q-11 282 -250 280q-116 0 -180 -70z" />
    <glyph glyph-name="peseta" unicode="&#x20a7;" horiz-adv-x="1900" 
d="M1574 47q81 0 125 40t44 111t-64 109q-33 20 -151 51q-207 59 -207 211q0 86 57 146q70 66 178 65q141 0 213 -98q31 -47 39 -111h-92q-20 135 -155 136q-72 0 -113 -40q-41 -39 -41 -97t49 -93q33 -20 125 -49q131 -35 172 -68q80 -61 80 -160t-69 -164
q-68 -65 -198 -65t-200 88q-47 60 -59 150h90q8 -61 43 -103q53 -59 134 -59zM1073 682h-115v76h115v143l76 100h14v-243h137v-76h-137v-489q0 -80 8 -99q14 -39 70 -39q29 0 59 8v-75q-43 -12 -77 -13q-98 0 -131 64q-18 35 -19 162v481zM268 1260v-572h224q180 0 256 64
q94 76 94 232t-117 228q-49 33 -109 40t-131 8h-217zM268 0h-121v1366h349q146 0 242 -32t162 -125t67 -230q0 -217 -162 -324q-113 -74 -324 -73h-213v-582z" />
    <glyph glyph-name="Euro" unicode="&#x20ac;" horiz-adv-x="1187" 
d="M725 1290q-258 0 -373 -286q-25 -57 -41 -152h627l-39 -100h-600v-140h551l-39 -100h-500q18 -106 60 -197q113 -242 354 -241q117 0 199 57q45 33 110 121l86 -66q-63 -90 -121 -135q-115 -84 -295 -84t-313 125q-170 158 -207 420h-157l36 100h111q-2 23 -2 55t4 85
h-149l36 100h123q25 156 88 268q152 276 455 277q213 0 361 -135l-41 -111q-154 139 -324 139z" />
    <glyph glyph-name="uni2101" unicode="&#x2101;" horiz-adv-x="1658" 
d="M1237 1366l-584 -1366h-98l590 1366h92zM1323 68q76 0 122 42t46 114t-59 112q-28 18 -138 50t-151 60q-88 62 -88 160t59 162q70 70 188 70t184 -64t81 -172h-97q-8 45 -20 74q-43 76 -133 76t-129 -39t-39 -99t40 -91q39 -31 155 -63t157 -63q88 -63 88 -169
q-1 -106 -73 -177q-72 -70 -191 -69q-172 0 -244 127q-29 49 -39 139h91q25 -180 190 -180zM389 1237l-115 -356h228zM68 547l274 819h94l275 -819h-103l-80 250h-280l-80 -250h-100z" />
    <glyph glyph-name="afii61352" unicode="&#x2116;" horiz-adv-x="1695" 
d="M1575 620q0 104 -44 164q-44 62 -115 62q-70 0 -114 -62t-44 -166t45 -163q41 -61 115 -61t114 61q43 61 43 165zM1416 938q124 0 194 -98q59 -88 59 -223q1 -135 -65 -225t-188 -91q-122 0 -188 91q-66 90 -65 226q0 136 62 222q67 98 191 98zM1163 227h506v-90h-506v90
zM262 0h-115v1366h132l661 -1169v1169h117v-1366h-131l-664 1163v-1163z" />
    <glyph glyph-name="trademark" unicode="&#x2122;" horiz-adv-x="1439" 
d="M756 547h-90v819h120l232 -680l227 680h121v-819h-90v653l-217 -653h-80l-223 651v-651zM342 1282v-735h-92v735h-236v84h564v-84h-236z" />
    <glyph glyph-name="Ohm" unicode="&#x2126;" horiz-adv-x="1259" 
d="M532 0h-432v102h291q-123 92 -198 222q-106 180 -107 411q0 313 195 512q143 150 351 150t355 -158q186 -193 187 -506q0 -248 -127 -442q-72 -113 -179 -189h291v-102h-432v96q324 231 324 629q0 258 -146 434q-111 135 -275 135t-276 -135q-143 -170 -143 -436
q0 -397 321 -627v-96z" />
    <glyph glyph-name="estimated" unicode="&#x212e;" horiz-adv-x="907" 
d="M461 881q-92 0 -164 -72q-86 -90 -104 -274h522q-4 228 -148 315q-47 31 -106 31zM461 -29q-182 0 -287 152q-94 133 -94 352t107 357t274 139q133 0 227 -92q139 -134 141 -435h-636q4 -139 45 -225q70 -153 238 -153t231 210h108q-23 -100 -74 -170q-98 -135 -280 -135
z" />
    <glyph glyph-name="onethird" unicode="&#x2153;" horiz-adv-x="1241" 
d="M692 227v17h86q0 -180 150 -181q70 0 108 46q45 45 45 127t-49 122t-114 39q-18 0 -44 -2v80h39q53 0 99 35q46 34 47 104q0 70 -36 105t-95 35q-135 0 -135 -150h-84q2 96 43 150q56 82 166 82t170 -58t61 -153q0 -125 -107 -183q129 -53 129 -209q0 -115 -66 -182
t-175 -67q-147 0 -207 108q-31 55 -31 135zM870 1366l-583 -1366h-99l588 1366h94zM254 547h-92v633q-30 -23 -52 -28t-75 -7v74q131 0 143 147h76v-819z" />
    <glyph glyph-name="twothirds" unicode="&#x2154;" horiz-adv-x="1411" 
d="M510 629v-82h-461q9 174 77 255q40 48 125 108t116 96q57 66 57 138t-37 115t-109 43t-112 -59q-23 -33 -27 -96h-92q6 70 29 115q57 123 207 122q115 0 174 -69t59 -172t-82 -185q-32 -34 -156 -122t-126 -207h358zM860 227v17h86q2 -180 150 -181q70 0 108 46
q45 45 45 127t-57 129q-39 33 -105 32q-20 0 -43 -2v80h37q57 0 93 29q53 40 53 110t-36 105t-93 35q-137 0 -137 -150h-84q2 96 43 150q60 82 168 82t170 -60t61 -151q0 -125 -107 -183q129 -53 129 -209q0 -111 -71 -186q-63 -63 -172 -63q-145 0 -205 108q-33 53 -33 135
zM1038 1366l-583 -1366h-99l588 1366h94z" />
    <glyph glyph-name="oneeighth" unicode="&#x215b;" horiz-adv-x="1220" 
d="M1061 236q0 76 -40 124t-107 48q-66 0 -106 -46t-40 -130t43 -128t109 -43q66 -1 104 49t37 126zM915 752q-57 0 -91 -34t-34 -96t34 -98q32 -36 89 -35q57 0 93 37q30 38 30 96t-28 93q-36 37 -93 37zM1153 233q0 -113 -70 -184q-61 -65 -167 -65t-174 66
q-66 66 -66 176q0 109 61 180q19 20 60 47q-97 59 -97 165t68 168q59 50 147 50t150 -56t61 -145q0 -121 -94 -182q121 -76 121 -220zM877 1366l-586 -1366h-96l587 1366h95zM254 547h-92v633q-30 -23 -52 -28t-75 -7v74q131 0 143 147h76v-819z" />
    <glyph glyph-name="threeeighths" unicode="&#x215c;" horiz-adv-x="1368" 
d="M252 1022h37q53 0 99 35t46 105t-36 104q-36 35 -95 34q-133 0 -133 -149h-86q2 96 43 149q59 80 169 80t170 -57q58 -57 58 -152q0 -127 -104 -182q129 -51 129 -209q0 -116 -69 -184t-175 -68q-145 0 -207 111q-30 53 -30 133v16h86q2 -178 149 -178q68 0 111 45
t43 128t-58 128q-41 33 -104 33l-43 -4v82zM1063 408q-68 0 -108 -46t-40 -130q-1 -84 43 -128t110 -43q66 -1 104 49q37 50 36 126q0 76 -38 124t-107 48zM1064 752q-58 0 -92 -34t-34 -96t33 -98t90 -35q57 0 91 36q34 35 34 95t-32 96t-90 36zM1300 233q0 -111 -67 -184
q-65 -65 -171 -65t-172 66t-67 176q0 109 62 180q18 20 59 47q-94 57 -94 165t62 162q62 56 150 56t150 -56t62 -145q0 -121 -94 -182q120 -72 120 -220zM1024 1366l-586 -1366h-96l588 1366h94z" />
    <glyph glyph-name="fiveeighths" unicode="&#x215d;" horiz-adv-x="1343" 
d="M506 1366v-86h-285l-37 -223q59 43 125 43q100 0 165 -75t65 -207t-71 -210t-175 -78q-135 0 -193 101q-31 57 -32 133h88q12 -152 139 -152q66 0 106 56q45 57 45 147t-40 150q-41 53 -117 53t-127 -94l-76 12l68 430h352zM1037 408q-69 0 -107 -46t-39 -130
q0 -84 41 -128q40 -44 108 -43t106 51t38 126t-39 120q-39 50 -108 50zM913 623q0 -61 33 -97t91 -37q58 0 90 36q32 35 32 95t-31 96t-89 36t-92 -34t-34 -95zM1276 222q0 -102 -68 -170t-173 -68t-169 63q-68 72 -68 179t60 180q21 22 62 47q-96 59 -96 165t69 168
q53 50 143 50t152 -56t61 -145q0 -121 -96 -182q45 -23 72 -62q51 -67 51 -169zM997 1366l-583 -1366h-99l588 1366h94z" />
    <glyph glyph-name="seveneighths" unicode="&#x215e;" horiz-adv-x="1224" 
d="M139 547q0 332 156 590q43 70 96 141h-344v88h449v-80q-135 -164 -199 -343t-66 -396h-92zM919 408q-69 0 -109 -46t-40 -130q0 -82 42 -126t110 -45q68 1 106 51t37 126q0 76 -39 120q-38 50 -107 50zM921 752q-59 0 -93 -34t-34 -96t34 -98q32 -36 90 -35q58 0 92 37
q30 38 30 96t-30 94t-89 36zM705 618q0 106 67 168q60 50 148 50t150 -56t60 -145q0 -121 -96 -182q45 -23 72 -62q49 -69 49 -169t-68 -173q-66 -65 -171 -65q-104 0 -170 68t-66 174q0 107 59 180q23 22 62 47q-96 59 -96 165zM840 1366l-586 -1366h-96l587 1366h95z" />
    <glyph glyph-name="partialdiff" unicode="&#x2202;" horiz-adv-x="950" 
d="M475 877q-125 0 -204 -111t-79 -294t76 -295q76 -111 207 -111t207 112t76 295q0 184 -79 294t-204 110zM870 458q0 -204 -102 -345t-292 -141t-298 145q-98 137 -98 352t94 346q108 157 298 155q89 0 165 -55q-86 141 -113 177q-98 133 -252 239l43 64q152 -74 287 -228
q112 -123 190 -313q78 -192 78 -396z" />
    <glyph glyph-name="increment" unicode="&#x2206;" horiz-adv-x="1087" 
d="M899 104l-354 1127l-365 -1127h719zM1067 0h-1047l459 1366h133z" />
    <glyph glyph-name="product" unicode="&#x220f;" horiz-adv-x="1347" 
d="M41 1419v117h1266v-117h-152v-1814h152v-117h-441v117h162v1814h-709v-1814h160v-117h-438v117h154v1814h-154z" />
    <glyph glyph-name="summation" unicode="&#x2211;" horiz-adv-x="1366" 
d="M72 1536h1138v-455h-106l-10 346h-895l516 -872l-516 -961h913l6 347h111v-453h-1157v125l506 942l-506 860v121z" />
    <glyph glyph-name="minus" unicode="&#x2212;" 
d="M68 637v104h886v-104h-886z" />
    <glyph glyph-name="uni2215" unicode="&#x2215;" horiz-adv-x="401" 
d="M543 1366l-586 -1366h-96l588 1366h94z" />
    <glyph glyph-name="radical" unicode="&#x221a;" horiz-adv-x="1366" 
d="M1366 1694v-99h-410l-489 -1595h-121l-188 625h-158v98h229l172 -576l469 1547h496z" />
    <glyph glyph-name="infinity" unicode="&#x221e;" horiz-adv-x="1366" 
d="M340 918q-90 0 -147 -60t-57 -164t62 -160q64 -56 144 -57q123 0 225 127q23 27 43 62l23 30q-14 23 -23 31q-49 74 -102 125q-78 66 -168 66zM1024 477q86 1 145 63t59 162t-62 156q-64 56 -144 57q-123 0 -225 -127q-23 -27 -43 -61q-21 -27 -21 -31l27 -40
q15 -22 47 -60q98 -119 217 -119zM336 1001q188 0 346 -241q59 88 94 125q111 117 254 117t225 -101q70 -82 70 -212t-83 -213t-216 -83t-244 115q-45 45 -98 127q-53 -76 -98 -125q-106 -119 -250 -119t-225 101q-72 84 -72 210t81 212q81 87 216 87z" />
    <glyph glyph-name="integral" unicode="&#x222b;" 
d="M338 -403q80 0 104 57q16 37 17 186v1325q0 185 16 243q17 58 73 93t112 35t135 -23l-27 -106q-43 20 -82 20q-78 0 -102 -55q-18 -37 -19 -160v-1378q0 -129 -8 -176q-12 -84 -84 -127q-71 -43 -127 -43t-117 23l29 106q39 -20 80 -20z" />
    <glyph glyph-name="uni2236" unicode="&#x2236;" horiz-adv-x="1161" 
d="M483 963q0 39 29 67t69 29q41 0 69 -29q28 -30 28 -68t-29 -67t-69 -29t-68 29q-29 29 -29 68zM581 528q41 0 69 -28t28 -69q0 -40 -28 -68q-28 -27 -70 -27t-69 28q-28 28 -28 67q0 41 29 69t69 28z" />
    <glyph glyph-name="approxequal" unicode="&#x2248;" 
d="M293 651q80 0 235 -82q100 -49 136 -61t69 -12q72 0 118 46t81 107l69 -47q-37 -72 -81 -127q-80 -90 -187 -90q-57 1 -111 23t-136 65q-84 43 -121 56t-93 13q-90 1 -180 -155l-69 47q39 78 79 123q80 94 191 94zM293 975q79 1 205 -65t162 -78t90 -12t99 43
q44 44 83 112l69 -47q-39 -76 -81 -127q-80 -90 -176 -90t-252 86q-137 70 -205 69q-107 1 -195 -153l-69 47q39 76 79 123q80 92 191 92z" />
    <glyph glyph-name="notequal" unicode="&#x2260;" 
d="M68 502v104h333l99 168h-432v105h491l129 221l90 -51l-96 -170h272v-105h-333l-97 -168h430v-104h-491l-127 -223l-92 53l98 170h-274z" />
    <glyph glyph-name="lessequal" unicode="&#x2264;" 
d="M68 289h886v-109h-886v109zM68 823l886 367v-117l-753 -305l753 -303v-117l-886 369v106z" />
    <glyph glyph-name="greaterequal" unicode="&#x2265;" 
d="M68 180v109h886v-109h-886zM68 1073v117l886 -367v-106l-886 -369v117l753 303z" />
    <glyph glyph-name="dotmath" unicode="&#x22c5;" horiz-adv-x="397" 
d="M131 608h135v-205h-135v205z" />
    <glyph glyph-name="lozenge" unicode="&#x25ca;" horiz-adv-x="1366" 
d="M1085 682l-403 555l-403 -555l403 -555zM152 682l530 737l532 -737l-532 -735z" />
    <glyph glyph-name="uniEA31" unicode="&#xea31;" horiz-adv-x="964" 
d="M481 793q143 0 245 101q102 100 101 246q1 146 -103 246t-245 101t-242 -101t-101 -246t100 -246q102 -101 245 -101zM481 1554q172 0 293 -120t121 -293q0 -172 -120 -294t-293 -122t-294 124t-120 296q0 105 58 207t156 152t199 50zM486 893q-96 0 -148 80
q-45 63 -45 169t51 176t146 68q95 0 143 -92q8 -18 18 -63h-63q-15 52 -41 76q-27 20 -72 20t-82 -51t-37 -137t37 -142q35 -47 90 -47q95 0 109 125h63q-10 -66 -26 -96q-47 -86 -143 -86z" />
    <glyph glyph-name="uniEA32" unicode="&#xea32;" horiz-adv-x="964" 
d="M481 793q143 0 245 101q102 100 101 246q1 146 -103 246t-245 101t-242 -101t-101 -246t100 -246q102 -101 245 -101zM481 1554q172 0 293 -120t121 -293q0 -172 -120 -294t-293 -122t-294 124t-120 296q0 105 58 207t156 152t199 50zM485 1161q99 0 99 82q0 76 -86 76
h-95v-158h82zM498 1376q149 0 149 -136q0 -68 -55 -107q46 -28 49 -123q2 -47 8 -76l19 -31h-72l-10 15q-6 16 -10 85t-33 89q-25 12 -76 12h-64v-201h-61v473h156z" />
    <glyph glyph-name="uniEA3F" unicode="&#xea3f;" 
d="M442 1366h140v-111q0 -96 -37 -138t-115 -60v59q72 23 72 80v16h-60v154z" />
    <glyph glyph-name="uniEA4F" unicode="&#xea4f;" 
d="M569 1059h-139v108q0 97 37 139t115 60v-59q-72 -23 -72 -80v-17h59v-151z" />
    <glyph glyph-name="uniEA66" unicode="&#xea66;" 
d="M442 -94h140v-111q0 -94 -37 -137t-115 -61v61q72 18 72 78v16h-60v154z" />
    <glyph glyph-name="uniEA67" unicode="&#xea67;" 
d="M442 1366h140v-111q0 -96 -37 -138t-115 -60v59q72 23 72 80v16h-60v154z" />
    <glyph glyph-name="uniEA68" unicode="&#xea68;" 
d="M451 1489h-119v190h119v-190zM692 1489h-119v190h119v-190z" />
    <glyph glyph-name="uniEA69" unicode="&#xea69;" 
d="M442 -94h140v-111q0 -94 -37 -137t-115 -61v61q72 18 72 78v16h-60v154z" />
    <glyph glyph-name="uniEA6A" unicode="&#xea6a;" 
d="M446 1106h-114v190h114v-190zM692 1106h-114v190h114v-190z" />
    <glyph glyph-name="uniEA71" unicode="&#xea71;" horiz-adv-x="1032" 
d="M268 1260v-238h570q-16 104 -70 158t-141 71q-39 8 -142 9h-217zM268 932v-244h224q207 0 284 90q52 60 64 154h-572zM147 0v932h-81v90h81v344h349q178 0 276 -47q172 -84 193 -297h67v-90h-67q-13 -131 -89 -213t-173 -110t-222 -27h-213v-582h-121z" />
    <glyph glyph-name="uniEA72" unicode="&#xea72;" horiz-adv-x="548" 
d="M68 649v72h411v-72h-411zM324 807h-76v422q-25 -12 -76 -17h-10v66h16q72 0 82 98h64v-569zM446 70v-70h-325q0 119 38 168q39 49 99 91t88 76t27 81q0 46 -23 72t-65 26q-88 0 -90 -106h-76v18q6 63 47 110q41 48 120 48t122 -50t43 -122t-58 -129q-20 -25 -102 -81
t-88 -132h243z" />
    <glyph glyph-name="uniEA73" unicode="&#xea73;" horiz-adv-x="548" 
d="M305 211v221l-137 -221h137zM68 649v72h411v-72h-411zM324 807h-76v422q-25 -12 -76 -17h-10v66h16q72 0 82 98h64v-569zM375 0h-70v147h-209v62l217 360h62v-358h65v-64h-65v-147z" />
    <glyph glyph-name="uniEA74" unicode="&#xea74;" horiz-adv-x="548" 
d="M305 211v221l-137 -221h137zM68 649v72h411v-72h-411zM121 985h72q0 -123 94 -123q45 0 71 31t27 83q0 52 -32 76t-70 23h-19q-6 -2 -18 -2v70h35q33 -1 61 21t27 66q0 44 -24 66t-56 23q-82 0 -86 -102h-72q6 170 158 169q70 0 114 -40q41 -41 41 -117t-63 -115
q80 -41 80 -132t-48 -139t-132 -48t-131 65q-29 41 -29 125zM375 0h-70v147h-209v62l217 360h62v-358h65v-64h-65v-147z" />
    <glyph glyph-name="Dotaccent" unicode="&#xefed;" 
d="M571 1489h-118v190h118v-190z" />
    <glyph glyph-name="Breve" unicode="&#xefee;" horiz-adv-x="1116" 
d="M557 1569q133 0 158 166h82q-33 -260 -240 -260t-238 260h82q12 -63 35 -103q39 -63 121 -63z" />
    <glyph glyph-name="Ogonek" unicode="&#xeff1;" horiz-adv-x="1036" 
d="M811 -166q0 -64 43 -90q35 -18 65 -18t78 18v-74q-55 -20 -123 -20t-113 44q-46 44 -46 105q0 113 125 201h80q-33 -23 -54 -43q-55 -59 -55 -123z" />
    <glyph glyph-name="Cedilla" unicode="&#xeff2;" horiz-adv-x="1036" 
d="M584 -246q0 82 -78 82q-37 0 -49 -31h-90l75 195h82l-45 -109q18 9 61 9q42 0 92 -34t50 -102t-43 -110q-43 -43 -128 -43t-128 51q-23 25 -25 51h95q10 -41 57 -41q74 0 74 82z" />
    <glyph glyph-name="Ring" unicode="&#xeff3;" horiz-adv-x="1036" 
d="M519 1806q75 0 129 -54t54 -131t-53 -130q-51 -57 -131 -57t-133 54t-53 133t55 132q57 53 132 53zM518 1726q-43 0 -74 -32q-30 -32 -30 -76q0 -45 30 -78q31 -31 75 -31t75 32t31 77t-31 78q-33 30 -76 30z" />
    <glyph glyph-name="Tilde" unicode="&#xeff5;" horiz-adv-x="1036" 
d="M631 1509q-53 -1 -121 49t-102 50q-63 0 -82 -99h-80q10 61 30 101q47 92 130 92q60 0 126 -48t93 -48q59 0 82 98h81q-8 -70 -34 -115q-45 -80 -123 -80z" />
    <glyph glyph-name="Circumflex" unicode="&#xeff7;" horiz-adv-x="1036" 
d="M573 1735l203 -260h-112l-150 188l-149 -188h-105l201 260h112z" />
    <glyph glyph-name="Acute" unicode="&#xf6c9;" 
d="M612 1737h127l-200 -258h-107z" />
    <glyph glyph-name="Caron" unicode="&#xf6ca;" horiz-adv-x="1036" 
d="M463 1475l-203 260h115l147 -191l152 191h102l-201 -260h-112z" />
    <glyph glyph-name="Dieresis" unicode="&#xf6cb;" 
d="M414 1489h-119v190h119v-190zM731 1489h-119v190h119v-190z" />
    <glyph glyph-name="Grave" unicode="&#xf6ce;" 
d="M485 1479l-200 258h125l182 -258h-107z" />
    <glyph glyph-name="Hungarumlaut" unicode="&#xf6cf;" 
d="M723 1737h127l-203 -258h-104zM475 1737h127l-201 -258h-104z" />
    <glyph glyph-name="Macron" unicode="&#xf6d0;" horiz-adv-x="1036" 
d="M252 1587h534v-86h-534v86z" />
    <glyph glyph-name="fi" unicode="&#xfb01;" horiz-adv-x="868" 
d="M727 0h-113v942h113v-942zM727 1174h-113v192h113v-192zM279 0h-113v848h-137v94h137v150q0 150 29 206q55 98 170 99q43 0 98 -21v-102q-39 20 -85 20t-75 -34q-25 -35 -24 -154v-164h163v-94h-163v-848z" />
    <glyph glyph-name="fl" unicode="&#xfb02;" horiz-adv-x="868" 
d="M727 0h-113v1366h113v-1366zM279 0h-113v848h-137v94h137v150q0 150 29 206q55 98 170 99q43 0 98 -21v-102q-39 20 -85 20t-75 -34q-25 -35 -24 -154v-164h163v-94h-163v-848z" />
    </font>
</defs>
</svg>
